<?xml version="1.0" encoding="UTF-8" standalone="no"?>
<!-- Generator: Adobe Illustrator 23.0.4, SVG Export Plug-In . SVG Version: 6.00 Build 0)  -->

<svg
   xmlns:dc="http://purl.org/dc/elements/1.1/"
   xmlns:cc="http://creativecommons.org/ns#"
   xmlns:rdf="http://www.w3.org/1999/02/22-rdf-syntax-ns#"
   xmlns:svg="http://www.w3.org/2000/svg"
   xmlns="http://www.w3.org/2000/svg"
   xmlns:sodipodi="http://sodipodi.sourceforge.net/DTD/sodipodi-0.dtd"
   xmlns:inkscape="http://www.inkscape.org/namespaces/inkscape"
   version="1.1"
   id="Camada_1"
   x="0px"
   y="0px"
   viewBox="0 0 212.8 192.5"
   xml:space="preserve"
   sodipodi:docname="icone_meusdados_.svg"
   width="212.8"
   height="192.5"
   inkscape:version="0.92.4 (unknown)"><metadata
   id="metadata5101"><rdf:RDF><cc:Work
       rdf:about=""><dc:format>image/svg+xml</dc:format><dc:type
         rdf:resource="http://purl.org/dc/dcmitype/StillImage" /></cc:Work></rdf:RDF></metadata><defs
   id="defs5099" /><sodipodi:namedview
   pagecolor="#ffffff"
   bordercolor="#666666"
   borderopacity="1"
   objecttolerance="10"
   gridtolerance="10"
   guidetolerance="10"
   inkscape:pageopacity="0"
   inkscape:pageshadow="2"
   inkscape:window-width="767"
   inkscape:window-height="480"
   id="namedview5097"
   showgrid="false"
   inkscape:zoom="0.56324582"
   inkscape:cx="96.1"
   inkscape:cy="121"
   inkscape:window-x="243"
   inkscape:window-y="286"
   inkscape:window-maximized="0"
   inkscape:current-layer="Camada_1" />
<style
   type="text/css"
   id="style5076">
	.st0{fill:none;stroke:#FFBD17;stroke-width:6;stroke-miterlimit:10;}
	.st1{fill:#FFBD17;}
	.st2{fill:#758596;}
</style>
<path
   class="st0"
   d="m 22.8,166.1 c 0,11.8 9.5,21.3 21.3,21.3 h 144.4 c 11.8,0 21.3,-9.5 21.3,-21.3 V 26.5 C 209.8,14.7 200.3,5.2 188.5,5.2 H 44.1 c -11.8,0 -21.3,9.5 -21.3,21.3 z"
   id="path5078"
   inkscape:connector-curvature="0"
   style="fill:none;stroke:#ffbd17;stroke-width:6;stroke-miterlimit:10" />
<g
   id="g5084"
   transform="translate(-166.9,-138)">
	<path
   class="st1"
   d="m 283.1,177.3 c 15.3,0 27.8,12.4 27.8,27.8 0,15.3 -12.4,27.8 -27.8,27.8 -15.3,0 -27.8,-12.4 -27.8,-27.8 0.1,-15.3 12.5,-27.8 27.8,-27.8 z"
   id="path5080"
   inkscape:connector-curvature="0"
   style="fill:#ffbd17" />
	<path
   class="st1"
   d="m 283.1,246.8 c -27.8,0 -50.3,22.5 -50.3,50.3 h 100.7 c 0,-27.8 -22.6,-50.3 -50.4,-50.3 z"
   id="path5082"
   inkscape:connector-curvature="0"
   style="fill:#ffbd17" />
</g>
<g
   id="g5092"
   transform="translate(-166.9,-138)">
	<g
   id="g5090">
		<path
   class="st2"
   d="m 265.5,231.8 c -18.2,0 -32.9,-14.8 -32.9,-32.9 0,-18.2 14.8,-32.9 32.9,-32.9 18.2,0 32.9,14.8 32.9,32.9 0,18.1 -14.7,32.9 -32.9,32.9 z m 0,-55.6 c -12.5,0 -22.6,10.1 -22.6,22.6 0,12.5 10.1,22.6 22.6,22.6 12.5,0 22.6,-10.1 22.6,-22.6 0,-12.4 -10.1,-22.6 -22.6,-22.6 z"
   id="path5086"
   inkscape:connector-curvature="0"
   style="fill:#758596" />
		<path
   class="st2"
   d="M 321,296 H 210 v -5.2 c 0,-30.6 24.9,-55.5 55.5,-55.5 30.6,0 55.5,24.9 55.5,55.5 z M 220.6,285.7 h 89.8 c -2.6,-22.5 -21.7,-40 -44.9,-40 -23.2,0 -42.3,17.5 -44.9,40 z"
   id="path5088"
   inkscape:connector-curvature="0"
   style="fill:#758596" />
	</g>
</g>
<path
   class="st2"
   d="M 170.8,192.5 H 26.4 C 11.8,192.5 0,180.6 0,166 V 26.5 C 0,11.9 11.9,0 26.4,0 h 144.4 c 14.6,0 26.5,11.9 26.5,26.5 v 139.6 c -0.1,14.6 -11.9,26.4 -26.5,26.4 z M 26.4,10.3 c -8.9,0 -16.1,7.2 -16.1,16.1 V 166 c 0,8.9 7.2,16.1 16.1,16.1 h 144.4 c 8.9,0 16.1,-7.2 16.1,-16.1 V 26.5 c 0,-8.9 -7.2,-16.1 -16.1,-16.1 H 26.4 Z"
   id="path5094"
   inkscape:connector-curvature="0"
   style="fill:#758596" />
</svg>