<?xml version="1.0" encoding="UTF-8" standalone="no"?>
<!-- Generator: Adobe Illustrator 23.0.4, SVG Export Plug-In . SVG Version: 6.00 Build 0)  -->

<svg
   xmlns:dc="http://purl.org/dc/elements/1.1/"
   xmlns:cc="http://creativecommons.org/ns#"
   xmlns:rdf="http://www.w3.org/1999/02/22-rdf-syntax-ns#"
   xmlns:svg="http://www.w3.org/2000/svg"
   xmlns="http://www.w3.org/2000/svg"
   xmlns:sodipodi="http://sodipodi.sourceforge.net/DTD/sodipodi-0.dtd"
   xmlns:inkscape="http://www.inkscape.org/namespaces/inkscape"
   version="1.1"
   id="Camada_1"
   x="0px"
   y="0px"
   viewBox="0 0 180.7 181"
   xml:space="preserve"
   sodipodi:docname="icone_agenda1.svg"
   width="180.7"
   height="181"
   inkscape:version="0.92.4 (unknown)"><metadata
   id="metadata214"><rdf:RDF><cc:Work
       rdf:about=""><dc:format>image/svg+xml</dc:format><dc:type
         rdf:resource="http://purl.org/dc/dcmitype/StillImage" /><dc:title></dc:title></cc:Work></rdf:RDF></metadata><defs
   id="defs212" /><sodipodi:namedview
   pagecolor="#ffffff"
   bordercolor="#666666"
   borderopacity="1"
   objecttolerance="10"
   gridtolerance="10"
   guidetolerance="10"
   inkscape:pageopacity="0"
   inkscape:pageshadow="2"
   inkscape:window-width="1920"
   inkscape:window-height="960"
   id="namedview210"
   showgrid="false"
   inkscape:zoom="0.56324582"
   inkscape:cx="-282.4"
   inkscape:cy="-162.5"
   inkscape:window-x="0"
   inkscape:window-y="27"
   inkscape:window-maximized="1"
   inkscape:current-layer="Camada_1" />
<style
   type="text/css"
   id="style167">
	.st0{fill:#F7FBFB;}
</style>
<g
   id="g207"
   transform="translate(-181.8,-114)">
	<g
   id="g205">
		<path
   class="st0"
   d="m 359.3,163.1 c -1.8,0 -3.2,-1.4 -3.2,-3.2 v -12.1 c 0,-6.5 -4.5,-11.8 -10.1,-11.8 h -19.6 c -1.8,0 -3.2,-1.4 -3.2,-3.2 0,-1.8 1.4,-3.2 3.2,-3.2 H 346 c 9.1,0 16.5,8.2 16.5,18.2 v 12.1 c 0,1.8 -1.5,3.2 -3.2,3.2 z"
   id="path169"
   inkscape:connector-curvature="0"
   style="fill:#f7fbfb" />
		<path
   class="st0"
   d="m 307.2,136 h -67.3 c -1.8,0 -3.2,-1.4 -3.2,-3.2 0,-1.8 1.4,-3.2 3.2,-3.2 h 67.3 c 1.8,0 3.2,1.4 3.2,3.2 -0.1,1.8 -1.5,3.2 -3.2,3.2 z"
   id="path171"
   inkscape:connector-curvature="0"
   style="fill:#f7fbfb" />
		<path
   class="st0"
   d="m 217,136 h -18.2 c -1.8,0 -3.2,-1.4 -3.2,-3.2 0,-1.8 1.4,-3.2 3.2,-3.2 H 217 c 1.8,0 3.2,1.4 3.2,3.2 0,1.8 -1.5,3.2 -3.2,3.2 z"
   id="path173"
   inkscape:connector-curvature="0"
   style="fill:#f7fbfb" />
		<path
   class="st0"
   d="m 185,163.3 c -1.8,0 -3.2,-1.4 -3.2,-3.2 v -12.2 c 0,-9.4 6.9,-17.4 15.7,-18.2 h 0.3 1.2 c 1.8,0 3.2,1.4 3.2,3.2 0,1.8 -1.4,3.2 -3.2,3.2 h -1 c -5.5,0.6 -9.7,5.7 -9.7,11.8 v 12.2 c -0.2,1.8 -1.6,3.2 -3.3,3.2 z"
   id="path175"
   inkscape:connector-curvature="0"
   style="fill:#f7fbfb" />
		<path
   class="st0"
   d="M 229.4,199.8 H 214 c -3.4,0 -6.2,-2.8 -6.2,-6.2 v -15.4 c 0,-3.4 2.8,-6.2 6.2,-6.2 h 15.4 c 3.4,0 6.2,2.8 6.2,6.2 v 15.3 c 0.1,1.6 -0.5,3.1 -1.6,4.3 -1.2,1.3 -2.8,2 -4.6,2 z m -15.2,-6.4 h 15 v -15 h -15 z"
   id="path177"
   inkscape:connector-curvature="0"
   style="fill:#f7fbfb" />
		<path
   class="st0"
   d="m 280.6,199.8 h -15.4 c -3.4,0 -6.2,-2.8 -6.2,-6.2 v -15.4 c 0,-3.4 2.8,-6.2 6.2,-6.2 h 15.4 c 3.4,0 6.2,2.8 6.2,6.2 v 15.4 c -0.1,3.5 -2.8,6.2 -6.2,6.2 z m -15.2,-6.4 h 15 v -15 h -15 z"
   id="path179"
   inkscape:connector-curvature="0"
   style="fill:#f7fbfb" />
		<path
   class="st0"
   d="M 329.4,199.8 H 314 c -3.4,0 -6.2,-2.8 -6.2,-6.2 v -15.4 c 0,-3.4 2.8,-6.2 6.2,-6.2 h 15.4 c 3.4,0 6.2,2.8 6.2,6.2 v 15.4 c 0,3.5 -2.8,6.2 -6.2,6.2 z m -15.2,-6.4 h 15 v -15 h -15 z"
   id="path181"
   inkscape:connector-curvature="0"
   style="fill:#f7fbfb" />
		<path
   class="st0"
   d="m 280.7,237.9 h -15.4 c -3.4,0 -6.2,-2.8 -6.2,-6.2 v -15.5 c 0,-3.4 2.8,-6.2 6.2,-6.2 h 15.4 c 3.4,0 6.2,2.8 6.2,6.2 v 15.4 c -0.1,3.5 -2.8,6.3 -6.2,6.3 z m -15.2,-6.4 h 15 v -15.1 h -15 z"
   id="path183"
   inkscape:connector-curvature="0"
   style="fill:#f7fbfb" />
		<path
   class="st0"
   d="M 237.2,142.9"
   id="path185"
   inkscape:connector-curvature="0"
   style="fill:#f7fbfb" />
		<path
   class="st0"
   d="M 224.3,142.9"
   id="path187"
   inkscape:connector-curvature="0"
   style="fill:#f7fbfb" />
		<path
   class="st0"
   d="m 318.4,148.6 h -4.7 c -4.9,0 -8.8,-4 -8.8,-8.8 V 119 c 0,-2.8 2.2,-5 5,-5 h 12.3 c 2.8,0 5,2.2 5,5 v 20.8 c -0.1,4.9 -4,8.8 -8.8,8.8 z m -7.1,-28.2 v 19.4 c 0,1.3 1.1,2.4 2.4,2.4 h 4.7 c 1.3,0 2.4,-1.1 2.4,-2.5 v -19.3 z"
   id="path189"
   inkscape:connector-curvature="0"
   style="fill:#f7fbfb" />
		<path
   class="st0"
   d="m 229.8,148.6 h -4.7 c -4.9,0 -8.8,-4 -8.8,-8.8 V 119 c 0,-2.8 2.2,-5 5,-5 h 12.3 c 2.8,0 5,2.2 5,5 v 20.7 c 0.1,4.9 -3.9,8.9 -8.8,8.9 z m -7.1,-28.2 v 19.4 c 0,1.3 1.1,2.4 2.4,2.4 h 4.7 c 1.3,0 2.4,-1.1 2.4,-2.4 v -19.4 z"
   id="path191"
   inkscape:connector-curvature="0"
   style="fill:#f7fbfb" />
		<path
   class="st0"
   d="m 280.6,275.9 h -15.4 c -3.4,0 -6.2,-2.8 -6.2,-6.2 v -15.4 c 0,-3.4 2.8,-6.2 6.2,-6.2 h 15.4 c 3.4,0 6.2,2.8 6.2,6.2 v 15.4 c -0.1,3.3 -2.9,6.2 -6.2,6.2 z m -15.2,-6.4 h 15 v -15 h -15 z"
   id="path193"
   inkscape:connector-curvature="0"
   style="fill:#f7fbfb" />
		<path
   class="st0"
   d="M 348.7,295 H 195.3 c -7.5,0 -13.5,-6.1 -13.5,-13.5 V 157 h 180.5 v 124.4 c -0.1,7.5 -6.1,13.6 -13.6,13.6 z M 188.1,163.4 v 118 c 0,3.9 3.2,7.2 7.2,7.2 h 153.4 c 3.9,0 7.2,-3.2 7.2,-7.2 v -118 H 188.1 Z"
   id="path195"
   inkscape:connector-curvature="0"
   style="fill:#f7fbfb" />
		<path
   class="st0"
   d="m 322.7,238.9 c -8.2,0 -14.9,-6.7 -14.9,-14.9 0,-8.2 6.7,-14.9 14.9,-14.9 8.2,0 14.9,6.7 14.9,14.9 0,8.2 -6.7,14.9 -14.9,14.9 z m 0,-23.4 c -4.7,0 -8.5,3.8 -8.5,8.5 0,4.7 3.8,8.5 8.5,8.5 4.7,0 8.5,-3.8 8.5,-8.5 0,-4.7 -3.8,-8.5 -8.5,-8.5 z"
   id="path197"
   inkscape:connector-curvature="0"
   style="fill:#f7fbfb" />
		<path
   class="st0"
   d="M 229.4,237.4 H 214 c -3.4,0 -6.2,-2.8 -6.2,-6.2 v -15.4 c 0,-3.4 2.8,-6.2 6.2,-6.2 h 15.4 c 3.4,0 6.2,2.8 6.2,6.2 v 15.4 c 0,3.4 -2.8,6.2 -6.2,6.2 z m -15.2,-6.3 h 15 v -15 h -15 z"
   id="path199"
   inkscape:connector-curvature="0"
   style="fill:#f7fbfb" />
		<path
   class="st0"
   d="M 229.4,275.9 H 214 c -3.4,0 -6.2,-2.8 -6.2,-6.2 v -15.4 c 0,-3.4 2.8,-6.2 6.2,-6.2 h 15.4 c 3.4,0 6.2,2.8 6.2,6.2 v 15.4 c 0,3.3 -2.8,6.2 -6.2,6.2 z m -15.2,-6.4 h 15 v -15 h -15 z"
   id="path201"
   inkscape:connector-curvature="0"
   style="fill:#f7fbfb" />
		<path
   class="st0"
   d="M 330.4,275.3 H 315 c -3.4,0 -6.2,-2.8 -6.2,-6.2 v -15.4 c 0,-3.4 2.8,-6.2 6.2,-6.2 h 15.4 c 3.4,0 6.2,2.8 6.2,6.2 v 15.4 c 0,3.4 -2.9,6.2 -6.2,6.2 z m -15.2,-6.4 h 15 v -15 h -15 z"
   id="path203"
   inkscape:connector-curvature="0"
   style="fill:#f7fbfb" />
	</g>
</g>
</svg>