<?xml version="1.0" encoding="UTF-8" standalone="no"?>
<!-- Generator: Adobe Illustrator 23.0.4, SVG Export Plug-In . SVG Version: 6.00 Build 0)  -->

<svg
   xmlns:dc="http://purl.org/dc/elements/1.1/"
   xmlns:cc="http://creativecommons.org/ns#"
   xmlns:rdf="http://www.w3.org/1999/02/22-rdf-syntax-ns#"
   xmlns:svg="http://www.w3.org/2000/svg"
   xmlns="http://www.w3.org/2000/svg"
   xmlns:sodipodi="http://sodipodi.sourceforge.net/DTD/sodipodi-0.dtd"
   xmlns:inkscape="http://www.inkscape.org/namespaces/inkscape"
   version="1.1"
   id="Camada_1"
   x="0px"
   y="0px"
   viewBox="0 0 195 195"
   xml:space="preserve"
   sodipodi:docname="botão help.svg"
   width="195"
   height="195"
   inkscape:version="0.92.4 (unknown)"><metadata
   id="metadata187"><rdf:RDF><cc:Work
       rdf:about=""><dc:format>image/svg+xml</dc:format><dc:type
         rdf:resource="http://purl.org/dc/dcmitype/StillImage" /><dc:title></dc:title></cc:Work></rdf:RDF></metadata><defs
   id="defs185" /><sodipodi:namedview
   pagecolor="#ffffff"
   bordercolor="#666666"
   borderopacity="1"
   objecttolerance="10"
   gridtolerance="10"
   guidetolerance="10"
   inkscape:pageopacity="0"
   inkscape:pageshadow="2"
   inkscape:window-width="1920"
   inkscape:window-height="960"
   id="namedview183"
   showgrid="false"
   fit-margin-top="0"
   fit-margin-left="0"
   fit-margin-right="0"
   fit-margin-bottom="0"
   inkscape:zoom="2.1111111"
   inkscape:cx="133.93684"
   inkscape:cy="122.84736"
   inkscape:window-x="0"
   inkscape:window-y="27"
   inkscape:window-maximized="1"
   inkscape:current-layer="Camada_1" />
<style
   type="text/css"
   id="style156">
	.st0{fill:#FBBC1F;}
	.st1{fill:#F8FCFC;}
	.st2{fill:#FFBD17;}
	.st3{fill:#F7FBFB;}
</style>
<circle
   class="st0"
   cx="97.5"
   cy="97.5"
   r="97.5"
   id="circle158"
   style="fill:#fbbc1f" />
<g
   id="g164"
   transform="translate(-77.800003,-93.399994)">
	<path
   class="st1"
   d="m 180.5,121.2 c -21.1,0 -34,9.3 -40,22.4 -2.8,6.2 0.9,13.4 7.6,14.5 4.5,0.7 8.9,-1.6 10.6,-5.8 3.8,-9.3 10.8,-12.7 20.4,-12.7 11.4,0 19.8,5.3 19.8,19.4 0,19.3 -16.9,25.3 -34.7,27.2 -1.4,0.2 -2.5,1.4 -2.5,2.8 v 20 c 0,5.6 4.6,10.2 10.2,10.2 5.6,0 10.2,-4.6 10.2,-10.2 v -9.3 c 23.1,-4.9 38.9,-17.3 38.9,-41.6 0,-28 -19.4,-36.9 -40.5,-36.9 z"
   id="path160"
   inkscape:connector-curvature="0"
   style="fill:#f8fcfc" />
	<path
   class="st1"
   d="m 183.5,238.2 h -5.3 v -6.3 c 0,-3.2 -2.6,-5.8 -5.8,-5.8 H 171 c -3.2,0 -5.8,2.6 -5.8,5.8 v 6.3 H 160 c -3.2,0 -5.8,2.6 -5.8,5.8 v 0 c 0,3.2 2.6,5.8 5.8,5.8 h 5.3 v 6.3 c 0,3.2 2.6,5.8 5.8,5.8 h 1.4 c 3.2,0 5.8,-2.6 5.8,-5.8 v -6.3 h 5.3 c 3.2,0 5.8,-2.6 5.8,-5.8 v 0 c -0.1,-3.2 -2.7,-5.8 -5.9,-5.8 z"
   id="path162"
   inkscape:connector-curvature="0"
   style="fill:#f8fcfc" />
</g>
<g
   id="g180"
   transform="translate(-8.6421081,-60.715783)">
	
	
</g>
</svg>