<svg xmlns="http://www.w3.org/2000/svg" xmlns:xlink="http://www.w3.org/1999/xlink" version="1.1" style="" xml:space="preserve" width="157.28176879882812" height="157"><rect id="backgroundrect" width="100%" height="100%" x="0" y="0" fill="none" stroke="none" class="" style=""/>
<style type="text/css">
	.st0{fill:#5394F2;}
</style>

<g class="currentLayer" style=""><title>Layer 1</title><path class="st0" d="M72.40552076376464,39.80819817734639 h-2.137569469213486 v-31.411450624465942 c0,-2.947247219085693 -1.585938638448715,-5.584257888793945 -4.068277376890182,-6.74764494895935 c-2.413384884595871,-1.1633870601654053 -5.24049289226532,-0.4653548240661625 -7.033293092250823,1.7063010215759278 l-55.852621614933014,65.22723450660705 c-2.413384884595871,2.7921289443969726 -2.413384884595871,7.212999773025513 0,10.082687854766846 l55.852621614933014,65.22723450660705 c1.792800199985504,2.0940967082977298 4.619908207654953,2.7921289443969726 7.033293092250823,1.7063010215759278 c2.413384884595871,-1.0858279228210448 4.068277376890182,-3.7228385925292966 4.068277376890182,-6.74764494895935 v-31.411450624465942 h10.205170369148254 c27.029910707473757,0 51.30166726112366,16.907891941070556 63.368591684103016,44.053590011596675 l0.13790770769119262,0.23267741203308126 c1.103261661529541,2.4818923950195315 3.3787388384342196,4.033075141906738 5.7231698691844946,4.033075141906738 c0.48267697691917455,0 0.9653539538383483,-0.07755913734436036 1.4480309307575225,-0.23267741203308126 c2.896061861515045,-0.7755913734436035 4.964677476882935,-3.645279455184937 4.964677476882935,-7.0578814983367915 v-14.503558683395385 C156.18445318616415,82.07792803002279 118.60460284031417,39.80819817734639 72.40552076376464,39.80819817734639 z" id="svg_1"/></g></svg>