<?xml version="1.0" encoding="UTF-8" standalone="no"?>
<!-- Generator: Adobe Illustrator 23.0.4, SVG Export Plug-In . SVG Version: 6.00 Build 0)  -->

<svg
   xmlns:dc="http://purl.org/dc/elements/1.1/"
   xmlns:cc="http://creativecommons.org/ns#"
   xmlns:rdf="http://www.w3.org/1999/02/22-rdf-syntax-ns#"
   xmlns:svg="http://www.w3.org/2000/svg"
   xmlns="http://www.w3.org/2000/svg"
   xmlns:sodipodi="http://sodipodi.sourceforge.net/DTD/sodipodi-0.dtd"
   xmlns:inkscape="http://www.inkscape.org/namespaces/inkscape"
   version="1.1"
   id="Camada_1"
   x="0px"
   y="0px"
   viewBox="0 0 202 248.77621"
   xml:space="preserve"
   sodipodi:docname="icone_ru.svg"
   width="202"
   height="248.77621"
   inkscape:version="0.92.4 (unknown)"><metadata
   id="metadata5559"><rdf:RDF><cc:Work
       rdf:about=""><dc:format>image/svg+xml</dc:format><dc:type
         rdf:resource="http://purl.org/dc/dcmitype/StillImage" /></cc:Work></rdf:RDF></metadata><defs
   id="defs5557" /><sodipodi:namedview
   pagecolor="#ffffff"
   bordercolor="#666666"
   borderopacity="1"
   objecttolerance="10"
   gridtolerance="10"
   guidetolerance="10"
   inkscape:pageopacity="0"
   inkscape:pageshadow="2"
   inkscape:window-width="767"
   inkscape:window-height="480"
   id="namedview5555"
   showgrid="false"
   inkscape:zoom="0.56324582"
   inkscape:cx="95.700012"
   inkscape:cy="135.3"
   inkscape:window-x="0"
   inkscape:window-y="27"
   inkscape:window-maximized="0"
   inkscape:current-layer="Camada_1" />
<style
   type="text/css"
   id="style5520">
	.st0{fill:#F6EBD8;}
	.st1{opacity:0.11;fill:#514D7A;}
	.st2{fill:#5394F2;}
	.st3{fill:#FFBD17;}
	.st4{opacity:0.26;fill:#514D7A;}
</style>
<circle
   class="st0"
   cx="101"
   cy="126.87621"
   r="101"
   id="circle5522"
   style="fill:#f6ebd8" />
<circle
   class="st1"
   cx="101.5"
   cy="127.17621"
   r="80.199997"
   id="circle5524"
   style="opacity:0.11000001;fill:#514d7a" />
<g
   id="g5538"
   transform="translate(-167.29999,-96.02379)">
	<path
   class="st2"
   d="m 264.4,96.1 c -1.8,0.4 -3,3.2 -3,5 v 35.8 c 0,1.9 -1.5,3.4 -3.4,3.4 v 0 c -1.9,0 -3.4,-1.5 -3.4,-3.4 v -35.8 c 0,-1.8 -1.2,-4.6 -3,-5 -2.5,-0.5 -4.7,2.5 -4.7,4.9 v 35.9 c 0,1.9 -1.5,3.4 -3.4,3.4 -0.1,0 -0.1,0 -0.2,0 v 92.9 h 6.8 c 0.5,0 0.9,0.1 1.4,0.2 l -2.3,-53.8 c 17.2,-2.9 19.4,-19.5 19.7,-35.1 0,-0.1 0,-0.2 0,-0.3 V 101 c 0.1,-2.4 -2.1,-5.4 -4.5,-4.9 z"
   id="path5526"
   inkscape:connector-curvature="0"
   style="fill:#5394f2" />
	<path
   class="st3"
   d="m 243.4,233.1 v 111.7 h 10 c 4.6,0 8.2,-3.9 7.9,-8.4 l -6.5,-99.1 c -0.1,-1.9 -1.4,-3.4 -3.1,-4 -0.4,-0.1 -0.9,-0.2 -1.4,-0.2 z"
   id="path5528"
   inkscape:connector-curvature="0"
   style="fill:#ffbd17" />
	<path
   class="st2"
   d="m 240.2,136.9 v -35.8 c 0,-1.8 -1.2,-4.6 -3,-5 -2.5,-0.5 -4.7,2.5 -4.7,4.9 v 35.9 c 0,1.9 -1.5,3.4 -3.4,3.4 v 0 c -1.9,0 -3.4,-1.5 -3.4,-3.4 v -35.8 c 0,-1.8 -1.2,-4.6 -3,-5 -2.5,-0.5 -4.7,2.5 -4.7,4.9 v 43.2 c 0,0.3 0,0.5 0.1,0.8 0.6,15.5 4.3,31.7 20,34.6 l -2.7,53.8 c 0.5,-0.2 0.9,-0.3 1.4,-0.3 h 6.5 v -92.9 c -1.6,-0.1 -3.1,-1.5 -3.1,-3.3 z"
   id="path5530"
   inkscape:connector-curvature="0"
   style="fill:#5394f2" />
	<path
   class="st4"
   d="m 240.2,136.9 v -35.8 c 0,-1.8 -1.2,-4.6 -3,-5 -2.5,-0.5 -4.7,2.5 -4.7,4.9 v 35.9 c 0,1.9 -1.5,3.4 -3.4,3.4 v 0 c -1.9,0 -3.4,-1.5 -3.4,-3.4 v -35.8 c 0,-1.8 -1.2,-4.6 -3,-5 -2.5,-0.5 -4.7,2.5 -4.7,4.9 v 43.2 c 0,0.3 0,0.5 0.1,0.8 0.6,15.5 4.3,31.7 20,34.6 l -2.7,53.8 c 0.5,-0.2 0.9,-0.3 1.4,-0.3 h 6.5 v -92.9 c -1.6,-0.1 -3.1,-1.5 -3.1,-3.3 z"
   id="path5532"
   inkscape:connector-curvature="0"
   style="opacity:0.26000001;fill:#514d7a" />
	<path
   class="st3"
   d="M 243.4,233.1 H 237 c -0.5,0 -1,0.1 -1.4,0.3 -1.7,0.6 -2.9,2.1 -3.1,3.9 l -8.1,99 c -0.4,4.6 3.2,8.5 7.9,8.5 h 11.2 V 233.1 Z"
   id="path5534"
   inkscape:connector-curvature="0"
   style="fill:#ffbd17" />
	<path
   class="st4"
   d="M 243.4,233.1 H 237 c -0.5,0 -1,0.1 -1.4,0.3 -1.7,0.6 -2.9,2.1 -3.1,3.9 l -8.1,99 c -0.4,4.6 3.2,8.5 7.9,8.5 h 11.2 V 233.1 Z"
   id="path5536"
   inkscape:connector-curvature="0"
   style="opacity:0.26000001;fill:#514d7a" />
</g>
<g
   id="g5552"
   transform="translate(-167.29999,-96.02379)">
	<path
   class="st2"
   d="m 305.4,233.1 c 0,0 0,0 0,0 v -17.8 c 0,-1.2 0.4,-2.3 1,-3.2 23.9,-33.8 9.3,-83.3 -2.9,-112.2 -0.9,-2.1 -2.4,-3.3 -4,-3.7 v 136.9 z"
   id="path5540"
   inkscape:connector-curvature="0"
   style="fill:#5394f2" />
	<path
   class="st3"
   d="m 309.9,237.3 c -0.2,-2.4 -2.1,-4.2 -4.5,-4.2 0,0 0,0 0,0 h -5.8 v 111.7 h 9 c 4.6,0 8.2,-3.9 7.9,-8.4 z"
   id="path5542"
   inkscape:connector-curvature="0"
   style="fill:#ffbd17" />
	<path
   class="st2"
   d="M 292.1,102.8 V 233 c 0,0 0,0 0,0.1 h 7.5 V 96.2 c -3.5,-0.9 -7.5,1.7 -7.5,6.6 z"
   id="path5544"
   inkscape:connector-curvature="0"
   style="fill:#5394f2" />
	<path
   class="st4"
   d="M 292.1,102.8 V 233 c 0,0 0,0 0,0.1 h 7.5 V 96.2 c -3.5,-0.9 -7.5,1.7 -7.5,6.6 z"
   id="path5546"
   inkscape:connector-curvature="0"
   style="opacity:0.26000001;fill:#514d7a" />
	<path
   class="st3"
   d="m 299.6,233.1 h -7.5 v 0 c -2.4,0 -4.3,1.8 -4.5,4.1 l -8.1,99 c -0.4,4.6 3.2,8.5 7.9,8.5 h 12.2 z"
   id="path5548"
   inkscape:connector-curvature="0"
   style="fill:#ffbd17" />
	<path
   class="st4"
   d="m 299.6,233.1 h -7.5 v 0 c -2.4,0 -4.3,1.8 -4.5,4.1 l -8.1,99 c -0.4,4.6 3.2,8.5 7.9,8.5 h 12.2 z"
   id="path5550"
   inkscape:connector-curvature="0"
   style="opacity:0.26000001;fill:#514d7a" />
</g>
</svg>