<?xml version="1.0" encoding="UTF-8" standalone="no"?>
<!-- Generator: Adobe Illustrator 23.0.4, SVG Export Plug-In . SVG Version: 6.00 Build 0)  -->

<svg
   xmlns:dc="http://purl.org/dc/elements/1.1/"
   xmlns:cc="http://creativecommons.org/ns#"
   xmlns:rdf="http://www.w3.org/1999/02/22-rdf-syntax-ns#"
   xmlns:svg="http://www.w3.org/2000/svg"
   xmlns="http://www.w3.org/2000/svg"
   xmlns:sodipodi="http://sodipodi.sourceforge.net/DTD/sodipodi-0.dtd"
   xmlns:inkscape="http://www.inkscape.org/namespaces/inkscape"
   version="1.1"
   id="Camada_1"
   x="0px"
   y="0px"
   viewBox="0 0 221.3 180.60001"
   xml:space="preserve"
   sodipodi:docname="icone_sair.svg"
   width="221.3"
   height="180.60001"
   inkscape:version="0.92.4 (unknown)"><metadata
   id="metadata5656"><rdf:RDF><cc:Work
       rdf:about=""><dc:format>image/svg+xml</dc:format><dc:type
         rdf:resource="http://purl.org/dc/dcmitype/StillImage" /></cc:Work></rdf:RDF></metadata><defs
   id="defs5654" /><sodipodi:namedview
   pagecolor="#ffffff"
   bordercolor="#666666"
   borderopacity="1"
   objecttolerance="10"
   gridtolerance="10"
   guidetolerance="10"
   inkscape:pageopacity="0"
   inkscape:pageshadow="2"
   inkscape:window-width="767"
   inkscape:window-height="480"
   id="namedview5652"
   showgrid="false"
   inkscape:zoom="0.56324582"
   inkscape:cx="116.3"
   inkscape:cy="107.6"
   inkscape:window-x="0"
   inkscape:window-y="27"
   inkscape:window-maximized="0"
   inkscape:current-layer="Camada_1" />
<style
   type="text/css"
   id="style5641">
	.st0{fill:#5394F2;}
</style>
<g
   id="g5649"
   transform="translate(-146.7,-136.5)">
	<g
   id="g5647">
		<path
   class="st0"
   d="m 237,303.5 c -0.3,-0.8 -0.4,-1.4 -0.3,-1.9 0.1,-0.5 -0.2,-0.9 -1,-1.3 -0.8,-0.3 -1.1,-0.6 -1.1,-0.8 0,-0.2 -0.5,-0.3 -1.6,-0.4 -1.1,-0.1 -1.6,-0.1 -1.6,-0.1 h -1.8 -1.6 -40.6 c -6.2,0 -11.5,-2.2 -16,-6.6 -4.4,-4.4 -6.6,-9.7 -6.6,-15.9 V 177 c 0,-6.2 2.2,-11.5 6.6,-15.9 4.4,-4.4 9.7,-6.6 16,-6.6 h 45.2 c 1.2,0 2.2,-0.3 2.9,-0.9 0.7,-0.6 1.2,-1.5 1.4,-2.8 0.2,-1.2 0.4,-2.3 0.4,-3.3 0,-1 0,-2.2 -0.1,-3.7 -0.1,-1.5 -0.1,-2.4 -0.1,-2.8 0,-1.2 -0.5,-2.3 -1.4,-3.2 -0.9,-0.9 -1.9,-1.3 -3.2,-1.3 h -45.2 c -11.2,0 -20.8,4 -28.7,11.9 -7.9,8 -11.9,17.5 -11.9,28.7 v 99.4 c 0,11.2 4,20.8 11.9,28.7 8,8 17.5,11.9 28.7,11.9 h 45.2 c 1.2,0 2.2,-0.3 2.9,-0.9 0.7,-0.6 1.2,-1.5 1.4,-2.8 0.2,-1.2 0.4,-2.3 0.4,-3.3 0,-1 0,-2.2 -0.1,-3.7 0,-1.6 -0.1,-2.6 -0.1,-2.9 z"
   id="path5643"
   inkscape:connector-curvature="0"
   style="fill:#5394f2" />
		<path
   class="st0"
   d="m 365.3,220.3 -76.8,-76.8 c -1.8,-1.8 -3.9,-2.7 -6.4,-2.7 -2.4,0 -4.6,0.9 -6.4,2.7 -1.8,1.8 -2.7,3.9 -2.7,6.4 v 40.7 h -63.2 c -2.4,0 -4.6,0.9 -6.4,2.7 -1.8,1.8 -2.7,3.9 -2.7,6.4 v 54.2 c 0,2.4 0.9,4.6 2.7,6.3 1.8,1.8 3.9,2.7 6.4,2.7 H 273 v 40.7 c 0,2.4 0.9,4.6 2.7,6.4 1.8,1.8 3.9,2.7 6.4,2.7 2.5,0 4.6,-0.9 6.4,-2.7 l 76.8,-76.8 c 1.8,-1.8 2.7,-3.9 2.7,-6.4 0,-2.6 -0.9,-4.7 -2.7,-6.5 z"
   id="path5645"
   inkscape:connector-curvature="0"
   style="fill:#5394f2" />
	</g>
</g>
</svg>