<?xml version="1.0" encoding="UTF-8" standalone="no"?>
<!-- Generator: Adobe Illustrator 23.0.4, SVG Export Plug-In . SVG Version: 6.00 Build 0)  -->

<svg
   xmlns:dc="http://purl.org/dc/elements/1.1/"
   xmlns:cc="http://creativecommons.org/ns#"
   xmlns:rdf="http://www.w3.org/1999/02/22-rdf-syntax-ns#"
   xmlns:svg="http://www.w3.org/2000/svg"
   xmlns="http://www.w3.org/2000/svg"
   xmlns:sodipodi="http://sodipodi.sourceforge.net/DTD/sodipodi-0.dtd"
   xmlns:inkscape="http://www.inkscape.org/namespaces/inkscape"
   version="1.1"
   id="Camada_1"
   x="0px"
   y="0px"
   viewBox="0 0 272.40421 157.90001"
   xml:space="preserve"
   sodipodi:docname="icone_bibliotecacolor.svg"
   width="272.40421"
   height="157.90001"
   inkscape:version="0.92.4 (unknown)"><metadata
   id="metadata4722"><rdf:RDF><cc:Work
       rdf:about=""><dc:format>image/svg+xml</dc:format><dc:type
         rdf:resource="http://purl.org/dc/dcmitype/StillImage" /></cc:Work></rdf:RDF></metadata><defs
   id="defs4720" /><sodipodi:namedview
   pagecolor="#ffffff"
   bordercolor="#666666"
   borderopacity="1"
   objecttolerance="10"
   gridtolerance="10"
   guidetolerance="10"
   inkscape:pageopacity="0"
   inkscape:pageshadow="2"
   inkscape:window-width="651"
   inkscape:window-height="480"
   id="namedview4718"
   showgrid="false"
   inkscape:zoom="0.56324582"
   inkscape:cx="127.5"
   inkscape:cy="94.700005"
   inkscape:window-x="171"
   inkscape:window-y="357"
   inkscape:window-maximized="0"
   inkscape:current-layer="Camada_1" />
<style
   type="text/css"
   id="style4611">
	.st0{fill:#5394F2;}
	.st1{fill:#F6EBD8;}
	.st2{fill:#ECD5AF;}
	.st3{fill:#FF415A;}
	.st4{fill:#FFBD17;}
	.st5{opacity:0.26;fill:#514D7A;}
</style>
<g
   id="g4715"
   transform="translate(-135.5,-146.3)">
	<path
   class="st0"
   d="m 377.8,155.8 v 0 l 5.5,-0.1 c 2.3,0 4.2,-0.3 4.2,-0.8 v -7.8 c 0,-0.4 -1.9,-0.8 -4.2,-0.8 H 269.1 l -4.1,9.4 h 112.8 z"
   id="path4613"
   inkscape:connector-curvature="0"
   style="fill:#5394f2" />
	<path
   class="st0"
   d="m 247.4,196.2 h 139.7 c 0.1,0 0.2,0 0.2,-0.1 h -0.2 c 0.3,-0.1 0.5,-0.2 0.5,-0.4 V 188 c 0,-0.4 -1.9,-0.8 -4.2,-0.8 h -5.7 -126.4 z"
   id="path4615"
   inkscape:connector-curvature="0"
   style="fill:#5394f2" />
	<polygon
   class="st1"
   points="377.8,187.1 377.8,173.4 257.3,173.4 251.3,187.2 377.8,187.2 "
   id="polygon4617"
   style="fill:#f6ebd8" />
	<polygon
   class="st1"
   points="265.4,165 261,165.1 259,169.6 377.8,169.6 377.8,169.5 377.8,155.8 265,155.8 262.7,161.2 265.4,161.2 "
   id="polygon4619"
   style="fill:#f6ebd8" />
	<polygon
   class="st2"
   points="261,165.1 265.4,165 265.4,161.2 262.7,161.2 "
   id="polygon4621"
   style="fill:#ecd5af" />
	<polygon
   class="st2"
   points="377.8,173.4 377.8,169.6 259,169.6 257.3,173.4 377.8,173.4 "
   id="polygon4623"
   style="fill:#ecd5af" />
	<path
   class="st3"
   d="M 242.6,207.1 H 398.8 V 207 h 5.2 c 2.2,0 3.9,-0.4 3.9,-0.9 v -9 c 0,-0.5 -1.7,-0.9 -3.9,-0.9 H 387.1 247.4 Z"
   id="path4625"
   inkscape:connector-curvature="0"
   style="fill:#ff415a" />
	<path
   class="st3"
   d="m 404.1,243.5 h -5.3 -172.1 l -4.8,10.9 h 117.9 4.2 10.5 0.8 c -0.2,0 -0.5,-0.1 -0.8,-0.1 H 404 c 2.2,0 3.9,-0.4 3.9,-0.9 v -9 c 0.1,-0.5 -1.6,-0.9 -3.8,-0.9 z"
   id="path4627"
   inkscape:connector-curvature="0"
   style="fill:#ff415a" />
	<polygon
   class="st1"
   points="333.1,227.2 233.8,227.2 230.8,234.2 365.3,234.2 365.3,238 229.1,238 226.7,243.5 398.8,243.5 398.8,243.4 398.8,243.4 398.8,218.7 294,219.1 294,215.2 398.8,214.8 398.8,214.8 398.8,214.8 398.8,207.1 242.6,207.1 235.5,223.4 333.1,223.4 "
   id="polygon4629"
   style="fill:#f6ebd8" />
	<polygon
   class="st2"
   points="398.8,218.6 398.9,218.6 398.9,214.8 398.8,214.8 294,215.2 294,219.1 398.8,218.7 "
   id="polygon4631"
   style="fill:#ecd5af" />
	<polygon
   class="st2"
   points="235.5,223.4 233.8,227.2 333.1,227.2 333.1,223.4 "
   id="polygon4633"
   style="fill:#ecd5af" />
	<polygon
   class="st2"
   points="230.8,234.2 229.1,238 365.3,238 365.3,234.2 "
   id="polygon4635"
   style="fill:#ecd5af" />
	<polygon
   class="st4"
   points="339.9,304.2 339.9,254.3 221.9,254.3 200.1,304.2 "
   id="polygon4637"
   style="fill:#ffbd17" />
	<path
   class="st4"
   d="m 344,304.2 h 10.5 c 2.3,0 4.2,-1.9 4.2,-4.2 v -41.5 c 0,-2.3 -1.9,-4.2 -4.2,-4.2 H 344 Z"
   id="path4639"
   inkscape:connector-curvature="0"
   style="fill:#ffbd17" />
	<polygon
   class="st0"
   points="344,304.2 344,304.2 344,254.3 339.9,254.3 339.9,304.2 "
   id="polygon4641"
   style="fill:#5394f2" />
	<path
   class="st5"
   d="m 139.7,254.3 h 13.4 10.2 20.6 c -0.6,0 -1.1,0 -1.6,-0.1 h -19 -10.2 l -13.4,0.1 c -2.3,-0.1 -4.2,1.8 -4.2,4.1 v 0.1 c 0,-2.3 1.9,-4.2 4.2,-4.2 z"
   id="path4643"
   inkscape:connector-curvature="0"
   style="opacity:0.26000001;fill:#514d7a" />
	<path
   class="st5"
   d="m 180.6,196.6 h -0.2 c -0.3,0.1 -0.5,0.3 -0.5,0.4 v 9.1 c 0,0 0,0 0,0 v -9 c 0,-0.2 0.2,-0.4 0.7,-0.5 z"
   id="path4645"
   inkscape:connector-curvature="0"
   style="opacity:0.26000001;fill:#514d7a" />
	<path
   class="st5"
   d="m 147.7,187.2 h 5.4 v -23 0 14.7 3.8 4.4 l -5.4,0.1 c -2.3,-0.1 -4.2,0.3 -4.2,0.7 v 0.1 c 0,-0.4 1.9,-0.8 4.2,-0.8 z"
   id="path4647"
   inkscape:connector-curvature="0"
   style="opacity:0.26000001;fill:#514d7a" />
	<path
   class="st5"
   d="m 147.6,146.4 h 121.6 v -0.1 l -121.6,0.1 c -2.3,-0.1 -4.2,0.3 -4.2,0.7 v 0.1 c 0,-0.4 1.8,-0.8 4.2,-0.8 z"
   id="path4649"
   inkscape:connector-curvature="0"
   style="opacity:0.26000001;fill:#514d7a" />
	<path
   class="st5"
   d="m 183.9,243.5 h 5.1 v -5.5 -3.8 -27.1 0 27 3.8 5.4 l -5.1,0.2 c -2.2,-0.1 -3.9,0.3 -3.9,0.8 v 0.1 c 0,-0.5 1.7,-0.9 3.9,-0.9 z"
   id="path4651"
   inkscape:connector-curvature="0"
   style="opacity:0.26000001;fill:#514d7a" />
	<polygon
   class="st5"
   points="153.1,162.2 153.1,162.2 153.1,162.3 153.1,162.3 153.1,155.8 "
   id="polygon4653"
   style="opacity:0.26000001;fill:#514d7a" />
	<path
   class="st0"
   d="m 265,155.8 4.1,-9.4 H 147.6 c -2.3,0 -4.2,0.3 -4.2,0.8 v 7.8 c 0,0.4 1.9,0.8 4.2,0.8 h 5.5 v 0.1 0 H 265 Z"
   id="path4655"
   inkscape:connector-curvature="0"
   style="fill:#5394f2" />
	<path
   class="st5"
   d="m 265,155.8 4.1,-9.4 H 147.6 c -2.3,0 -4.2,0.3 -4.2,0.8 v 7.8 c 0,0.4 1.9,0.8 4.2,0.8 h 5.5 v 0.1 0 H 265 Z"
   id="path4657"
   inkscape:connector-curvature="0"
   style="opacity:0.26000001;fill:#514d7a" />
	<path
   class="st0"
   d="m 183.8,196.2 h 63.6 l 3.9,-9 h -98.2 -5.4 c -2.3,0 -4.2,0.4 -4.2,0.8 v 7.8 c 0,0.4 1.9,0.8 4.2,0.8 h 32.9 c -0.1,0 -0.1,0.1 -0.2,0.1 h 0.2 c 0.7,-0.3 1.8,-0.5 3.2,-0.5 z"
   id="path4659"
   inkscape:connector-curvature="0"
   style="fill:#5394f2" />
	<path
   class="st5"
   d="m 183.8,196.2 h 63.6 l 3.9,-9 h -98.2 -5.4 c -2.3,0 -4.2,0.4 -4.2,0.8 v 7.8 c 0,0.4 1.9,0.8 4.2,0.8 h 32.9 c -0.1,0 -0.1,0.1 -0.2,0.1 h 0.2 c 0.7,-0.3 1.8,-0.5 3.2,-0.5 z"
   id="path4661"
   inkscape:connector-curvature="0"
   style="opacity:0.26000001;fill:#514d7a" />
	<polygon
   class="st1"
   points="262.7,161.2 265,155.8 153.1,155.8 153.1,162.3 "
   id="polygon4663"
   style="fill:#f6ebd8" />
	<polygon
   class="st5"
   points="262.7,161.2 265,155.8 153.1,155.8 153.1,162.3 "
   id="polygon4665"
   style="opacity:0.26000001;fill:#514d7a" />
	<polygon
   class="st1"
   points="259,169.6 261,165.1 153.1,166.1 153.1,164.2 153.1,187.2 251.3,187.2 257.3,173.4 224.7,173.4 224.7,169.6 "
   id="polygon4667"
   style="fill:#f6ebd8" />
	<polygon
   class="st5"
   points="259,169.6 261,165.1 153.1,166.1 153.1,164.2 153.1,187.2 251.3,187.2 257.3,173.4 224.7,173.4 224.7,169.6 "
   id="polygon4669"
   style="opacity:0.26000001;fill:#514d7a" />
	<polygon
   class="st2"
   points="262.7,161.2 153.1,162.3 153.1,162.3 153.1,164.1 153.1,164.1 153.1,164.2 153.1,166.1 261,165.1 "
   id="polygon4671"
   style="fill:#ecd5af" />
	<polygon
   class="st5"
   points="262.7,161.2 153.1,162.3 153.1,162.3 153.1,164.1 153.1,164.1 153.1,164.2 153.1,166.1 261,165.1 "
   id="polygon4673"
   style="opacity:0.26000001;fill:#514d7a" />
	<polygon
   class="st2"
   points="259,169.6 224.7,169.6 224.7,173.4 257.3,173.4 "
   id="polygon4675"
   style="fill:#ecd5af" />
	<polygon
   class="st5"
   points="259,169.6 224.7,169.6 224.7,173.4 257.3,173.4 "
   id="polygon4677"
   style="opacity:0.26000001;fill:#514d7a" />
	<path
   class="st3"
   d="m 242.6,207.1 4.8,-10.9 h -63.6 c -1.3,0 -2.5,0.2 -3.2,0.4 -0.4,0.1 -0.7,0.3 -0.7,0.5 v 9 c 0,0.5 1.7,0.9 3.9,0.9 h 5.2 v 0.1 0 z"
   id="path4679"
   inkscape:connector-curvature="0"
   style="fill:#ff415a" />
	<path
   class="st5"
   d="m 242.6,207.1 4.8,-10.9 h -63.6 c -1.3,0 -2.5,0.2 -3.2,0.4 -0.4,0.1 -0.7,0.3 -0.7,0.5 v 9 c 0,0.5 1.7,0.9 3.9,0.9 h 5.2 v 0.1 0 z"
   id="path4681"
   inkscape:connector-curvature="0"
   style="opacity:0.26000001;fill:#514d7a" />
	<path
   class="st3"
   d="m 221.9,254.3 4.8,-10.9 H 189 183.9 c -2.2,0 -3.9,0.4 -3.9,0.9 v 9 c 0,0.5 1.7,0.9 3.9,0.9 h -1.6 c 0.5,0 1,0.1 1.6,0.1 z"
   id="path4683"
   inkscape:connector-curvature="0"
   style="fill:#ff415a" />
	<path
   class="st5"
   d="m 221.9,254.3 4.8,-10.9 H 189 183.9 c -2.2,0 -3.9,0.4 -3.9,0.9 v 9 c 0,0.5 1.7,0.9 3.9,0.9 h -1.6 c 0.5,0 1,0.1 1.6,0.1 z"
   id="path4685"
   inkscape:connector-curvature="0"
   style="opacity:0.26000001;fill:#514d7a" />
	<polygon
   class="st1"
   points="190.1,223.4 235.5,223.4 242.6,207.1 189,207.1 189,234.2 230.8,234.2 233.8,227.2 190.1,227.2 "
   id="polygon4687"
   style="fill:#f6ebd8" />
	<polygon
   class="st5"
   points="190.1,223.4 235.5,223.4 242.6,207.1 189,207.1 189,234.2 230.8,234.2 233.8,227.2 190.1,227.2 "
   id="polygon4689"
   style="opacity:0.26000001;fill:#514d7a" />
	<polygon
   class="st1"
   points="226.7,243.5 229.1,238 189,238 189,243.5 "
   id="polygon4691"
   style="fill:#f6ebd8" />
	<polygon
   class="st5"
   points="226.7,243.5 229.1,238 189,238 189,243.5 "
   id="polygon4693"
   style="opacity:0.26000001;fill:#514d7a" />
	<polygon
   class="st2"
   points="235.5,223.4 190.1,223.4 190.1,227.2 233.8,227.2 "
   id="polygon4695"
   style="fill:#ecd5af" />
	<polygon
   class="st5"
   points="235.5,223.4 190.1,223.4 190.1,227.2 233.8,227.2 "
   id="polygon4697"
   style="opacity:0.26000001;fill:#514d7a" />
	<polygon
   class="st2"
   points="189,238 229.1,238 230.8,234.2 189,234.2 "
   id="polygon4699"
   style="fill:#ecd5af" />
	<polygon
   class="st5"
   points="189,238 229.1,238 230.8,234.2 189,234.2 "
   id="polygon4701"
   style="opacity:0.26000001;fill:#514d7a" />
	<polygon
   class="st4"
   points="163.3,304.2 200.1,304.2 221.9,254.3 183.9,254.3 163.3,254.3 "
   id="polygon4703"
   style="fill:#ffbd17" />
	<polygon
   class="st5"
   points="163.3,304.2 200.1,304.2 221.9,254.3 183.9,254.3 163.3,254.3 "
   id="polygon4705"
   style="opacity:0.26000001;fill:#514d7a" />
	<path
   class="st4"
   d="m 139.7,254.3 c -2.3,0 -4.2,1.9 -4.2,4.2 V 300 c 0,2.3 1.9,4.2 4.2,4.2 h 13.4 v 0 -49.9 z"
   id="path4707"
   inkscape:connector-curvature="0"
   style="fill:#ffbd17" />
	<path
   class="st5"
   d="m 139.7,254.3 c -2.3,0 -4.2,1.9 -4.2,4.2 V 300 c 0,2.3 1.9,4.2 4.2,4.2 h 13.4 v 0 -49.9 z"
   id="path4709"
   inkscape:connector-curvature="0"
   style="opacity:0.26000001;fill:#514d7a" />
	<rect
   x="153.10001"
   y="254.3"
   class="st0"
   width="10.2"
   height="49.900002"
   id="rect4711"
   style="fill:#5394f2" />
	<rect
   x="153.10001"
   y="254.3"
   class="st5"
   width="10.2"
   height="49.900002"
   id="rect4713"
   style="opacity:0.26000001;fill:#514d7a" />
</g>
</svg>