<?xml version="1.0" encoding="UTF-8" standalone="no"?>
<!-- Generator: Adobe Illustrator 23.0.4, SVG Export Plug-In . SVG Version: 6.00 Build 0)  -->

<svg
   xmlns:dc="http://purl.org/dc/elements/1.1/"
   xmlns:cc="http://creativecommons.org/ns#"
   xmlns:rdf="http://www.w3.org/1999/02/22-rdf-syntax-ns#"
   xmlns:svg="http://www.w3.org/2000/svg"
   xmlns="http://www.w3.org/2000/svg"
   xmlns:sodipodi="http://sodipodi.sourceforge.net/DTD/sodipodi-0.dtd"
   xmlns:inkscape="http://www.inkscape.org/namespaces/inkscape"
   version="1.1"
   id="Camada_1"
   x="0px"
   y="0px"
   viewBox="0 0 251.72954 218.2"
   xml:space="preserve"
   sodipodi:docname="icone_agendamentoazul.svg"
   width="251.72954"
   height="218.2"
   inkscape:version="0.92.4 (unknown)"><metadata
   id="metadata4182"><rdf:RDF><cc:Work
       rdf:about=""><dc:format>image/svg+xml</dc:format><dc:type
         rdf:resource="http://purl.org/dc/dcmitype/StillImage" /></cc:Work></rdf:RDF></metadata><defs
   id="defs4180" /><sodipodi:namedview
   pagecolor="#ffffff"
   bordercolor="#666666"
   borderopacity="1"
   objecttolerance="10"
   gridtolerance="10"
   guidetolerance="10"
   inkscape:pageopacity="0"
   inkscape:pageshadow="2"
   inkscape:window-width="767"
   inkscape:window-height="480"
   id="namedview4178"
   showgrid="false"
   inkscape:zoom="0.56324582"
   inkscape:cx="456.10495"
   inkscape:cy="109.5"
   inkscape:window-x="0"
   inkscape:window-y="27"
   inkscape:window-maximized="0"
   inkscape:current-layer="Camada_1" />
<style
   type="text/css"
   id="style4157">
	.st0{fill:#5394F2;}
</style>
<g
   id="g4175"
   transform="translate(-126.47132,-100.8)">
	<path
   class="st0"
   d="m 358.9,119.1 h -22.2 v -12.5 c 0,-3.2 -2.6,-5.8 -5.8,-5.8 h -14.5 c -3.2,0 -5.8,2.6 -5.8,5.8 v 12.5 h -76.5 c -0.5,0 -1,0.1 -1.4,0.3 v -12.7 c 0,-3.2 -2.6,-5.8 -5.8,-5.8 h -14.5 c -3.2,0 -5.8,2.6 -5.8,5.8 v 12.5 H 186 c -0.6,0 -1.1,0.1 -1.7,0.1 -10.3,0.9 -18.4,10.2 -18.4,21.3 v 58.3 c 0,2.1 1.7,3.7 3.7,3.7 2.1,0 3.7,-1.7 3.7,-3.7 v -39 h 197.3 v 130.8 c 0,9.1 -7.5,10.5 -11.8,10.5 H 232.2 c -2.1,0 -3.7,1.7 -3.7,3.7 0,2.1 1.7,3.7 3.7,3.7 h 126.7 c 11.7,0 19.3,-7.1 19.3,-17.9 V 140.4 c 0.1,-11.7 -8.6,-21.3 -19.3,-21.3 z m -40.8,-10.9 h 11.2 v 22.7 c 0,1.6 -1.3,2.8 -2.8,2.8 H 321 c -1.6,0 -2.8,-1.3 -2.8,-2.8 z m -103.9,0 h 11.2 v 22.7 c 0,1.6 -1.3,2.8 -2.8,2.8 H 217 c -1.6,0 -2.8,-1.3 -2.8,-2.8 z m -40.7,44 v -11.8 c 0,-7.2 5.1,-13.3 11.5,-13.8 0.4,0 0.7,0 1,0 h 20.6 v 4.4 c 0,5.7 4.6,10.3 10.3,10.3 h 5.5 c 5.7,0 10.3,-4.6 10.3,-10.3 v -4.6 c 0.4,0.2 0.9,0.3 1.4,0.3 h 76.4 v 4.4 c 0,5.7 4.6,10.3 10.3,10.3 h 5.5 c 5.7,0 10.3,-4.6 10.3,-10.3 v -4.4 h 22.2 c 6.6,0 11.8,6.2 11.8,13.9 v 11.8 H 173.5 Z"
   id="path4159"
   inkscape:connector-curvature="0"
   style="fill:#5394f2" />
	<path
   class="st0"
   d="m 235.2,270.1 c -2,-0.4 -3.9,0.8 -4.3,2.8 -3.2,14.6 -12.6,26.8 -26,33.5 -10,5 -21.6,6.4 -32.5,4.1 -26.5,-5.8 -43.3,-32.1 -37.5,-58.5 5.8,-26.5 32.1,-43.3 58.5,-37.5 9.1,2 17.3,6.4 23.9,12.9 3.5,3.4 6.4,7.4 8.8,11.6 l -9.9,-2.2 c -2,-0.4 -3.9,0.8 -4.3,2.8 -0.4,2 0.8,3.9 2.8,4.3 l 22.7,5 4.9,-22.3 c 0.4,-2 -0.8,-3.9 -2.8,-4.3 -2,-0.4 -3.9,0.8 -4.3,2.8 l -2.5,11.2 c -2.7,-5.1 -6.2,-9.8 -10.3,-13.9 -7.6,-7.4 -17,-12.5 -27.5,-14.8 -30.4,-6.7 -60.5,12.6 -67.1,43 -6.7,30.4 12.6,60.5 43,67.1 4,0.9 8,1.3 12,1.3 8.7,0 17.4,-2 25.2,-5.9 15.3,-7.7 26.2,-21.7 29.8,-38.4 0.6,-2.2 -0.6,-4.1 -2.6,-4.6 z"
   id="path4161"
   inkscape:connector-curvature="0"
   style="fill:#5394f2" />
	<path
   class="st0"
   d="m 222,204 c 4,0 7.3,-3.3 7.3,-7.3 v -18.1 c 0,-4 -3.3,-7.3 -7.3,-7.3 h -18.1 c -4,0 -7.3,3.3 -7.3,7.3 v 18.1 c 0,4 3.3,7.3 7.3,7.3 z m -17.9,-25.2 h 17.6 v 17.6 h -17.6 z"
   id="path4163"
   inkscape:connector-curvature="0"
   style="fill:#5394f2" />
	<path
   class="st0"
   d="m 280.8,171.3 h -18.1 c -4,0 -7.3,3.3 -7.3,7.3 v 18.1 c 0,4 3.3,7.3 7.3,7.3 h 18.1 c 4,0 7.3,-3.3 7.3,-7.3 v -18.1 c -0.1,-4 -3.3,-7.3 -7.3,-7.3 z m -0.3,25.2 h -17.6 v -17.6 h 17.6 z"
   id="path4165"
   inkscape:connector-curvature="0"
   style="fill:#5394f2" />
	<path
   class="st0"
   d="m 339.4,171.3 h -18.1 c -4,0 -7.3,3.3 -7.3,7.3 v 18.1 c 0,4 3.3,7.3 7.3,7.3 h 18.1 c 4,0 7.3,-3.3 7.3,-7.3 v -18.1 c -0.1,-4 -3.3,-7.3 -7.3,-7.3 z m -0.3,25.2 h -17.6 v -17.6 h 17.6 z"
   id="path4167"
   inkscape:connector-curvature="0"
   style="fill:#5394f2" />
	<path
   class="st0"
   d="m 288.1,227 c 0,-4 -3.3,-7.3 -7.3,-7.3 h -18.1 c -4,0 -7.3,3.3 -7.3,7.3 v 18.1 c 0,4 3.3,7.3 7.3,7.3 h 18.1 c 4,0 7.3,-3.3 7.3,-7.3 z m -7.5,17.9 H 263 v -17.6 h 17.6 z"
   id="path4169"
   inkscape:connector-curvature="0"
   style="fill:#5394f2" />
	<path
   class="st0"
   d="m 180,228.5 c -1.9,0 -3.4,1.5 -3.4,3.4 v 38.4 h 36.8 c 1.9,0 3.4,-1.5 3.4,-3.4 0,-1.9 -1.5,-3.4 -3.4,-3.4 H 183.5 V 232 c -0.1,-2 -1.7,-3.5 -3.5,-3.5 z"
   id="path4171"
   inkscape:connector-curvature="0"
   style="fill:#5394f2" />
	<path
   class="st0"
   d="m 346.8,224.5 c 0,-4 -3.3,-7.3 -7.3,-7.3 h -18.1 c -4,0 -7.3,3.3 -7.3,7.3 v 18.1 c 0,4 3.3,7.3 7.3,7.3 h 18.1 c 4,0 7.3,-3.3 7.3,-7.3 z m -7.5,17.9 h -17.6 v -17.6 h 17.6 z"
   id="path4173"
   inkscape:connector-curvature="0"
   style="fill:#5394f2" />
</g>
</svg>