<?xml version="1.0" encoding="UTF-8" standalone="no"?>
<!-- Generator: Adobe Illustrator 23.0.4, SVG Export Plug-In . SVG Version: 6.00 Build 0)  -->

<svg
   xmlns:dc="http://purl.org/dc/elements/1.1/"
   xmlns:cc="http://creativecommons.org/ns#"
   xmlns:rdf="http://www.w3.org/1999/02/22-rdf-syntax-ns#"
   xmlns:svg="http://www.w3.org/2000/svg"
   xmlns="http://www.w3.org/2000/svg"
   xmlns:sodipodi="http://sodipodi.sourceforge.net/DTD/sodipodi-0.dtd"
   xmlns:inkscape="http://www.inkscape.org/namespaces/inkscape"
   version="1.1"
   id="Camada_1"
   x="0px"
   y="0px"
   viewBox="0 0 211.10001 207"
   xml:space="preserve"
   sodipodi:docname="icone_atendimento_.svg"
   width="211.10001"
   height="207"
   inkscape:version="0.92.4 (unknown)"><metadata
   id="metadata4356"><rdf:RDF><cc:Work
       rdf:about=""><dc:format>image/svg+xml</dc:format><dc:type
         rdf:resource="http://purl.org/dc/dcmitype/StillImage" /></cc:Work></rdf:RDF></metadata><defs
   id="defs4354" /><sodipodi:namedview
   pagecolor="#ffffff"
   bordercolor="#666666"
   borderopacity="1"
   objecttolerance="10"
   gridtolerance="10"
   guidetolerance="10"
   inkscape:pageopacity="0"
   inkscape:pageshadow="2"
   inkscape:window-width="767"
   inkscape:window-height="480"
   id="namedview4352"
   showgrid="false"
   inkscape:zoom="0.56324582"
   inkscape:cx="114"
   inkscape:cy="110.5"
   inkscape:window-x="37"
   inkscape:window-y="218"
   inkscape:window-maximized="0"
   inkscape:current-layer="Camada_1" />
<style
   type="text/css"
   id="style4323">
	.st0{fill:#F7FBFB;}
</style>
<g
   id="g4349"
   transform="translate(-149,-113)">
	<g
   id="g4347">
		<g
   id="g4329">
			<path
   class="st0"
   d="m 204.6,190.2 c -11.2,0 -20.4,-9.1 -20.4,-20.4 0,-11.2 9.1,-20.4 20.4,-20.4 11.2,0 20.4,9.1 20.4,20.4 -0.1,11.2 -9.2,20.4 -20.4,20.4 z m 0,-32.7 c -6.8,0 -12.3,5.5 -12.3,12.3 0,6.8 5.5,12.3 12.3,12.3 6.8,0 12.3,-5.5 12.3,-12.3 0,-6.8 -5.6,-12.3 -12.3,-12.3 z"
   id="path4325"
   inkscape:connector-curvature="0"
   style="fill:#f7fbfb" />
			<path
   class="st0"
   d="m 230.9,228.6 h -52.7 c -2,0 -4,-0.9 -5.3,-2.4 -1.3,-1.5 -2,-3.5 -1.8,-5.5 1.9,-17 16.3,-29.8 33.4,-29.8 17.1,0 31.5,12.8 33.4,29.8 0.2,2 -0.4,4 -1.8,5.5 -1.2,1.5 -3.2,2.4 -5.2,2.4 z m -51.6,-8.1 h 50.6 c -1.9,-12.4 -12.6,-21.6 -25.3,-21.6 -12.7,0.1 -23.4,9.3 -25.3,21.6 z"
   id="path4327"
   inkscape:connector-curvature="0"
   style="fill:#f7fbfb" />
		</g>
		<g
   id="g4335">
			<path
   class="st0"
   d="m 302.7,190.2 c -11.2,0 -20.4,-9.1 -20.4,-20.4 0,-11.2 9.1,-20.4 20.4,-20.4 11.2,0 20.4,9.1 20.4,20.4 -0.1,11.2 -9.2,20.4 -20.4,20.4 z m 0,-32.7 c -6.8,0 -12.3,5.5 -12.3,12.3 0,6.8 5.5,12.3 12.3,12.3 6.8,0 12.3,-5.5 12.3,-12.3 0,-6.8 -5.5,-12.3 -12.3,-12.3 z"
   id="path4331"
   inkscape:connector-curvature="0"
   style="fill:#f7fbfb" />
			<path
   class="st0"
   d="m 329,228.6 h -52.7 c -2,0 -4,-0.9 -5.3,-2.4 -1.3,-1.5 -2,-3.5 -1.8,-5.5 1.9,-17 16.3,-29.8 33.4,-29.8 17.1,0 31.5,12.8 33.4,29.8 0.2,2 -0.4,4 -1.8,5.5 -1.2,1.5 -3.2,2.4 -5.2,2.4 z m -51.6,-8.1 H 328 c -1.9,-12.4 -12.6,-21.6 -25.3,-21.6 -12.7,0.1 -23.4,9.3 -25.3,21.6 z"
   id="path4333"
   inkscape:connector-curvature="0"
   style="fill:#f7fbfb" />
		</g>
		<path
   class="st0"
   d="M 360,260.8 H 149 V 129.7 c 0,-9.2 7.5,-16.7 16.7,-16.7 h 177.7 c 9.2,0 16.7,7.5 16.7,16.7 v 131.1 z m -202.9,-8 H 352 V 129.7 c 0,-4.7 -3.9,-8.6 -8.6,-8.6 H 165.7 c -4.7,0 -8.6,3.9 -8.6,8.6 z"
   id="path4337"
   inkscape:connector-curvature="0"
   style="fill:#f7fbfb" />
		<path
   class="st0"
   d="M 345.8,285 H 163.2 c -7.8,0 -14.2,-6.4 -14.2,-14.2 v -18.1 h 211 v 18.1 c 0,7.9 -6.4,14.2 -14.2,14.2 z M 157.1,260.8 v 10 c 0,3.4 2.8,6.1 6.1,6.1 h 182.6 c 3.4,0 6.1,-2.8 6.1,-6.1 v -10 z"
   id="path4339"
   inkscape:connector-curvature="0"
   style="fill:#f7fbfb" />
		<path
   class="st0"
   d="m 283.7,319.4 -59,-0.5 12.3,-40.6 h 35.6 z m -48.1,-8.5 37.6,0.3 -6.7,-24.9 H 243 Z"
   id="path4341"
   inkscape:connector-curvature="0"
   style="fill:#f7fbfb" />
		<path
   class="st0"
   d="M 307.6,320 H 201.4 c -2.2,0 -4,-1.8 -4,-4 0,-2.2 1.8,-4 4,-4 h 106.2 c 2.2,0 4,1.8 4,4 0,2.2 -1.8,4 -4,4 z"
   id="path4343"
   inkscape:connector-curvature="0"
   style="fill:#f7fbfb" />
		<path
   class="st0"
   d="m 253.8,259.5 c -2.2,0 -4,-1.8 -4,-4 V 117 c 0,-2.2 1.8,-4 4,-4 2.2,0 4,1.8 4,4 v 138.4 c 0.1,2.3 -1.7,4.1 -4,4.1 z"
   id="path4345"
   inkscape:connector-curvature="0"
   style="fill:#f7fbfb" />
	</g>
</g>
</svg>