<?xml version="1.0" encoding="UTF-8" standalone="no"?>
<!-- Generator: Adobe Illustrator 23.0.4, SVG Export Plug-In . SVG Version: 6.00 Build 0)  -->

<svg
   xmlns:dc="http://purl.org/dc/elements/1.1/"
   xmlns:cc="http://creativecommons.org/ns#"
   xmlns:rdf="http://www.w3.org/1999/02/22-rdf-syntax-ns#"
   xmlns:svg="http://www.w3.org/2000/svg"
   xmlns="http://www.w3.org/2000/svg"
   xmlns:sodipodi="http://sodipodi.sourceforge.net/DTD/sodipodi-0.dtd"
   xmlns:inkscape="http://www.inkscape.org/namespaces/inkscape"
   version="1.1"
   id="Camada_1"
   x="0px"
   y="0px"
   viewBox="0 0 177 285.89999"
   xml:space="preserve"
   sodipodi:docname="PRAEvetor.svg"
   width="177"
   height="285.89999"
   inkscape:version="0.92.4 (unknown)"><metadata
   id="metadata6096"><rdf:RDF><cc:Work
       rdf:about=""><dc:format>image/svg+xml</dc:format><dc:type
         rdf:resource="http://purl.org/dc/dcmitype/StillImage" /></cc:Work></rdf:RDF></metadata><defs
   id="defs6094" /><sodipodi:namedview
   pagecolor="#ffffff"
   bordercolor="#666666"
   borderopacity="1"
   objecttolerance="10"
   gridtolerance="10"
   guidetolerance="10"
   inkscape:pageopacity="0"
   inkscape:pageshadow="2"
   inkscape:window-width="769"
   inkscape:window-height="477"
   id="namedview6092"
   showgrid="false"
   inkscape:zoom="0.56324582"
   inkscape:cx="88.8"
   inkscape:cy="147.4"
   inkscape:window-x="159"
   inkscape:window-y="283"
   inkscape:window-maximized="0"
   inkscape:current-layer="Camada_1" />
<style
   type="text/css"
   id="style6071">
	.st0{fill:#003869;}
	.st1{fill:#A794C6;}
</style>
<g
   id="g6089"
   transform="translate(-174.2,-71)">
	<g
   id="g6081">
		<path
   class="st0"
   d="m 200.8,259.3 c 15.1,0 20.9,9.5 20.9,23.7 v 10.6 c 0,15.5 -7.1,23.1 -22.6,23.1 H 187 v 40.1 h -6.4 v -97.6 h 20.2 z m -1.7,51.5 c 11.3,0 16.2,-5 16.2,-16.9 v -11.4 c 0,-10.6 -3.6,-17.4 -14.5,-17.4 H 187 v 45.7 z"
   id="path6073"
   inkscape:connector-curvature="0"
   style="fill:#003869" />
		<path
   class="st0"
   d="m 238.6,259.3 c 14.9,0 20.9,8.2 20.9,22 v 8.5 c 0,11.4 -4.5,18 -14.1,20.2 10,2.2 14.1,9.3 14.1,19.9 v 15.2 c 0,4 0.3,8.5 2.4,11.7 h -6.7 c -1.7,-2.9 -2.1,-6.4 -2.1,-11.7 v -15.3 c 0,-13 -7.1,-16.6 -18.3,-16.6 h -10.2 v 43.6 h -6.4 v -97.6 h 20.4 z m -3.6,48.1 c 11.4,0 18.1,-3.2 18.1,-16.3 v -9.2 c 0,-10.5 -4,-16.7 -14.6,-16.7 h -13.8 v 42.2 z"
   id="path6075"
   inkscape:connector-curvature="0"
   style="fill:#003869" />
		<path
   class="st1"
   d="m 272.6,259.3 h 20.8 l 15.9,97.6 H 294 l -2.8,-19.4 v 0.3 h -17.4 l -2.8,19.1 h -14.2 z m 16.8,65.2 -6.8,-48.2 h -0.3 l -6.7,48.2 z"
   id="path6077"
   inkscape:connector-curvature="0"
   style="fill:#a794c6" />
		<path
   class="st1"
   d="m 304.3,259.3 h 41.8 v 13.9 H 319.6 V 299 h 21.1 v 13.9 h -21.1 v 30 h 26.5 v 13.9 h -41.8 z"
   id="path6079"
   inkscape:connector-curvature="0"
   style="fill:#a794c6" />
	</g>
	<g
   id="g6087">
		<g
   id="g6085">
			<path
   class="st1"
   d="m 244.9,166.7 h 36.4 v 6.9 h -36.4 z m 99.1,-42 H 181.3 c -4.6,10.7 -7.1,22.4 -7.1,34.7 0,41.7 28.8,76.6 67.6,86 v -61 -5.1 h 5.1 32.6 5.1 v 5.1 60.7 c 38.3,-9.7 66.6,-44.4 66.6,-85.8 0,-4.8 -0.4,-9.5 -1.1,-14.1 H 194.4 v -9.8 h 153.4 c -1,-3.6 -2.3,-7.2 -3.8,-10.7 z m -107.9,27.6 h 54.1 v 8.9 H 236.1 Z M 262.6,71 c 9.7,0 19,1.6 27.8,4.5 l -28.1,9.9 -26.5,8.9 -46.7,16.1 C 204.9,86.6 232,71 262.6,71 Z"
   id="path6083"
   inkscape:connector-curvature="0"
   style="fill:#a794c6" />
		</g>
	</g>
</g>
</svg>