<?xml version="1.0" encoding="UTF-8" standalone="no"?>
<!-- Generator: Adobe Illustrator 23.0.4, SVG Export Plug-In . SVG Version: 6.00 Build 0)  -->

<svg
   xmlns:dc="http://purl.org/dc/elements/1.1/"
   xmlns:cc="http://creativecommons.org/ns#"
   xmlns:rdf="http://www.w3.org/1999/02/22-rdf-syntax-ns#"
   xmlns:svg="http://www.w3.org/2000/svg"
   xmlns="http://www.w3.org/2000/svg"
   xmlns:sodipodi="http://sodipodi.sourceforge.net/DTD/sodipodi-0.dtd"
   xmlns:inkscape="http://www.inkscape.org/namespaces/inkscape"
   version="1.1"
   id="Camada_1"
   x="0px"
   y="0px"
   viewBox="0 0 172.50125 169"
   xml:space="preserve"
   sodipodi:docname="icone_config.svg"
   width="172.50125"
   height="169"
   inkscape:version="0.92.4 (unknown)"><metadata
   id="metadata4873"><rdf:RDF><cc:Work
       rdf:about=""><dc:format>image/svg+xml</dc:format><dc:type
         rdf:resource="http://purl.org/dc/dcmitype/StillImage" /></cc:Work></rdf:RDF></metadata><defs
   id="defs4871" /><sodipodi:namedview
   pagecolor="#ffffff"
   bordercolor="#666666"
   borderopacity="1"
   objecttolerance="10"
   gridtolerance="10"
   guidetolerance="10"
   inkscape:pageopacity="0"
   inkscape:pageshadow="2"
   inkscape:window-width="767"
   inkscape:window-height="480"
   id="namedview4869"
   showgrid="false"
   inkscape:zoom="0.56324582"
   inkscape:cx="86.6"
   inkscape:cy="84.3"
   inkscape:window-x="0"
   inkscape:window-y="27"
   inkscape:window-maximized="0"
   inkscape:current-layer="Camada_1" />
<style
   type="text/css"
   id="style4860">
	.st0{fill:#5394F2;}
</style>
<g
   id="g4866"
   transform="translate(-176.4,-124.8)">
	<g
   id="g4864">
		<path
   class="st0"
   d="M 325.4,190.1 321,179.7 c 0,0 10.1,-22.9 9.2,-23.8 l -13.4,-13.1 c -0.9,-0.9 -23.8,9.5 -23.8,9.5 L 282.4,148 c 0,0 -9.3,-23.2 -10.6,-23.2 h -18.9 c -1.3,0 -9.9,23.2 -9.9,23.2 l -10.5,4.3 c 0,0 -23.4,-9.9 -24.3,-9 l -13.4,13.1 c -0.9,0.9 9.7,23.3 9.7,23.3 l -4.4,10.3 c 0,0 -23.7,9.1 -23.7,10.4 V 219 c 0,1.3 23.7,9.8 23.7,9.8 l 4.3,10.3 c 0,0 -10.1,22.9 -9.2,23.7 l 13.4,13.1 c 0.9,0.9 23.8,-9.6 23.8,-9.6 l 10.6,4.3 c 0,0 9.3,23.2 10.6,23.2 h 18.9 c 1.3,0 9.9,-23.2 9.9,-23.2 l 10.6,-4.3 c 0,0 23.3,9.9 24.2,9.1 l 13.4,-13.1 c 0.9,-0.9 -9.7,-23.3 -9.7,-23.3 l 4.3,-10.3 c 0,0 23.7,-9.1 23.7,-10.4 v -18.5 c 0.2,-1.3 -23.5,-9.7 -23.5,-9.7 z m -34.9,19.4 c 0,14.9 -12.4,27.1 -27.7,27.1 -15.2,0 -27.7,-12.2 -27.7,-27.1 0,-14.9 12.4,-27.1 27.7,-27.1 15.2,0 27.7,12.2 27.7,27.1 z"
   id="path4862"
   inkscape:connector-curvature="0"
   style="fill:#5394f2" />
	</g>
</g>
</svg>