<?xml version="1.0" encoding="UTF-8" standalone="no"?>
<!-- Generator: Adobe Illustrator 23.0.4, SVG Export Plug-In . SVG Version: 6.00 Build 0)  -->

<svg
   xmlns:dc="http://purl.org/dc/elements/1.1/"
   xmlns:cc="http://creativecommons.org/ns#"
   xmlns:rdf="http://www.w3.org/1999/02/22-rdf-syntax-ns#"
   xmlns:svg="http://www.w3.org/2000/svg"
   xmlns="http://www.w3.org/2000/svg"
   xmlns:sodipodi="http://sodipodi.sourceforge.net/DTD/sodipodi-0.dtd"
   xmlns:inkscape="http://www.inkscape.org/namespaces/inkscape"
   version="1.1"
   id="Camada_1"
   x="0px"
   y="0px"
   viewBox="0 0 138.10001 168.89999"
   xml:space="preserve"
   sodipodi:docname="icone_senha_.svg"
   width="138.10001"
   height="168.89999"
   inkscape:version="0.92.4 (unknown)"><metadata
   id="metadata5697"><rdf:RDF><cc:Work
       rdf:about=""><dc:format>image/svg+xml</dc:format><dc:type
         rdf:resource="http://purl.org/dc/dcmitype/StillImage" /></cc:Work></rdf:RDF></metadata><defs
   id="defs5695" /><sodipodi:namedview
   pagecolor="#ffffff"
   bordercolor="#666666"
   borderopacity="1"
   objecttolerance="10"
   gridtolerance="10"
   guidetolerance="10"
   inkscape:pageopacity="0"
   inkscape:pageshadow="2"
   inkscape:window-width="767"
   inkscape:window-height="480"
   id="namedview5693"
   showgrid="false"
   inkscape:zoom="0.56324582"
   inkscape:cx="59.1"
   inkscape:cy="89.4"
   inkscape:window-x="0"
   inkscape:window-y="27"
   inkscape:window-maximized="0"
   inkscape:current-layer="Camada_1" />
<style
   type="text/css"
   id="style5688">
	.st0{opacity:0.74;fill:#F7FBFB;}
</style>
<path
   class="st0"
   d="m 134,63.3 v 0 0 h -0.1 v 0 0 H 122.6 V 49.2 C 122.6,22 98.5,0 68.9,0 c 0,0 0,0 0,0 0,0 0,0 0,0 0,0 0,0 0,0 0,0 0,0 0,0 0,0 0,0 0,0 0,0 0,0 0,0 0,0 0,0 0,0 0,0 0,0 0,0 0,0 0,0 0,0 0,0 0,0 0,0 C 39.3,0 15.2,22.1 15.2,49.2 V 63.3 H 3.9 v 0 0 0 0 0 C 1.8,63.3 0,64.9 0,66.8 v 88 c 0,7.8 6.9,14.1 15.4,14.1 v 0 0 0 0 0 h 107.3 v 0 0 0 0 0 c 8.5,0 15.4,-6.3 15.4,-14.1 v -88 c -0.2,-2 -2,-3.5 -4.1,-3.5 z m -72.9,77.3 c -1.1,0 -2.1,-0.4 -2.9,-1.2 -0.7,-0.7 -1.1,-1.7 -1,-2.7 l 2.1,-17.5 c 0.2,-1.6 -0.6,-3 -1.7,-4.1 -2.7,-2.6 -4.2,-6 -4.2,-9.7 0,-7.7 6.8,-14 15.3,-14.1 8.4,0 15.3,6.3 15.3,14.1 0,3.7 -1.6,7.1 -4.2,9.7 -1.2,1.1 -1.9,2.5 -1.7,4.1 l 2.1,17.5 c 0.1,1 -0.2,2 -1,2.7 -0.7,0.7 -1.8,1.2 -2.9,1.2 z M 38.1,63.3 V 49.2 c 0,-15.5 13.7,-28.1 30.6,-28.1 16.9,0 30.6,12.6 30.6,28.1 v 14.1 z"
   id="path5690"
   inkscape:connector-curvature="0"
   style="opacity:0.73999999;fill:#f7fbfb" />
</svg>