<?xml version="1.0" encoding="UTF-8" standalone="no"?>
<!-- Generator: Adobe Illustrator 23.0.4, SVG Export Plug-In . SVG Version: 6.00 Build 0)  -->

<svg
   xmlns:dc="http://purl.org/dc/elements/1.1/"
   xmlns:cc="http://creativecommons.org/ns#"
   xmlns:rdf="http://www.w3.org/1999/02/22-rdf-syntax-ns#"
   xmlns:svg="http://www.w3.org/2000/svg"
   xmlns="http://www.w3.org/2000/svg"
   xmlns:sodipodi="http://sodipodi.sourceforge.net/DTD/sodipodi-0.dtd"
   xmlns:inkscape="http://www.inkscape.org/namespaces/inkscape"
   version="1.1"
   id="Camada_1"
   x="0px"
   y="0px"
   viewBox="0 0 239.62926 220.97501"
   xml:space="preserve"
   sodipodi:docname="icone_cego_.svg"
   width="239.62926"
   height="220.97501"
   inkscape:version="0.92.4 (unknown)"><metadata
   id="metadata4824"><rdf:RDF><cc:Work
       rdf:about=""><dc:format>image/svg+xml</dc:format><dc:type
         rdf:resource="http://purl.org/dc/dcmitype/StillImage" /></cc:Work></rdf:RDF></metadata><defs
   id="defs4822" /><sodipodi:namedview
   pagecolor="#ffffff"
   bordercolor="#666666"
   borderopacity="1"
   objecttolerance="10"
   gridtolerance="10"
   guidetolerance="10"
   inkscape:pageopacity="0"
   inkscape:pageshadow="2"
   inkscape:window-width="651"
   inkscape:window-height="480"
   id="namedview4820"
   showgrid="false"
   inkscape:zoom="0.56324582"
   inkscape:cx="119.11074"
   inkscape:cy="113"
   inkscape:window-x="120"
   inkscape:window-y="202"
   inkscape:window-maximized="0"
   inkscape:current-layer="Camada_1" />
<style
   type="text/css"
   id="style4807">
	.st0{fill:#758596;}
	.st1{fill:#FF415A;}
</style>
<g
   id="g4817"
   transform="translate(-143.88926,-101.525)">
	<path
   class="st0"
   d="m 263.1,281.8 c -30.8,0 -65.3,-8.6 -101.6,-32.7 -10.7,-7.1 -17.3,-19.4 -17.6,-32.8 -0.3,-13.4 5.7,-25.9 16.1,-33.5 v 0 c 38.6,-28.3 116.8,-66 207.1,0.3 10.7,7.9 16.8,20.7 16.4,34.4 -0.4,13.5 -7.2,25.8 -18.2,32.8 -22.6,14.3 -58.7,31.5 -102.2,31.5 z m -95.2,-88.3 c -6.8,5 -10.8,13.4 -10.6,22.4 0.2,9 4.5,17.2 11.6,21.9 77.1,51.4 145.4,28.9 189.1,1 7.4,-4.7 11.8,-12.7 12.1,-21.9 0.3,-9.3 -3.8,-17.9 -10.9,-23.2 C 280,135.6 211.5,161.5 167.9,193.5 Z"
   id="path4809"
   inkscape:connector-curvature="0"
   style="fill:#758596" />
	<path
   class="st0"
   d="m 265,272.2 c -32.1,0 -58.2,-26.1 -58.2,-58.2 0,-32.1 26.1,-58.2 58.2,-58.2 32.1,0 58.2,26.1 58.2,58.2 0,32.1 -26.1,58.2 -58.2,58.2 z m 0,-103.1 c -24.7,0 -44.9,20.1 -44.9,44.9 0,24.7 20.1,44.9 44.9,44.9 24.7,0 44.9,-20.1 44.9,-44.9 0,-24.8 -20.1,-44.9 -44.9,-44.9 z"
   id="path4811"
   inkscape:connector-curvature="0"
   style="fill:#758596" />
	<path
   class="st0"
   d="m 263,230.9 c -10.4,0 -18.9,-8.5 -18.9,-18.9 0,-10.4 8.5,-18.9 18.9,-18.9 10.4,0 18.9,8.5 18.9,18.9 0,10.4 -8.5,18.9 -18.9,18.9 z M 262.8,212 c 0,0.1 0.1,0.2 0.2,0.2 V 212 Z"
   id="path4813"
   inkscape:connector-curvature="0"
   style="fill:#758596" />
	<path
   class="st1"
   d="m 166.7,322.5 c -2.4,0 -4.9,-0.9 -6.8,-2.8 -3.7,-3.7 -3.7,-9.8 0,-13.5 L 361.8,104.3 c 3.7,-3.7 9.8,-3.7 13.5,0 3.7,3.7 3.7,9.8 0,13.5 L 173.5,319.7 c -1.9,1.9 -4.3,2.8 -6.8,2.8 z"
   id="path4815"
   inkscape:connector-curvature="0"
   style="fill:#ff415a" />
</g>
</svg>