<?xml version="1.0" encoding="UTF-8" standalone="no"?>
<!-- Generator: Adobe Illustrator 23.0.4, SVG Export Plug-In . SVG Version: 6.00 Build 0)  -->

<svg
   xmlns:dc="http://purl.org/dc/elements/1.1/"
   xmlns:cc="http://creativecommons.org/ns#"
   xmlns:rdf="http://www.w3.org/1999/02/22-rdf-syntax-ns#"
   xmlns:svg="http://www.w3.org/2000/svg"
   xmlns="http://www.w3.org/2000/svg"
   xmlns:sodipodi="http://sodipodi.sourceforge.net/DTD/sodipodi-0.dtd"
   xmlns:inkscape="http://www.inkscape.org/namespaces/inkscape"
   version="1.1"
   id="Camada_1"
   x="0px"
   y="0px"
   viewBox="0 0 195.08591 170"
   xml:space="preserve"
   sodipodi:docname="icone_agendamento.svg"
   width="195.08591"
   height="170"
   inkscape:version="0.92.4 (unknown)"><metadata
   id="metadata4109"><rdf:RDF><cc:Work
       rdf:about=""><dc:format>image/svg+xml</dc:format><dc:type
         rdf:resource="http://purl.org/dc/dcmitype/StillImage" /></cc:Work></rdf:RDF></metadata><defs
   id="defs4107" /><sodipodi:namedview
   pagecolor="#ffffff"
   bordercolor="#666666"
   borderopacity="1"
   objecttolerance="10"
   gridtolerance="10"
   guidetolerance="10"
   inkscape:pageopacity="0"
   inkscape:pageshadow="2"
   inkscape:window-width="1920"
   inkscape:window-height="960"
   id="namedview4105"
   showgrid="false"
   inkscape:zoom="0.56324582"
   inkscape:cx="117.08591"
   inkscape:cy="98.4"
   inkscape:window-x="0"
   inkscape:window-y="27"
   inkscape:window-maximized="1"
   inkscape:current-layer="Camada_1" />
<style
   type="text/css"
   id="style4034">
	.st0{fill:#FFBD17;}
	.st1{fill:#758596;}
</style>
<path
   class="st0"
   d="m 77.385913,81.5 c 1.6,0 3,-0.6 4.1,-1.7 1,-1 1.5,-2.4 1.4,-3.8 V 62.3 c 0,-3 -2.5,-5.5 -5.5,-5.5 h -13.7 c -3,0 -5.5,2.5 -5.5,5.5 V 76 c 0,3 2.5,5.5 5.5,5.5 z"
   id="path4036"
   inkscape:connector-curvature="0"
   style="fill:#ffbd17" />
<path
   class="st0"
   d="m 109.18591,81.5 h 13.7 c 3,0 5.5,-2.5 5.5,-5.5 V 62.3 c 0,-3 -2.5,-5.5 -5.5,-5.5 h -13.7 c -3,0 -5.5,2.5 -5.5,5.5 V 76 c 0,3 2.5,5.5 5.5,5.5 z"
   id="path4038"
   inkscape:connector-curvature="0"
   style="fill:#ffbd17" />
<path
   class="st0"
   d="m 152.68591,81.5 h 13.7 c 3.1,0 5.5,-2.4 5.5,-5.5 V 62.3 c 0,-3 -2.5,-5.5 -5.5,-5.5 h -13.7 c -3,0 -5.5,2.5 -5.5,5.5 V 76 c 0,3 2.5,5.5 5.5,5.5 z"
   id="path4040"
   inkscape:connector-curvature="0"
   style="fill:#ffbd17" />
<path
   class="st0"
   d="m 122.98591,90.6 h -13.7 c -3,0 -5.5,2.5 -5.5,5.5 v 13.8 c 0,3 2.5,5.5 5.5,5.5 h 13.7 c 3,0 5.5,-2.5 5.5,-5.6 V 96.1 c 0,-3 -2.4,-5.5 -5.5,-5.5 z"
   id="path4042"
   inkscape:connector-curvature="0"
   style="fill:#ffbd17" />
<path
   class="st0"
   d="m 166.58591,90.6 h -13.7 c -3,0 -5.5,2.5 -5.5,5.5 v 13.8 c 0,3 2.5,5.5 5.5,5.5 h 13.7 c 3,0 5.5,-2.5 5.5,-5.6 V 96.1 c 0,-3 -2.5,-5.5 -5.5,-5.5 z"
   id="path4044"
   inkscape:connector-curvature="0"
   style="fill:#ffbd17" />
<path
   class="st0"
   d="M 180.18591,17.6 H 49.885913 c -8.2,0 -14.9,6.7 -14.9,14.9 V 49.8 H 195.08591 V 32.5 c 0,-8.2 -6.7,-14.9 -14.9,-14.9 z"
   id="path4046"
   inkscape:connector-curvature="0"
   style="fill:#ffbd17" />
<g
   id="g4050"
   transform="translate(-145.91409,-137.9)">
	<path
   class="st0"
   d="m 192.6,226.3 c -22.5,0 -40.8,18.3 -40.8,40.8 0,22.5 18.3,40.8 40.8,40.8 22.5,0 40.8,-18.3 40.8,-40.8 h -40.8 z"
   id="path4048"
   inkscape:connector-curvature="0"
   style="fill:#ffbd17" />
</g>
<g
   id="g4102"
   transform="translate(-145.91409,-137.9)">
	<g
   id="g4100">
		<g
   id="g4056">
			<path
   class="st1"
   d="m 320.9,152.2 h -16.7 v -9.4 c 0,-2.4 -2,-4.4 -4.4,-4.4 H 289 c -2.4,0 -4.4,2 -4.4,4.4 v 9.4 h -57.4 c -0.4,0 -0.7,0.1 -1,0.2 v -9.6 c 0,-2.4 -2,-4.4 -4.4,-4.4 h -10.9 c -2.4,0 -4.4,2 -4.4,4.4 v 9.4 H 191 c -0.4,0 -0.8,0 -1.2,0 -7.7,0.7 -13.8,7.7 -13.8,16 V 212 c 0,1.6 1.2,2.8 2.8,2.8 1.6,0 2.8,-1.2 2.8,-2.8 v -29.3 h 148.2 v 98.2 c 0,6.9 -5.6,7.9 -8.9,7.9 h -95.2 c -1.6,0 -2.8,1.2 -2.8,2.8 0,1.6 1.2,2.8 2.8,2.8 h 95.1 c 8.8,0 14.5,-5.3 14.5,-13.5 V 168.2 c 0.1,-8.8 -6.4,-16 -14.4,-16 z M 290.3,144 h 8.4 v 17 c 0,1.2 -0.9,2.1 -2.1,2.1 h -4.1 c -1.2,0 -2.1,-0.9 -2.1,-2.1 z m -78.1,0 h 8.4 v 17 c 0,1.2 -0.9,2.1 -2.1,2.1 h -4.1 c -1.2,0 -2.1,-0.9 -2.1,-2.1 z m -30.5,33.1 v -8.9 c 0,-5.4 3.8,-10 8.7,-10.4 0.3,0 0.5,0 0.8,0 h 15.5 v 3.3 c 0,4.3 3.5,7.8 7.8,7.8 h 4.1 c 4.3,0 7.8,-3.5 7.8,-7.8 v -3.5 c 0.3,0.1 0.7,0.2 1,0.2 h 57.4 v 3.3 c 0,4.3 3.5,7.8 7.8,7.8 h 4.1 c 4.3,0 7.8,-3.5 7.8,-7.8 v -3.3 h 16.7 c 4.9,0 8.9,4.7 8.9,10.4 v 8.9 z"
   id="path4052"
   inkscape:connector-curvature="0"
   style="fill:#758596" />
			<path
   class="st1"
   d="m 320.9,294.9 h -95.1 c -1.8,0 -3.3,-1.5 -3.3,-3.3 0,-1.8 1.5,-3.3 3.3,-3.3 H 321 c 3.1,0 8.4,-1 8.4,-7.4 V 183.2 H 182.2 V 212 c 0,1.8 -1.5,3.3 -3.3,3.3 -1.8,0 -3.3,-1.5 -3.3,-3.3 v -43.8 c 0,-8.5 6.3,-15.8 14.3,-16.5 0.2,0 0.4,0 0.6,0 0.2,0 0.4,0 0.6,0 h 15 v -8.9 c 0,-2.7 2.2,-4.9 4.9,-4.9 h 10.9 c 2.7,0 4.9,2.2 4.9,4.9 v 8.9 c 0.2,0 0.3,0 0.5,0 h 56.9 v -8.9 c 0,-2.7 2.2,-4.9 4.9,-4.9 H 300 c 2.7,0 4.9,2.2 4.9,4.9 v 8.9 H 321 c 3.8,0 7.3,1.5 10.1,4.3 3.1,3.1 4.9,7.6 4.9,12.2 V 281 c -0.1,8.4 -6,13.9 -15.1,13.9 z m -95.2,-5.6 c -1.3,0 -2.3,1 -2.3,2.3 0,1.3 1,2.3 2.3,2.3 h 95.1 c 8.5,0 14,-5.1 14,-13 V 168.2 c 0,-4.3 -1.7,-8.5 -4.6,-11.5 -2.6,-2.6 -5.9,-4 -9.4,-4 h -17.2 v -9.9 c 0,-2.1 -1.7,-3.8 -3.8,-3.8 H 289 c -2.1,0 -3.8,1.7 -3.8,3.8 v 9.9 h -58 c -0.3,0 -0.6,0.1 -0.8,0.2 l -0.7,0.3 v -10.3 c 0,-2.1 -1.7,-3.8 -3.8,-3.8 H 211 c -2.1,0 -3.8,1.7 -3.8,3.8 v 9.9 h -16 c -0.2,0 -0.4,0 -0.6,0 -0.2,0 -0.4,0 -0.6,0 -7.4,0.7 -13.3,7.4 -13.3,15.5 V 212 c 0,1.3 1,2.3 2.3,2.3 1.3,0 2.3,-1 2.3,-2.3 V 182.2 H 330.5 V 281 c 0,7.6 -6.6,8.4 -9.4,8.4 H 225.7 Z M 330.3,177.6 H 181.1 v -9.4 c 0,-5.7 4,-10.4 9.1,-10.9 0.3,0 0.5,0 0.8,0 h 16 v 3.8 c 0,4 3.2,7.2 7.2,7.2 h 4.1 c 4,0 7.2,-3.2 7.2,-7.2 v -4.2 l 0.7,0.3 c 0.3,0.1 0.6,0.2 0.8,0.2 h 57.9 v 3.8 c 0,4 3.2,7.2 7.2,7.2 h 4.1 c 4,0 7.2,-3.2 7.2,-7.2 v -3.8 h 17.2 c 5.2,0 9.4,4.9 9.4,10.9 v 9.3 z m -148.1,-1.1 h 147.1 v -8.3 c 0,-5.5 -3.8,-9.9 -8.4,-9.9 h -16.1 v 2.8 c 0,4.6 -3.7,8.3 -8.3,8.3 h -4.1 c -4.6,0 -8.3,-3.7 -8.3,-8.3 v -2.8 h -56.9 c -0.2,0 -0.3,0 -0.5,0 v 2.8 c 0,4.6 -3.7,8.3 -8.3,8.3 h -4.1 c -4.6,0 -8.3,-3.7 -8.3,-8.3 v -2.8 h -15 c -0.3,0 -0.4,0 -0.7,0 -4.6,0.4 -8.2,4.7 -8.2,9.9 v 8.3 z m 114.3,-12.8 h -4.1 c -1.5,0 -2.6,-1.2 -2.6,-2.6 v -17 h 0.5 v -0.5 h 8.9 v 17.5 c 0,1.4 -1.2,2.6 -2.7,2.6 z m -5.7,-19.2 V 161 c 0,0.9 0.7,1.6 1.6,1.6 h 4.1 c 0.9,0 1.6,-0.7 1.6,-1.6 v -16.5 z m -72.3,19.2 h -4.1 c -1.5,0 -2.6,-1.2 -2.6,-2.6 v -17 h 0.5 v -0.5 h 8.9 v 17.5 c -0.1,1.4 -1.3,2.6 -2.7,2.6 z m -5.8,-19.2 V 161 c 0,0.9 0.7,1.6 1.6,1.6 h 4.1 c 0.9,0 1.6,-0.7 1.6,-1.6 v -16.5 z"
   id="path4054"
   inkscape:connector-curvature="0"
   style="fill:#758596" />
		</g>
		<g
   id="g4062">
			<path
   class="st1"
   d="m 228,265.6 c -1.5,-0.3 -2.9,0.6 -3.2,2.1 -2.4,10.9 -9.5,20.1 -19.5,25.1 -7.5,3.8 -16.2,4.8 -24.4,3.1 -19.9,-4.4 -32.5,-24.1 -28.2,-43.9 4.4,-19.9 24.1,-32.5 43.9,-28.2 6.8,1.5 13,4.8 18,9.7 2.6,2.6 4.8,5.5 6.6,8.7 l -7.5,-1.6 c -1.5,-0.3 -2.9,0.6 -3.2,2.1 -0.3,1.5 0.6,2.9 2.1,3.2 l 17.1,3.7 3.7,-16.8 c 0.3,-1.5 -0.6,-2.9 -2.1,-3.2 -1.5,-0.3 -2.9,0.6 -3.2,2.1 l -1.9,8.4 c -2,-3.9 -4.7,-7.4 -7.8,-10.4 -5.7,-5.6 -12.8,-9.4 -20.6,-11.1 -22.8,-5 -45.4,9.5 -50.4,32.3 -5,22.8 9.5,45.4 32.3,50.4 3,0.6 6,1 9,1 6.5,0 13.1,-1.5 19,-4.5 11.5,-5.8 19.7,-16.3 22.4,-28.8 0.3,-1.6 -0.6,-3.1 -2.1,-3.4 z"
   id="path4058"
   inkscape:connector-curvature="0"
   style="fill:#758596" />
			<path
   class="st1"
   d="m 188.8,302.8 c -3,0 -6.1,-0.3 -9.2,-1 -11.2,-2.4 -20.7,-9.1 -26.9,-18.7 -6.2,-9.6 -8.2,-21.1 -5.8,-32.3 2.4,-11.2 9.1,-20.7 18.7,-26.9 9.6,-6.2 21.1,-8.2 32.3,-5.8 7.9,1.7 15.1,5.6 20.9,11.3 2.8,2.8 5.2,5.9 7.2,9.4 l 1.6,-7.1 c 0.4,-1.7 2.1,-2.8 3.8,-2.5 0.8,0.2 1.5,0.7 2,1.4 0.5,0.7 0.6,1.6 0.5,2.5 l -3.8,17.3 -17.6,-3.9 c -1.7,-0.4 -2.8,-2.1 -2.5,-3.8 0.4,-1.7 2.1,-2.9 3.8,-2.5 l 6.3,1.4 c -1.6,-2.8 -3.6,-5.4 -5.9,-7.6 -4.9,-4.8 -11,-8.1 -17.7,-9.6 -9.5,-2.1 -19.2,-0.3 -27.4,4.9 -8.2,5.3 -13.8,13.4 -15.9,22.8 -2.1,9.5 -0.3,19.2 4.9,27.4 5.3,8.2 13.4,13.8 22.8,15.9 8.1,1.8 16.7,0.7 24.1,-3 9.9,-5 16.9,-14 19.3,-24.8 0.4,-1.7 2.1,-2.8 3.8,-2.5 v 0 c 1.8,0.4 2.8,2.1 2.5,4 -2.8,12.7 -11,23.4 -22.7,29.2 -5.9,2.9 -12.5,4.5 -19.1,4.5 z m -0.1,-84.7 c -7.9,0 -15.7,2.3 -22.5,6.6 -9.4,6 -15.9,15.4 -18.3,26.3 -2.4,10.9 -0.4,22.1 5.7,31.5 6,9.4 15.4,15.9 26.3,18.3 3,0.6 6,1 8.9,1 6.5,0 13,-1.5 18.7,-4.4 11.4,-5.7 19.4,-16.1 22.1,-28.4 0.2,-1.3 -0.5,-2.5 -1.7,-2.8 -1.2,-0.2 -2.4,0.5 -2.6,1.7 -2.4,11.1 -9.6,20.4 -19.8,25.5 -7.6,3.8 -16.4,4.9 -24.7,3.1 -9.7,-2.1 -18.1,-7.9 -23.5,-16.4 -5.4,-8.4 -7.2,-18.4 -5.1,-28.2 2.1,-9.7 7.9,-18.1 16.4,-23.5 8.4,-5.4 18.4,-7.2 28.2,-5.1 6.9,1.5 13.2,4.9 18.2,9.9 2.6,2.6 4.9,5.5 6.7,8.9 l 0.5,1 -8.6,-1.9 c -1.2,-0.2 -2.4,0.5 -2.6,1.7 -0.1,0.6 0,1.2 0.3,1.7 0.3,0.5 0.8,0.8 1.4,0.9 l 16.6,3.6 3.6,-16.3 c 0.1,-0.6 0,-1.2 -0.3,-1.7 -0.3,-0.5 -0.8,-0.8 -1.4,-0.9 -1.2,-0.3 -2.4,0.5 -2.6,1.7 l -2.2,9.8 -0.7,-1.2 c -2,-3.8 -4.6,-7.3 -7.7,-10.3 -5.6,-5.5 -12.7,-9.3 -20.4,-11 -2.9,-0.8 -5.9,-1.1 -8.9,-1.1 z"
   id="path4060"
   inkscape:connector-curvature="0"
   style="fill:#758596" />
		</g>
		<g
   id="g4068">
			<path
   class="st1"
   d="m 218.1,215.9 c 3,0 5.4,-2.5 5.4,-5.4 v -13.6 c 0,-3 -2.5,-5.4 -5.4,-5.4 h -13.6 c -3,0 -5.5,2.5 -5.5,5.4 v 13.6 c 0,3 2.5,5.4 5.5,5.4 z M 204.7,197 h 13.2 v 13.2 h -13.2 z"
   id="path4064"
   inkscape:connector-curvature="0"
   style="fill:#758596" />
			<path
   class="st1"
   d="m 218.1,216.4 h -13.6 c -3.3,0 -6,-2.7 -6,-6 v -13.6 c 0,-3.3 2.7,-6 6,-6 h 13.6 c 3.3,0 6,2.7 6,6 v 13.6 c 0,3.4 -2.7,6 -6,6 z M 204.5,192 c -2.7,0 -4.9,2.2 -4.9,4.9 v 13.6 c 0,2.7 2.2,4.9 4.9,4.9 h 13.6 c 2.7,0 4.9,-2.2 4.9,-4.9 v -13.6 c 0,-2.7 -2.2,-4.9 -4.9,-4.9 z m 13.9,18.8 h -14.3 v -14.3 h 14.3 z m -13.2,-1 h 12.2 v -12.2 h -12.2 z"
   id="path4066"
   inkscape:connector-curvature="0"
   style="fill:#758596" />
		</g>
		<g
   id="g4074">
			<path
   class="st1"
   d="m 262.2,191.4 h -13.6 c -3,0 -5.4,2.5 -5.4,5.4 v 13.6 c 0,3 2.5,5.4 5.4,5.4 h 13.6 c 3,0 5.5,-2.5 5.5,-5.4 v -13.6 c 0,-2.9 -2.5,-5.4 -5.5,-5.4 z M 262,210.3 H 248.8 V 197 H 262 Z"
   id="path4070"
   inkscape:connector-curvature="0"
   style="fill:#758596" />
			<path
   class="st1"
   d="m 262.2,216.4 h -13.6 c -3.3,0 -6,-2.7 -6,-6 v -13.6 c 0,-3.3 2.7,-6 6,-6 h 13.6 c 3.3,0 6,2.7 6,6 v 13.6 c 0,3.3 -2.7,6 -6,6 z m -13.6,-24.5 c -2.7,0 -4.9,2.2 -4.9,4.9 v 13.6 c 0,2.7 2.2,4.9 4.9,4.9 h 13.6 c 2.7,0 4.9,-2.2 4.9,-4.9 v -13.6 c 0,-2.7 -2.2,-4.9 -4.9,-4.9 z m 14,18.9 h -14.3 v -14.3 h 14.3 z m -13.3,-1 h 12.2 v -12.2 h -12.2 z"
   id="path4072"
   inkscape:connector-curvature="0"
   style="fill:#758596" />
		</g>
		<g
   id="g4080">
			<path
   class="st1"
   d="m 306.2,191.4 h -13.6 c -3,0 -5.5,2.5 -5.5,5.4 v 13.6 c 0,3 2.5,5.4 5.5,5.4 h 13.6 c 3,0 5.4,-2.5 5.4,-5.4 v -13.6 c 0.1,-2.9 -2.4,-5.4 -5.4,-5.4 z M 306,210.3 H 292.8 V 197 H 306 Z"
   id="path4076"
   inkscape:connector-curvature="0"
   style="fill:#758596" />
			<path
   class="st1"
   d="m 306.2,216.4 h -13.6 c -3.3,0 -6,-2.7 -6,-6 v -13.6 c 0,-3.3 2.7,-6 6,-6 h 13.6 c 3.3,0 6,2.7 6,6 v 13.6 c 0,3.3 -2.7,6 -6,6 z m -13.5,-24.5 c -2.7,0 -4.9,2.2 -4.9,4.9 v 13.6 c 0,2.7 2.2,4.9 4.9,4.9 h 13.6 c 2.7,0 4.9,-2.2 4.9,-4.9 v -13.6 c 0,-2.7 -2.2,-4.9 -4.9,-4.9 z m 13.9,18.9 h -14.3 v -14.3 h 14.3 z m -13.3,-1 h 12.2 v -12.2 h -12.2 z"
   id="path4078"
   inkscape:connector-curvature="0"
   style="fill:#758596" />
		</g>
		<g
   id="g4086">
			<path
   class="st1"
   d="m 267.7,233.2 c 0,-3 -2.5,-5.4 -5.4,-5.4 h -13.6 c -3,0 -5.5,2.5 -5.5,5.4 v 13.6 c 0,3 2.5,5.5 5.5,5.5 h 13.6 c 3,0 5.4,-2.5 5.4,-5.5 z m -5.6,13.4 h -13.2 v -13.2 h 13.2 z"
   id="path4082"
   inkscape:connector-curvature="0"
   style="fill:#758596" />
			<path
   class="st1"
   d="m 262.3,252.8 h -13.6 c -3.3,0 -6,-2.7 -6,-6 v -13.6 c 0,-3.3 2.7,-6 6,-6 h 13.6 c 3.3,0 6,2.7 6,6 v 13.6 c 0,3.3 -2.7,6 -6,6 z m -13.6,-24.5 c -2.7,0 -4.9,2.2 -4.9,4.9 v 13.6 c 0,2.7 2.2,4.9 4.9,4.9 h 13.6 c 2.7,0 4.9,-2.2 4.9,-4.9 v -13.6 c 0,-2.7 -2.2,-4.9 -4.9,-4.9 z m 13.9,18.8 h -14.3 v -14.3 h 14.3 z m -13.2,-1 h 12.2 v -12.2 h -12.2 z"
   id="path4084"
   inkscape:connector-curvature="0"
   style="fill:#758596" />
		</g>
		<g
   id="g4092">
			<path
   class="st1"
   d="m 186.5,234.3 c -1.4,0 -2.6,1.1 -2.6,2.6 v 28.8 h 27.6 c 1.4,0 2.6,-1.1 2.6,-2.6 0,-1.4 -1.1,-2.6 -2.6,-2.6 H 189 v -23.7 c 0.1,-1.3 -1.1,-2.5 -2.5,-2.5 z"
   id="path4088"
   inkscape:connector-curvature="0"
   style="fill:#758596" />
			<path
   class="st1"
   d="m 211.6,266.2 h -28.1 v -29.4 c 0,-1.7 1.4,-3.1 3.1,-3.1 1.7,0 3.1,1.4 3.1,3.1 V 260 h 22 c 1.7,0 3.1,1.4 3.1,3.1 -0.1,1.8 -1.5,3.1 -3.2,3.1 z m -27.1,-1 h 27.1 c 1.2,0 2.1,-0.9 2.1,-2.1 0,-1.2 -0.9,-2.1 -2.1,-2.1 h -23 v -24.2 c 0,-1.1 -0.9,-2.1 -2.1,-2.1 -1.2,0 -2.1,0.9 -2.1,2.1 v 28.4 z"
   id="path4090"
   inkscape:connector-curvature="0"
   style="fill:#758596" />
		</g>
		<g
   id="g4098">
			<path
   class="st1"
   d="m 311.8,231.3 c 0,-3 -2.5,-5.5 -5.5,-5.5 h -13.6 c -3,0 -5.4,2.5 -5.4,5.5 v 13.6 c 0,3 2.5,5.5 5.4,5.5 h 13.6 c 3,0 5.4,-2.5 5.4,-5.5 v -13.6 z m -5.6,13.5 H 293 v -13.2 h 13.2 z"
   id="path4094"
   inkscape:connector-curvature="0"
   style="fill:#758596" />
			<path
   class="st1"
   d="m 306.4,250.9 h -13.6 c -3.3,0 -6,-2.7 -6,-6 v -13.6 c 0,-3.3 2.7,-6 6,-6 h 13.6 c 3.3,0 6,2.7 6,6 v 13.6 c 0,3.3 -2.7,6 -6,6 z m -13.6,-24.5 c -2.7,0 -4.9,2.2 -4.9,4.9 v 13.6 c 0,2.7 2.2,4.9 4.9,4.9 h 13.6 c 2.7,0 4.9,-2.2 4.9,-4.9 v -13.6 c 0,-2.7 -2.2,-4.9 -4.9,-4.9 z m 13.9,18.9 H 292.4 V 231 h 14.3 z m -13.2,-1.1 h 12.2 V 232 h -12.2 z"
   id="path4096"
   inkscape:connector-curvature="0"
   style="fill:#758596" />
		</g>
	</g>
</g>
</svg>