<?xml version="1.0" encoding="UTF-8" standalone="no"?>
<!-- Generator: Adobe Illustrator 23.0.4, SVG Export Plug-In . SVG Version: 6.00 Build 0)  -->

<svg
   xmlns:dc="http://purl.org/dc/elements/1.1/"
   xmlns:cc="http://creativecommons.org/ns#"
   xmlns:rdf="http://www.w3.org/1999/02/22-rdf-syntax-ns#"
   xmlns:svg="http://www.w3.org/2000/svg"
   xmlns="http://www.w3.org/2000/svg"
   xmlns:sodipodi="http://sodipodi.sourceforge.net/DTD/sodipodi-0.dtd"
   xmlns:inkscape="http://www.inkscape.org/namespaces/inkscape"
   version="1.1"
   id="Camada_1"
   x="0px"
   y="0px"
   viewBox="0 0 234.71141 242.04077"
   xml:space="preserve"
   sodipodi:docname="icone_sistemas_.svg"
   width="234.71141"
   height="242.04077"
   inkscape:version="0.92.4 (unknown)"><metadata
   id="metadata5938"><rdf:RDF><cc:Work
       rdf:about=""><dc:format>image/svg+xml</dc:format><dc:type
         rdf:resource="http://purl.org/dc/dcmitype/StillImage" /></cc:Work></rdf:RDF></metadata><defs
   id="defs5936" /><sodipodi:namedview
   pagecolor="#ffffff"
   bordercolor="#666666"
   borderopacity="1"
   objecttolerance="10"
   gridtolerance="10"
   guidetolerance="10"
   inkscape:pageopacity="0"
   inkscape:pageshadow="2"
   inkscape:window-width="767"
   inkscape:window-height="480"
   id="namedview5934"
   showgrid="false"
   inkscape:zoom="0.56324582"
   inkscape:cx="95.822576"
   inkscape:cy="135.01254"
   inkscape:window-x="184"
   inkscape:window-y="359"
   inkscape:window-maximized="0"
   inkscape:current-layer="Camada_1" />
<style
   type="text/css"
   id="style5923">
	.st0{fill:#FFBD17;}
	.st1{fill:#758596;}
</style>
<g
   id="g5927"
   transform="translate(-167.17742,-102.47177)">
	<path
   class="st0"
   d="m 400.1,170.6 c -1.1,-4.5 -6.8,-6.1 -10.1,-2.8 l -26.7,26.7 c -5.9,5.9 -15.6,5.9 -21.5,0 l -12.3,-12.3 c -5.9,-5.9 -5.9,-15.6 0,-21.5 l 26.4,-26.4 c 3.3,-3.3 1.7,-9 -2.9,-10.1 -6.3,-1.5 -12.9,-2 -19.7,-1.5 -29.3,2.3 -56.3,29.8 -58.1,59.1 -0.7,11.1 1.6,21.6 5.9,31 l -93.5,80.4 c -4.2,3.6 -6.7,8.8 -7,14.3 -0.2,5.5 1.8,10.9 5.7,14.9 l 15.8,16.1 c 3.9,4 9.3,6.2 14.9,6 5.6,-0.2 10.9,-2.7 14.5,-6.9 l 81,-93.8 c 9,4 19.2,6.1 29.9,5.4 29.5,-1.8 57,-29 59.2,-58.5 0.7,-6.9 0.1,-13.7 -1.5,-20.1 z"
   id="path5925"
   inkscape:connector-curvature="0"
   style="fill:#ffbd17" />
</g>
<g
   id="g5931"
   transform="translate(-167.17742,-102.47177)">
	<path
   class="st1"
   d="m 209.3,337.2 c -7.1,0 -13.9,-2.9 -18.8,-7.9 l -15.8,-16.1 c -5.1,-5.2 -7.8,-12.3 -7.5,-19.6 0.3,-7.3 3.6,-14.1 9.2,-18.9 l 90,-77.3 c -3.7,-9.5 -5.2,-19.4 -4.6,-29.6 2,-32.7 31.3,-62.5 63.9,-65.1 7.3,-0.6 14.6,0 21.6,1.6 4.3,1 7.8,4.3 9,8.6 1.2,4.3 0,8.9 -3.1,12.1 l -26.4,26.4 c -1.7,1.7 -2.6,3.9 -2.6,6.3 0,2.4 0.9,4.6 2.6,6.3 l 12.3,12.3 c 3.5,3.5 9.1,3.5 12.6,0 l 26.7,-26.7 c 3.2,-3.2 7.7,-4.4 12,-3.2 4.3,1.2 7.6,4.6 8.7,8.9 v 0 c 1.8,7.2 2.4,14.6 1.9,22.1 -2.4,32.8 -32.2,62.3 -65.1,64.4 -9.8,0.6 -19.3,-0.8 -28.4,-4.2 l -78,90.4 c -4.8,5.6 -11.8,8.9 -19.1,9.1 -0.6,0.1 -0.9,0.1 -1.1,0.1 z m 121.9,-222 c -1.6,0 -3.1,0.1 -4.7,0.2 -26.2,2.1 -50.6,27 -52.3,53.2 -0.6,9.7 1.2,19.1 5.3,27.9 l 2,4.4 -97.2,83.5 c -2.9,2.5 -4.6,6 -4.8,9.8 -0.2,3.8 1.3,7.5 3.9,10.2 l 15.8,16.1 c 2.7,2.7 6.4,4.2 10.2,4.1 3.8,-0.1 7.4,-1.9 9.9,-4.7 l 84.1,-97.4 4.3,1.9 c 8.6,3.8 17.6,5.5 26.9,4.9 26.4,-1.7 51.3,-26.3 53.2,-52.7 0.4,-6 0,-11.9 -1.4,-17.6 l -26.3,26.3 c -8.4,8.4 -22.1,8.4 -30.5,0 l -12,-12.3 c -4.1,-4.1 -6.3,-9.5 -6.3,-15.2 0,-5.8 2.2,-11.2 6.3,-15.2 l 26,-26 c -4,-0.9 -8.2,-1.4 -12.4,-1.4 z m 55.4,43.2 c 0,0 0,0 0,0 0,0 0,0 0,0 z"
   id="path5929"
   inkscape:connector-curvature="0"
   style="fill:#758596" />
</g>
</svg>