<?xml version="1.0" encoding="UTF-8" standalone="no"?>
<!-- Generator: Adobe Illustrator 23.0.4, SVG Export Plug-In . SVG Version: 6.00 Build 0)  -->

<svg
   xmlns:dc="http://purl.org/dc/elements/1.1/"
   xmlns:cc="http://creativecommons.org/ns#"
   xmlns:rdf="http://www.w3.org/1999/02/22-rdf-syntax-ns#"
   xmlns:svg="http://www.w3.org/2000/svg"
   xmlns="http://www.w3.org/2000/svg"
   xmlns:sodipodi="http://sodipodi.sourceforge.net/DTD/sodipodi-0.dtd"
   xmlns:inkscape="http://www.inkscape.org/namespaces/inkscape"
   version="1.1"
   id="Camada_1"
   x="0px"
   y="0px"
   viewBox="0 0 197.47501 147.7"
   xml:space="preserve"
   sodipodi:docname="icone_setabranca_.svg"
   width="197.47501"
   height="147.7"
   inkscape:version="0.92.4 (unknown)"><metadata
   id="metadata5840"><rdf:RDF><cc:Work
       rdf:about=""><dc:format>image/svg+xml</dc:format><dc:type
         rdf:resource="http://purl.org/dc/dcmitype/StillImage" /></cc:Work></rdf:RDF></metadata><defs
   id="defs5838" /><sodipodi:namedview
   pagecolor="#ffffff"
   bordercolor="#666666"
   borderopacity="1"
   objecttolerance="10"
   gridtolerance="10"
   guidetolerance="10"
   inkscape:pageopacity="0"
   inkscape:pageshadow="2"
   inkscape:window-width="767"
   inkscape:window-height="447"
   id="namedview5836"
   showgrid="false"
   inkscape:zoom="0.56324582"
   inkscape:cx="99.175"
   inkscape:cy="86.6"
   inkscape:window-x="172"
   inkscape:window-y="343"
   inkscape:window-maximized="0"
   inkscape:current-layer="Camada_1" />
<style
   type="text/css"
   id="style5828">
	.st0{fill:#F7FBFB;}
</style>
<g
   id="g5833"
   transform="translate(-163.825,-148.4)">
	<g
   id="Layer_8_11_">
		<path
   class="st0"
   d="M 342.7,296.1 H 182.5 c -6.7,0 -12.9,-3.6 -16.2,-9.4 -3.3,-5.7 -3.3,-12.9 0,-18.7 l 0.5,-0.8 79.8,-109.9 c 3.4,-5.5 9.4,-8.9 15.9,-8.9 6.5,0 12.5,3.4 15.9,8.8 l 80.4,110.7 c 1.6,2.8 2.5,6.1 2.5,9.3 0,3.3 -0.9,6.5 -2.5,9.4 -3.3,6 -9.5,9.5 -16.1,9.5 z m -80.3,-128.8 -0.3,0.4 0.1,0.4 -79.5,109.4 159.4,-0.3 z"
   id="path5830"
   inkscape:connector-curvature="0"
   style="fill:#f7fbfb" />
	</g>
</g>
</svg>