<?xml version="1.0" encoding="UTF-8" standalone="no"?>
<!-- Generator: Adobe Illustrator 23.0.4, SVG Export Plug-In . SVG Version: 6.00 Build 0)  -->

<svg
   xmlns:dc="http://purl.org/dc/elements/1.1/"
   xmlns:cc="http://creativecommons.org/ns#"
   xmlns:rdf="http://www.w3.org/1999/02/22-rdf-syntax-ns#"
   xmlns:svg="http://www.w3.org/2000/svg"
   xmlns="http://www.w3.org/2000/svg"
   xmlns:sodipodi="http://sodipodi.sourceforge.net/DTD/sodipodi-0.dtd"
   xmlns:inkscape="http://www.inkscape.org/namespaces/inkscape"
   version="1.1"
   id="Camada_1"
   x="0px"
   y="0px"
   viewBox="0 0 157.2 157.2"
   xml:space="preserve"
   sodipodi:docname="icone_atendimento.svg"
   width="157.2"
   height="157.2"
   inkscape:version="0.92.4 (unknown)"><metadata
   id="metadata4267"><rdf:RDF><cc:Work
       rdf:about=""><dc:format>image/svg+xml</dc:format><dc:type
         rdf:resource="http://purl.org/dc/dcmitype/StillImage" /></cc:Work></rdf:RDF></metadata><defs
   id="defs4265" /><sodipodi:namedview
   pagecolor="#ffffff"
   bordercolor="#666666"
   borderopacity="1"
   objecttolerance="10"
   gridtolerance="10"
   guidetolerance="10"
   inkscape:pageopacity="0"
   inkscape:pageshadow="2"
   inkscape:window-width="651"
   inkscape:window-height="480"
   id="namedview4263"
   showgrid="false"
   inkscape:zoom="0.56324582"
   inkscape:cx="82.3"
   inkscape:cy="79.9"
   inkscape:window-x="0"
   inkscape:window-y="27"
   inkscape:window-maximized="0"
   inkscape:current-layer="Camada_1" />
<style
   type="text/css"
   id="style4240">
	.st0{fill:none;}
	.st1{fill:#5394F2;}
</style>
<g
   id="g4260"
   transform="translate(-180.7,-132.2)">
	<path
   class="st0"
   d="m 186.8,144.7 v 92.9 h 68.9 v -99.3 h -62.5 c -3.5,0 -6.4,2.9 -6.4,6.4 z m 34.8,16 c 7.9,0 14.4,6.4 14.4,14.4 0,7.9 -6.4,14.4 -14.4,14.4 -7.9,0 -14.4,-6.4 -14.4,-14.4 0,-8 6.5,-14.4 14.4,-14.4 z m -24.2,52.8 c 1.4,-12.3 11.8,-21.6 24.2,-21.6 12.4,0 22.8,9.3 24.2,21.6 0.1,1.2 -0.3,2.4 -1.1,3.4 -0.8,0.9 -2,1.5 -3.3,1.5 h -39.7 c -1.2,0 -2.4,-0.5 -3.3,-1.5 -0.8,-0.9 -1.2,-2.2 -1,-3.4 z"
   id="path4242"
   inkscape:connector-curvature="0"
   style="fill:none" />
	<path
   class="st0"
   d="m 331.7,237.6 v -92.9 c 0,-3.6 -2.9,-6.5 -6.5,-6.5 h -63.5 v 99.3 h 70 z m -36.1,-76.9 c 7.9,0 14.4,6.4 14.4,14.4 0,7.9 -6.4,14.4 -14.4,14.4 -7.9,0 -14.4,-6.4 -14.4,-14.4 0,-8 6.5,-14.4 14.4,-14.4 z m 0,31.3 c 12.4,0 22.8,9.3 24.2,21.6 0.1,1.2 -0.3,2.4 -1.1,3.4 -0.8,0.9 -2,1.5 -3.3,1.5 h -39.7 c -1.2,0 -2.4,-0.5 -3.3,-1.5 -0.8,-0.9 -1.2,-2.1 -1.1,-3.4 1.5,-12.4 11.9,-21.6 24.3,-21.6 z"
   id="path4244"
   inkscape:connector-curvature="0"
   style="fill:none" />
	<path
   class="st1"
   d="m 221.6,189.4 c 7.9,0 14.4,-6.4 14.4,-14.4 0,-7.9 -6.4,-14.4 -14.4,-14.4 -7.9,0 -14.4,6.4 -14.4,14.4 0,7.9 6.5,14.4 14.4,14.4 z"
   id="path4246"
   inkscape:connector-curvature="0"
   style="fill:#5394f2" />
	<path
   class="st1"
   d="m 201.7,218.4 h 39.7 c 1.2,0 2.4,-0.5 3.3,-1.5 0.8,-0.9 1.2,-2.1 1.1,-3.4 -1.4,-12.3 -11.8,-21.6 -24.2,-21.6 -12.4,0 -22.8,9.3 -24.2,21.6 -0.1,1.2 0.3,2.4 1.1,3.4 0.8,0.9 2,1.5 3.2,1.5 z"
   id="path4248"
   inkscape:connector-curvature="0"
   style="fill:#5394f2" />
	<path
   class="st1"
   d="m 295.6,189.4 c 7.9,0 14.4,-6.4 14.4,-14.4 0,-7.9 -6.4,-14.4 -14.4,-14.4 -7.9,0 -14.4,6.4 -14.4,14.4 0,7.9 6.5,14.4 14.4,14.4 z"
   id="path4250"
   inkscape:connector-curvature="0"
   style="fill:#5394f2" />
	<path
   class="st1"
   d="m 272.4,216.9 c 0.8,0.9 2,1.5 3.3,1.5 h 39.7 c 1.2,0 2.4,-0.5 3.3,-1.5 0.8,-0.9 1.2,-2.1 1.1,-3.4 -1.4,-12.3 -11.8,-21.6 -24.2,-21.6 -12.4,0 -22.8,9.3 -24.2,21.6 -0.2,1.2 0.2,2.5 1,3.4 z"
   id="path4252"
   inkscape:connector-curvature="0"
   style="fill:#5394f2" />
	<path
   class="st1"
   d="m 325.3,132.2 h -66.5 c 1.7,0 3,1.4 3,3 v 3 h 63.5 c 3.6,0 6.5,2.9 6.5,6.5 v 92.9 h -69.9 v 1 h 76 v -93.9 c -0.1,-6.9 -5.7,-12.5 -12.6,-12.5 z"
   id="path4254"
   inkscape:connector-curvature="0"
   style="fill:#5394f2" />
	<path
   class="st1"
   d="m 255.7,237.6 h -68.9 v -92.9 c 0,-3.6 2.9,-6.5 6.5,-6.5 h 62.5 v -3 c 0,-1.7 1.4,-3 3,-3 h -65.5 c -6.9,0 -12.6,5.6 -12.6,12.6 v 93.9 h 75 z"
   id="path4256"
   inkscape:connector-curvature="0"
   style="fill:#5394f2" />
	<path
   class="st1"
   d="m 261.8,237.6 v -99.3 -3 c 0,-1.7 -1.4,-3 -3,-3 -1.7,0 -3,1.4 -3,3 v 3 99.3 1 h -75 v 5.1 7.5 c 0,5.3 4.3,9.7 9.7,9.7 H 246 l -6.1,20.3 h -20.6 c -2.2,0 -4.1,1.8 -4.1,4.1 0,2.3 1.8,4.1 4.1,4.1 h 80.1 c 2.2,0 4.1,-1.8 4.1,-4.1 0,-2.3 -1.8,-4.1 -4.1,-4.1 h -20.8 l -5.5,-20.3 h 55.1 c 5.3,0 9.7,-4.3 9.7,-9.7 v -7.5 -5.1 h -76 v -1 z"
   id="path4258"
   inkscape:connector-curvature="0"
   style="fill:#5394f2" />
</g>
</svg>