<?xml version="1.0" encoding="UTF-8" standalone="no"?>
<!-- Generator: Adobe Illustrator 23.0.4, SVG Export Plug-In . SVG Version: 6.00 Build 0)  -->

<svg
   xmlns:dc="http://purl.org/dc/elements/1.1/"
   xmlns:cc="http://creativecommons.org/ns#"
   xmlns:rdf="http://www.w3.org/1999/02/22-rdf-syntax-ns#"
   xmlns:svg="http://www.w3.org/2000/svg"
   xmlns="http://www.w3.org/2000/svg"
   xmlns:sodipodi="http://sodipodi.sourceforge.net/DTD/sodipodi-0.dtd"
   xmlns:inkscape="http://www.inkscape.org/namespaces/inkscape"
   version="1.1"
   id="Camada_1"
   x="0px"
   y="0px"
   viewBox="0 0 183.5 180"
   xml:space="preserve"
   sodipodi:docname="icone_atendimentoimed.svg"
   width="183.5"
   height="180"
   inkscape:version="0.92.4 (unknown)"><metadata
   id="metadata4477"><rdf:RDF><cc:Work
       rdf:about=""><dc:format>image/svg+xml</dc:format><dc:type
         rdf:resource="http://purl.org/dc/dcmitype/StillImage" /></cc:Work></rdf:RDF></metadata><defs
   id="defs4475" /><sodipodi:namedview
   pagecolor="#ffffff"
   bordercolor="#666666"
   borderopacity="1"
   objecttolerance="10"
   gridtolerance="10"
   guidetolerance="10"
   inkscape:pageopacity="0"
   inkscape:pageshadow="2"
   inkscape:window-width="651"
   inkscape:window-height="480"
   id="namedview4473"
   showgrid="false"
   inkscape:zoom="0.56324582"
   inkscape:cx="107.6"
   inkscape:cy="107.5"
   inkscape:window-x="133"
   inkscape:window-y="264"
   inkscape:window-maximized="0"
   inkscape:current-layer="Camada_1" />
<style
   type="text/css"
   id="style4428">
	.st0{fill:#FFBD17;}
	.st1{fill:#758596;}
</style>
<g
   id="g4470"
   transform="translate(-155.4,-137)">
	<path
   class="st0"
   d="m 213.1,173.6 c 7.5,0 13.6,6.1 13.6,13.6 0,7.5 -6.1,13.6 -13.6,13.6 -7.5,0 -13.6,-6.1 -13.6,-13.6 0,-7.5 6.1,-13.6 13.6,-13.6 z"
   id="path4430"
   inkscape:connector-curvature="0"
   style="fill:#ffbd17" />
	<path
   class="st0"
   d="m 213.1,208.1 c -12.6,0 -23.1,9.5 -24.5,21.8 -0.2,1.5 1,2.8 2.6,2.8 H 235 c 1.5,0 2.7,-1.3 2.6,-2.8 -1.4,-12.3 -11.9,-21.8 -24.5,-21.8 z"
   id="path4432"
   inkscape:connector-curvature="0"
   style="fill:#ffbd17" />
	<path
   class="st0"
   d="m 294.6,173.6 c 7.5,0 13.6,6.1 13.6,13.6 0,7.5 -6.1,13.6 -13.6,13.6 -7.5,0 -13.6,-6.1 -13.6,-13.6 0.1,-7.5 6.1,-13.6 13.6,-13.6 z"
   id="path4434"
   inkscape:connector-curvature="0"
   style="fill:#ffbd17" />
	<path
   class="st0"
   d="m 294.6,208.1 c -12.6,0 -23.1,9.5 -24.5,21.8 -0.2,1.5 1,2.8 2.6,2.8 h 43.8 c 1.5,0 2.7,-1.3 2.6,-2.8 -1.4,-12.3 -11.8,-21.8 -24.5,-21.8 z"
   id="path4436"
   inkscape:connector-curvature="0"
   style="fill:#ffbd17" />
	<path
   class="st0"
   d="M 330.3,289.3 H 169.8 c -2.3,0 -4.1,-1.8 -4.1,-4.1 v -16 h 168.7 v 16 c 0,2.3 -1.8,4.1 -4.1,4.1 z"
   id="path4438"
   inkscape:connector-curvature="0"
   style="fill:#ffbd17" />
	<g
   id="g4444">
		<polygon
   class="st0"
   points="267.2,285.9 242.6,285.9 234.4,313 274.5,313.3 "
   id="polygon4440"
   style="fill:#ffbd17" />
		<path
   class="st0"
   d="m 277.5,315.6 -46.1,-0.4 9.5,-31.5 h 27.9 z m -40.1,-4.8 34.2,0.3 -6.2,-22.9 h -21.2 z"
   id="path4442"
   inkscape:connector-curvature="0"
   style="fill:#ffbd17" />
	</g>
	<g
   id="g4468">
		<g
   id="g4450">
			<path
   class="st1"
   d="m 203.9,204.1 c -9.8,0 -17.7,-8 -17.7,-17.7 0,-9.8 8,-17.7 17.7,-17.7 9.8,0 17.7,8 17.7,17.7 0,9.8 -8,17.7 -17.7,17.7 z m 0,-28.4 c -5.9,0 -10.7,4.8 -10.7,10.7 0,5.9 4.8,10.7 10.7,10.7 5.9,0 10.7,-4.8 10.7,-10.7 0,-5.9 -4.8,-10.7 -10.7,-10.7 z"
   id="path4446"
   inkscape:connector-curvature="0"
   style="fill:#758596" />
			<path
   class="st1"
   d="M 226.7,237.5 181,237.4 c -1.8,0 -3.5,-0.8 -4.6,-2.1 -1.2,-1.3 -1.7,-3.1 -1.5,-4.8 1.7,-14.7 14.2,-25.8 29.1,-25.8 14.9,0 27.3,11.2 29,25.9 0.2,1.7 -0.4,3.5 -1.5,4.8 -1.4,1.3 -3.1,2.1 -4.8,2.1 z m -44.8,-7.1 43.9,0.1 c -1.7,-10.7 -10.9,-18.7 -21.9,-18.8 -11,0 -20.3,7.9 -22,18.7 z"
   id="path4448"
   inkscape:connector-curvature="0"
   style="fill:#758596" />
		</g>
		<g
   id="g4456">
			<path
   class="st1"
   d="m 289.1,204.3 c -9.8,0 -17.7,-8 -17.7,-17.7 0,-9.8 8,-17.7 17.7,-17.7 9.8,0 17.7,8 17.7,17.7 0,9.8 -8,17.7 -17.7,17.7 z m 0,-28.4 c -5.9,0 -10.7,4.8 -10.7,10.7 0,5.9 4.8,10.7 10.7,10.7 5.9,0 10.7,-4.8 10.7,-10.7 0,-5.9 -4.8,-10.7 -10.7,-10.7 z"
   id="path4452"
   inkscape:connector-curvature="0"
   style="fill:#758596" />
			<path
   class="st1"
   d="m 311.9,237.7 -45.7,-0.1 c -1.8,0 -3.5,-0.8 -4.6,-2.1 -1.2,-1.3 -1.7,-3.1 -1.5,-4.8 1.7,-14.7 14.2,-25.8 29.1,-25.8 14.9,0 27.3,11.2 29,25.9 0.2,1.7 -0.4,3.5 -1.5,4.8 -1.4,1.3 -3.1,2.1 -4.8,2.1 z m -44.8,-7.1 43.9,0.1 C 309.3,220 300.1,212 289.1,211.9 c -11,0 -20.3,7.9 -22,18.7 z"
   id="path4454"
   inkscape:connector-curvature="0"
   style="fill:#758596" />
		</g>
		<path
   class="st1"
   d="m 338.7,265.7 -183.2,-0.4 0.2,-113.9 c 0,-8 6.5,-14.4 14.5,-14.4 l 154.3,0.3 c 8,0 14.4,6.5 14.4,14.5 z m -176.2,-7.4 169.2,0.4 0.2,-106.9 c 0,-4.1 -3.3,-7.5 -7.4,-7.5 L 170.2,144 c -4.1,0 -7.5,3.3 -7.5,7.4 z"
   id="path4458"
   inkscape:connector-curvature="0"
   style="fill:#758596" />
		<path
   class="st1"
   d="m 326.3,286.7 -158.6,-0.3 c -6.8,0 -12.3,-5.6 -12.3,-12.4 v -15.7 l 183.2,0.4 v 15.7 c 0.1,6.8 -5.5,12.3 -12.3,12.3 z M 162.5,265.3 v 8.7 c 0,2.9 2.4,5.3 5.3,5.3 l 158.6,0.3 c 2.9,0 5.3,-2.4 5.3,-5.3 v -8.7 z"
   id="path4460"
   inkscape:connector-curvature="0"
   style="fill:#758596" />
		<path
   class="st1"
   d="m 272.4,316.4 -51.2,-0.5 10.7,-35.2 31,0.1 z m -41.8,-7.4 32.6,0.3 -5.8,-21.6 H 237 Z"
   id="path4462"
   inkscape:connector-curvature="0"
   style="fill:#758596" />
		<path
   class="st1"
   d="m 293.1,317 -92.2,-0.2 c -1.9,0 -3.5,-1.6 -3.5,-3.5 0,-1.9 1.6,-3.5 3.5,-3.5 l 92.2,0.2 c 1.9,0 3.5,1.6 3.5,3.5 0,1.9 -1.6,3.5 -3.5,3.5 z"
   id="path4464"
   inkscape:connector-curvature="0"
   style="fill:#758596" />
		<path
   class="st1"
   d="m 246.5,264.4 c -1.9,0 -3.5,-1.6 -3.5,-3.5 l 0.3,-120.2 c 0,-1.9 1.6,-3.5 3.5,-3.5 1.9,0 3.5,1.6 3.5,3.5 L 250,260.9 c 0,1.9 -1.5,3.5 -3.5,3.5 z"
   id="path4466"
   inkscape:connector-curvature="0"
   style="fill:#758596" />
	</g>
</g>
</svg>