<?xml version="1.0" encoding="UTF-8" standalone="no"?>
<!-- Generator: Adobe Illustrator 23.0.4, SVG Export Plug-In . SVG Version: 6.00 Build 0)  -->

<svg
   xmlns:dc="http://purl.org/dc/elements/1.1/"
   xmlns:cc="http://creativecommons.org/ns#"
   xmlns:rdf="http://www.w3.org/1999/02/22-rdf-syntax-ns#"
   xmlns:svg="http://www.w3.org/2000/svg"
   xmlns="http://www.w3.org/2000/svg"
   xmlns:sodipodi="http://sodipodi.sourceforge.net/DTD/sodipodi-0.dtd"
   xmlns:inkscape="http://www.inkscape.org/namespaces/inkscape"
   version="1.1"
   id="Camada_1"
   x="0px"
   y="0px"
   viewBox="0 0 201.38849 202.19432"
   xml:space="preserve"
   sodipodi:docname="icone_sistemas.svg"
   width="201.38849"
   height="202.19432"
   inkscape:version="0.92.4 (unknown)"><metadata
   id="metadata5885"><rdf:RDF><cc:Work
       rdf:about=""><dc:format>image/svg+xml</dc:format><dc:type
         rdf:resource="http://purl.org/dc/dcmitype/StillImage" /></cc:Work></rdf:RDF></metadata><defs
   id="defs5883" /><sodipodi:namedview
   pagecolor="#ffffff"
   bordercolor="#666666"
   borderopacity="1"
   objecttolerance="10"
   gridtolerance="10"
   guidetolerance="10"
   inkscape:pageopacity="0"
   inkscape:pageshadow="2"
   inkscape:window-width="767"
   inkscape:window-height="510"
   id="namedview5881"
   showgrid="false"
   inkscape:zoom="0.56324582"
   inkscape:cx="100.31434"
   inkscape:cy="111.70358"
   inkscape:window-x="194"
   inkscape:window-y="388"
   inkscape:window-maximized="0"
   inkscape:current-layer="Camada_1" />
<style
   type="text/css"
   id="style5874">
	.st0{opacity:0.72;}
	.st1{fill:#F7FBFB;}
</style>
<g
   class="st0"
   id="g5878"
   style="opacity:0.72000002"
   transform="translate(-162.68566,-119.00925)">
	<path
   class="st1"
   d="m 362.4,162.7 c -1,-4.1 -6.2,-5.5 -9.2,-2.5 l -24.4,24.4 c -5.4,5.4 -14.2,5.4 -19.6,0 L 298,173.4 c -5.4,-5.4 -5.4,-14.2 0,-19.6 l 24.1,-24.1 c 3,-3 1.6,-8.2 -2.6,-9.2 -5.7,-1.3 -11.7,-1.8 -17.9,-1.3 -26.7,2.1 -51.2,27.1 -52.9,53.8 -0.6,10.1 1.4,19.7 5.4,28.2 L 169,274.4 c -3.8,3.3 -6.1,8 -6.3,13.1 -0.2,5 1.7,9.9 5.2,13.5 l 14.4,14.7 c 3.6,3.6 8.5,5.6 13.6,5.5 5.1,-0.2 9.9,-2.5 13.2,-6.3 l 73.7,-85.4 c 8.2,3.7 17.4,5.5 27.2,4.9 26.9,-1.7 51.9,-26.4 53.9,-53.3 0.5,-6.4 -0.1,-12.6 -1.5,-18.4 z"
   id="path5876"
   inkscape:connector-curvature="0"
   style="fill:#f7fbfb" />
</g>
</svg>