<?xml version="1.0" encoding="UTF-8" standalone="no"?>
<!-- Generator: Adobe Illustrator 23.0.4, SVG Export Plug-In . SVG Version: 6.00 Build 0)  -->

<svg
   xmlns:dc="http://purl.org/dc/elements/1.1/"
   xmlns:cc="http://creativecommons.org/ns#"
   xmlns:rdf="http://www.w3.org/1999/02/22-rdf-syntax-ns#"
   xmlns:svg="http://www.w3.org/2000/svg"
   xmlns="http://www.w3.org/2000/svg"
   xmlns:sodipodi="http://sodipodi.sourceforge.net/DTD/sodipodi-0.dtd"
   xmlns:inkscape="http://www.inkscape.org/namespaces/inkscape"
   version="1.1"
   id="Camada_1"
   x="0px"
   y="0px"
   viewBox="0 0 166.60001 124.6"
   xml:space="preserve"
   sodipodi:docname="icone_seta.svg"
   width="166.60001"
   height="124.6"
   inkscape:version="0.92.4 (unknown)"><metadata
   id="metadata5793"><rdf:RDF><cc:Work
       rdf:about=""><dc:format>image/svg+xml</dc:format><dc:type
         rdf:resource="http://purl.org/dc/dcmitype/StillImage" /></cc:Work></rdf:RDF></metadata><defs
   id="defs5791" /><sodipodi:namedview
   pagecolor="#ffffff"
   bordercolor="#666666"
   borderopacity="1"
   objecttolerance="10"
   gridtolerance="10"
   guidetolerance="10"
   inkscape:pageopacity="0"
   inkscape:pageshadow="2"
   inkscape:window-width="767"
   inkscape:window-height="477"
   id="namedview5789"
   showgrid="false"
   inkscape:zoom="0.56324582"
   inkscape:cx="92.5"
   inkscape:cy="75.5"
   inkscape:window-x="172"
   inkscape:window-y="303"
   inkscape:window-maximized="0"
   inkscape:current-layer="Camada_1" />
<style
   type="text/css"
   id="style5781">
	.st0{fill:#5394F2;}
</style>
<g
   id="g5786"
   transform="translate(-170.5,-160.4)">
	<g
   id="Layer_8_26_">
		<path
   class="st0"
   d="m 253.7,285 c -5.5,0 -10.6,-2.9 -13.5,-7.5 l -67.6,-93.2 c -2.8,-4.9 -2.8,-11 0,-15.9 2.8,-4.9 8.1,-8 13.8,-8 h 134.8 c 5.7,0 10.9,3 13.8,7.9 v 0 c 1.4,2.4 2.1,5.2 2.1,8 0,2.8 -0.7,5.5 -2.1,8 l -0.5,0.7 -67.2,92.4 c -2.9,4.7 -8.1,7.6 -13.6,7.6 z m -66.6,-108.3 67,92.3 0.2,-0.4 -0.4,-0.4 66.5,-91.5 z"
   id="path5783"
   inkscape:connector-curvature="0"
   style="fill:#5394f2" />
	</g>
</g>
</svg>