<?xml version="1.0" encoding="UTF-8" standalone="no"?>
<!-- Generator: Adobe Illustrator 23.0.4, SVG Export Plug-In . SVG Version: 6.00 Build 0)  -->

<svg
   xmlns:dc="http://purl.org/dc/elements/1.1/"
   xmlns:cc="http://creativecommons.org/ns#"
   xmlns:rdf="http://www.w3.org/1999/02/22-rdf-syntax-ns#"
   xmlns:svg="http://www.w3.org/2000/svg"
   xmlns="http://www.w3.org/2000/svg"
   xmlns:sodipodi="http://sodipodi.sourceforge.net/DTD/sodipodi-0.dtd"
   xmlns:inkscape="http://www.inkscape.org/namespaces/inkscape"
   version="1.1"
   id="Camada_1"
   x="0px"
   y="0px"
   viewBox="0 0 348.6292 361.09917"
   xml:space="preserve"
   sodipodi:docname="ícone_queroverovideo.svg"
   width="348.62921"
   height="361.09918"
   inkscape:version="0.92.4 (unknown)"><metadata
   id="metadata5458"><rdf:RDF><cc:Work
       rdf:about=""><dc:format>image/svg+xml</dc:format><dc:type
         rdf:resource="http://purl.org/dc/dcmitype/StillImage" /></cc:Work></rdf:RDF></metadata><defs
   id="defs5456" /><sodipodi:namedview
   pagecolor="#ffffff"
   bordercolor="#666666"
   borderopacity="1"
   objecttolerance="10"
   gridtolerance="10"
   guidetolerance="10"
   inkscape:pageopacity="0"
   inkscape:pageshadow="2"
   inkscape:window-width="1024"
   inkscape:window-height="671"
   id="namedview5454"
   showgrid="false"
   inkscape:zoom="0.44978082"
   inkscape:cx="-54.799976"
   inkscape:cy="160.54918"
   inkscape:window-x="0"
   inkscape:window-y="220"
   inkscape:window-maximized="0"
   inkscape:current-layer="Camada_1" />
<style
   type="text/css"
   id="style5291">
	.st0{fill:#758596;}
	.st1{font-family:'Raleway-Bold';}
	.st2{font-size:38.3479px;}
	.st3{fill:#5394F2;}
	.st4{fill:#ECD5AF;}
	.st5{fill:#FFBD17;}
	.st6{fill:#4B5660;}
	.st7{fill:#404A51;}
	.st8{fill:#FF415A;}
	.st9{fill:#474747;}
</style>



<text
   class="st0 st1 st2"
   id="text5385"
   style="font-size:38.34790039px;font-family:Raleway-Bold;fill:#758596"
   x="7.2992001"
   y="356.15591">Quero ver o vídeo</text>

<g
   id="g5445"
   transform="translate(-578.7,-61.8)">
	<path
   class="st6"
   d="m 786.3,181.8 -5.9,-1.9 c 1.9,-5.9 2.9,-11.5 2.9,-16 v -26.7 h 6.2 v 26.7 c 0,5.2 -1.1,11.4 -3.2,17.9 z"
   id="path5387"
   inkscape:connector-curvature="0"
   style="fill:#4b5660" />
	<path
   class="st7"
   d="m 738.6,227.7 h -5 c -14.3,0 -28.4,-7.8 -39.7,-21.9 -10.1,-12.7 -16.2,-28.3 -16.2,-41.9 v -26 h 6.2 v 26 c 0,12 5.7,26.6 14.8,38 13.6,17.1 27.7,19.6 34.9,19.6 h 5 z"
   id="path5389"
   inkscape:connector-curvature="0"
   style="fill:#404a51" />
	<path
   class="st7"
   d="m 786,177 c -0.8,0 -1.5,0 -2.3,-0.1 l 0.7,-6.1 c 7.2,0.8 13.9,-3.6 14.8,-9.9 0.4,-2.6 -0.3,-5.3 -2,-7.5 -2.1,-2.7 -5.4,-4.5 -9.2,-4.9 l 0.7,-6.1 c 5.4,0.6 10.3,3.2 13.4,7.3 2.7,3.6 3.9,7.9 3.3,12.2 -1.4,8.6 -9.8,15.1 -19.4,15.1 z"
   id="path5391"
   inkscape:connector-curvature="0"
   style="fill:#404a51" />
	<path
   class="st7"
   d="m 681.2,176.5 c -9.6,0 -18,-6.4 -19.3,-15.2 -0.6,-4.3 0.5,-8.7 3.2,-12.2 3.1,-4 8,-6.7 13.4,-7.3 l 0.7,6.1 c -3.8,0.4 -7.1,2.2 -9.2,4.9 -1.7,2.2 -2.4,4.9 -2,7.5 0.9,6.2 7.6,10.6 14.8,9.9 l 0.7,6.1 c -0.7,0.2 -1.5,0.2 -2.3,0.2 z"
   id="path5393"
   inkscape:connector-curvature="0"
   style="fill:#404a51" />
	<path
   class="st7"
   d="m 799.6,148 h -6.2 V 126.2 C 793.4,94.1 766.8,68 734,68 h -1.6 C 699.7,68 673,94.1 673,126.2 V 147 h -6 v -20.8 c 0,-35.5 29.4,-64.4 65.5,-64.4 h 1.6 c 36.1,0 65.5,28.9 65.5,64.4 z"
   id="path5395"
   inkscape:connector-curvature="0"
   style="fill:#404a51" />
	<path
   class="st7"
   d="m 716.1,100.5 c -1.5,0 -2.8,-1.1 -3,-2.7 l -4,-28.5 c -0.2,-1.7 0.9,-3.2 2.6,-3.5 1.7,-0.2 3.2,0.9 3.5,2.6 l 4,28.5 c 0.2,1.7 -0.9,3.2 -2.6,3.5 -0.2,0.1 -0.4,0.1 -0.5,0.1 z"
   id="path5397"
   inkscape:connector-curvature="0"
   style="fill:#404a51" />
	<path
   class="st7"
   d="m 714.1,262.2 c -1.7,0 -3.1,-1.4 -3.1,-3.1 v -39 c 0,-1.7 1.4,-3.1 3.1,-3.1 1.7,0 3.1,1.4 3.1,3.1 v 39 c 0,1.7 -1.4,3.1 -3.1,3.1 z"
   id="path5399"
   inkscape:connector-curvature="0"
   style="fill:#404a51" />
	<path
   class="st7"
   d="m 690.9,270.7 c -22.5,-2.9 -36.5,-9.5 -41.6,-19.8 -3.7,-7.6 -2.5,-16.7 3.5,-27 9.6,-16.4 14.5,-34.8 14.2,-53.2 l 6.2,-0.1 c 0.3,19.5 -4.9,39 -15.1,56.4 -4.9,8.4 -6.1,15.6 -3.3,21.2 4.1,8.3 16.4,13.8 36.8,16.4 z"
   id="path5401"
   inkscape:connector-curvature="0"
   style="fill:#404a51" />
	<path
   class="st7"
   d="m 756.9,168.6 c -2.5,0 -4.6,-2.1 -4.6,-4.6 v -4 c 0,-2.5 2.1,-4.6 4.6,-4.6 2.5,0 4.6,2.1 4.6,4.6 v 4 c 0,2.5 -2.1,4.6 -4.6,4.6 z"
   id="path5403"
   inkscape:connector-curvature="0"
   style="fill:#404a51" />
	<path
   class="st7"
   d="m 710.3,168.6 c -2.5,0 -4.6,-2.1 -4.6,-4.6 v -4 c 0,-2.5 2.1,-4.6 4.6,-4.6 2.5,0 4.6,2.1 4.6,4.6 v 4 c 0,2.5 -2,4.6 -4.6,4.6 z"
   id="path5405"
   inkscape:connector-curvature="0"
   style="fill:#404a51" />
	<path
   class="st7"
   d="m 787.7,139.9 c -0.2,0 -0.4,0 -0.6,-0.1 -44.6,-9.5 -63.2,-27.5 -70.3,-37.6 -4.8,15.7 -13.4,24.8 -20.1,29.8 -8.6,6.3 -16.2,7.7 -16.5,7.7 -1.7,0.3 -3.3,-0.8 -3.6,-2.5 -0.3,-1.7 0.8,-3.3 2.5,-3.6 v 0 c 0.1,0 6.7,-1.3 14.2,-6.8 9.9,-7.4 16.5,-18.7 19.4,-33.4 l 2.2,-11 3.7,10.5 c 0,0.1 2.7,7.1 12.5,15.5 16.6,14.3 40.3,21.6 57.3,25.2 1.7,0.4 2.7,2 2.4,3.7 -0.4,1.6 -1.7,2.6 -3.1,2.6 z"
   id="path5407"
   inkscape:connector-curvature="0"
   style="fill:#404a51" />
	<path
   class="st7"
   d="m 762.2,147.8 h -10.5 c -1.7,0 -3.1,-1.4 -3.1,-3.1 0,-1.7 1.4,-3.1 3.1,-3.1 h 10.5 c 1.7,0 3.1,1.4 3.1,3.1 0,1.7 -1.4,3.1 -3.1,3.1 z"
   id="path5409"
   inkscape:connector-curvature="0"
   style="fill:#404a51" />
	<path
   class="st7"
   d="m 715.6,147.8 h -10.5 c -1.7,0 -3.1,-1.4 -3.1,-3.1 0,-1.7 1.4,-3.1 3.1,-3.1 h 10.5 c 1.7,0 3.1,1.4 3.1,3.1 0,1.7 -1.4,3.1 -3.1,3.1 z"
   id="path5411"
   inkscape:connector-curvature="0"
   style="fill:#404a51" />
	<path
   class="st7"
   d="m 735.5,197.3 c -5.7,0 -10.8,-2.3 -13,-5.9 -0.9,-1.5 -0.4,-3.3 1,-4.2 1.5,-0.9 3.3,-0.4 4.2,1 0.9,1.5 3.9,3 7.8,3 3.9,0 6.7,-1.5 7.7,-2.9 1,-1.4 2.9,-1.8 4.3,-0.8 1.4,1 1.8,2.9 0.8,4.3 -2.4,3.4 -7.3,5.5 -12.8,5.5 z"
   id="path5413"
   inkscape:connector-curvature="0"
   style="fill:#404a51" />
	<path
   class="st7"
   d="m 771.3,377.1 h -68.4 c -1.7,0 -3.1,-1.4 -3.1,-3.1 0,-1.7 1.4,-3.1 3.1,-3.1 h 68.4 c 7.8,0 14.2,-6.3 14.2,-14 v -44.2 c 0,-1.7 1.4,-3.1 3.1,-3.1 1.7,0 3.1,1.4 3.1,3.1 v 44.2 c 0.1,11.2 -9.1,20.2 -20.4,20.2 z"
   id="path5415"
   inkscape:connector-curvature="0"
   style="fill:#404a51" />
	<path
   class="st7"
   d="m 682.6,360 h -6.2 v -65.4 c 0,-21.2 15.2,-39.5 36,-43.5 l 3,-0.6 1.2,6.1 -3,0.6 c -18,3.4 -31,19.2 -31,37.4 z"
   id="path5417"
   inkscape:connector-curvature="0"
   style="fill:#404a51" />
	<path
   class="st7"
   d="m 735.5,284.9 c -19.5,0 -35.4,-11.8 -35.4,-26.4 v -3.1 h 6.2 v 3.1 c 0,11.1 13.1,20.2 29.3,20.2 10.2,0 19.8,-3.8 25.1,-9.9 l 2,-2.3 4.6,4 -2,2.3 c -6.6,7.6 -17.7,12.1 -29.8,12.1 z"
   id="path5419"
   inkscape:connector-curvature="0"
   style="fill:#404a51" />
	<path
   class="st7"
   d="m 810.8,200 c -1.4,0 -2.7,-1 -3,-2.5 l -5.1,-26.7 c -0.5,-2.5 0.4,-5 2.3,-6.9 2.2,-2.2 5.5,-3.2 8.6,-2.5 3.3,0.7 5.9,3.1 6.5,6.1 l 5.1,27.8 c 0.3,1.7 -0.8,3.3 -2.5,3.6 -1.7,0.3 -3.3,-0.8 -3.6,-2.5 L 814,168.6 c -0.1,-0.6 -0.7,-1.1 -1.6,-1.2 -1.3,-0.3 -2.5,0.3 -3,0.9 -0.3,0.3 -0.7,0.8 -0.5,1.4 l 5.1,26.7 c 0.3,1.7 -0.8,3.3 -2.5,3.6 -0.3,0 -0.5,0 -0.7,0 z"
   id="path5421"
   inkscape:connector-curvature="0"
   style="fill:#404a51" />
	<path
   class="st7"
   d="m 797.5,236.1 c -2.5,0 -4.9,-1 -6.7,-2.8 -2.1,-2.1 -3,-5 -2.6,-8 l 1.6,-11.6 c 0.6,-4.3 3.8,-7.7 8.1,-8.5 l 16,-3 c 1.7,-0.3 3.3,0.8 3.6,2.5 0.3,1.7 -0.8,3.3 -2.5,3.6 l -16,3 c -1.6,0.3 -2.9,1.6 -3.1,3.3 l -1.6,11.6 c -0.1,1 0.2,2 0.9,2.8 0.7,0.7 1.7,1.1 2.8,1 1.4,-0.2 2.5,-1.2 2.8,-2.6 l 1.2,-5.8 c 0.3,-1.7 2,-2.7 3.6,-2.4 1.7,0.3 2.7,2 2.4,3.6 l -1.2,5.8 c -0.8,3.9 -4.1,6.9 -8.1,7.4 -0.4,0 -0.8,0.1 -1.2,0.1 z"
   id="path5423"
   inkscape:connector-curvature="0"
   style="fill:#404a51" />
	<path
   class="st7"
   d="m 833.7,337.4 c -8.4,0 -15.7,-6.5 -16.4,-15.1 l -6,-70.8 c -4.1,-0.5 -7.3,-2.3 -9.4,-5.2 -4.9,-6.7 -1.8,-17 -1.6,-17.5 0.5,-1.6 2.2,-2.5 3.9,-2 1.6,0.5 2.5,2.2 2,3.9 -0.7,2.2 -1.8,8.5 0.7,12 1.4,1.9 3.8,2.8 7.3,2.8 h 2.8 l 6.5,76.2 c 0.5,5.6 5.5,9.8 11.1,9.4 2.9,-0.2 5.7,-1.7 7.4,-4.1 1.7,-2.4 2.5,-5.4 1.9,-8.3 L 820.6,204 l -0.9,-5 -17,3.2 c -2.8,0.5 -4.9,2.6 -5.3,5.2 l -0.2,1.2 c -0.3,1.7 -1.8,2.8 -3.5,2.6 -1.7,-0.3 -2.8,-1.8 -2.6,-3.5 l 0.2,-1.2 c 0.8,-5.1 4.9,-9.3 10.3,-10.3 l 23,-4.4 2.1,11 23.3,114.7 c 0.9,4.6 -0.2,9.4 -3,13.2 -2.8,3.8 -7.2,6.1 -11.9,6.5 -0.5,0.2 -1,0.2 -1.4,0.2 z"
   id="path5425"
   inkscape:connector-curvature="0"
   style="fill:#404a51" />
	<path
   class="st7"
   d="m 757.9,224 c -1.1,0 -2.1,-0.6 -2.7,-1.5 L 741.6,199 c -1.3,-2.2 -1.3,-4.8 -0.1,-7.2 1.3,-2.8 4.1,-4.8 7.2,-5.2 3.4,-0.5 6.6,1 8.1,3.7 l 14.1,24.6 c 0.8,1.5 0.3,3.4 -1.1,4.2 -1.5,0.8 -3.4,0.3 -4.2,-1.1 l -14,-24.6 c -0.3,-0.5 -1,-0.8 -1.9,-0.6 -1.3,0.2 -2.2,1.1 -2.6,1.8 -0.2,0.4 -0.4,1 -0.1,1.5 l 13.6,23.5 c 0.9,1.5 0.3,3.4 -1.1,4.2 -0.5,0.1 -1.1,0.2 -1.6,0.2 z"
   id="path5427"
   inkscape:connector-curvature="0"
   style="fill:#404a51" />
	<path
   class="st7"
   d="m 755.2,262.8 c -1.4,0 -2.8,-0.3 -4.2,-1 -2.7,-1.3 -4.5,-3.7 -5.1,-6.6 l -2.3,-11.5 c -0.8,-4.2 1.1,-8.5 4.8,-10.6 l 14.1,-8.2 c 1.5,-0.9 3.4,-0.3 4.2,1.1 0.9,1.5 0.3,3.4 -1.1,4.2 l -14.1,8.2 c -1.4,0.8 -2.2,2.5 -1.9,4.1 l 2.3,11.5 c 0.2,1 0.9,1.9 1.8,2.3 0.9,0.5 2,0.5 2.9,0 1.3,-0.6 2,-2 1.8,-3.4 l -0.8,-5.9 c -0.2,-1.7 1,-3.2 2.7,-3.5 1.7,-0.2 3.2,1 3.5,2.7 l 0.8,5.9 c 0.5,4 -1.6,7.9 -5.2,9.7 -1.3,0.6 -2.8,1 -4.2,1 z"
   id="path5429"
   inkscape:connector-curvature="0"
   style="fill:#404a51" />
	<path
   class="st7"
   d="m 817.5,292.3 c -1,0 -1.9,-0.5 -2.5,-1.3 l -45.4,-66.3 -2.6,-4.4 -15,8.7 c -2.5,1.4 -3.8,4.1 -3.3,6.7 l 0.2,1.2 c 0.3,1.7 -0.8,3.3 -2.5,3.6 -1.7,0.3 -3.3,-0.8 -3.6,-2.5 l -0.2,-1.2 c -0.9,-5.1 1.6,-10.4 6.3,-13.1 l 20.3,-11.7 5.5,9.6 45.3,66.1 c 1,1.4 0.6,3.3 -0.8,4.3 -0.5,0.1 -1.1,0.3 -1.7,0.3 z"
   id="path5431"
   inkscape:connector-curvature="0"
   style="fill:#404a51" />
	<path
   class="st7"
   d="m 794.4,292.1 c -1,0 -2,-0.5 -2.6,-1.4 l -16,-25 c -4.3,0.8 -8,0.1 -11,-2.1 -6.6,-5 -6.6,-15.8 -6.6,-16.3 0,-1.7 1.4,-3 3.1,-3 0,0 0,0 0,0 1.7,0 3.1,1.4 3,3.1 v 0 c 0,2.3 0.7,8.7 4.2,11.3 1.9,1.4 4.4,1.6 7.8,0.6 l 2.2,-0.7 18.4,28.8 c 0.9,1.4 0.5,3.3 -0.9,4.3 -0.5,0.3 -1.1,0.4 -1.6,0.4 z"
   id="path5433"
   inkscape:connector-curvature="0"
   style="fill:#404a51" />
	<path
   class="st7"
   d="m 780.3,199.3 c -1.4,0 -2.8,-0.1 -4.3,-0.3 -1.7,-0.2 -2.9,-1.8 -2.6,-3.5 0.2,-1.7 1.8,-2.9 3.5,-2.6 5.1,0.7 9.1,-0.1 11.9,-2.3 3.9,-3.1 4.4,-8.2 4.4,-8.3 0.1,-1.7 1.6,-3 3.3,-2.8 1.7,0.1 3,1.6 2.8,3.3 0,0.3 -0.7,7.8 -6.7,12.6 -3.3,2.6 -7.4,3.9 -12.3,3.9 z"
   id="path5435"
   inkscape:connector-curvature="0"
   style="fill:#404a51" />
	<path
   class="st7"
   d="m 782.2,205.4 c -0.8,0 -1.5,-0.3 -2.1,-0.9 l -8.8,-8.4 7.6,-7.9 c 1.2,-1.2 3.1,-1.3 4.4,-0.1 1.2,1.2 1.3,3.1 0.1,4.4 l -3.4,3.5 4.3,4.1 c 1.2,1.2 1.3,3.1 0.1,4.4 -0.6,0.6 -1.4,0.9 -2.2,0.9 z"
   id="path5437"
   inkscape:connector-curvature="0"
   style="fill:#404a51" />
	<path
   class="st7"
   d="m 702.9,376.5 c -1.7,0 -3.1,-1.4 -3.1,-3.1 v -58.2 h -20.3 c -1.7,0 -3.1,-1.4 -3.1,-3.1 0,-1.7 1.4,-3.1 3.1,-3.1 H 706 v 64.4 c 0,1.7 -1.4,3.1 -3.1,3.1 z"
   id="path5439"
   inkscape:connector-curvature="0"
   style="fill:#404a51" />
	<path
   class="st4"
   d="M 784.7,273.5"
   id="path5441"
   inkscape:connector-curvature="0"
   style="fill:#ecd5af" />
	<path
   class="st4"
   d="M 763.1,248.6"
   id="path5443"
   inkscape:connector-curvature="0"
   style="fill:#ecd5af" />
</g>
<g
   id="g5451"
   transform="translate(-578.7,-61.8)">
	<path
   class="st9"
   d="m 618.9,378.2 c -22.2,0 -40.2,-18.1 -40.2,-40.2 0,-22.2 18.1,-40.2 40.2,-40.2 22.2,0 40.2,18.1 40.2,40.2 0,22.2 -18,40.2 -40.2,40.2 z m 0,-72.7 c -17.9,0 -32.5,14.6 -32.5,32.5 0,17.9 14.6,32.5 32.5,32.5 17.9,0 32.5,-14.6 32.5,-32.5 0,-17.9 -14.6,-32.5 -32.5,-32.5 z"
   id="path5447"
   inkscape:connector-curvature="0"
   style="fill:#474747" />
	<path
   class="st9"
   d="m 615.5,356.6 20.6,-16 c 2.1,-1.7 2.1,-4.9 0,-6.6 l -20.6,-16 c -2.7,-2.1 -6.7,-0.2 -6.7,3.3 v 32 c 0,3.5 4,5.5 6.7,3.3 z"
   id="path5449"
   inkscape:connector-curvature="0"
   style="fill:#474747" />
</g>
</svg>