<?xml version="1.0" encoding="utf-8"?>
<!-- Generator: Adobe Illustrator 23.0.4, SVG Export Plug-In . SVG Version: 6.00 Build 0)  -->
<svg version="1.1" id="Camada_1" xmlns="http://www.w3.org/2000/svg" xmlns:xlink="http://www.w3.org/1999/xlink" x="0px" y="0px"
	 viewBox="0 0 181.7 181.7" style="enable-background:new 0 0 181.7 181.7;" xml:space="preserve">
<style type="text/css">
	.st0{fill:#A9A9A9;}
	.st1{fill:#F4F4F4;}
	.st2{fill:#383838;}
</style>
<g>
	<circle class="st0" cx="90.9" cy="90.9" r="90.9"/>
	<g>
		<path class="st1" d="M56.3,101.5l12.4,0.1c1.6,0,3-1.3,3-2.9l0.1-12.4c0-1.6-1.3-3-2.9-3l-12.4-0.1c-1.6,0-3,1.3-3,2.9l-0.1,12.4
			C53.4,100.1,54.7,101.4,56.3,101.5z M58.5,88.2l8.2,0.1l-0.1,8.2l-8.2-0.1L58.5,88.2z"/>
		<path class="st1" d="M85.4,101.7l12.4,0.1c1.6,0,3-1.3,3-2.9l0.1-12.4c0-1.6-1.3-3-2.9-3l-12.4-0.1c-1.6,0-3,1.3-3,2.9l-0.1,12.4
			C82.4,100.3,83.7,101.7,85.4,101.7z M87.6,88.4l8.2,0.1l-0.1,8.2l-8.2-0.1L87.6,88.4z"/>
		<path class="st1" d="M126.8,102.5c1.6,0,3-1.3,3-2.9l0.1-12.4c0-1.6-1.3-3-2.9-3L114.5,84c-1.6,0-3,1.3-3,2.9l-0.1,12.4
			c0,1.6,1.3,3,2.9,3L126.8,102.5z M116.6,89.1l8.2,0.1l-0.1,8.2l-8.2-0.1L116.6,89.1z"/>
		<path class="st1" d="M53.2,127c0,1.6,1.3,3,2.9,3l12.4,0.1c1.6,0,3-1.3,3-2.9l0.1-12.4c0-1.6-1.3-3-2.9-3l-12.4-0.1
			c-1.6,0-3,1.3-3,2.9L53.2,127z M58.3,116.7l8.2,0.1l-0.1,8.2l-8.2-0.1L58.3,116.7z"/>
		<path class="st1" d="M82.2,127.2c0,1.6,1.3,3,2.9,3l12.4,0.1c1.6,0,3-1.3,3-2.9l0.1-12.4c0-1.6-1.3-3-2.9-3l-12.4-0.1
			c-1.6,0-3,1.3-3,2.9L82.2,127.2z M87.4,116.9l8.2,0.1l-0.1,8.2l-8.2-0.1L87.4,116.9z"/>
		<path class="st1" d="M136.4,46.4l-16.8-0.1l0-6.3c0-1.4-1.1-2.5-2.5-2.5c-1.4,0-2.5,1.1-2.5,2.5l0,6.3l-45.5-0.3l0-6.3
			c0-1.4-1.1-2.5-2.5-2.5c-1.4,0-2.5,1.1-2.5,2.5l-0.1,17.2c0,1.4,1.1,2.5,2.5,2.5s2.5-1.1,2.5-2.5l0-5.8l45.5,0.3l0,5.8
			c0,1.4,1.1,2.5,2.5,2.5s2.5-1.1,2.5-2.5l0-5.8l16.8,0.1c1.5,0,2.7,1.3,2.7,2.9L139,69.6l-96.1-0.7c-1.3,0-2.4,1-2.5,2.2
			c-0.2,0.4-0.3,0.8-0.3,1.2l-0.3,45.1c0,1.4,1.1,2.5,2.5,2.5c1.4,0,2.5-1.1,2.5-2.5L45.1,74l93.8,0.7l-0.3,35.2l-21.2-0.2
			c-1.9,0-3.4,1.5-3.4,3.4l-0.2,26.3c-0.1,0-0.1,0-0.2,0c0,0,0,0,0,0l-66.3-0.7c-1.5,0-2.7-1.3-2.7-2.9l0.1-10.4
			c0-1.4-1.1-2.5-2.5-2.5c-1.4,0-2.5,1.1-2.5,2.5l-0.1,10.4c0,4.4,3.4,7.9,7.7,8l66.3,0.7c0,0,0,0,0,0c1.7,0,3.3-0.7,4.4-1.9
			l24.2-26.1c1-1,1.5-2.4,1.5-3.8l0.4-58.4C144.2,50,140.7,46.5,136.4,46.4z M136.8,115L119,134.2l0.1-19.4L136.8,115z"/>
		<path class="st2" d="M42.7,63.8c1.4,0,2.5-1.1,2.5-2.5l0.1-7.2l10,10c0.5,0.5,1.1,0.7,1.8,0.7c0.7,0,1.3-0.2,1.8-0.7
			c1-1,1-2.6,0-3.6l-9.9-9.9l6.3,0c1.4,0,2.5-1.1,2.5-2.5c0-1.4-1.1-2.5-2.5-2.5l-15-0.1l-0.1,15.8C40.1,62.6,41.3,63.8,42.7,63.8z"
			/>
	</g>
</g>
</svg>
