<?xml version="1.0" encoding="utf-8"?>
<!-- Generator: Adobe Illustrator 23.0.4, SVG Export Plug-In . SVG Version: 6.00 Build 0)  -->
<svg version="1.1" id="Camada_1" xmlns="http://www.w3.org/2000/svg" xmlns:xlink="http://www.w3.org/1999/xlink" x="0px" y="0px"
	 viewBox="0 0 407.5 376.8" style="enable-background:new 0 0 407.5 376.8;" xml:space="preserve">
<style type="text/css">
	.st0{opacity:0.18;fill:#3493F8;}
	.st1{fill:#F8F8F8;}
	.st2{fill:#F6F6F6;}
	.st3{fill:#96C7F7;}
	.st4{fill:#56A5EF;}
	.st5{fill:#0078D2;}
</style>
<path class="st0" d="M219.8,2.2l-147,58.6c-10.6,4.2-18.1,13.7-19.7,25L30.4,242.4c-1.6,11.3,2.9,22.5,11.8,29.6l124.3,98
	c8.9,7,20.9,8.8,31.5,4.6l147-58.6c10.6-4.2,18.1-13.7,19.7-25l22.8-156.6c1.6-11.3-2.9-22.5-11.8-29.6l-124.3-98
	C242.4-0.3,230.4-2,219.8,2.2z"/>
<circle class="st1" cx="87" cy="278.5" r="67.7"/>
<rect x="91" y="91.3" class="st2" width="221.1" height="209.1"/>
<path class="st3" d="M311.7,134.9h-226V99.5c0-4,3.3-7.3,7.3-7.3h218.7V134.9z"/>
<circle class="st4" cx="201" cy="115.6" r="9.5"/>
<circle class="st4" cx="117.8" cy="115.6" r="9.5"/>
<circle class="st4" cx="281.5" cy="115.6" r="9.5"/>
<rect x="310.6" y="91" class="st3" width="32.3" height="223.7"/>
<path class="st5" d="M315.5,304.4H178c-2.1,0-3.8-1.7-3.8-3.8c0-2.1,1.7-3.8,3.8-3.8h130V105.9c0-5.5-4.9-10-11-10H101.9
	c-6.8,0-12.4,5.1-12.4,11.3v77.4c0,2.1-1.7,3.8-3.8,3.8s-3.8-1.7-3.8-3.8v-77.4c0-10.4,8.9-18.8,19.9-18.8H297
	c10.2,0,18.5,7.9,18.5,17.5V304.4z"/>
<path class="st5" d="M341.7,234.3c-2.1,0-3.8-1.7-3.8-3.8V117c0-2.1,1.7-3.8,3.8-3.8c2.1,0,3.8,1.7,3.8,3.8v113.6
	C345.5,232.6,343.8,234.3,341.7,234.3z"/>
<path class="st5" d="M323.3,96h-18.4c-2.1,0-3.8-1.7-3.8-3.8s1.7-3.8,3.8-3.8h18.4c2.1,0,3.8,1.7,3.8,3.8S325.3,96,323.3,96z"/>
<path class="st5" d="M281.8,119c-14.8,0-26.8-12-26.8-26.8c0-14.8,12-26.8,26.8-26.8c14.8,0,26.8,12,26.8,26.8
	c0,2.1-1.7,3.8-3.8,3.8s-3.8-1.7-3.8-3.8c0-10.6-8.7-19.3-19.3-19.3s-19.3,8.7-19.3,19.3s8.7,19.3,19.3,19.3c2.1,0,3.8,1.7,3.8,3.8
	C285.5,117.3,283.8,119,281.8,119z"/>
<path class="st5" d="M201.1,119c-14.8,0-26.8-12-26.8-26.8c0-14.8,12-26.8,26.8-26.8c14.8,0,26.8,12,26.8,26.8
	c0,2.1-1.7,3.8-3.8,3.8s-3.8-1.7-3.8-3.8c0-10.6-8.7-19.3-19.3-19.3s-19.3,8.7-19.3,19.3s8.7,19.3,19.3,19.3c2.1,0,3.8,1.7,3.8,3.8
	C204.8,117.3,203.1,119,201.1,119z"/>
<path class="st5" d="M118,119c-14.8,0-26.8-12-26.8-26.8c0-14.8,12-26.8,26.8-26.8c14.8,0,26.8,12,26.8,26.8c0,2.1-1.7,3.8-3.8,3.8
	c-2.1,0-3.8-1.7-3.8-3.8c0-10.6-8.7-19.3-19.3-19.3c-10.6,0-19.3,8.7-19.3,19.3s8.7,19.3,19.3,19.3c2.1,0,3.8,1.7,3.8,3.8
	C121.8,117.3,120.1,119,118,119z"/>
<path class="st5" d="M125.9,285.9H81.4v-55.1c0-2.1,1.7-3.8,3.8-3.8s3.8,1.7,3.8,3.8v47.6h37c2.1,0,3.8,1.7,3.8,3.8
	C129.7,284.2,128,285.9,125.9,285.9z"/>
<path class="st3" d="M85.1,362.1C38.2,362.1,0,323.9,0,277s38.2-85.1,85.1-85.1s85.1,38.2,85.1,85.1S132.1,362.1,85.1,362.1z
	 M85.1,207.9C47,207.9,16,238.9,16,277c0,38.1,31,69.1,69.1,69.1s69.1-31,69.1-69.1C154.3,238.9,123.2,207.9,85.1,207.9z"/>
<path class="st5" d="M85,349.2c-9.3,0-18.5-1.8-27.2-5.4C21,328.7,3.2,286.5,18.3,249.7c15.1-36.8,57.3-54.5,94.1-39.5
	c17.8,7.3,31.8,21.1,39.2,38.9c7.5,17.8,7.5,37.4,0.2,55.2c-6.3,15.3-17.2,27.6-31.6,35.7c-1.8,1-4.1,0.4-5.1-1.4
	c-1-1.8-0.4-4.1,1.4-5.1c12.9-7.2,22.7-18.2,28.3-31.9c6.5-16,6.5-33.6-0.2-49.5c-6.7-15.9-19.2-28.3-35.1-34.8
	c-33-13.5-70.8,2.4-84.3,35.4c-13.5,33,2.4,70.8,35.4,84.3c8.8,3.6,18,5.2,27.4,4.8c2.1-0.1,3.8,1.5,3.9,3.6
	c0.1,2.1-1.5,3.8-3.6,3.9C87.3,349.2,86.1,349.2,85,349.2z"/>
<path class="st4" d="M274.1,258.6h-23.3c-3.6,0-6.5-2.9-6.5-6.5v-23.3c0-3.6,2.9-6.5,6.5-6.5h23.3c3.6,0,6.5,2.9,6.5,6.5v23.3
	C280.5,255.7,277.6,258.6,274.1,258.6z"/>
<path class="st3" d="M150.2,194.6h-23.3c-3.6,0-6.5-2.9-6.5-6.5v-23.3c0-3.6,2.9-6.5,6.5-6.5h23.3c3.6,0,6.5,2.9,6.5,6.5v23.3
	C156.7,191.7,153.8,194.6,150.2,194.6z"/>
<path class="st3" d="M210.8,194.6h-23.3c-3.6,0-6.5-2.9-6.5-6.5v-23.3c0-3.6,2.9-6.5,6.5-6.5h23.3c3.6,0,6.5,2.9,6.5,6.5v23.3
	C217.3,191.7,214.4,194.6,210.8,194.6z"/>
<path class="st3" d="M271.3,194.6H248c-3.6,0-6.5-2.9-6.5-6.5v-23.3c0-3.6,2.9-6.5,6.5-6.5h23.3c3.6,0,6.5,2.9,6.5,6.5v23.3
	C277.8,191.7,274.9,194.6,271.3,194.6z"/>
<path class="st3" d="M210.3,258.1h-23.3c-3.6,0-6.5-2.9-6.5-6.5v-23.4c0-3.6,2.9-6.5,6.5-6.5h23.3c3.6,0,6.5,2.9,6.5,6.5v23.4
	C216.8,255.2,213.9,258.1,210.3,258.1z"/>
<g>
	<path class="st1" d="M268.6,324.2l60.6,25l14.5-1.2l27.7-19.4l5.4-11.2l-1.2-14.9L346.9,260l-10.2,3l-0.6,5.4l-6.8-3.9l-7.9,2.9
		l-3.8,4.6l-8.5-1.4l-5.7,6.9l-21-26.1l-8.3,0.7l-3.3,8.2l35.9,57.7l-27.7-6.3C279,311.6,272.8,312.1,268.6,324.2z"/>
	<path class="st5" d="M337.4,259.2l-0.2,0.1c-2,1.3-3.5,3.2-4.2,5.5c-3.6-2.4-8.3-2.7-12-0.3c-2.2,1.4-3.8,3.6-4.5,6.2
		c-3.4-1.9-7.6-1.7-10.9,0.4l-0.2,0.1c-1.6,1.1-3,2.6-3.8,4.4l-13.1-20.3c-3.4-5.3-10.4-7-15.4-3.7l0,0c-5.1,3.3-6.4,10.3-2.9,15.6
		l30.5,46.4l-16.7-3.5c-3.8-1.2-8-0.8-11.6,1.1c-3.5,1.9-6,5.2-7,9.1l-0.9,3c-0.4,1.3,0.3,2.8,1.5,3.3l54.2,22.3
		c8.4,4.7,18.3,4.5,25.9-0.5l22.5-14.5c4.3-2.8,7.6-6.9,9.4-11.8c2.9-7.7,2.1-16.8-2.8-24.5c-3.5-5.4-6.1-9.5-8.2-12.8
		c-5.7-8.9-7.9-12.2-14.2-21.9C349.3,257.6,342.4,255.9,337.4,259.2z M348.3,265.8c6.3,9.7,8.5,13,14.2,21.9
		c2.1,3.3,4.7,7.3,8.2,12.8c6.4,10,4.2,22.9-5,28.9l-22.5,14.5c-6,3.9-13.9,4-20.5,0.2c-0.1-0.1-0.2-0.1-0.3-0.1l-52.1-21.4l0.2-0.7
		c0,0,0-0.1,0-0.1c0.6-2.5,2.2-4.6,4.4-5.8c2.3-1.2,5-1.5,7.5-0.6c0.1,0,0.2,0.1,0.3,0.1l23.2,4.8c1.1,0.2,2.2-0.2,2.8-1.1
		c0.6-0.9,0.6-2.1,0-3l-34.1-51.8c-1.8-2.8-1.2-6.5,1.3-8.2l0,0c2.6-1.7,6.2-0.7,8,2.1l18.3,28.3c0.1,0.1,0.1,0.2,0.2,0.3
		c0,0,0.1,0.1,0.1,0.1l7.8,12.1c0.5,0.8,1.4,1.3,2.4,1.3s1.8-0.6,2.3-1.5c0.4-0.9,0.4-1.9-0.2-2.7l-8.1-12.5c-1.7-2.8-1-6.3,1.5-7.9
		l0.2-0.1c2.6-1.7,6.2-0.7,8,2.1l1.5,2.3l0,0.1l0,0l5.6,8.7c0.8,1.2,2.5,1.6,3.7,0.8c1.2-0.8,1.6-2.5,0.8-3.7l-5.7-8.7
		c-1.8-2.8-1.2-6.5,1.4-8.1c2.6-1.7,6.2-0.7,8,2.1l2.4,3.7l0,0l0,0l2.9,4.4c0.8,1.2,2.5,1.6,3.7,0.8c1.2-0.8,1.6-2.5,0.8-3.7
		l-2.9-4.5c-0.9-1.4-1.2-3-1-4.6c0.2-1.5,1.1-2.7,2.3-3.6l0.2-0.1C342.9,262,346.4,263,348.3,265.8z"/>
</g>
<g>
	<path class="st3" d="M405.8,321.6l-15.4-3.9c-1.2-0.3-2.5,0.4-2.8,1.7c-0.3,1.2,0.4,2.5,1.7,2.8l15.4,4c0.2,0,0.4,0.1,0.6,0.1
		c1,0,2-0.7,2.2-1.7C407.8,323.2,407,321.9,405.8,321.6z"/>
	<path class="st3" d="M388.5,313.7c0.4,0,0.8-0.1,1.2-0.3l8.3-4.9c1.1-0.6,1.5-2.1,0.8-3.2c-0.6-1.1-2.1-1.5-3.2-0.8l-8.3,4.9
		c-1.1,0.6-1.5,2.1-0.8,3.2C386.9,313.2,387.7,313.7,388.5,313.7z"/>
	<path class="st3" d="M386.5,325.6c-0.6-1.1-2.1-1.5-3.2-0.8c-1.1,0.6-1.5,2.1-0.8,3.2l4.9,8.3c0.4,0.7,1.2,1.1,2,1.1
		c0.4,0,0.8-0.1,1.2-0.3c1.1-0.6,1.5-2.1,0.8-3.2L386.5,325.6z"/>
</g>
<path class="st3" d="M58.7,124.1h-9.2v-11.5c0-1.9-1.5-3.5-3.5-3.5s-3.5,1.5-3.5,3.5v11.5h-9.2c-1.9,0-3.5,1.5-3.5,3.5
	s1.5,3.5,3.5,3.5h9.2v9.2c0,1.9,1.5,3.5,3.5,3.5s3.5-1.5,3.5-3.5v-9.2h9.2c1.9,0,3.5-1.5,3.5-3.5S60.6,124.1,58.7,124.1z"/>
<path class="st5" d="M133.3,344.2c-0.1,0-0.1,0-0.2,0l-22.4-1.3l4.6-22.5c0.4-2,2.4-3.3,4.4-2.9c2,0.4,3.3,2.4,2.9,4.4l-2.9,14
	l13.8,0.8c2.1,0.1,3.7,1.9,3.5,4C136.9,342.6,135.2,344.2,133.3,344.2z"/>
</svg>
