<?xml version="1.0" encoding="utf-8"?>
<!-- Generator: Adobe Illustrator 23.0.4, SVG Export Plug-In . SVG Version: 6.00 Build 0)  -->
<svg version="1.1" id="Camada_1" xmlns="http://www.w3.org/2000/svg" xmlns:xlink="http://www.w3.org/1999/xlink" x="0px" y="0px"
	 viewBox="0 0 150.1 194" style="enable-background:new 0 0 150.1 194;" xml:space="preserve">
<style type="text/css">
	.st0{fill:#96C7F7;}
	.st1{fill:#56A5EF;}
	.st2{fill:#FFFFFF;}
	.st3{fill:#0078D2;}
</style>
<g>
	<path class="st0" d="M148.1,190.9h-137c-6.1,0-11.1-5-11.1-11.1V17.5C0,9,7,2,15.5,2h132.6V190.9z"/>
	<path class="st1" d="M14,190.9h1.5v-163H2v151C2,185.5,7.3,190.9,14,190.9z"/>
	<path class="st2" d="M142.5,36.9H58.7v22.8l-12-8l-14,10l-0.4-24.8H13.8c-7.2,0-13-5.8-13-13v-3.2c0-7.2,5.8-13,13-13l128.7,0V36.9
		z"/>
	<rect x="45.8" y="131.3" class="st2" width="63" height="31.5"/>
	<path class="st3" d="M142.6,194H14.1C6.3,194,0,187.7,0,179.9V22.2h3.9v157.7c0,5.6,4.6,10.2,10.2,10.2h128.5c2,0,3.6-1.6,3.6-3.6
		V37.7h-28.4v-3.9h32.3v152.7C150.1,190.6,146.7,194,142.6,194z"/>
	<path class="st3" d="M143.4,37.7H67.3c-1,0-1.9-0.7-2-1.6c-0.2-1.2,0.7-2.3,1.9-2.3h72.2V10.7l-123.6,0c-6,0-11.2,4.4-11.8,10.4
		C3.3,28,8.7,33.8,15.5,33.8h16.8c1,0,1.9,0.7,2,1.6c0.2,1.2-0.7,2.3-1.9,2.3l-16.4,0C7.6,37.7,0.4,31.3,0,23
		C-0.4,14.1,6.7,6.8,15.5,6.8h127.9V37.7z"/>
	<rect x="130.1" y="15.8" class="st3" width="11.2" height="3.9"/>
	<rect x="89.7" y="25.9" class="st3" width="51.7" height="3.9"/>
	<rect x="3.1" y="15.8" class="st3" width="20.2" height="3.9"/>
	<path class="st3" d="M15.1,177.1c-1-0.2-1.6-1.1-1.6-2V35.8c0-1,0.7-1.9,1.6-2c1.2-0.2,2.3,0.7,2.3,1.9v139.4
		C17.4,176.4,16.4,177.3,15.1,177.1z"/>
	<path class="st1" d="M59.3,61.6l-13.5-9l-13.5,9v-27c0-3.1,2.5-5.6,5.6-5.6h15.8c3.1,0,5.6,2.5,5.6,5.6V61.6z"/>
	<path class="st3" d="M110.8,164.8H43.9v-35.4h64.8c1,0,1.9,0.7,2,1.6c0.2,1.2-0.7,2.3-1.9,2.3h-61v27.5h59v-21.5c0-1,0.7-1.9,1.6-2
		c1.2-0.2,2.3,0.7,2.3,1.9V164.8z"/>
	<path class="st3" d="M95.3,145.6H59.4c-1,0-1.9-0.7-2-1.6c-0.2-1.2,0.7-2.3,1.9-2.3h35.9c1,0,1.9,0.7,2,1.6
		C97.4,144.6,96.5,145.6,95.3,145.6z"/>
	<path class="st3" d="M85.2,153.5H68.4c-1,0-1.9-0.7-2-1.6c-0.2-1.2,0.7-2.3,1.9-2.3h16.8c1,0,1.9,0.7,2,1.6
		C87.3,152.4,86.4,153.5,85.2,153.5z"/>
	<path class="st3" d="M61.3,65.3L45.8,55L30.3,65.3V34.6c0-4.2,3.4-7.6,7.6-7.6h15.8c4.2,0,7.6,3.4,7.6,7.6V65.3z M37.9,31
		c-2,0-3.6,1.6-3.6,3.6v23.3l11.5-7.7l11.5,7.7V34.6c0-2-1.6-3.6-3.6-3.6H37.9z"/>
	<path class="st3" d="M148.1,25.4c-1.1,0-2-0.9-2-2V4H21.1c-1.1,0-2-0.9-2-2s0.9-2,2-2h129.1v23.4C150.1,24.5,149.2,25.4,148.1,25.4
		z"/>
</g>
</svg>
