<?xml version="1.0" encoding="utf-8"?>
<!-- Generator: Adobe Illustrator 23.0.4, SVG Export Plug-In . SVG Version: 6.00 Build 0)  -->
<svg version="1.1" id="Camada_1" xmlns="http://www.w3.org/2000/svg" xmlns:xlink="http://www.w3.org/1999/xlink" x="0px" y="0px"
	 viewBox="0 0 236 163.3" style="enable-background:new 0 0 236 163.3;" xml:space="preserve">
<style type="text/css">
	.st0{fill:#F5F5F5;}
	.st1{fill:#57A3ED;}
	.st2{fill:#94C5F5;}
	.st3{opacity:0.18;fill:#3691F6;}
	.st4{fill:#0078D0;}
	.st5{fill:#D5E6F8;}
	.st6{fill:none;stroke:#0078D0;stroke-width:3;stroke-linecap:round;stroke-miterlimit:10;}
</style>
<g>
	<g>
		<path class="st0" d="M198.2,106.8H36.8V14.5c0-5.9,4.8-10.6,10.6-10.6h144.7c3.3,0,6,2.7,6,6V106.8z"/>
		<path class="st1" d="M184.9,95.7H54.7c-4.1,0-7.4-3.3-7.4-7.4v-68c0-4.5,3.6-8.1,8.1-8.1h135.3V90
			C190.6,93.2,188.1,95.7,184.9,95.7z"/>
		<path class="st0" d="M227.2,149.2H9.2c-4.1,0-6.1-5-3.1-7.9l32.3-30.7h159.8L231,139C235.1,142.5,232.6,149.2,227.2,149.2z"/>
		<polygon class="st2" points="152.7,150.4 85.4,150.4 96.3,136.3 140,136.7 		"/>
		<path class="st2" d="M188.4,95.7H52.2c-2.7,0-4.9-2.2-4.9-4.9V16.2h141.1V95.7z"/>
		<path class="st3" d="M230,160.9H7.8c-2.8,0-5-2.2-5-5v-7.4h230.2v9.4C233.1,159.5,231.7,160.9,230,160.9z"/>
		<polygon class="st3" points="207.8,129.9 27,129.9 46.4,107.9 188.3,107.9 		"/>
		<g>
			<path class="st4" d="M236,145.2c0.1-1.5-0.5-3-1.7-4.2L201,107.9V13.1C201,5.9,195.2,0,188,0H48.7c-7.2,0-13.1,5.9-13.1,13.1
				v94.9L2.4,141.1c-1.2,1.2-1.7,2.6-1.7,4.2c0,0.1,0,0.1,0,0.2v9.1c0,4.9,4.3,8.8,9.5,8.8h216.2c5.3,0,9.5-4,9.5-8.8v-9.1
				C236,145.4,236,145.3,236,145.2z M39.5,13.1c0-5.1,4.1-9.2,9.2-9.2H188c5.1,0,9.2,4.1,9.2,9.2v93.7H39.5V13.1z M5.1,143.8
				l33.3-33.2h159.9l33.3,33.2c0.7,0.7,0.6,1.5,0.4,1.9c-0.3,0.7-1,1.3-2.3,1.3h-77.5l-7.4-9.7c-1.1-1.4-2.7-2.2-4.4-2.2H96.3
				c-1.7,0-3.4,0.8-4.4,2.2l-7.4,9.7H7c-1.3,0-2-0.7-2.3-1.3C4.6,145.3,4.4,144.5,5.1,143.8z M226.4,159.5H10.3
				c-3.1,0-5.7-2.2-5.7-5v-4.1c0.7,0.3,1.5,0.5,2.4,0.5h124.3c1.1,0,1.9-0.9,1.9-1.9c0-1.1-0.9-1.9-1.9-1.9h-42l5.6-7.4
				c0.3-0.4,0.8-0.7,1.4-0.7h44.1c0.5,0,1.1,0.3,1.4,0.7l5.6,7.4h-8.7c-1.1,0-1.9,0.9-1.9,1.9c0,1.1,0.9,1.9,1.9,1.9h91.1
				c0.8,0,1.6-0.2,2.4-0.5v4.1C232.1,157.3,229.6,159.5,226.4,159.5z"/>
			<path class="st2" d="M46.8,117.5h8c1,0,1.8-0.9,1.8-1.9s-0.8-1.9-1.8-1.9h-8c-1,0-1.8,0.9-1.8,1.9S45.8,117.5,46.8,117.5z"/>
			<path class="st2" d="M61.1,117.5h12.2c1,0,1.8-0.9,1.8-1.9s-0.8-1.9-1.8-1.9H61.1c-1,0-1.8,0.9-1.8,1.9S60.1,117.5,61.1,117.5z"
				/>
			<path class="st4" d="M46.1,20.6c0,1.1,0.9,1.9,1.9,1.9s1.9-0.9,1.9-1.9c0-2.5,2-4.6,4.6-4.6h132.3v74c0,2.5-2,4.6-4.6,4.6H54.5
				c-2.5,0-4.6-2-4.6-4.6V28.6c0-1.1-0.9-1.9-1.9-1.9s-1.9,0.9-1.9,1.9V90c0,4.6,3.8,8.4,8.4,8.4h127.8c4.6,0,8.4-3.8,8.4-8.4V12.2
				H54.5C49.8,12.2,46.1,16,46.1,20.6z"/>
		</g>
	</g>
	<path class="st5" d="M105.7,72.6H67.3c-2.3,0-4.1-1.8-4.1-4.1V39.5c0-2.3,1.8-4.1,4.1-4.1h38.5c2.3,0,4.1,1.8,4.1,4.1v28.9
		C109.9,70.7,108,72.6,105.7,72.6z"/>
	<line class="st6" x1="122.9" y1="42.6" x2="168.2" y2="42.6"/>
	<line class="st6" x1="122.9" y1="54" x2="168.2" y2="54"/>
	<line class="st6" x1="122.9" y1="65.3" x2="151.8" y2="65.3"/>
</g>
</svg>
