<?xml version="1.0" encoding="utf-8"?>
<!-- Generator: Adobe Illustrator 23.0.4, SVG Export Plug-In . SVG Version: 6.00 Build 0)  -->
<svg version="1.1" id="Camada_1" xmlns="http://www.w3.org/2000/svg" xmlns:xlink="http://www.w3.org/1999/xlink" x="0px" y="0px"
	 viewBox="0 0 193.5 223.7" style="enable-background:new 0 0 193.5 223.7;" xml:space="preserve">
<style type="text/css">
	.st0{opacity:0.18;fill:#3691F6;}
	.st1{fill:#57A3ED;}
	.st2{fill:#94C5F5;}
	.st3{fill:#0078D0;}
</style>
<g>
	<path class="st0" d="M163.9,114.2L163.9,114.2c16.4,0,29.6-13.3,29.6-29.6v0c0-16.4-13.3-29.6-29.6-29.6h0
		c-16.4,0-29.6,13.3-29.6,29.6v0C134.2,100.9,147.5,114.2,163.9,114.2z"/>
	<path class="st0" d="M46.9,63.2v59.2l20.6-12.3l15.7-0.1l2-3.1l-2.9-53.2l-3.5-2.2C78.8,51.5,64.6,51.7,46.9,63.2z"/>
	<path class="st0" d="M10.2,63.2c-0.6-0.5-8.4,0-8.4,0v60.3c0,0,31.8-6.8,45.1-1.1c0,0-15.5-16.8-34.8-12.4l-2-3.1L10.2,63.2z"/>
	<path class="st0" d="M85.1,63.2c0.6-0.5,8.4,0,8.4,0v60.3c0,0-31.8-6.8-45.1-1.1c0,0,15.5-16.8,34.8-12.4l2-3.1L85.1,63.2z"/>
	<path class="st0" d="M46.9,63.2v59.2l-20-12.3L11.8,110l-1.9-3.1l2.8-53.2l3.4-2.2C16,51.5,29.8,51.7,46.9,63.2z"/>
	<polygon class="st1" points="34,162.2 74.1,197.4 76,203.3 60.3,221.6 57.3,221.6 14.3,182 14.3,178.4 30.1,162.2 	"/>
	<polygon class="st2" points="100.9,76.2 100.8,53.4 109.2,50.8 117.2,51.5 119,57.1 119,75.6 142.1,75.6 142.1,27.5 108.8,4.8 
		76.2,26.2 76.2,51.4 83.1,51.8 84.4,63.7 92.1,64.1 92.7,76.2 	"/>
	<g>
		<path class="st3" d="M193.4,81.5c-1.1,0-2,0.9-2,2c0,15.1-12.3,27.3-27.3,27.3s-27.3-12.3-27.3-27.3c0-2,0.2-4,0.7-6h6.1V65.4
			c0.1-0.1,0.3-0.2,0.4-0.3c5.2-5.7,12.5-8.9,20.2-8.9c12.2,0,23,8.2,26.3,19.9c0.2,0.9,1,1.4,1.9,1.4c0.2,0,0.4,0,0.5-0.1
			c1-0.3,1.6-1.4,1.4-2.4c-3.8-13.4-16.2-22.8-30.1-22.8c-7.6,0-14.9,2.8-20.6,7.7V34.1c0-1.1-0.9-2-2-2c-1.1,0-2,0.9-2,2v39.4
			h-18.3V55.7c0-3.5-2.9-6.4-6.4-6.4h-9.5c-3.5,0-6.4,2.9-6.4,6.4v19.8c0,1.1,0.9,2,2,2s2-0.9,2-2V55.7c0-1.4,1.1-2.5,2.5-2.5h9.5
			c1.4,0,2.5,1.1,2.5,2.5v21.8h16.1c-0.4,2-0.6,4-0.6,6c0,17.2,14,31.3,31.3,31.3s31.3-14,31.3-31.3
			C195.4,82.4,194.5,81.5,193.4,81.5z"/>
		<path class="st3" d="M164.1,105.6c1.2,0,2.2-1,2.2-2.2v-5.8c0.7-0.1,1.4-0.2,2.1-0.4c1.3-0.3,2.4-0.8,3.4-1.5
			c1-0.7,1.7-1.5,2.3-2.6c0.6-1.1,0.8-2.3,0.8-3.8c0-1.3-0.2-2.4-0.7-3.3c-0.4-0.9-1.1-1.7-1.9-2.3c-0.8-0.6-1.8-1.2-3-1.6
			c-0.9-0.3-1.9-0.6-3-0.9v-8.7c0,0,0,0,0.1,0c0.8,0.2,1.6,0.4,2.3,0.7c0.7,0.3,1.3,0.6,1.8,1c0,0,0,0,0,0c0.7,0.4,1.6,0.2,2-0.5
			l0.7-1.3c0.4-0.6,0.2-1.4-0.5-1.8c-1-0.6-2.1-1.1-3.3-1.6c-1-0.4-2-0.6-3.1-0.8v-4.8c0-1.2-1-2.2-2.2-2.2c-1.2,0-2.2,1-2.2,2.2
			v4.8c-0.7,0.1-1.4,0.2-2.1,0.4c-1.3,0.4-2.4,0.9-3.3,1.7c-0.9,0.8-1.7,1.7-2.2,2.8c-0.5,1.1-0.8,2.4-0.8,3.8
			c0,1.1,0.2,2.1,0.6,2.9c0.4,0.8,0.9,1.5,1.6,2.1c0.7,0.6,1.6,1.1,2.7,1.5c1,0.4,2.3,0.8,3.7,1.2v8.6c-0.3,0-0.5-0.1-0.8-0.1
			c-1-0.3-2-0.6-2.9-0.9c-0.9-0.4-1.7-0.8-2.3-1.2c0,0,0,0,0,0c-0.8-0.6-2-0.3-2.5,0.6l-0.4,0.8c-0.4,0.8-0.2,1.8,0.6,2.3
			c1.3,0.8,2.7,1.5,4.3,2c1.3,0.4,2.7,0.7,4,0.9v5.9C161.9,104.6,162.9,105.6,164.1,105.6z M167.9,86.7c0.7,0.4,1.2,0.8,1.6,1.3
			c0.4,0.5,0.6,1.1,0.6,1.8c0,1.2-0.5,2.2-1.5,2.8c-0.6,0.4-1.3,0.6-2.2,0.8V86C166.9,86.2,167.4,86.5,167.9,86.7z M160,79.2
			c-0.6-0.3-1-0.7-1.3-1.2c-0.3-0.5-0.4-1-0.4-1.7c0-1.3,0.5-2.2,1.4-2.9c0.6-0.4,1.4-0.7,2.3-0.9V80
			C161.1,79.8,160.5,79.5,160,79.2z"/>
		<path class="st3" d="M65.1,34.4c0.4,0,0.8-0.1,1.1-0.3l42.6-29.3l41.8,29.3c0.9,0.6,2.1,0.4,2.7-0.5c0.6-0.9,0.4-2.1-0.5-2.7
			L108.8,0L64,30.9c-0.9,0.6-1.1,1.8-0.5,2.7C63.9,34.1,64.5,34.4,65.1,34.4z"/>
		<path class="st3" d="M46.3,124.5c0,0,0.3,0.2,0.7,0.4c0.7,0.3,1.6,0.2,2.1-0.4l0,0c0.5-0.5,4.8-5.2,11.1-8.9
			c1.3-0.7,2.6-1.4,3.8-2c5.8-2.6,11.4-3.3,16.7-2.2c0.9,0.2,1.9,0.2,2.7-0.2c1.4-0.7,2.3-2.1,2.3-3.6V65.7l5.4,0l-0.1,55.5
			c-5.2-1.5-18.7-4.7-31.8-3.2c-1,0.1-1.9,1-1.8,2c0,1.2,1.1,2,2.2,1.9c12.4-1.5,25.4,1.6,30.4,3c0.4,0.1,0.7,0.2,1.1,0.2
			c0.9,0,1.7-0.3,2.4-0.8c1-0.8,1.6-2.1,1.6-3.4l0-55.2c0-2.2-1.8-4-4-4h-5.4v-7.6c0-2-1.5-3.7-3.5-4c-0.9-0.1-2.2-0.2-3.8-0.2V35.7
			c0-1-0.7-1.9-1.6-2c-1.2-0.2-2.3,0.7-2.3,1.9v14.5c-7.3,0.6-17.9,3.1-27,12C34.2,49,17.8,49.7,12.9,50.2c-2,0.2-3.5,1.9-3.5,4v7.6
			H4c-2.2,0-4,1.8-4,4L0,121c0,1.3,0.5,2.6,1.6,3.4c0.7,0.5,1.5,0.8,2.4,0.8c0.4,0,0.7,0,1.1-0.2C11,123.3,31.4,117.9,46.3,124.5z
			 M46.1,66.2c0.4,0.4,0.9,0.6,1.5,0.6c0.5,0,1.1-0.2,1.5-0.6c12.3-13.2,28.2-12.6,32.8-12l-0.1,53.4c-6.2-1.4-12.7-0.6-19.3,2.4
			c-1.4,0.6-2.8,1.4-4.2,2.2c-3.6,2.1-6.6,4.5-8.7,6.4v-10.8c0-1-0.7-1.9-1.6-2c-1.2-0.2-2.3,0.7-2.3,1.9v11
			c-5.8-5.2-18.2-14.3-32.4-11.1l0.1-53.4C17.9,53.6,33.8,53,46.1,66.2z M3.9,121.2L4,65.7h5.4l0,41.7c0,0.9,0.3,1.9,0.9,2.6
			c1,1.2,2.5,1.7,4,1.4c10.1-2.3,19.5,2.8,25.4,7.3C25.7,116,10.6,119.4,3.9,121.2z"/>
		<path class="st3" d="M47.6,98c1.1,0,2-0.9,2-2v-23c0-1.1-0.9-2-2-2s-2,0.9-2,2v23C45.7,97.2,46.6,98,47.6,98z"/>
		<path class="st3" d="M41.1,166.3c0.1-0.1,0.3-0.3,0.4-0.5c0-0.1,4.5-8.2,12.9-14.3c11.1-8.1,23.4-8.9,36.6-2.4l0.4,0.2h39.3
			c4.1,0,7.5,3.4,7.5,7.5c0,4.1-3.4,7.5-7.5,7.5h-28.5c-1.1,0-2,0.9-2,2c0,1.1,0.9,2,2,2h28.5c6.3,0,11.4-5.1,11.4-11.4
			c0-6.3-5.1-11.4-11.4-11.4H92.4c-32.9-15.8-52.2,14.8-54.2,18.2l-1.3-1.2c-3.7-3.4-9.4-3.1-12.7,0.6l-12.6,13.8
			c-2,2.2-1.9,5.7,0.4,7.7l41.4,37.7c1,0.9,2.4,1.4,3.7,1.4c1.5,0,3-0.6,4-1.8l12.6-13.8c3.4-3.7,3.1-9.4-0.6-12.7L41.1,166.3z
			 M70.7,205.5l-12.6,13.8c-0.6,0.6-1.5,0.7-2.2,0.1l-41.4-37.7c-0.6-0.6-0.7-1.5-0.1-2.2l12.6-13.8c1.9-2.1,5.1-2.2,7.2-0.3
			l36.1,32.9C72.5,200.2,72.6,203.4,70.7,205.5z"/>
		<path class="st3" d="M171.2,123.5c-3.1,0-6,1.2-8.3,3.4l-19.3,22.7c-0.7,0.8-0.6,2.1,0.2,2.8c0.8,0.7,2.1,0.6,2.8-0.2l19.1-22.5
			c1.5-1.4,3.4-2.2,5.4-2.2c2.1,0,4,0.8,5.5,2.3c2.8,2.8,3,7.2,0.6,10.3l-30,37.7c-4,5-10,7.9-16.4,7.9H85.2c-3.6,0-7.2,1-10.2,3
			c-0.9,0.6-1.2,1.8-0.6,2.7c0.4,0.6,1,0.9,1.7,0.9c0.4,0,0.7-0.1,1.1-0.3c2.4-1.6,5.2-2.4,8.1-2.4h45.7c7.6,0,14.7-3.4,19.5-9.4
			l30-37.7c3.7-4.6,3.3-11.3-0.9-15.5C177.2,124.8,174.3,123.5,171.2,123.5z"/>
	</g>
</g>
</svg>
