<?xml version="1.0" encoding="utf-8"?>
<!-- Generator: Adobe Illustrator 23.0.4, SVG Export Plug-In . SVG Version: 6.00 Build 0)  -->
<svg version="1.1" id="Camada_1" xmlns="http://www.w3.org/2000/svg" xmlns:xlink="http://www.w3.org/1999/xlink" x="0px" y="0px"
	 viewBox="0 0 194.6 194.2" style="enable-background:new 0 0 194.6 194.2;" xml:space="preserve">
<style type="text/css">
	.st0{opacity:0.18;fill:#3493F8;}
	.st1{fill:#0078D2;}
	.st2{fill:#96C7F7;}
	.st3{fill:#68ADF8;}
	.st4{fill:#F8F8F8;}
</style>
<g>
	<circle class="st0" cx="97.6" cy="97.2" r="94.7"/>
	<path class="st1" d="M160.6,170.2c-0.6,0-1.3-0.3-1.7-0.8c-0.9-1-0.8-2.4,0.2-3.3c19.1-17.1,30.1-40.5,30.8-66.1
		c1.2-38.1-20.7-72.5-55.7-87.6c-1.2-0.5-1.7-1.9-1.2-3.1c0.5-1.2,1.9-1.7,3.1-1.2c36.7,15.9,59.7,52,58.5,92
		c-0.8,26.9-12.3,51.5-32.4,69.5C161.7,170,161.2,170.2,160.6,170.2z"/>
	<path class="st1" d="M97.6,194.2c-1,0-2,0-3,0c-53.5-1.6-95.7-46.4-94-99.9c1-32.8,18.3-62.7,46.4-79.8c1.1-0.7,2.5-0.3,3.2,0.8
		c0.7,1.1,0.3,2.5-0.8,3.2C22.7,34.7,6.2,63.1,5.3,94.4c-1.5,50.9,38.6,93.6,89.5,95.1c16.7,0.5,33.3-3.5,47.8-11.6
		c1.1-0.6,2.5-0.2,3.2,0.9c0.6,1.1,0.2,2.5-0.9,3.2C130.4,190,114.2,194.2,97.6,194.2z"/>
	<circle class="st2" cx="97.6" cy="97.2" r="69.2"/>
	<g>
		<polygon class="st3" points="117.3,95.4 117.3,6.3 120.2,1.4 124.1,2.4 136.7,55.7 135.7,63.4 129.9,72.1 127,75 127,93.9 		"/>
		<path class="st4" d="M117.8,174.8h8.7c4,0,7.3-3.3,7.3-7.3V97c0-1.4-1.2-2.6-2.6-2.6h-20.6v73.1
			C110.5,171.5,113.8,174.8,117.8,174.8z"/>
		<path class="st1" d="M122.1,177.7c-7.3,0-13.2-5.9-13.2-13.2V97.3c0-2.8,2.3-5.2,5.2-5.2h16c2.8,0,5.2,2.3,5.2,5.2v67.2
			C135.3,171.8,129.4,177.7,122.1,177.7z M114.1,96c-0.7,0-1.3,0.6-1.3,1.3v67.2c0,5.1,4.2,9.3,9.3,9.3c5.1,0,9.3-4.2,9.3-9.3V97.3
			c0-0.7-0.6-1.3-1.3-1.3H114.1z"/>
		<path class="st1" d="M116.9,95.7c-1.1,0-1.9-0.9-1.9-1.9V6.2c0-3.4,2.4-6.1,5.8-6.4c3.4-0.3,6.3,1.7,7,5.1l10.5,50.6
			c1.3,6.5-1.1,13.1-6.3,17.2l-2.3,1.8v9.7c0,1.1-0.9,1.9-1.9,1.9s-1.9-0.9-1.9-1.9V72.7l3.8-3c4.1-3.2,6-8.3,4.9-13.4L123.9,5.7
			c-0.4-2.2-2.4-2.1-2.8-2c-0.4,0-2.3,0.3-2.3,2.5v87.5C118.9,94.8,118,95.7,116.9,95.7z"/>
	</g>
	<g>
		<path class="st4" d="M71.3,174.8H80c4,0,7.3-3.3,7.3-7.3V97c0-1.4-1.2-2.6-2.6-2.6H64v73.1C64,171.5,67.3,174.8,71.3,174.8z"/>
		<rect x="69.8" y="52.8" class="st3" width="8.7" height="40.7"/>
		<path class="st3" d="M92.1,29.5H56.3c0,0-2.9,24.2,16.5,24.2S92.1,34.4,92.1,29.5z"/>
		<path class="st1" d="M74.7,177.4c-7.3,0-13.2-5.9-13.2-13.2V97.8c0-3.3,2.7-6,6-6h14.3c3.3,0,6,2.7,6,6v66.4
			C87.9,171.5,82,177.4,74.7,177.4z M67.6,95.7c-1.2,0-2.2,1-2.2,2.2v66.4c0,5.1,4.2,9.3,9.3,9.3c5.1,0,9.3-4.2,9.3-9.3V97.8
			c0-1.2-1-2.2-2.2-2.2H67.6z"/>
		<path class="st1" d="M80.1,95.7c-1.1,0-1.9-0.9-1.9-1.9V55.7c0-1.1,0.9-1.9,1.9-1.9s1.9,0.9,1.9,1.9v38.1
			C82,94.8,81.1,95.7,80.1,95.7z"/>
		<path class="st1" d="M69.4,95.7c-1.1,0-1.9-0.9-1.9-1.9V64.4c0-1.1,0.9-1.9,1.9-1.9s1.9,0.9,1.9,1.9v29.3
			C71.3,94.8,70.5,95.7,69.4,95.7z"/>
		<path class="st1" d="M68.2,25.6c-1.1,0-1.9-0.7-1.9-1.5V4.9c0-0.9,0.9-1.5,1.9-1.5s1.9,0.7,1.9,1.5v19.2
			C70.2,25,69.3,25.6,68.2,25.6z"/>
		<path class="st1" d="M80.3,25.6c-1.1,0-1.9-0.7-1.9-1.5V4.9c0-0.9,0.9-1.5,1.9-1.5c1.1,0,1.9,0.7,1.9,1.5v19.2
			C82.2,25,81.3,25.6,80.3,25.6z"/>
		<path class="st1" d="M75.9,55.7h-2.5c-10,0-18.1-7.7-18.1-17.2V5.3c0-1.1,0.9-1.9,1.9-1.9s1.9,0.9,1.9,1.9v33.2
			c0,7.3,6.4,13.3,14.2,13.3h2.5c7.8,0,14.2-6,14.2-13.3V5.3c0-1.1,0.9-1.9,1.9-1.9s1.9,0.9,1.9,1.9v33.2
			C94.1,48,85.9,55.7,75.9,55.7z"/>
		<path class="st1" d="M92.1,31.5H58.2c-1.1,0-1.9-0.9-1.9-1.9c0-1.1,0.9-1.9,1.9-1.9h33.9c1.1,0,1.9,0.9,1.9,1.9
			C94.1,30.6,93.2,31.5,92.1,31.5z"/>
	</g>
</g>
</svg>
