<?xml version="1.0" encoding="utf-8"?>
<!-- Generator: Adobe Illustrator 23.1.1, SVG Export Plug-In . SVG Version: 6.00 Build 0)  -->
<svg version="1.1" id="Camada_1" xmlns="http://www.w3.org/2000/svg" xmlns:xlink="http://www.w3.org/1999/xlink" x="0px" y="0px"
	 viewBox="0 0 407 306.9" style="enable-background:new 0 0 407 306.9;" xml:space="preserve">
<style type="text/css">
	.st0{fill:#0067C1;}
	.st1{fill:#3691F6;}
</style>
<g>
	<path class="st0" d="M144.6,152.3c-14.5-14.5-21.5-31.2-20.8-49.8c0.5-14,5.4-23.8,5.4-23.9l1.4-2.7L85.2,51.4l-0.1,0
		c-5.4-2.7-7.5-9.3-4.8-14.6c1.3-2.6,3.5-4.5,6.3-5.4c2.8-0.9,5.7-0.7,8.3,0.6l77.6,36.3c-2.5,5.3-9,21.6-2.6,37.5
		c5,12.4,16.7,21.4,34.7,26.7c0.3,0.1,0.6,0.1,0.9,0.1c1.3,0,2.6-0.9,3-2.2c0.5-1.6-0.4-3.4-2.1-3.9c-16-4.8-26.4-12.5-30.7-23
		c-6.6-16.1,3-33.7,3.1-33.9l0.7-1.2l-10.1-28.8c-2.7-7.6-0.5-16.2,5.5-21.2c2.5-2.2,5.7-3.7,9-4.3l0.5-0.1c1.7-0.3,3.3,0.8,3.6,2.4
		l8.2,36.4c2.2,9.6,6.9,18.8,13.7,26.6l0.2,0.3c2.6,2.9,6.8,8.4,9.2,12.9c0.1,0.1,4.5-4.4,4.5-4.6c-2.7-5.2-6.3-9.3-9-12.4l-0.2-0.3
		c-6.1-7-10.4-15.3-12.3-23.9l-8.2-36.2c-1-5-5.9-8.2-10.9-7.3l-0.5,0.1c-4.4,0.9-8.5,2.8-11.8,5.7c-7.9,6.7-10.8,18-7.3,28
		l6.5,18.7L97.7,26.4c-4-2-8.7-2.4-13-0.9c-4.3,1.4-7.9,4.4-9.9,8.5c-4.2,8.4-0.9,18.7,7.5,22.9l31.1,16.8l-50.5-8.9l-0.1,0
		c-4.5-0.7-9,0.4-12.7,3.1c-3.7,2.7-6.1,6.7-6.8,11.2c-1.4,9.3,5,18,14.4,19.4l36,6.3L66,110.4l-0.1,0c-8.6,2.1-13.8,11.2-11.6,20.4
		l0.1,0.2c1.7,6.8,7.9,11.4,14.7,11.4c1.2,0,2.4-0.1,3.6-0.4l41.7-7.9c1.7-0.3,2.8-1.9,2.5-3.6c-0.3-1.7-1.9-2.8-3.6-2.5l-41.8,7.9
		l-0.2,0c-4.8,1.2-9.7-1.7-10.9-6.4l-0.1-0.2c-1.4-5.8,1.7-11.6,6.9-12.9l42.5-8.6c0.2,0,0.4-0.1,0.6-0.2c1.4-0.1,2.5-1.1,2.8-2.5
		c0.3-1.7-0.8-3.3-2.5-3.6l-52-9.2l-0.1,0c-6-0.9-10.1-6.5-9.2-12.4c0.4-2.9,2-5.4,4.3-7.1c2.4-1.7,5.2-2.4,8.1-2l59.6,10.5
		c-1.6,4.6-3.5,11.9-3.8,20.7c-0.5,11.4,1.7,27.4,13.1,43.5l-25.1,16.3l-0.1,0.1c-2.1,1.4-4.6,2-7.1,1.5c-2.5-0.5-4.7-1.8-6.1-3.9
		c-2.2-3.1-2.2-7.2-0.2-10.5c0.9-1.4,0.5-3.4-1-4.3c-1.4-0.9-3.4-0.5-4.3,1c-3.4,5.3-3.2,12.1,0.3,17.3c2.4,3.4,5.9,5.7,10.1,6.5
		c1,0.2,1.9,0.3,2.9,0.3c3.1,0,6.2-0.9,8.8-2.7l25.5-16.5c1.7,2.1,3.6,4.2,5.7,6.3"/>
	<path class="st0" d="M252.7,84l-19-52.1c-1.1-2.9-0.9-6.1,0.4-9c1.3-2.9,3.7-5,6.6-6.1c2.9-1.1,6.1-0.9,9,0.4
		c2.9,1.3,5,3.7,6.1,6.6l18,49.3c0,0,0,0.1,0,0.1c0,0.1,0.1,0.2,0.2,0.3c0,0.1,0.1,0.2,0.1,0.2c0.1,0.1,0.1,0.2,0.2,0.2
		c0.1,0.1,0.1,0.2,0.2,0.2c0.1,0.1,0.1,0.1,0.2,0.2c0.1,0.1,0.1,0.1,0.2,0.2c0.1,0.1,0.2,0.1,0.3,0.2c0.1,0,0.2,0.1,0.2,0.1
		c0.1,0,0.2,0.1,0.3,0.1c0.1,0,0.2,0.1,0.3,0.1c0.1,0,0.2,0,0.3,0c0.1,0,0.2,0,0.3,0c0,0,0,0,0.1,0c0,0,0,0,0.1,0c0.1,0,0.1,0,0.2,0
		c0.1,0,0.2,0,0.3,0c0.1,0,0.2,0,0.3-0.1c0.1,0,0.1,0,0.2,0c0,0,0.1,0,0.1,0c0.1,0,0.2-0.1,0.3-0.1c0.1,0,0.2-0.1,0.2-0.1
		c0.1-0.1,0.2-0.1,0.2-0.2c0.1-0.1,0.2-0.1,0.2-0.2c0.1-0.1,0.1-0.1,0.2-0.2c0.1-0.1,0.1-0.2,0.2-0.2c0.1-0.1,0.1-0.2,0.2-0.3
		c0-0.1,0.1-0.2,0.1-0.3c0-0.1,0.1-0.2,0.1-0.3c0-0.1,0.1-0.2,0.1-0.3c0-0.1,0-0.2,0-0.3c0-0.1,0-0.2,0-0.3c0,0,0-0.1,0-0.1l-1-53.9
		c-0.1-3.1,1.1-6.1,3.3-8.3c2.2-2.3,5.1-3.5,8.2-3.6c0.1,0,0.2,0,0.2,0c5.6,0,10.5,4.1,11.5,9.6c0.3,1.7,1.9,2.8,3.6,2.5
		c1.7-0.3,2.8-1.9,2.5-3.6C306.5,6.3,299,0,290.4,0c-0.1,0-0.2,0-0.3,0c-9.9,0.2-17.8,8.4-17.6,18.3l0.7,35.3l-11.6-31.9
		c-1.6-4.5-5-8.1-9.3-10.1c-4.4-2-9.2-2.2-13.7-0.6c-9.3,3.4-14,13.7-10.6,23l19,52.1"/>
	<path class="st0" d="M272.5,187.7c0.6-2,1.1-4.2,1.7-6.4c1,0,2.2,0,3.4,0c11.2,0,32.3-1.7,46-17.1c11.5-12.9,15.4-32.5,11.7-58.3
		l13.5-73.3c1.8-9.7-4.7-19.1-14.4-20.8c-9.7-1.8-19.1,4.7-20.8,14.4l-8.7,47.5c-0.3,1.7,0.8,3.3,2.5,3.6c1.7,0.3,3.3-0.8,3.6-2.5
		l8.7-47.5c1.2-6.4,7.3-10.6,13.6-9.4c3.1,0.6,5.7,2.3,7.5,4.9c1.8,2.6,2.5,5.7,1.9,8.7L330.8,96c-4.9-6.5-12.9-11.2-21.4-11.8
		l-29-1.8c-8.3-0.5-16.1,4.1-20,11.8c-0.4-0.1-0.8-0.1-1.2-0.1l-23-1.5c-3.7-0.2-7,1.9-8.1,5.3l-8,26.2c-1.9,6.1-0.7,12.9,3.4,18
		l13.9,18.5c0.6,0.8,1.5,1.2,2.5,1.2c0.6,0,1.3-0.2,1.9-0.6c1.4-1,1.6-3,0.6-4.3l-13.9-18.5c-2.9-3.6-3.7-8.1-2.4-12.4l8-26.2
		c0.2-0.6,1-1,1.8-1l23,1.5c4.6,0.3,8.1,3.8,7.8,7.8l-0.1,1.3c-0.1,1.9-1.1,3.7-2.6,4.9c-1.7,1.3-3.8,2-6.1,1.9l-14.6-0.9
		c-1.7-0.1-3.2,1.2-3.3,2.9c-0.1,1.7,1.2,3.2,2.9,3.3l14,0.9l-0.8,11.8l2.3,0.7c0.1,0,14.3,4.8,12.9,28.9
		c-0.3,4.5-2.6,14.5-4.8,22.4 M319,160.2c-3.4,3.8-13.5,15.2-43.3,15c1-4.4,1.7-8.4,1.8-11.1c0.8-14.1-3.1-22.8-7.4-28l1.3,0.1
		c0.4,0,0.8,0,1.2,0c9,0,16.6-6.5,17.1-15l0.7-9l7.2,0.5c1.7,0.1,3.2-1.2,3.3-2.9c0.1-1.7-1.2-3.2-2.9-3.3l-13.4-0.9l-1.1,15.2
		c-0.3,5.5-5.6,9.6-11.7,9.2l-9.2-0.6l0.5-7.4c0-0.1,0-0.2,0-0.3c1.7-0.5,3.4-1.4,4.8-2.5c3-2.4,4.7-5.7,4.9-9.4l0.1-1.3
		c0.3-5-2.3-9.5-6.5-12.1c2.9-5,8.2-8.1,13.7-7.7l29,1.8c9.2,0.6,18.2,7.8,20,16.1C332.6,130.6,329.2,148.7,319,160.2z"/>
	<path class="st0" d="M75.7,24c0.1,0,0.3-0.1,0.5-0.2c0.5-0.4,1-0.8,1.6-1.1l0.8-0.5c0.2-0.1,0.3-0.2,0.5-0.3
		c0.1-0.1,0.2-0.1,0.3-0.2c0.1-0.1,0.3-0.1,0.4-0.2c0.1-0.1,0.3-0.2,0.4-0.2L81,21c2.3-1.1,4.7-1.7,7-2c2.4-0.3,4.9-0.2,7.3,0.3
		c1.8,0.4,3.7,0.9,5.6,1.8c0.2,0.1,0.4,0,0.5-0.2c0.1-0.1,0.1-0.4-0.1-0.5c-1.5-1.4-3.4-2.5-5.5-3.3c-2.6-0.9-5.5-1.3-8.3-1
		c-2.7,0.3-5.4,1.3-7.8,2.8L79,19.5c-0.2,0.2-0.4,0.4-0.7,0.5l-0.1,0.1c-0.1,0.1-0.2,0.2-0.3,0.2c-0.2,0.1-0.3,0.3-0.5,0.5l-0.7,0.7
		c-0.6,0.6-0.9,1.1-1.3,1.6c-0.2,0.3-0.2,0.6,0,0.7C75.5,24,75.6,24,75.7,24z"/>
	<path class="st0" d="M76.4,16.2c0.1,0,0.2,0,0.2-0.1c1.4-0.9,2.6-1.6,3.8-2.2c1.8-0.8,3.6-1.4,5.5-1.7c1.9-0.3,3.8-0.4,5.7-0.2
		c1.3,0.1,2.7,0.4,4.2,0.8c0.2,0.1,0.4,0,0.5-0.2c0.1-0.2,0.1-0.5-0.1-0.6c-1.2-1-2.7-1.7-4.2-2.2C90,9.2,87.7,9,85.5,9.4
		c-2.2,0.4-4.3,1.2-6.1,2.5c-1.4,1-2.5,2.2-3.4,3.5c-0.2,0.2-0.1,0.5,0.1,0.7C76.2,16.2,76.3,16.2,76.4,16.2z"/>
	<path class="st0" d="M96,176.1c-0.5-0.1-1.1-0.1-1.7-0.3l-0.8-0.1c-0.2,0-0.3-0.1-0.5-0.1c-0.1,0-0.2-0.1-0.3-0.1
		c-0.1,0-0.2-0.1-0.4-0.1c-0.1,0-0.3-0.1-0.4-0.1L91,175c-2.2-0.7-4.1-1.7-5.7-3c-1.7-1.3-3.2-2.9-4.4-4.6c-0.9-1.4-1.7-2.9-2.4-4.6
		c-0.1-0.2-0.2-0.3-0.4-0.2c-0.2,0-0.3,0.2-0.3,0.4v0c0,1.9,0.5,3.8,1.3,5.5c1,2.2,2.6,4.2,4.5,5.7c1.9,1.5,4.2,2.5,6.8,2.9l0.9,0.1
		c0.3,0,0.5,0,0.8,0l0.2,0c0.1,0,0.2,0,0.3,0c0.1,0,0.3,0,0.4,0c0.1,0,0.1,0,0.2,0l0.9-0.1c0.7-0.1,1.3-0.2,1.8-0.3
		c0.3-0.1,0.5-0.3,0.5-0.5C96.5,176.3,96.3,176.1,96,176.1z"/>
	<path class="st0" d="M89.6,180.1c-1.4-0.2-2.6-0.5-3.6-0.8c-1.5-0.5-2.9-1.2-4.2-2.1c-1.2-0.9-2.3-2-3.3-3.2
		c-0.6-0.9-1.2-1.8-1.8-3c-0.1-0.1-0.2-0.2-0.4-0.2c-0.2,0-0.4,0.2-0.4,0.5c0,1.4,0.3,2.7,0.8,3.9c0.7,1.6,1.9,3,3.3,4.1
		c1.4,1,3.2,1.7,5.1,1.9c0.4,0,0.9,0.1,1.3,0.1c1,0,2-0.1,3-0.4c0.3-0.1,0.4-0.3,0.4-0.5C89.9,180.2,89.8,180.1,89.6,180.1z"/>
</g>
<g>
	<path class="st0" d="M0,269.8c0-22.9,14.8-38.3,40.1-38.3c8.9,0,17.2,2.2,22.5,5.5c2.6,1.6,4.1,3.8,4.1,6.9c0,4.5-2.2,8.3-7.1,8.3
		c-2.8,0-5.3-1.2-7.7-2.2c-3.4-1.4-6.5-2.2-12.4-2.2c-12.2,0-19.2,7.1-19.2,22.1c0,13,7.9,20.9,19.2,20.9c10.5,0,16.6-1.8,24.9-5.9
		v16.6c-7.5,3.6-15,5.5-24.9,5.5C14.6,306.9,0,291.3,0,269.8z"/>
	<path class="st1" d="M78.4,216.9c0-6.3,2.6-11.8,10.1-11.8c7.5,0,10.1,5.5,10.1,11.8v88.3H78.4V216.9z"/>
	<path class="st1" d="M115.5,216.1c0-6.7,5.1-10.9,11.7-10.9c6.7,0,11.7,4.3,11.7,10.9c0,6.7-5.1,10.9-11.7,10.9
		C120.5,227,115.5,222.8,115.5,216.1z M117.1,244.7c0-6.3,2.6-11.8,10.1-11.8c7.5,0,10.1,5.5,10.1,11.8v60.6h-20.3V244.7z"/>
	<path class="st1" d="M171.8,297.3h-0.4v7.9h-20.3v-88.3c0-6.3,2.6-11.8,10.1-11.8c7.5,0,10.1,5.5,10.1,11.8v22.7h0.4
		c4.5-3.8,11.7-8.1,20.7-8.1c16,0,31.6,8.5,31.6,36.5c0,27.3-14.4,38.9-31.6,38.9C182.1,306.9,175.2,302.8,171.8,297.3z M203.8,268
		c0-15.4-5.7-20.3-16-20.3c-10.1,0-16.4,6.9-16.4,16.8v9.9c0,9.5,5.5,16.2,16.4,16.2C198.1,290.6,203.8,283.4,203.8,268z"/>
	<path class="st1" d="M231.1,243.2c0-6.3,2.6-11.8,10.1-11.8s10.1,5.5,10.1,11.8h0.4c1.8-5.1,8.1-11.8,15.8-11.8
		c3.8,0,5.9,0.4,8.9,1.2v16.4c-3.4-0.6-6.7-1-9.7-1c-9.9,0-15.4,6.9-15.4,21.9v35.2h-20.3V243.2z"/>
	<path class="st1" d="M277.5,283.4c0-18.8,19-24.5,33.8-24.5c4.1,0,9.1,0.8,12.8,2c-0.2-10.7-4.9-13.8-12.8-13.8
		c-5.3,0-9.9,1.2-15.2,4.3c-2.4,1.4-3.6,2.6-7.1,2.6c-4.1,0-6.9-3-6.9-7.1c0-2.8,1.2-5.1,3.2-6.9c6.7-5.7,17.6-8.5,26.1-8.5
		c20.5,0,32.6,7.1,32.6,30.8v42.9h-19.9v-6.9h-0.2c-3.6,5.1-10.5,8.5-19.9,8.5C288.1,306.9,277.5,300,277.5,283.4z M324.3,279.7V275
		c-2.8-1-7.5-1.8-11.1-1.8c-7.1,0-15.8,0.4-15.8,9.9c0,6.7,6.3,8.5,11.5,8.5C319.2,291.7,324.3,285.8,324.3,279.7z"/>
	<path class="st1" d="M350.6,300.4v-15.6c8.3,4.5,19.4,7.5,25.1,7.5c7.5,0,11.3-2.4,11.3-7.7c0-4.9-5.1-6.5-9.9-7.9
		c-13.4-3.8-28-8.3-28-23.3c0-15.6,13-21.9,28.4-21.9c9.7,0,17,2,21.1,4.5c3.6,2.2,4.9,4.3,4.9,6.7c0,4.1-2.4,7.1-6.9,7.1
		c-2.8,0-5.3-1-7.3-1.6c-2.4-0.8-6.7-2-10.1-2c-7.1,0-10.1,1.8-10.1,6.7c0,5.1,5.3,5.5,13,7.7c10.9,3,24.9,8.3,24.9,23.7
		c0,11.1-8.7,22.7-30.4,22.7C368.5,306.9,359.6,305.4,350.6,300.4z"/>
</g>
</svg>
