<?xml version="1.0" encoding="utf-8"?>
<!-- Generator: Adobe Illustrator 23.0.4, SVG Export Plug-In . SVG Version: 6.00 Build 0)  -->
<svg version="1.1" id="Camada_1" xmlns="http://www.w3.org/2000/svg" xmlns:xlink="http://www.w3.org/1999/xlink" x="0px" y="0px"
	 viewBox="0 0 446.3 362" style="enable-background:new 0 0 446.3 362;" xml:space="preserve">
<style type="text/css">
	.st0{opacity:0.18;fill:#3493F8;}
	.st1{fill:#56A5EF;}
	.st2{fill:#96C7F7;}
	.st3{fill:#3678CB;}
	.st4{fill:#F3F3F3;}
</style>
<g>
	<path class="st0" d="M238.9,361.5c28.1,1.7,55-11.7,70.5-35.2l124.1-188c7.5-11.3,11.7-24.1,12.8-37.1V88.5
		c-0.8-9.9-3.5-19.7-8.1-28.9L408.7,0.4H0v345.4c4.6,1.1,9.3,1.8,14,2.1L238.9,361.5z"/>
</g>
<g>
	<path class="st1" d="M183.6,195.2l-23.2,7.7l-12.4,9.2l-13.1,34.7c0,0,82.5,29.7,154.9,0l-11.3-31.5l-8.3-10.1l-13.1-5.9l-18.4-5.9
		l-6.5,8.8c-10.4,14.1-33.9,14-42.8-1.1L183.6,195.2z"/>
	<path class="st2" d="M230.1,168.9c-5.4,5-11.6,10.3-18.2,10.3h0c-6,0-11.7-5.1-16.8-9.4l1.9-3.9l13.6,5.8l18.5-7.3L230.1,168.9z"/>
	<path class="st3" d="M289.9,247.1c-0.8,0-1.6-0.5-2-1.4l-8.5-23.2c-3.6-9.8-11.8-17.5-21.8-20.4l-16-4.7
		c-7.9-2.3-13.4-9.7-13.4-17.9v-14.9c0-1.1,0.9-2.1,2.1-2.1c1.1,0,2.1,0.9,2.1,2.1v14.9c0,6.4,4.3,12.1,10.4,13.9l16,4.7
		c11.3,3.3,20.5,11.9,24.5,23l8.5,23.2c0.4,1.1-0.2,2.3-1.2,2.7C290.4,247.1,290.2,247.1,289.9,247.1z"/>
	<path class="st3" d="M135.7,247.1c-0.2,0-0.5,0-0.7-0.1c-1.1-0.4-1.6-1.6-1.2-2.7l8.5-23.2c1-2.7,2.3-5.4,4-7.8
		c1.9-2.9,4.2-5.5,6.9-7.8c4-3.4,8.6-5.9,13.7-7.4l16-4.7c6.1-1.8,10.4-7.5,10.4-13.9v-13.5c0-1.1,0.9-2.1,2.1-2.1s2.1,0.9,2.1,2.1
		v13.5c0,8.2-5.5,15.6-13.4,17.9l-16,4.7c-4.5,1.3-8.6,3.5-12.2,6.6c-2.4,2-4.4,4.3-6.1,6.9c-1.4,2.2-2.6,4.5-3.5,6.9l-8.5,23.2
		C137.3,246.6,136.5,247.1,135.7,247.1z"/>
	<path class="st3" d="M211.3,214.9c-7.5,0-14.7-2.8-20.2-8.1l-8.9-8.4c-0.8-0.8-0.9-2.1-0.1-2.9c0.8-0.8,2.1-0.9,2.9-0.1l8.9,8.4
		c4.9,4.6,11.3,7.1,18,6.9c6.7-0.2,13-3,17.6-7.9l7.7-8.1c0.8-0.8,2.1-0.9,2.9-0.1c0.8,0.8,0.9,2.1,0.1,2.9l-7.7,8.1
		c-5.4,5.7-12.7,8.9-20.5,9.1C211.8,214.9,211.6,214.9,211.3,214.9z"/>
	<path class="st3" d="M212.1,174.4c-9.3,0-18.5-6.3-26-17.8c-6.4-9.9-10.4-22.2-10.4-32.1V103c0-18.3,18.4-28.8,37.3-30.3l-1.7-1.8
		c-0.7-0.7-0.9-1.8-0.5-2.7c0.4-0.9,1.3-1.5,2.4-1.5c9.4,0.3,18.3,4.2,24.9,11c6.7,6.8,10.3,15.8,10.3,25.3v21.4
		c0,9.9-4,22.2-10.4,32.1C230.6,168,221.4,174.4,212.1,174.4z M217.7,76.7c-18.3,0-37.8,9.2-37.8,26.4v21.4
		c0,17.7,14.7,45.8,32.2,45.8s32.2-28.1,32.2-45.8V103c0-15.8-11.7-29.2-26.9-31.8l5.2,5.4H217.7z"/>
	<path class="st2" d="M194.9,140.6c0,9.5,7.7,17.2,17.2,17.2c9.5,0,17.2-7.7,17.2-17.2"/>
	<circle class="st4" cx="273.1" cy="209.8" r="21.8"/>
	<path class="st3" d="M273.6,234.7c-1.1,0-2.2-0.1-3.3-0.2c-6.5-0.9-12.2-4.2-16.1-9.4c-4-5.2-5.7-11.6-4.8-18
		c0.9-6.5,4.2-12.2,9.4-16.1c5.2-4,11.6-5.6,18-4.8c3.8,0.5,7.5,1.9,10.7,4.1c0.9,0.7,1.2,1.9,0.5,2.9c-0.7,0.9-1.9,1.2-2.9,0.5
		c-2.6-1.8-5.6-3-8.8-3.4c-5.4-0.7-10.7,0.7-15,4c-4.3,3.3-7.1,8-7.8,13.4c-0.7,5.4,0.7,10.7,4,15c3.3,4.3,8,7.1,13.4,7.8
		c11.1,1.5,21.3-6.3,22.8-17.4c0.2-1.3,0.2-2.5,0.2-3.8c-0.1-1.1,0.8-2.1,2-2.2c1.1-0.1,2.1,0.8,2.2,2c0.1,1.5,0,3.1-0.2,4.6
		C296.1,225.8,285.6,234.7,273.6,234.7z"/>
	<path class="st1" d="M274.2,225.1C274.1,225.1,274.1,225.1,274.2,225.1c-1.1,0-2.1-0.5-2.7-1.4l-12.8-17.1
		c-1.1-1.4-0.8-3.5,0.7-4.6c1.4-1.1,3.5-0.8,4.6,0.7l10.3,13.8l24.4-31.7c1.1-1.4,3.2-1.7,4.6-0.6c1.4,1.1,1.7,3.2,0.6,4.6
		l-26.9,34.9C276.2,224.6,275.2,225.1,274.2,225.1z M276.6,219.8L276.6,219.8C276.6,219.8,276.6,219.8,276.6,219.8z"/>
	<path class="st2" d="M157.3,175.4c-1.6,0-2.9-1.3-2.9-2.9v-4.6h-4.6c-1.6,0-2.9-1.3-2.9-2.9s1.3-2.9,2.9-2.9h4.6v-5.9
		c0-1.6,1.3-2.9,2.9-2.9s2.9,1.3,2.9,2.9v5.9h4.6c1.6,0,2.9,1.3,2.9,2.9s-1.3,2.9-2.9,2.9h-4.6v4.6
		C160.2,174.1,158.9,175.4,157.3,175.4z M149.8,163.8c-0.6,0-1.2,0.5-1.2,1.2c0,0.6,0.5,1.2,1.2,1.2h6.3v6.3c0,0.6,0.5,1.2,1.2,1.2
		c0.6,0,1.2-0.5,1.2-1.2v-6.3h6.3c0.6,0,1.2-0.5,1.2-1.2c0-0.6-0.5-1.2-1.2-1.2h-6.3v-7.7c0-0.6-0.5-1.2-1.2-1.2
		c-0.6,0-1.2,0.5-1.2,1.2v7.7H149.8z"/>
	<g>
		<path class="st2" d="M282.4,78.6c-11,0-19.9,8.9-19.9,19.9c0,2.9,0.6,5.6,1.7,8.1c5,10.9,14.5,22.4,17.3,25.6
			c0.2,0.2,0.5,0.4,0.8,0.4s0.6-0.1,0.8-0.4c2.8-3.3,12.3-14.7,17.3-25.6c1.2-2.5,1.7-5.3,1.7-8.1C302.3,87.5,293.4,78.6,282.4,78.6
			z M282.2,106.1c-5,0-9-4-9-9c0-5,4-9,9-9c5,0,9,4,9,9C291.2,102.1,287.2,106.1,282.2,106.1z"/>
	</g>
	<g>
		<path class="st2" d="M100.9,120.9l12.7,10.1c0.6,0.5,1.4,0.7,2.1,0.6c0.8,0,1.6-0.2,2.1-0.6l12.7-10.1c1-0.8,0.8-1.5-0.5-1.5
			h-14.4h-14.4C100.1,119.4,99.9,120.1,100.9,120.9z"/>
		<path class="st2" d="M131.6,123.5l-13.9,10.6c-0.5,0.4-1.2,0.6-1.9,0.6c-0.7,0-1.4-0.2-1.9-0.6L100,123.5c-1-0.8-1.9-0.4-1.9,0.9
			v17.3c0,1.3,1.1,2.4,2.4,2.4h15.3h15.3c1.3,0,2.4-1.1,2.4-2.4v-17.3C133.5,123.2,132.6,122.7,131.6,123.5z"/>
	</g>
	<path class="st2" d="M155.6,126.4h-17.1c-0.4,0-0.7-0.3-0.7-0.7s0.3-0.7,0.7-0.7h17.1c0.4,0,0.7,0.3,0.7,0.7S156,126.4,155.6,126.4
		z"/>
	<path class="st2" d="M146.5,132.1h-8c-0.4,0-0.7-0.3-0.7-0.7c0-0.4,0.3-0.7,0.7-0.7h8c0.4,0,0.7,0.3,0.7,0.7
		C147.2,131.8,146.9,132.1,146.5,132.1z"/>
	<path class="st2" d="M153.3,137.8h-14.8c-0.4,0-0.7-0.3-0.7-0.7c0-0.4,0.3-0.7,0.7-0.7h14.8c0.4,0,0.7,0.3,0.7,0.7
		C154.1,137.5,153.7,137.8,153.3,137.8z"/>
	<path class="st2" d="M161.3,126.4h-3.4c-0.4,0-0.7-0.3-0.7-0.7s0.3-0.7,0.7-0.7h3.4c0.4,0,0.7,0.3,0.7,0.7S161.7,126.4,161.3,126.4
		z"/>
</g>
</svg>
