<?xml version="1.0" encoding="utf-8"?>
<!-- Generator: Adobe Illustrator 23.0.4, SVG Export Plug-In . SVG Version: 6.00 Build 0)  -->
<svg version="1.1" id="Camada_1" xmlns="http://www.w3.org/2000/svg" xmlns:xlink="http://www.w3.org/1999/xlink" x="0px" y="0px"
	 viewBox="0 0 446.3 362" style="enable-background:new 0 0 446.3 362;" xml:space="preserve">
<style type="text/css">
	.st0{opacity:0.18;fill:#3493F8;}
	.st1{fill:none;}
	.st2{fill:#96C7F7;}
	.st3{fill:#F3F3F3;}
	.st4{fill:#3678CB;}
	.st5{fill:#56A5EF;}
	.st6{fill:#A2C7F4;}
</style>
<g>
	<path class="st0" d="M238.9,361.5c28.1,1.7,55-11.7,70.5-35.2l124.1-188c7.5-11.3,11.7-24.1,12.8-37.1V88.6
		c-0.8-9.9-3.5-19.7-8.1-28.9L408.7,0.5H0v345.4c4.6,1.1,9.3,1.8,14,2.1L238.9,361.5z"/>
	<path class="st1" d="M446.3,88.6V0.5h-37.6l29.6,59.2C442.9,68.8,445.5,78.7,446.3,88.6z"/>
	<path class="st1" d="M446.3,101.2c-1,13-5.3,25.8-12.8,37.1l-124.1,188c-15.5,23.5-42.4,36.9-70.5,35.2L14,348
		c-4.8-0.3-9.5-1-14-2.1V362h446.3V101.2z"/>
</g>
<g>
	<path class="st2" d="M268.6,220.3c-0.8,0-1.5-0.1-2.3-0.3c-0.5-0.1-0.8-0.5-0.8-1s0.6-0.8,1-0.8c0.7,0.1,1.5,0.2,2.1,0.2l0.2,0
		c0.5,0,0.9,0.4,0.9,1c0,0.5-0.4,0.9-1,0.9L268.6,220.3C268.6,220.3,268.6,220.3,268.6,220.3z M272.4,220.1c-0.4,0-0.8-0.3-0.8-0.7
		c-0.1-0.5,0.2-1,0.7-1.1c0.8-0.1,1.5-0.3,2.2-0.6c0.5-0.2,1,0,1.2,0.5c0.2,0.5,0,1-0.5,1.2c-0.8,0.3-1.6,0.6-2.5,0.7
		C272.6,220.1,272.5,220.1,272.4,220.1z M262.8,219.2c-0.1,0-0.1,0-0.2,0c-0.8-0.2-1.6-0.5-2.4-0.8c-0.5-0.2-0.7-0.7-0.5-1.2
		c0.2-0.5,0.7-0.7,1.2-0.5c0.8,0.3,1.5,0.5,2.2,0.8c0.5,0.1,0.8,0.7,0.6,1.1C263.6,219,263.2,219.2,262.8,219.2z M257.2,217
		c-0.1,0-0.2,0-0.3-0.1c-0.7-0.3-1.5-0.7-2.2-1.1c-0.4-0.2-0.6-0.8-0.4-1.2c0.2-0.4,0.8-0.6,1.2-0.4c0.7,0.4,1.4,0.7,2.1,1.1
		c0.5,0.2,0.7,0.8,0.4,1.2C257.9,216.8,257.5,217,257.2,217z M277.9,217.5c-0.2,0-0.5-0.1-0.6-0.3c-0.3-0.4-0.3-1,0.1-1.3
		c0.6-0.5,1.1-1,1.5-1.6c0.3-0.4,0.9-0.5,1.3-0.2c0.4,0.3,0.5,0.9,0.2,1.3c-0.5,0.7-1.2,1.3-1.8,1.9
		C278.3,217.5,278.1,217.5,277.9,217.5z M281.4,212.6c-0.1,0-0.2,0-0.3-0.1c-0.5-0.2-0.7-0.7-0.5-1.2c0.2-0.4,0.4-0.9,0.5-1.3
		c-0.2,0-0.5,0-0.7,0.1c-0.4,0-0.8,0.1-1.2,0.1c-0.5,0-0.9-0.3-1-0.9c0-0.5,0.3-0.9,0.9-1c0.4,0,0.7-0.1,1.1-0.1
		c0.4,0,0.8-0.1,1.2-0.1c0.3,0,0.7,0.1,0.9,0.4c0,0,0.1,0,0.1,0c0.5,0.1,0.8,0.6,0.6,1.1c-0.2,0.8-0.5,1.7-0.8,2.4
		C282.1,212.5,281.8,212.7,281.4,212.6z M275.5,210.2C275.5,210.2,275.5,210.2,275.5,210.2c-0.9-0.1-1.8-0.2-2.5-0.3
		c-0.5-0.1-0.8-0.6-0.7-1.1c0.1-0.5,0.6-0.8,1.1-0.7c0.7,0.1,1.5,0.2,2.3,0.3c0.5,0,0.9,0.5,0.9,1
		C276.4,209.9,276,210.2,275.5,210.2z M269.7,208.5c-0.2,0-0.4-0.1-0.5-0.2c-0.8-0.6-1.4-1.4-1.7-2.4c-0.2-0.5,0.1-1,0.6-1.2
		c0.5-0.2,1,0.1,1.2,0.6c0.2,0.6,0.6,1.1,1.1,1.5c0.4,0.3,0.5,0.9,0.2,1.3C270.3,208.4,270,208.6,269.7,208.5z M285.1,209.2
		c-0.4,0-0.7-0.3-0.8-0.6c-0.1-0.5,0.1-1,0.6-1.1c0.8-0.2,1.5-0.5,2.1-0.8c0.5-0.2,1,0,1.2,0.4c0.2,0.5,0,1-0.4,1.2
		c-0.7,0.4-1.5,0.7-2.4,0.9C285.3,209.2,285.2,209.2,285.1,209.2z M282.8,206.8C282.8,206.8,282.8,206.8,282.8,206.8
		c-0.5,0-0.9-0.5-0.9-1c0-0.2,0-0.4,0-0.6c0-0.6,0-1.2,0-1.7c0-0.5,0.4-0.9,0.9-0.9c0.5,0,0.9,0.4,0.9,0.9c0,0.6,0,1.3,0,1.9
		c0,0.2,0,0.4,0,0.6C283.7,206.4,283.3,206.8,282.8,206.8z M290.3,206.2c-0.2,0-0.4-0.1-0.6-0.3c-0.4-0.3-0.4-0.9,0-1.3
		c0.5-0.5,0.9-1.1,1.3-1.8c0.2-0.4,0.8-0.6,1.2-0.4c0.4,0.2,0.6,0.8,0.4,1.2c-0.4,0.8-0.9,1.5-1.6,2.2
		C290.8,206.1,290.6,206.2,290.3,206.2z M268.5,203c-0.1,0-0.2,0-0.3-0.1c-0.5-0.2-0.7-0.7-0.5-1.2c0.3-0.8,0.7-1.6,1.2-2.4
		c0.3-0.4,0.8-0.5,1.3-0.3c0.4,0.3,0.5,0.8,0.3,1.3c-0.4,0.7-0.8,1.3-1,2C269.3,202.8,268.9,203.1,268.5,203z M282.4,200.7
		c-0.4,0-0.8-0.3-0.8-0.7c-0.2-0.8-0.4-1.5-0.7-2.2c-0.2-0.5,0-1,0.5-1.2c0.5-0.2,1,0,1.2,0.5c0.3,0.7,0.6,1.6,0.7,2.5
		c0.1,0.5-0.2,1-0.7,1.1C282.6,200.7,282.5,200.7,282.4,200.7z M292.7,200.8C292.7,200.8,292.7,200.8,292.7,200.8
		c-0.5-0.1-0.9-0.5-0.9-1c0-0.2,0-0.4,0-0.6c0-0.5,0-1.1,0-1.7c0-0.5,0.3-0.9,0.8-1c0.5,0,0.9,0.3,1,0.8c0,0.7,0.1,1.3,0,1.9
		c0,0.2,0,0.4-0.1,0.7C293.6,200.4,293.2,200.8,292.7,200.8z M271.9,198.1c-0.2,0-0.5-0.1-0.6-0.3c-0.3-0.4-0.3-0.9,0.1-1.3
		c0.7-0.6,1.3-1.1,2-1.6c0.4-0.3,1-0.2,1.3,0.3c0.3,0.4,0.2,1-0.3,1.3c-0.6,0.4-1.2,0.9-1.8,1.4C272.4,198,272.2,198.1,271.9,198.1z
		 M279.6,195.5c-0.1,0-0.3,0-0.4-0.1c-0.5-0.3-1.1-0.3-1.8-0.2c-0.5,0.1-1-0.3-1-0.8c-0.1-0.5,0.3-1,0.8-1c1.1-0.2,2.1,0,2.9,0.4
		c0.4,0.2,0.6,0.8,0.4,1.2C280.3,195.4,279.9,195.5,279.6,195.5z M292.1,194.7c-0.4,0-0.7-0.3-0.8-0.7c-0.2-0.7-0.4-1.5-0.7-2.3
		c-0.2-0.5,0.1-1,0.6-1.2c0.5-0.2,1,0.1,1.2,0.6c0.3,0.8,0.5,1.6,0.7,2.4c0.1,0.5-0.2,1-0.7,1.1
		C292.3,194.7,292.2,194.7,292.1,194.7z M290.1,189c-0.3,0-0.6-0.2-0.8-0.5c-0.3-0.7-0.7-1.4-1.1-2.1c-0.2-0.4-0.1-1,0.4-1.2
		c0.4-0.2,1-0.1,1.2,0.4c0.4,0.7,0.8,1.5,1.1,2.2c0.2,0.5,0,1-0.4,1.2C290.3,189,290.2,189,290.1,189z M287.2,183.7
		c-0.3,0-0.6-0.2-0.7-0.4c-0.8-1.2-1.3-2-1.3-2c-0.3-0.4-0.2-1,0.2-1.3c0.4-0.3,1-0.2,1.3,0.2c0,0,0.6,0.8,1.4,2.1
		c0.3,0.4,0.1,1-0.3,1.3C287.5,183.7,287.3,183.7,287.2,183.7z"/>
	<path class="st3" d="M91.8,205.4l169,0.6c0,0,1.8,26.1-20.2,23.2c-19.5-2.6-51,1.4-51,1.4l6.4,24.6l-39.2,0l3.8-24.6l-55.8-1.4
		L93,224.8l-2.4-11.5L91.8,205.4z"/>
	<g>
		<path class="st2" d="M131.8,98.8c0,0,0-0.1,0-0.1c-0.3-18.6-15.5-33.6-34.1-33.6c-18.6,0-33.8,15-34.1,33.6c0,0,0,0.1,0,0.1
			c0,0,0,0.1,0,0.1c0,0.1,0,0.2,0,0.3c0,18.8,15.3,34.1,34.1,34.1c18.8,0,34.1-15.3,34.1-34.1C131.8,99.1,131.8,99,131.8,98.8
			C131.8,98.9,131.8,98.9,131.8,98.8z M125.9,112.2h-13.8c1.3-4.1,1.8-8,1.8-11.8h14.8C128.5,104.6,127.5,108.6,125.9,112.2z
			 M97.4,130.2C97.4,130.2,97.4,130.2,97.4,130.2c-0.1,0-0.1-0.1-0.1-0.1c-0.1-0.1-5.8-5.8-9.8-14.8h20.2
			C105.4,120.4,102,125.4,97.4,130.2z M86.2,112.2c-0.2-0.5-0.4-0.9-0.5-1.4c-1.2-3.5-1.8-7-2-10.4h27.1c0,4-0.6,7.9-2,11.8H86.2z
			 M66.8,100.4h13.8c0.2,4.2,1.1,8.2,2.4,11.8H69.6C67.9,108.6,66.9,104.6,66.8,100.4z M69.6,86.3h12.7c-1.2,3.8-1.7,7.5-1.8,11
			H66.8C67.1,93.4,68,89.6,69.6,86.3z M97.1,68.3c0,0,0,0.1,0.1,0.1c0.1,0.1,5.8,5.8,9.8,14.8H86.8C89,78,92.4,73.1,97.1,68.3
			C97,68.3,97,68.3,97.1,68.3z M108.2,86.3c0.2,0.5,0.4,0.9,0.5,1.4c1.1,3.2,1.7,6.4,2,9.6H83.6c0.1-3.7,0.7-7.4,2-11H108.2z
			 M113.7,97.3c-0.3-3.9-1.2-7.6-2.3-11h14.4c1.6,3.4,2.5,7.1,2.8,11H113.7z M124.2,83.1h-13.9c-2.8-6.7-6.6-11.9-8.9-14.7
			C111,69.6,119.4,75.2,124.2,83.1z M92.4,68.7c-4.2,4.9-7.1,9.7-8.9,14.4H71.3C75.8,75.7,83.4,70.3,92.4,68.7z M71.3,115.3h12.9
			c2.7,6.6,6.4,11.7,8.7,14.5C83.7,128.4,75.9,122.9,71.3,115.3z M101.9,129.9c4.3-4.9,7.2-9.8,9.1-14.6h13.2
			C119.4,123.1,111.3,128.6,101.9,129.9z"/>
		<path class="st3" d="M260.8,205.6H88.1v-80.8c0-8.2,6.6-14.8,14.8-14.8h143c8.2,0,14.8,6.6,14.8,14.8V205.6z"/>
		<polygon class="st2" points="160,244.1 190.2,236.8 190.2,231 160,231 		"/>
		<path class="st2" d="M91.8,126.2v79.4h168v-79.4H91.8z M218.3,139.3c5.4,0,9.8,4.4,9.8,9.8c0,5.4-4.4,9.8-9.8,9.8
			s-9.8-4.4-9.8-9.8C208.6,143.7,212.9,139.3,218.3,139.3z M132,139.6c5.4,0,9.8,4.4,9.8,9.8c0,5.4-4.4,9.8-9.8,9.8
			c-5.4,0-9.8-4.4-9.8-9.8C122.2,144,126.6,139.6,132,139.6z M149.6,184.2c0,1.8-1.4,3.2-3.2,3.2h-28.7c-1.8,0-3.2-1.4-3.2-3.2v-8.1
			c0-8,6.5-14.6,14.6-14.6h6c8,0,14.6,6.5,14.6,14.6V184.2z M235.9,183.9c0,1.8-1.4,3.2-3.2,3.2H204c-1.8,0-3.2-1.4-3.2-3.2v-8.1
			c0-8,6.5-14.6,14.6-14.6h6c8,0,14.6,6.5,14.6,14.6V183.9z"/>
		<path class="st4" d="M245.8,231.7H105.3c-9.4,0-17.1-7.7-17.1-17.1v-90.3c0-9.4,7.7-17.1,17.1-17.1h140.5
			c9.4,0,17.1,7.7,17.1,17.1v90.3C262.9,224,255.2,231.7,245.8,231.7z M105.3,111.3c-7.1,0-13,5.8-13,13v90.3c0,7.1,5.8,13,13,13
			h140.5c7.1,0,13-5.8,13-13v-90.3c0-7.1-5.8-13-13-13H105.3z"/>
		<path class="st5" d="M175.6,195.1c-0.8,0-1.4-0.6-1.4-1.4v-57.1c0-0.8,0.6-1.4,1.4-1.4c0.8,0,1.4,0.6,1.4,1.4v57.1
			C177,194.5,176.4,195.1,175.6,195.1z"/>
		<path class="st4" d="M260.8,207.7H90.2c-1.1,0-2.1-0.9-2.1-2.1c0-1.1,0.9-2.1,2.1-2.1h170.6c1.1,0,2.1,0.9,2.1,2.1
			C262.9,206.8,261.9,207.7,260.8,207.7z"/>
		<path class="st4" d="M260.8,126.3H90.2c-1.1,0-2.1-0.9-2.1-2.1s0.9-2.1,2.1-2.1h170.6c1.1,0,2.1,0.9,2.1,2.1
			S261.9,126.3,260.8,126.3z"/>
		<circle class="st6" cx="175.5" cy="217.6" r="4.6"/>
		<path class="st4" d="M156.4,258.8c-0.1,0-0.3,0-0.4,0c-1.1-0.2-1.8-1.3-1.6-2.4l5.6-28.8h31.2l5.5,28.8c0.2,1.1-0.5,2.2-1.6,2.4
			c-1.1,0.2-2.2-0.5-2.4-1.6l-4.9-25.5h-24.4l-4.9,25.5C158.2,258.2,157.4,258.8,156.4,258.8z"/>
		<path class="st4" d="M175.6,223.6c-3.3,0-6-2.7-6-6s2.7-6,6-6s6,2.7,6,6S178.9,223.6,175.6,223.6z M175.6,214.3
			c-1.8,0-3.2,1.5-3.2,3.2s1.5,3.2,3.2,3.2s3.2-1.5,3.2-3.2S177.4,214.3,175.6,214.3z"/>
		<path class="st4" d="M215.4,258.8h-79.2c-1.1,0-2.1-0.9-2.1-2.1c0-1.1,0.9-2.1,2.1-2.1h79.2c1.1,0,2.1,0.9,2.1,2.1
			C217.4,257.9,216.5,258.8,215.4,258.8z"/>
	</g>
	<path class="st2" d="M284.7,166.9l-14.4-8.4c-0.6-0.3-1.3,0.2-1.1,0.8l3.5,16.2c0.2,1.1,1.7,1.4,2.4,0.5l2-2.9l3.3,4.6
		c0.4,0.6,1.3,0.7,1.9,0.3l1.7-1.2c0.6-0.4,0.7-1.3,0.3-1.9l-3.3-4.6l3.5-1C285.5,168.9,285.6,167.4,284.7,166.9z"/>
</g>
</svg>
