<?xml version="1.0" encoding="utf-8"?>
<!-- Generator: Adobe Illustrator 23.0.4, SVG Export Plug-In . SVG Version: 6.00 Build 0)  -->
<svg version="1.1" id="Camada_1" xmlns="http://www.w3.org/2000/svg" xmlns:xlink="http://www.w3.org/1999/xlink" x="0px" y="0px"
	 viewBox="0 0 446.3 362" style="enable-background:new 0 0 446.3 362;" xml:space="preserve">
<style type="text/css">
	.st0{opacity:0.18;fill:#3493F8;}
	.st1{fill:#96C7F7;}
	.st2{fill:#56A5EF;}
	.st3{fill:#3678CB;}
	.st4{fill:#F3F3F3;}
	.st5{fill:#1B67BC;}
</style>
<g>
	<path class="st0" d="M238.9,361.5c28.1,1.7,55-11.7,70.5-35.2l124.1-188c7.5-11.3,11.7-24.1,12.8-37.1V88.6
		c-0.8-9.9-3.5-19.7-8.1-28.9L408.7,0.5H0v345.4c4.6,1.1,9.3,1.8,14,2.1L238.9,361.5z"/>
</g>
<g>
	<g>
		<path class="st1" d="M143.4,108.8l-1.4-3.2c0,0,3.1-7.1,2.9-7.4l-4.2-4.1c-0.3-0.3-7.4,3-7.4,3l-3.3-1.3c0,0-2.9-7.2-3.3-7.2h-5.9
			c-0.4,0-3.1,7.2-3.1,7.2l-3.3,1.3c0,0-7.3-3.1-7.5-2.8l-4.2,4.1c-0.3,0.3,3,7.2,3,7.2l-1.4,3.2c0,0-7.4,2.8-7.4,3.2v5.8
			c0,0.4,7.4,3,7.4,3l1.3,3.2c0,0-3.1,7.1-2.9,7.4l4.2,4.1c0.3,0.3,7.4-3,7.4-3l3.3,1.3c0,0,2.9,7.2,3.3,7.2h5.9
			c0.4,0,3.1-7.2,3.1-7.2l3.3-1.3c0,0,7.2,3.1,7.5,2.8l4.2-4.1c0.3-0.3-3-7.2-3-7.2l1.3-3.2c0,0,7.4-2.8,7.4-3.2v-5.8
			C150.7,111.4,143.4,108.8,143.4,108.8z M132.5,114.8c0,4.6-3.9,8.4-8.6,8.4c-4.7,0-8.6-3.8-8.6-8.4c0-4.6,3.9-8.4,8.6-8.4
			C128.7,106.4,132.5,110.2,132.5,114.8z"/>
	</g>
	<path class="st1" d="M249.8,155.5L249.8,155.5L249.8,155.5L249.8,155.5h-0.1h0h-10.3v-12.8c0-24.7-21.9-44.8-48.8-44.8c0,0,0,0,0,0
		s0,0,0,0s0,0,0,0s0,0,0,0s0,0,0,0s0,0,0,0s0,0,0,0s0,0,0,0c0,0,0,0,0,0c0,0,0,0,0,0c-26.9,0-48.8,20.1-48.8,44.8v12.8h-10.3h0h0h0
		h0h0c-1.9,0-3.5,1.4-3.5,3.2v79.9c0,7.1,6.3,12.8,14,12.8h0h0h0h0h0h97.5h0h0h0h0h0c7.7,0,14-5.7,14-12.8v-79.9
		C253.3,156.9,251.7,155.5,249.8,155.5z M183.5,225.8c-1,0-1.9-0.4-2.6-1.1s-1-1.6-0.9-2.5l1.9-15.9c0.2-1.4-0.5-2.7-1.6-3.7
		c-2.4-2.3-3.9-5.5-3.9-8.8c0-7,6.2-12.7,13.9-12.8c7.7,0,13.9,5.8,13.9,12.8c0,3.4-1.4,6.5-3.9,8.8c-1.1,1-1.8,2.3-1.6,3.7
		l1.9,15.9c0.1,0.9-0.2,1.8-0.9,2.5c-0.7,0.7-1.6,1.1-2.6,1.1H183.5z M162.6,155.5v-12.8c0-14.1,12.5-25.5,27.8-25.6
		c15.3,0,27.8,11.5,27.8,25.6v12.8H162.6z"/>
	<path class="st2" d="M128.6,243.4l38.6-0.2c54.5-2.2,73.7-37.7,73.7-79.8v-7.8h11.3l0.8,84.2l-6.4,11.1l-110.1,1.8l-7.2-6.9
		L128.6,243.4z"/>
	<path class="st3" d="M239.3,253.6h-0.1c-1.2,0-2.2-1-2.2-2.2s1-2.2,2.1-2.2h0.2c6.5,0,11.8-4.8,11.8-10.6v-79.9
		c0-0.6-0.6-1.1-1.3-1.1h-12.6v-14.9c0-23.5-20.9-42.6-46.6-42.6h-0.3c-25.7,0-46.6,19.1-46.6,42.6v12.8c0,1.2-1,2.2-2.2,2.2
		s-2.2-1-2.2-2.2v-12.8c0-25.9,22.9-46.9,51-46.9h0.2c28.1,0,51,21.1,51,46.9v10.6h8.3c3.2,0,5.7,2.4,5.7,5.4v79.9
		C255.4,246.9,248.2,253.6,239.3,253.6z M221.3,253.6h-79.8c-8.9,0-16.2-6.7-16.2-14.9v-79.9c0-1.2,1-2.2,2.2-2.2
		c1.2,0,2.2,1,2.2,2.2v79.9c0,5.9,5.3,10.6,11.8,10.6h79.8c1.2,0,2.2,1,2.2,2.2S222.5,253.6,221.3,253.6z M197.3,228h-13.8
		c-1.6,0-3-0.6-4.1-1.7c-1.1-1.1-1.7-2.7-1.5-4.2l1.9-15.9c0.1-0.8-0.5-1.5-0.9-1.9c-2.9-2.8-4.5-6.5-4.5-10.3
		c0-8.2,7.2-14.9,16-14.9c8.9,0,16.1,6.7,16.1,14.9c0,3.9-1.6,7.6-4.5,10.4c-0.5,0.4-1,1.2-0.9,1.9l1.9,15.9
		c0.2,1.6-0.4,3.1-1.5,4.3C200.3,227.4,198.9,228,197.3,228z M190.4,183.3c-6.4,0-11.7,4.8-11.7,10.6c0,2.7,1.1,5.3,3.2,7.2
		c1.7,1.6,2.4,3.6,2.2,5.5l-1.9,15.9c0,0.2,0,0.4,0.2,0.7c0.3,0.3,0.7,0.4,1.1,0.4h13.8c0.4,0,0.8-0.2,1.1-0.4
		c0.2-0.2,0.3-0.5,0.2-0.7l-1.9-15.9c-0.3-1.9,0.5-3.9,2.2-5.5c2.1-2,3.2-4.5,3.2-7.2C202.2,188.1,196.9,183.3,190.4,183.3z
		 M220.4,157.6h-60v-14.9c0-15.3,13.4-27.7,30-27.7c16.5,0,30,12.5,30,27.7V157.6z M164.7,153.3h51.3v-10.6
		c0-12.9-11.5-23.4-25.7-23.4c-14.1,0-25.7,10.5-25.7,23.4V153.3z"/>
	<g>
		<path class="st1" d="M117.9,142.9l-1.3-1.2c0,0,0-3.8-0.2-3.9l-2.7-1c-0.2-0.1-2.7,2.9-2.7,2.9l-1.7,0.1c0,0-2.8-2.6-3-2.6
			l-2.6,1.2c-0.2,0.1,0.1,3.9,0.1,3.9l-1.2,1.3c0,0-3.9,0.1-4,0.3l-1,2.7c-0.1,0.2,2.9,2.6,2.9,2.6l0.1,1.7c0,0-2.7,2.8-2.6,3
			l1.2,2.6c0.1,0.2,3.9-0.2,3.9-0.2l1.3,1.2c0,0,0,3.8,0.2,3.9l2.7,1c0.2,0.1,2.7-2.9,2.7-2.9l1.8-0.1c0,0,2.8,2.6,3,2.6l2.6-1.2
			c0.2-0.1-0.1-3.9-0.1-3.9l1.2-1.3c0,0,3.9-0.1,4-0.3l1-2.7c0.1-0.2-2.9-2.6-2.9-2.6l-0.1-1.7c0,0,2.7-2.8,2.6-3l-1.2-2.6
			C121.8,142.6,117.9,142.9,117.9,142.9z M114.3,147.9c1,2.1,0,4.6-2.1,5.6c-2.1,1-4.6,0.1-5.6-2c-1-2.1,0-4.6,2.1-5.6
			C110.8,144.9,113.3,145.8,114.3,147.9z"/>
	</g>
	<path class="st4" d="M310,183.4c-6.8-8.8-21.5-7.8-21.5-7.8l-8.3,2.4l-8.3,7.3l-2,6.8l-38.6-0.5l-10.3,9.3l8.3,8.3h5.9l4.9-4.9
		l4.9,4.9l2.4-2.4l2.9,2l3.9-3.9l4.9,4.9l9.3-2.4l2,5.9l7.8,8.8l12.2,2.4l10.8-1l9.8-6.8l4.4-10.3l0.5-12.2L310,183.4z M302.7,205.8
		c-2.6,0-4.6-2.5-4.6-5.5c0-3.1,2.1-5.5,4.6-5.5s4.6,2.5,4.6,5.5C307.3,203.3,305.2,205.8,302.7,205.8z"/>
	<path class="st3" d="M239.8,157.7h-21.6c-1.2,0-2.2-1-2.2-2.2c0-1.2,1-2.2,2.2-2.2h21.6c1.2,0,2.2,1,2.2,2.2
		C242,156.8,241,157.7,239.8,157.7z"/>
	<path class="st3" d="M231.2,149.7h-12.9c-1.2,0-2.2-1-2.2-2.2c0-1.2,1-2.2,2.2-2.2h12.9c1.2,0,2.2,1,2.2,2.2
		C233.3,148.8,232.4,149.7,231.2,149.7z"/>
	<g>
		<g>
			<g>
				<path class="st5" d="M307.4,194.7c-2.8-2.8-7.5-2.8-10.3,0s-2.8,7.5,0,10.3c2.8,2.8,7.5,2.8,10.3,0
					C310.3,202.1,310.3,197.5,307.4,194.7z M299.9,202.2c-1.3-1.3-1.3-3.5,0-4.8c1.3-1.3,3.5-1.3,4.8,0c1.3,1.3,1.3,3.5,0,4.8
					C303.4,203.5,301.2,203.5,299.9,202.2z"/>
			</g>
		</g>
		<path class="st1" d="M225.9,196.6h43.8c0,0,0.6,27.1,32.6,24.7c0,0-21.8,11.4-34.1-12.1h-9.9l-4.9-4.3l-3.7,3.1l-3.1-1.8l-3.1,2.5
			l-4.3-4.3l-4.9,4.3l-5.5,0.6l-7.4-8.6L225.9,196.6z"/>
		<g>
			<g>
				<path class="st3" d="M309.7,181c-10.4-10.4-27.3-10.4-37.7,0c-2.3,2.3-4.1,5-5.5,7.9l-36.1,0c-0.5,0-1,0.2-1.4,0.6l-9.9,9.9
					c-0.8,0.8-0.8,2,0,2.7l8.1,8.1c0.4,0.4,0.9,0.6,1.4,0.6l5.5,0c0.5,0,1-0.2,1.4-0.6l3.4-3.4l3.4,3.4c0.8,0.8,2,0.8,2.7,0l1.3-1.3
					l1.3,1.3c0.8,0.8,2,0.8,2.7,0l3-3l3,3c0.4,0.4,0.9,0.6,1.4,0.6h8.7c1.3,2.9,3.2,5.6,5.5,7.9c10.4,10.4,27.3,10.4,37.7,0
					C320.1,208.3,320.1,191.4,309.7,181z M274.7,215.9c-2.2-2.2-4-4.9-5.1-7.8c-0.3-0.8-1-1.2-1.8-1.2c0,0,0,0,0,0h-9.2l-3.8-3.8
					c-0.8-0.8-2-0.8-2.7,0l-3,3l-1.3-1.3c-0.8-0.8-2-0.8-2.7,0l-1.3,1.3l-3.4-3.4c-0.8-0.8-2-0.8-2.7,0l-4.2,4.2l-3.9,0l-6.2-6.2
					l1.9-1.9l33.6,0c1,0,1.7-0.8,1.7-1.7c0-1-0.8-1.7-1.7-1.7l-30.1,0l2.5-2.5l36.5,0c0,0,0,0,0,0c0.8,0,1.5-0.5,1.8-1.2
					c1.1-2.9,2.9-5.6,5.1-7.8c8.9-8.9,23.3-8.9,32.2,0s8.9,23.3,0,32.2C298,224.8,283.6,224.8,274.7,215.9z"/>
			</g>
		</g>
	</g>
</g>
</svg>
