<?xml version="1.0" encoding="utf-8"?>
<!-- Generator: Adobe Illustrator 23.0.4, SVG Export Plug-In . SVG Version: 6.00 Build 0)  -->
<svg version="1.1" id="Camada_1" xmlns="http://www.w3.org/2000/svg" xmlns:xlink="http://www.w3.org/1999/xlink" x="0px" y="0px"
	 viewBox="0 0 446.3 362" style="enable-background:new 0 0 446.3 362;" xml:space="preserve">
<style type="text/css">
	.st0{opacity:0.18;fill:#3493F8;}
	.st1{fill:#F3F3F3;}
	.st2{fill:#96C7F7;}
	.st3{fill:#56A5EF;}
	.st4{fill:#3678CB;}
	.st5{fill:#1B67BC;}
</style>
<g>
	<path class="st0" d="M238.9,361.5c28.1,1.7,55-11.7,70.5-35.2l124.1-188c7.5-11.3,11.7-24.1,12.8-37.1V88.5
		c-0.8-9.9-3.5-19.7-8.1-28.9L408.7,0.4H0v345.4c4.6,1.1,9.3,1.8,14,2.1L238.9,361.5z"/>
</g>
<g>
	<circle class="st1" cx="133.9" cy="210.6" r="38.2"/>
	<rect x="136.1" y="105" class="st1" width="124.7" height="118"/>
	<path class="st2" d="M260.6,129.6H133.1v-16.8c0-4,3.3-7.3,7.3-7.3h120.2V129.6z"/>
	<circle class="st3" cx="198.2" cy="118.7" r="5.4"/>
	<circle class="st3" cx="151.2" cy="118.7" r="5.4"/>
	<circle class="st3" cx="243.6" cy="118.7" r="5.4"/>
	<rect x="260" y="104.9" class="st2" width="18.2" height="126.2"/>
	<path class="st4" d="M262.7,225.2h-77.6c-1.2,0-2.1-0.9-2.1-2.1s0.9-2.1,2.1-2.1h73.3V113.3c0-3.1-2.8-5.6-6.2-5.6H142.3
		c-3.9,0-7,2.9-7,6.4v43.6c0,1.2-0.9,2.1-2.1,2.1s-2.1-0.9-2.1-2.1V114c0-5.8,5-10.6,11.2-10.6h110.1c5.8,0,10.4,4.4,10.4,9.9V225.2
		z"/>
	<path class="st4" d="M277.5,185.7c-1.2,0-2.1-0.9-2.1-2.1v-64.1c0-1.2,0.9-2.1,2.1-2.1s2.1,0.9,2.1,2.1v64.1
		C279.7,184.7,278.7,185.7,277.5,185.7z"/>
	<path class="st5" d="M267.1,107.6h-10.4c-1.2,0-2.1-0.9-2.1-2.1c0-1.2,0.9-2.1,2.1-2.1h10.4c1.2,0,2.1,0.9,2.1,2.1
		C269.2,106.7,268.3,107.6,267.1,107.6z"/>
	<path class="st4" d="M243.7,120.6c-8.3,0-15.1-6.8-15.1-15.1c0-8.3,6.8-15.1,15.1-15.1c8.3,0,15.1,6.8,15.1,15.1
		c0,1.2-0.9,2.1-2.1,2.1s-2.1-0.9-2.1-2.1c0-6-4.9-10.9-10.9-10.9c-6,0-10.9,4.9-10.9,10.9c0,6,4.9,10.9,10.9,10.9
		c1.2,0,2.1,0.9,2.1,2.1C245.8,119.7,244.9,120.6,243.7,120.6z"/>
	<path class="st4" d="M198.2,120.6c-8.3,0-15.1-6.8-15.1-15.1c0-8.3,6.8-15.1,15.1-15.1c8.3,0,15.1,6.8,15.1,15.1
		c0,1.2-0.9,2.1-2.1,2.1c-1.2,0-2.1-0.9-2.1-2.1c0-6-4.9-10.9-10.9-10.9s-10.9,4.9-10.9,10.9c0,6,4.9,10.9,10.9,10.9
		c1.2,0,2.1,0.9,2.1,2.1C200.3,119.7,199.4,120.6,198.2,120.6z"/>
	<path class="st4" d="M151.4,120.6c-8.3,0-15.1-6.8-15.1-15.1c0-8.3,6.8-15.1,15.1-15.1c8.3,0,15.1,6.8,15.1,15.1
		c0,1.2-0.9,2.1-2.1,2.1c-1.2,0-2.1-0.9-2.1-2.1c0-6-4.9-10.9-10.9-10.9c-6,0-10.9,4.9-10.9,10.9c0,6,4.9,10.9,10.9,10.9
		c1.2,0,2.1,0.9,2.1,2.1C153.5,119.7,152.5,120.6,151.4,120.6z"/>
	<path class="st4" d="M155.8,214.8h-25.1v-31.1c0-1.2,0.9-2.1,2.1-2.1s2.1,0.9,2.1,2.1v26.9h20.9c1.2,0,2.1,0.9,2.1,2.1
		C157.9,213.8,157,214.8,155.8,214.8z"/>
	<path class="st2" d="M132.8,257.8c-26.5,0-48-21.5-48-48s21.5-48,48-48s48,21.5,48,48S159.3,257.8,132.8,257.8z M132.8,170.8
		c-21.5,0-39,17.5-39,39s17.5,39,39,39s39-17.5,39-39S154.3,170.8,132.8,170.8z"/>
	<path class="st4" d="M132.7,250.5c-5.3,0-10.4-1-15.4-3c-20.8-8.5-30.8-32.3-22.3-53.1c8.5-20.8,32.3-30.8,53.1-22.3
		c10.1,4.1,17.9,11.9,22.1,21.9c4.2,10,4.3,21.1,0.1,31.2c-3.5,8.6-9.7,15.6-17.8,20.1c-1,0.6-2.3,0.2-2.9-0.8
		c-0.6-1-0.2-2.3,0.8-2.9c7.3-4.1,12.8-10.3,15.9-18c3.7-9,3.6-18.9-0.1-27.9c-3.8-9-10.8-16-19.8-19.7
		c-18.6-7.6-39.9,1.3-47.6,19.9c-7.6,18.6,1.3,39.9,19.9,47.6c5,2,10.2,2.9,15.5,2.7c1.2-0.1,2.2,0.9,2.2,2c0.1,1.2-0.9,2.2-2,2.2
		C134,250.5,133.4,250.5,132.7,250.5z"/>
	<path class="st3" d="M239.8,199.4h-14c-1.8,0-3.3-1.5-3.3-3.3v-14c0-1.8,1.5-3.3,3.3-3.3h14c1.8,0,3.3,1.5,3.3,3.3v14
		C243,197.9,241.6,199.4,239.8,199.4z"/>
	<path class="st2" d="M169.9,163.3h-14c-1.8,0-3.3-1.5-3.3-3.3v-14c0-1.8,1.5-3.3,3.3-3.3h14c1.8,0,3.3,1.5,3.3,3.3v14
		C173.2,161.8,171.7,163.3,169.9,163.3z"/>
	<path class="st2" d="M204.1,163.3h-14c-1.8,0-3.3-1.5-3.3-3.3v-14c0-1.8,1.5-3.3,3.3-3.3h14c1.8,0,3.3,1.5,3.3,3.3v14
		C207.3,161.8,205.9,163.3,204.1,163.3z"/>
	<path class="st2" d="M238.2,163.3h-14c-1.8,0-3.3-1.5-3.3-3.3v-14c0-1.8,1.5-3.3,3.3-3.3h14c1.8,0,3.3,1.5,3.3,3.3v14
		C241.5,161.8,240,163.3,238.2,163.3z"/>
	<path class="st2" d="M203.8,199.1h-14c-1.8,0-3.3-1.5-3.3-3.3v-14c0-1.8,1.5-3.3,3.3-3.3h14c1.8,0,3.3,1.5,3.3,3.3v14
		C207,197.7,205.6,199.1,203.8,199.1z"/>
	<g>
		<path class="st1" d="M236.3,236.4l34.2,14.1l8.2-0.7l15.6-11l3-6.3l-0.7-8.4l-16.1-24.1l-5.8,1.7l-0.3,3l-3.8-2.2l-4.5,1.6
			l-2.1,2.6l-4.8-0.8l-3.2,3.9l-11.8-14.7l-4.7,0.4l-1.8,4.6l20.2,32.5l-15.6-3.5C242.2,229.3,238.7,229.6,236.3,236.4z"/>
		<path class="st4" d="M275.1,199.7L275.1,199.7c-1.2,0.8-2.1,1.9-2.5,3.1c-2-1.4-4.7-1.5-6.8-0.1c-1.2,0.8-2.1,2.1-2.5,3.5
			c-1.9-1-4.3-1-6.2,0.2l-0.1,0.1c-0.9,0.6-1.7,1.5-2.1,2.5l-7.4-11.4c-1.9-3-5.8-3.9-8.7-2.1l0,0c-2.9,1.8-3.6,5.8-1.6,8.8
			l17.2,26.1l-9.4-2c-2.2-0.7-4.5-0.5-6.5,0.6c-2,1.1-3.4,3-4,5.1l-0.5,1.7c-0.2,0.8,0.1,1.6,0.9,1.9l30.6,12.6
			c4.7,2.6,10.3,2.5,14.6-0.3l12.7-8.2c2.4-1.6,4.3-3.9,5.3-6.6c1.6-4.3,1.2-9.5-1.6-13.8c-2-3.1-3.4-5.3-4.6-7.2
			c-3.2-5-4.4-6.9-8-12.4C281.8,198.8,277.9,197.8,275.1,199.7z M281.2,203.4c3.6,5.5,4.8,7.4,8,12.3c1.2,1.9,2.7,4.1,4.6,7.2
			c3.6,5.6,2.4,12.9-2.8,16.3l-12.7,8.2c-3.4,2.2-7.8,2.2-11.6,0.1c-0.1,0-0.1-0.1-0.2-0.1l-29.4-12.1l0.1-0.4c0,0,0,0,0-0.1
			c0.3-1.4,1.3-2.6,2.5-3.3c1.3-0.7,2.8-0.8,4.2-0.4c0,0,0.1,0,0.2,0l13.1,2.7c0.6,0.1,1.2-0.1,1.6-0.6c0.3-0.5,0.4-1.2,0-1.7
			l-19.2-29.2c-1-1.6-0.7-3.7,0.7-4.6l0,0c1.4-0.9,3.5-0.4,4.5,1.2l10.3,16c0,0.1,0.1,0.1,0.1,0.2c0,0,0,0.1,0.1,0.1l4.4,6.8
			c0.3,0.5,0.8,0.7,1.4,0.7c0.5,0,1-0.3,1.3-0.8c0.2-0.5,0.2-1.1-0.1-1.5l-4.6-7c-0.9-1.6-0.6-3.6,0.8-4.5l0.1-0.1
			c1.5-0.9,3.5-0.4,4.5,1.2l0.9,1.3l0,0l0,0l3.2,4.9c0.5,0.7,1.4,0.9,2.1,0.4c0.7-0.5,0.9-1.4,0.5-2.1l-3.2-4.9
			c-1-1.6-0.7-3.7,0.8-4.6c1.5-0.9,3.5-0.4,4.5,1.2l1.4,2.1l0,0l0,0l1.6,2.5c0.5,0.7,1.4,0.9,2.1,0.5c0.7-0.5,0.9-1.4,0.4-2.1
			l-1.6-2.5c-0.5-0.8-0.7-1.7-0.5-2.6c0.1-0.8,0.6-1.5,1.3-2l0.1-0.1C278.2,201.3,280.2,201.8,281.2,203.4z"/>
	</g>
	<g>
		<path class="st2" d="M313.7,234.9l-8.7-2.2c-0.7-0.2-1.4,0.2-1.6,0.9c-0.2,0.7,0.2,1.4,0.9,1.6l8.7,2.2c0.1,0,0.2,0,0.3,0
			c0.6,0,1.1-0.4,1.3-1C314.8,235.8,314.4,235.1,313.7,234.9z"/>
		<path class="st2" d="M303.9,230.4c0.2,0,0.5-0.1,0.7-0.2l4.7-2.8c0.6-0.4,0.8-1.2,0.5-1.8c-0.4-0.6-1.2-0.8-1.8-0.5l-4.7,2.8
			c-0.6,0.4-0.8,1.2-0.5,1.8C303,230.2,303.5,230.4,303.9,230.4z"/>
		<path class="st2" d="M302.8,237.2c-0.4-0.6-1.2-0.8-1.8-0.5c-0.6,0.4-0.8,1.2-0.5,1.8l2.8,4.7c0.2,0.4,0.7,0.6,1.1,0.6
			c0.2,0,0.5-0.1,0.7-0.2c0.6-0.4,0.8-1.2,0.5-1.8L302.8,237.2z"/>
	</g>
	<path class="st2" d="M117.9,123.5h-5.2V117c0-1.1-0.9-2-2-2c-1.1,0-2,0.9-2,2v6.5h-5.2c-1.1,0-2,0.9-2,2c0,1.1,0.9,2,2,2h5.2v5.2
		c0,1.1,0.9,2,2,2c1.1,0,2-0.9,2-2v-5.2h5.2c1.1,0,2-0.9,2-2C119.8,124.4,119,123.5,117.9,123.5z"/>
	<path class="st4" d="M159.9,247.6c0,0-0.1,0-0.1,0l-12.7-0.7l2.6-12.7c0.2-1.1,1.4-1.9,2.5-1.6c1.1,0.2,1.9,1.4,1.7,2.5l-1.6,7.9
		l7.8,0.5c1.2,0.1,2.1,1.1,2,2.2C162,246.8,161.1,247.6,159.9,247.6z"/>
</g>
</svg>
