<?xml version="1.0" encoding="utf-8"?>
<!-- Generator: Adobe Illustrator 23.0.4, SVG Export Plug-In . SVG Version: 6.00 Build 0)  -->
<svg version="1.1" id="Camada_1" xmlns="http://www.w3.org/2000/svg" xmlns:xlink="http://www.w3.org/1999/xlink" x="0px" y="0px"
	 viewBox="0 0 446.3 362" style="enable-background:new 0 0 446.3 362;" xml:space="preserve">
<style type="text/css">
	.st0{opacity:0.18;fill:#3493F8;}
	.st1{fill:#6CA5EA;}
	.st2{fill:#96C7F7;}
	.st3{fill:#F3F3F3;}
	.st4{fill:#3678CB;}
	.st5{fill:#C8DFFC;}
</style>
<g>
	<path class="st0" d="M238.9,361.5c28.1,1.7,55-11.7,70.5-35.2l124.1-188c7.5-11.3,11.7-24.1,12.8-37.1V88.6
		c-0.8-9.9-3.5-19.7-8.1-28.9L408.7,0.5H0v345.4c4.6,1.1,9.3,1.8,14,2.1L238.9,361.5z"/>
	<g>
		<g>
			<polygon class="st1" points="270.8,100.7 270.7,111.4 252.3,130.3 250.1,124.5 			"/>
			<g>
				<path class="st2" d="M149.8,206.1c-0.3,0.1-0.5,0-0.8,0l-12.2-1.6c-1.6-0.2-2.2-0.3-6.4-16.6l-4.9-2.8
					c-16.2,4.9-16.6,4.4-17.6,3.1l-7.5-9.6c-1-1.3-0.8-2.2,3.6-9.9c1.5-2.5,3-5,3.7-6.3l-1.4-5.2c-1.3-0.7-3.9-2-6.5-3.4
					c-7.9-4.3-8.5-4.9-8.3-6.6l1.6-12c0.2-1.6,0.3-2.2,16.9-6.2l2.8-4.7c-0.4-1.4-1.3-4.1-2.1-6.9c-2.4-8.1-2.5-9.4-1.1-10.4
					l9.8-7.3c1.2-0.9,1.8-1.3,16.5,7.3l5.4-1.4c0.7-1.3,2.1-3.8,3.5-6.3c4.3-7.7,5-8.3,6.7-8.1l12.2,1.6c1.6,0.2,2.2,0.3,6.4,16.6
					l4.9,2.8c16.2-4.9,16.6-4.4,17.6-3.1l7.5,9.6c1,1.3,0.8,2.2-3.6,9.9c-1.5,2.5-3,5-3.7,6.3l1.4,5.3c1.3,0.7,3.9,2,6.5,3.4
					c7.9,4.3,8.5,4.9,8.3,6.6l-1.6,12c-0.2,1.6-0.3,2.2-16.9,6.2l-2.8,4.7c0.4,1.4,1.3,4.1,2.1,6.9c2.4,8,2.5,9.4,1.1,10.4l-9.8,7.3
					c-1.3,0.9-1.8,1.3-16.4-7.3l-5.4,1.4c-0.7,1.3-2.1,3.8-3.5,6.3C152.1,204.3,151,205.9,149.8,206.1z M138.4,200.4l10.1,1.3
					c1.4-2,4.6-7.8,7.3-12.9l0.4-0.8l8.9-2.3l0.8,0.4c5.2,3.1,11.2,6.4,13.3,7.4l8-6c-0.5-2.4-2.4-8.8-4.1-14.2l-0.3-0.9l4.6-7.9
					l0.9-0.2c5.9-1.4,12.4-3.1,14.7-4l1.3-9.8c-2-1.3-8-4.6-13.2-7.2l-0.8-0.4l-2.4-8.8l0.5-0.8c3.1-5.1,6.4-10.8,7.5-13l-6.2-7.9
					c-2.4,0.4-9,2.3-14.6,4l-0.9,0.3l-8-4.6l-0.2-0.9c-1.5-5.8-3.3-12.2-4.1-14.4l-10.1-1.3c-1.4,2-4.6,7.8-7.3,12.9l-0.4,0.8
					l-8.9,2.3l-0.8-0.4c-5.2-3.1-11.2-6.4-13.4-7.4l-8,6c0.5,2.4,2.4,8.8,4.1,14.2l0.3,0.9l-4.6,7.9l-0.9,0.2
					c-5.9,1.4-12.4,3.1-14.7,4l-1.3,9.8c2,1.3,8,4.6,13.2,7.3l0.8,0.4l2.4,8.8l-0.5,0.8c-3.1,5-6.4,10.8-7.5,13l6.2,7.9
					c2.4-0.4,8.8-2.2,14.5-4l0.9-0.3l8,4.6l0.2,0.9C135.7,191.6,137.5,198.2,138.4,200.4z M112.1,110.4L112.1,110.4
					C112.1,110.4,112.1,110.4,112.1,110.4z M121.8,103.1L121.8,103.1C121.8,103.1,121.8,103.1,121.8,103.1z M154.4,168
					c-2.2,0.5-4.5,0.5-6.8,0.2c-5.3-0.7-10-3.4-13.3-7.6c-3.3-4.2-4.7-9.4-4-14.6c1.4-10.8,11.5-18.4,22.5-16.9
					c11,1.5,18.8,11.4,17.4,22.2c-0.7,5.2-3.4,9.9-7.7,13.1C160,166.2,157.2,167.4,154.4,168z M146.8,133.5
					c-6.4,1.3-11.5,6.4-12.4,13.1c-0.5,4.1,0.6,8.2,3.2,11.5c2.6,3.3,6.3,5.4,10.5,6c4.2,0.6,8.4-0.5,11.7-3c3.4-2.5,5.5-6.1,6-10.2
					c1.1-8.5-5-16.3-13.7-17.4C150.3,133.1,148.5,133.1,146.8,133.5z"/>
			</g>
			<g>
				<path class="st2" d="M243.9,181.1c4.1,1.5,8.4,2.6,12.9,2.9c3.1,0.3,6.2,0.2,9.4-0.2c2.5-0.3,4.9-0.8,7.3-1.6
					c18.5-5.9,33.6-24.7,33.9-44.1c0.1-5.2-0.7-10.1-2.1-14.8c-1-3.3-5.3-4.2-7.5-1.6l-18.6,20.9c-4.1,4.6-11.2,5-15.9,0.9l-9.6-8.5
					c-4.6-4.1-5-11.2-0.9-15.9l18.4-20.6c2.3-2.6,0.9-6.7-2.5-7.3c-4.7-0.8-9.6-0.9-14.6-0.2c-21.5,3-40.3,24.4-40.4,46.1
					c0,8.2,2.1,15.9,5.7,22.6l-65.6,63.2c-3,2.8-4.6,6.8-4.5,10.9c0.1,4.1,1.8,8,4.8,10.7l12.4,11.2c3.1,2.8,7.2,4.2,11.3,3.8
					c4.1-0.4,7.9-2.4,10.4-5.7l42.2-55l4.2-5.4"/>
			</g>
			<g>
				<path class="st2" d="M253.8,230l-0.7-1.7c0,0,1.6-3.7,1.5-3.9l-2.2-2.1c-0.2-0.1-3.9,1.6-3.9,1.6l-1.7-0.7c0,0-1.5-3.8-1.7-3.8
					h-3.1c-0.2,0-1.6,3.8-1.6,3.8l-1.7,0.7c0,0-3.8-1.6-3.9-1.5l-2.2,2.1c-0.2,0.1,1.6,3.8,1.6,3.8l-0.7,1.7c0,0-3.8,1.5-3.8,1.7v3
					c0,0.2,3.9,1.6,3.9,1.6l0.7,1.7c0,0-1.6,3.7-1.5,3.9l2.2,2.1c0.1,0.1,3.9-1.6,3.9-1.6l1.7,0.7c0,0,1.5,3.8,1.7,3.8h3.1
					c0.2,0,1.6-3.8,1.6-3.8l1.7-0.7c0,0,3.8,1.6,3.9,1.5l2.2-2.1c0.2-0.1-1.6-3.8-1.6-3.8l0.7-1.7c0,0,3.9-1.5,3.9-1.7v-3
					C257.7,231.4,253.8,230,253.8,230z M248.2,233.2c0,2.4-2,4.4-4.5,4.4c-2.5,0-4.5-2-4.5-4.4c0-2.4,2-4.4,4.5-4.4
					C246.1,228.8,248.2,230.8,248.2,233.2z"/>
			</g>
			<path class="st3" d="M303.3,120.8c0,0-10.1,54.8-62.4,43.9c-1.5-0.3-3,0.2-4,1.3l-75.8,84.8l9.2,7.4l7.3,1.3l10.7-5.9l55.9-72.6
				l12.4,2.8l13.2-0.6l20.7-10.8l10.7-11.6l4.9-13.7l0.8-19.8L303.3,120.8z"/>
			<g>
				<path class="st4" d="M176.4,261.6c-4.2,0-8.3-1.6-11.4-4.4L152.7,246c-3.4-3.1-5.5-7.6-5.5-12.3c-0.1-4.7,1.8-9.2,5.2-12.4
					l64.5-62.2c-3.5-6.9-5.2-14.4-5.2-22.2c0.1-10.8,4.7-22.3,12.7-31.4c8-9.1,18.8-15.2,29.5-16.7c5.1-0.7,10.2-0.6,15.2,0.3
					c2.4,0.4,4.2,2,5,4.3c0.8,2.3,0.3,4.7-1.3,6.5l-18.4,20.6c-1.6,1.8-2.4,4.2-2.3,6.6c0.1,2.4,1.2,4.7,3,6.3l9.6,8.5
					c3.8,3.4,9.6,3,12.9-0.7l18.6-20.9c1.6-1.8,3.9-2.5,6.2-2c2.3,0.5,4.1,2.2,4.9,4.4c1.5,5,2.3,10.2,2.2,15.4
					c-0.3,20-15.5,39.8-35.3,46c-2.5,0.8-5.1,1.4-7.7,1.7c-3.3,0.4-6.5,0.5-9.8,0.2c-4.6-0.4-9.1-1.4-13.5-3.1
					c-1.1-0.4-1.6-1.6-1.2-2.7c0.4-1.1,1.6-1.6,2.7-1.2c4,1.5,8.1,2.5,12.3,2.8c3,0.2,6,0.2,9-0.2c2.3-0.3,4.6-0.8,6.9-1.5
					c8.6-2.7,16.7-8.5,22.8-16.3c6.1-7.8,9.5-17,9.7-25.9c0.1-4.8-0.6-9.6-2-14.1c-0.4-1.2-1.3-1.5-1.8-1.6
					c-0.4-0.1-1.4-0.2-2.2,0.7l-18.6,20.9c-4.9,5.5-13.3,6-18.8,1.1l-9.6-8.5c-2.7-2.4-4.2-5.6-4.4-9.2c-0.2-3.6,1-7,3.4-9.6
					L269.6,97c0.6-0.6,0.7-1.5,0.5-2.3c-0.1-0.4-0.6-1.3-1.8-1.5c-4.6-0.8-9.3-0.9-13.9-0.2c-20.4,2.8-38.5,23.4-38.6,44
					c0,7.6,1.8,14.9,5.4,21.6l0.8,1.4l-66.8,64.3c-2.5,2.4-3.9,5.8-3.9,9.3c0.1,3.5,1.6,6.9,4.2,9.2l12.4,11.2
					c2.6,2.4,6.2,3.6,9.7,3.3c3.5-0.3,6.8-2.1,9-4.9l46.4-60.4c0.7-0.9,2-1.1,2.9-0.4c0.9,0.7,1.1,2,0.4,2.9L189.8,255
					c-2.9,3.7-7.2,6.1-11.9,6.5C177.4,261.6,176.9,261.6,176.4,261.6z"/>
			</g>
			<path class="st2" d="M204.9,73.1h-5.5v-6.8c0-1.1-0.9-2-2-2c-1.1,0-2,0.9-2,2v6.8h-5.5c-1.1,0-2,0.9-2,2c0,1.1,0.9,2,2,2h5.5v5.5
				c0,1.1,0.9,2,2,2c1.1,0,2-0.9,2-2v-5.5h5.5c1.1,0,2-0.9,2-2C206.9,74.1,206,73.1,204.9,73.1z"/>
			<path class="st4" d="M251.5,134.1c-0.5,0-1-0.2-1.4-0.6c-0.8-0.8-0.9-2.1-0.1-2.9l19-20.6c0.3-0.3,0.5-0.8,0.5-1.2l0.6-14.7
				c0.1-1.2,1-2,2.2-2c1.2,0.1,2,1,2,2.2l-0.6,14.7c-0.1,1.4-0.6,2.8-1.6,3.9l-19,20.6C252.6,133.8,252.1,134.1,251.5,134.1z"/>
		</g>
		<g>
			<circle class="st5" cx="175.2" cy="234.6" r="6.6"/>
			<path class="st4" d="M175.2,243.6c-5,0-9.1-4.1-9.1-9.1s4.1-9.1,9.1-9.1c5,0,9.1,4.1,9.1,9.1S180.2,243.6,175.2,243.6z
				 M175.2,230.5c-2.2,0-4.1,1.8-4.1,4.1s1.8,4.1,4.1,4.1s4.1-1.8,4.1-4.1S177.4,230.5,175.2,230.5z"/>
		</g>
		<path class="st4" d="M184.1,227c-0.6,0-1.2-0.2-1.7-0.6c-1-0.9-1.1-2.5-0.2-3.5l15.5-17.3c0.9-1,2.5-1.1,3.5-0.2
			c1,0.9,1.1,2.5,0.2,3.5L186,226.1C185.5,226.7,184.8,227,184.1,227z"/>
	</g>
</g>
</svg>
