<?xml version="1.0" encoding="utf-8"?>
<!-- Generator: Adobe Illustrator 23.1.1, SVG Export Plug-In . SVG Version: 6.00 Build 0)  -->
<svg version="1.1" id="Camada_1" xmlns="http://www.w3.org/2000/svg" xmlns:xlink="http://www.w3.org/1999/xlink" x="0px" y="0px"
	 viewBox="0 0 1084.1 498.9" style="enable-background:new 0 0 1084.1 498.9;" xml:space="preserve">
<style type="text/css">
	.st0{opacity:0.3;fill:url(#SVGID_1_);}
	.st1{opacity:0.49;}
	.st2{opacity:0.45;clip-path:url(#SVGID_3_);}
	.st3{fill:#68ADF8;}
	.st4{fill:#7DB9F7;}
</style>
<linearGradient id="SVGID_1_" gradientUnits="userSpaceOnUse" x1="547.7567" y1="-64.8103" x2="539.7936" y2="401.032">
	<stop  offset="0" style="stop-color:#7DB9F7;stop-opacity:0.9"/>
	<stop  offset="0.1687" style="stop-color:#8BC0F7;stop-opacity:0.9169"/>
	<stop  offset="0.4869" style="stop-color:#AFD2F7;stop-opacity:0.9487"/>
	<stop  offset="0.9176" style="stop-color:#EAF0F6;stop-opacity:0.9918"/>
	<stop  offset="1" style="stop-color:#F6F6F6"/>
</linearGradient>
<rect x="0.9" class="st0" width="1082.9" height="498.9"/>
<g class="st1">
	<defs>
		<rect id="SVGID_2_" class="st1" width="1084.8" height="498.9"/>
	</defs>
	<clipPath id="SVGID_3_">
		<use xlink:href="#SVGID_2_"  style="overflow:visible;"/>
	</clipPath>
	<g class="st2">
		<path class="st3" d="M-135.7,210l25.8,64.7c2.1,5.3,6.8,9,12.4,9.8l68.9,10c5.6,0.8,11.2-1.4,14.7-5.9L29.2,234
			c3.5-4.4,4.4-10.4,2.3-15.7L5.7,153.6c-2.1-5.3-6.8-9-12.4-9.8l-68.9-10c-5.6-0.8-11.2,1.4-14.7,5.9l-43.1,54.7
			C-136.9,198.8-137.8,204.7-135.7,210z"/>
		<path class="st4" d="M-5.1,313.4l25.8,64.7c2.1,5.3,6.8,9,12.4,9.8l68.9,10c5.6,0.8,11.2-1.4,14.7-5.9l43.1-54.7
			c3.5-4.4,4.4-10.4,2.3-15.7L136.3,257c-2.1-5.3-6.8-9-12.4-9.8l-68.9-10c-5.6-0.8-11.2,1.4-14.7,5.9l-43.1,54.7
			C-6.3,302.2-7.2,308.2-5.1,313.4z"/>
		<path class="st3" d="M17.6,148.8l25.8,64.7c2.1,5.3,6.8,9,12.4,9.8l68.9,10c5.6,0.8,11.2-1.4,14.7-5.9l43.1-54.7
			c3.5-4.4,4.4-10.4,2.3-15.7L159,92.4c-2.1-5.3-6.8-9-12.4-9.8l-68.9-10C72.1,71.8,66.5,74,63,78.5l-43.1,54.7
			C16.4,137.6,15.5,143.5,17.6,148.8z"/>
		<path class="st4" d="M148.7,249.5l25.8,64.7c2.1,5.3,6.8,9,12.4,9.8l68.9,10c5.6,0.8,11.2-1.4,14.7-5.9l37.4-47.4
			c7-8.9,8.8-20.9,4.6-31.5l-22.4-56.1c-2.1-5.3-6.8-9-12.4-9.8l-68.9-10c-5.6-0.8-11.2,1.4-14.7,5.9l-43.1,54.7
			C147.4,238.2,146.6,244.2,148.7,249.5z"/>
		<path class="st4" d="M-112.1,44.9l25.8,64.7c2.1,5.3,6.8,9,12.4,9.8l68.9,10c5.6,0.8,11.2-1.4,14.7-5.9l43.1-54.7
			c3.5-4.4,4.4-10.4,2.3-15.7L32.7-2.9C28.5-13.4,19-20.9,7.7-22.6l-50.6-7.4c-11.3-1.6-22.5,2.9-29.6,11.8l-37.4,47.4
			C-113.3,33.7-114.2,39.7-112.1,44.9z"/>
	</g>
	<g class="st2">
		<path class="st3" d="M816.8,192.8l48.3,14.1c5.6,1.6,11.7,0.2,16-3.9l36.4-34.8c4.3-4.1,6-10.1,4.6-15.8l-11.9-48.9
			c-1.4-5.7-5.7-10.3-11.4-11.9l-48.3-14.1c-5.6-1.6-11.7-0.2-16,3.9l-36.4,34.8c-4.3,4.1-6,10.1-4.6,15.8l11.9,48.9
			C806.8,186.6,811.1,191.2,816.8,192.8z"/>
		<path class="st4" d="M944.5,161.9l48.3,14.1c5.6,1.6,11.7,0.2,16-3.9l36.4-34.8c4.3-4.1,6-10.1,4.6-15.8l-11.9-48.9
			c-1.4-5.7-5.7-10.3-11.4-11.9l-48.3-14.1c-5.6-1.6-11.7-0.2-16,3.9l-36.4,34.8c-4.3,4.1-6,10.1-4.6,15.8l11.9,48.9
			C934.5,155.7,938.8,160.2,944.5,161.9z"/>
		<path class="st4" d="M1034.3,256.1l48.3,14.1c5.6,1.6,11.7,0.2,16-3.9l29.9-28.6c8.2-7.9,11.6-19.5,8.9-30.5l-7.7-31.6
			c-2.7-11-11.1-19.8-22-23l-39.8-11.6c-5.6-1.6-11.7-0.2-16,3.9l-36.4,34.8c-4.3,4.1-6,10.1-4.6,15.8l11.9,48.9
			C1024.3,249.9,1028.6,254.5,1034.3,256.1z"/>
		<path class="st3" d="M853.2,67.8l48.3,14.1c5.6,1.6,11.7,0.2,16-3.9l36.4-34.8c4.3-4.1,6-10.1,4.6-15.8l-11.9-48.9
			c-1.4-5.7-5.7-10.3-11.4-11.9l-48.3-14.1c-5.6-1.6-11.7-0.2-16,3.9L834.5-8.8c-4.3,4.1-6,10.1-4.6,15.8l11.9,48.9
			C843.2,61.6,847.5,66.2,853.2,67.8z"/>
		<path class="st4" d="M979.4,35.3l48.3,14.1c5.6,1.6,11.7,0.2,16-3.9l36.4-34.8c4.3-4.1,6-10.1,4.6-15.8l-9.8-40.3
			c-2.7-11-11.1-19.8-22-23l-31.3-9.1c-10.9-3.2-22.7-0.3-30.9,7.6l-30,28.6c-4.3,4.1-6,10.1-4.6,15.8L968,23.4
			C969.4,29.1,973.8,33.6,979.4,35.3z"/>
		<path class="st3" d="M1075.4,125.2l39.8,11.6c10.9,3.2,22.7,0.3,30.9-7.6l23.5-22.5c8.2-7.9,11.6-19.5,8.9-30.5l-7.7-31.6
			c-2.7-11-11.1-19.8-22-23L1109,10c-5.6-1.6-11.7-0.2-16,3.9l-36.4,34.8c-4.3,4.1-6,10.1-4.6,15.8l11.9,48.9
			C1065.4,119,1069.7,123.6,1075.4,125.2z"/>
	</g>
</g>
</svg>
