<?xml version="1.0" encoding="utf-8"?>
<!-- Generator: Adobe Illustrator 23.0.4, SVG Export Plug-In . SVG Version: 6.00 Build 0)  -->
<svg version="1.1" id="Camada_1" xmlns="http://www.w3.org/2000/svg" xmlns:xlink="http://www.w3.org/1999/xlink" x="0px" y="0px"
	 viewBox="0 0 2153.1 312.9" style="enable-background:new 0 0 2153.1 312.9;" xml:space="preserve">
<style type="text/css">
	.st0{fill:#96C7F7;}
	.st1{opacity:0.56;}
	.st2{clip-path:url(#SVGID_2_);fill:#68ADF8;}
	.st3{clip-path:url(#SVGID_2_);fill:#7DB9F7;}
	.st4{opacity:0.54;}
	.st5{clip-path:url(#SVGID_4_);fill:#68ADF8;}
	.st6{clip-path:url(#SVGID_4_);fill:#7DB9F7;}
</style>
<g>
	<rect x="-1" y="0" class="st0" width="2153.1" height="313.6"/>
	<g class="st1">
		<defs>
			<rect id="SVGID_1_" x="2.6" class="st1" width="2418.8" height="312.9"/>
		</defs>
		<clipPath id="SVGID_2_">
			<use xlink:href="#SVGID_1_"  style="overflow:visible;"/>
		</clipPath>
		<path class="st2" d="M2.8,5.9L-51.4,60c-4.2,4.2-5.8,10.3-4.3,16.1l19.8,74c1.5,5.7,6,10.2,11.8,11.8l74,19.8
			c5.7,1.5,11.9-0.1,16.1-4.3l54.2-54.2c4.2-4.2,5.8-10.3,4.3-16.1l-19.8-74c-1.5-5.7-6-10.2-11.8-11.8l-74-19.8
			C13.1,0,7,1.7,2.8,5.9z"/>
		<path class="st3" d="M137.3,140.4l-54.2,54.2c-4.2,4.2-5.8,10.3-4.3,16.1l19.8,74c1.5,5.7,6,10.2,11.8,11.8l74,19.8
			c5.7,1.5,11.9-0.1,16.1-4.3l54.2-54.2c4.2-4.2,5.8-10.3,4.3-16.1l-19.8-74c-1.5-5.7-6-10.2-11.8-11.8l-74-19.8
			C147.7,134.6,141.5,136.2,137.3,140.4z"/>
		<path class="st2" d="M187.5-45.6L133.4,8.6c-4.2,4.2-5.8,10.3-4.3,16.1l19.8,74c1.5,5.7,6,10.2,11.8,11.8l74,19.8
			c5.7,1.5,11.9-0.1,16.1-4.3l54.2-54.2c4.2-4.2,5.8-10.3,4.3-16.1l-19.8-74c-1.5-5.7-6-10.2-11.8-11.8l-74-19.8
			C197.8-51.4,191.7-49.8,187.5-45.6z"/>
	</g>
	<g class="st4">
		<defs>
			
				<rect id="SVGID_3_" x="-266.7" transform="matrix(-1 -1.224647e-16 1.224647e-16 -1 1885.3701 312.9156)" class="st4" width="2418.8" height="312.9"/>
		</defs>
		<clipPath id="SVGID_4_">
			<use xlink:href="#SVGID_3_"  style="overflow:visible;"/>
		</clipPath>
		<path class="st5" d="M2151.9,307.1l54.2-54.2c4.2-4.2,5.8-10.3,4.3-16.1l-19.8-74c-1.5-5.7-6-10.2-11.8-11.8l-74-19.8
			c-5.7-1.5-11.9,0.1-16.1,4.3l-54.2,54.2c-4.2,4.2-5.8,10.3-4.3,16.1l19.8,74c1.5,5.7,6,10.2,11.8,11.8l74,19.8
			C2141.6,312.9,2147.7,311.3,2151.9,307.1z"/>
		<path class="st6" d="M2017.3,172.5l54.2-54.2c4.2-4.2,5.8-10.3,4.3-16.1l-19.8-74c-1.5-5.7-6-10.2-11.8-11.8l-74-19.8
			c-5.7-1.5-11.9,0.1-16.1,4.3L1900,55.2c-4.2,4.2-5.8,10.3-4.3,16.1l19.8,74c1.5,5.7,6,10.2,11.8,11.8l74,19.8
			C2007,178.4,2013.1,176.7,2017.3,172.5z"/>
		<path class="st5" d="M1967.2,358.5l54.2-54.2c4.2-4.2,5.8-10.3,4.3-16.1l-19.8-74c-1.5-5.7-6-10.2-11.8-11.8l-74-19.8
			c-5.7-1.5-11.9,0.1-16.1,4.3l-54.2,54.2c-4.2,4.2-5.8,10.3-4.3,16.1l19.8,74c1.5,5.7,6,10.2,11.8,11.8l74,19.8
			C1956.9,364.3,1963,362.7,1967.2,358.5z"/>
	</g>
</g>
</svg>
