<?xml version="1.0" encoding="UTF-8" standalone="no"?>
<!-- Generator: Adobe Illustrator 23.0.4, SVG Export Plug-In . SVG Version: 6.00 Build 0)  -->

<svg
   xmlns:dc="http://purl.org/dc/elements/1.1/"
   xmlns:cc="http://creativecommons.org/ns#"
   xmlns:rdf="http://www.w3.org/1999/02/22-rdf-syntax-ns#"
   xmlns:svg="http://www.w3.org/2000/svg"
   xmlns="http://www.w3.org/2000/svg"
   xmlns:sodipodi="http://sodipodi.sourceforge.net/DTD/sodipodi-0.dtd"
   xmlns:inkscape="http://www.inkscape.org/namespaces/inkscape"
   version="1.1"
   id="Camada_1"
   x="0px"
   y="0px"
   viewBox="0 0 242.52881 223.64999"
   xml:space="preserve"
   sodipodi:docname="icone_daltonico.svg"
   width="242.52881"
   height="223.64999"
   inkscape:version="0.92.4 (unknown)"><metadata
   id="metadata4930"><rdf:RDF><cc:Work
       rdf:about=""><dc:format>image/svg+xml</dc:format><dc:type
         rdf:resource="http://purl.org/dc/dcmitype/StillImage" /></cc:Work></rdf:RDF></metadata><defs
   id="defs4928" /><sodipodi:namedview
   pagecolor="#ffffff"
   bordercolor="#666666"
   borderopacity="1"
   objecttolerance="10"
   gridtolerance="10"
   guidetolerance="10"
   inkscape:pageopacity="0"
   inkscape:pageshadow="2"
   inkscape:window-width="767"
   inkscape:window-height="480"
   id="namedview4926"
   showgrid="false"
   inkscape:zoom="0.56324582"
   inkscape:cx="99.710573"
   inkscape:cy="126.1"
   inkscape:window-x="32"
   inkscape:window-y="164"
   inkscape:window-maximized="0"
   inkscape:current-layer="Camada_1" />
<style
   type="text/css"
   id="style4913">
	.st0{fill:#FFBD17;}
	.st1{fill:#5394F2;}
	.st2{fill:#758596;}
	.st3{fill:#FF415A;}
</style>
<g
   id="g4923"
   transform="translate(-163.28943,-111.95)">
	<path
   class="st0"
   d="m 285.9,284.7 c -32.5,0 -58.9,-26.4 -58.9,-58.9 0,-32.5 26.4,-58.9 58.9,-58.9 32.5,0 58.9,26.4 58.9,58.9 0,32.5 -26.4,58.9 -58.9,58.9 z m 0,-104.3 c -25,0 -45.4,20.4 -45.4,45.4 0,25 20.4,45.4 45.4,45.4 25,0 45.4,-20.4 45.4,-45.4 0,-25 -20.4,-45.4 -45.4,-45.4 z"
   id="path4915"
   inkscape:connector-curvature="0"
   style="fill:#ffbd17" />
	<path
   class="st1"
   d="m 283.8,244.9 c -11.6,0 -21.1,-9.5 -21.1,-21.1 0,-11.6 9.5,-21.1 21.1,-21.1 11.6,0 21.1,9.5 21.1,21.1 0,11.6 -9.5,21.1 -21.1,21.1 z m 0,-23.2 c -1.2,0 -2.1,0.9 -2.1,2.1 0,1.2 0.9,2.1 2.1,2.1 1.2,0 2.1,-0.9 2.1,-2.1 0,-1.2 -0.9,-2.1 -2.1,-2.1 z"
   id="path4917"
   inkscape:connector-curvature="0"
   style="fill:#5394f2" />
	<path
   class="st2"
   d="m 283.9,294.4 c -31.2,0 -66.1,-8.7 -102.8,-33.1 -10.8,-7.2 -17.5,-19.6 -17.8,-33.2 -0.3,-13.6 5.8,-26.2 16.3,-33.9 v 0 c 39.1,-28.7 118.3,-66.8 209.6,0.2 10.8,8 17,21 16.6,34.8 -0.4,13.7 -7.3,26.1 -18.4,33.2 -22.9,14.6 -59.4,32 -103.5,32 z m -96.3,-89.3 c -6.9,5.1 -10.9,13.6 -10.7,22.7 0.2,9.2 4.6,17.5 11.7,22.2 78.1,52.1 147.2,29.3 191.4,1 7.5,-4.8 11.9,-12.9 12.2,-22.2 0.3,-9.4 -3.8,-18.2 -11.1,-23.5 C 301,146.5 231.6,172.7 187.6,205.1 Z"
   id="path4919"
   inkscape:connector-curvature="0"
   style="fill:#758596" />
	<path
   class="st3"
   d="m 186.4,335.6 c -2.5,0 -4.9,-0.9 -6.8,-2.8 -3.8,-3.8 -3.8,-9.9 0,-13.7 L 383.9,114.8 c 3.8,-3.8 9.9,-3.8 13.7,0 3.8,3.8 3.8,9.9 0,13.7 L 193.2,332.8 c -1.9,1.9 -4.4,2.8 -6.8,2.8 z"
   id="path4921"
   inkscape:connector-curvature="0"
   style="fill:#ff415a" />
</g>
</svg>