<?xml version="1.0" encoding="UTF-8" standalone="no"?>
<!-- Generator: Adobe Illustrator 23.0.4, SVG Export Plug-In . SVG Version: 6.00 Build 0)  -->

<svg
   xmlns:dc="http://purl.org/dc/elements/1.1/"
   xmlns:cc="http://creativecommons.org/ns#"
   xmlns:rdf="http://www.w3.org/1999/02/22-rdf-syntax-ns#"
   xmlns:svg="http://www.w3.org/2000/svg"
   xmlns="http://www.w3.org/2000/svg"
   xmlns:sodipodi="http://sodipodi.sourceforge.net/DTD/sodipodi-0.dtd"
   xmlns:inkscape="http://www.inkscape.org/namespaces/inkscape"
   version="1.1"
   id="Camada_1"
   x="0px"
   y="0px"
   viewBox="0 0 216.60001 219.34422"
   xml:space="preserve"
   sodipodi:docname="icone_surdo_.svg"
   width="216.60001"
   height="219.34422"
   inkscape:version="0.92.4 (unknown)"><metadata
   id="metadata6023"><rdf:RDF><cc:Work
       rdf:about=""><dc:format>image/svg+xml</dc:format><dc:type
         rdf:resource="http://purl.org/dc/dcmitype/StillImage" /></cc:Work></rdf:RDF></metadata><defs
   id="defs6021" /><sodipodi:namedview
   pagecolor="#ffffff"
   bordercolor="#666666"
   borderopacity="1"
   objecttolerance="10"
   gridtolerance="10"
   guidetolerance="10"
   inkscape:pageopacity="0"
   inkscape:pageshadow="2"
   inkscape:window-width="767"
   inkscape:window-height="477"
   id="namedview6019"
   showgrid="false"
   inkscape:zoom="0.56324582"
   inkscape:cx="73.15"
   inkscape:cy="109.9"
   inkscape:window-x="127"
   inkscape:window-y="283"
   inkscape:window-maximized="0"
   inkscape:current-layer="Camada_1" />
<style
   type="text/css"
   id="style6006">
	.st0{fill:#758596;}
	.st1{fill:#FF415A;}
</style>
<g
   id="g6016"
   transform="translate(-189.85,-100.05577)">
	<g
   id="g6012">
		<path
   class="st0"
   d="m 369.2,173.3 c -5.2,-32.2 -33,-69.2 -65.9,-72.8 -21.3,-2.3 -42.5,4.4 -58.3,18.5 -15.6,14 -24.7,34 -24.9,54.9 0,4.1 2.7,7.9 6.7,8.5 4.9,0.7 9.1,-3.2 9,-8 -0.2,-7.2 0.2,-14.4 3.2,-20.9 12.1,-26.7 36.5,-40.3 62.5,-37.4 24.8,2.8 48,33.8 52.2,59.8 3.3,20.2 -4.1,32 -18.8,42.8 -8.5,6.2 -13,16.6 -11.2,27 v 0.1 c 3,17 -3.4,34.4 -16.8,45.4 l -2.2,1.8 c -8.7,7.1 -19.8,11 -31,10.7 -6.2,-0.1 -11.9,-3.7 -15,-9.1 L 245,270.9 c -2,-3.4 -6.1,-5.2 -9.7,-3.8 -4.7,1.8 -6.5,7.2 -4.1,11.3 l 13.8,24 c 6,10.5 17.3,17 29.4,17 14.6,0 28.8,-5.1 40.1,-14.3 l 2.3,-1.9 c 17.7,-14.5 26.2,-37.4 22.3,-60 v 0 c -0.8,-4.6 1.1,-9.2 4.9,-11.9 17.1,-12.5 29.9,-29.1 25.2,-58 z"
   id="path6008"
   inkscape:connector-curvature="0"
   style="fill:#758596" />
		<path
   class="st0"
   d="m 248.5,216 22.6,-0.2 c 12,0 22.8,8.6 24.3,20.5 1.4,10.6 -4.4,20.4 -13.9,24.6 -3.4,1.5 -5.7,5.1 -5,8.7 0.7,4 4.1,6.5 7.7,6.5 1,0 2.1,-0.2 3.1,-0.6 16.3,-6.9 26.1,-23.8 23.6,-41.8 -2.8,-19.5 -20.3,-33.6 -40.1,-33.6 h -6.6 v -23.6 c 0,-15.2 12.3,-27.5 27.5,-27.5 8.9,0 19,5.4 24.6,13.2 3,4.2 6,10.8 3.5,19.1 -1.3,4.2 0.6,9.1 4.7,10.5 0.9,0.3 1.7,0.4 2.6,0.4 3.3,0 6.3,-2.1 7.4,-5.4 3.9,-11.6 1.9,-23.6 -5.4,-33.8 -8.5,-11.8 -23.5,-19.7 -37.3,-19.7 -23.8,0 -43.2,19.4 -43.2,43.2"
   id="path6010"
   inkscape:connector-curvature="0"
   style="fill:#758596" />
	</g>
	<path
   class="st1"
   d="m 199.5,317.9 c -2.5,0 -4.9,-0.9 -6.8,-2.8 -3.8,-3.8 -3.8,-9.8 0,-13.6 L 390,104.2 c 3.8,-3.8 9.8,-3.8 13.6,0 3.8,3.8 3.8,9.8 0,13.6 L 206.3,315.1 c -1.9,1.9 -4.4,2.8 -6.8,2.8 z"
   id="path6014"
   inkscape:connector-curvature="0"
   style="fill:#ff415a" />
</g>
</svg>