<?xml version="1.0" encoding="utf-8"?>
<!-- Generator: Adobe Illustrator 23.0.4, SVG Export Plug-In . SVG Version: 6.00 Build 0)  -->
<svg version="1.1" id="Camada_1" xmlns="http://www.w3.org/2000/svg" xmlns:xlink="http://www.w3.org/1999/xlink" x="0px" y="0px"
	 viewBox="0 0 378.6 373.1" style="enable-background:new 0 0 378.6 373.1;" xml:space="preserve">
<style type="text/css">
	.st0{opacity:0.18;fill:#3493F8;}
	.st1{fill:#96C7F7;}
	.st2{fill:#F2F2F2;}
	.st3{fill:#0078D2;}
	.st4{fill:#56A5EF;}
</style>
<path class="st0" d="M193.7,1.6L47.9,59.7c-10.6,4.2-18.1,13.7-19.7,25L5.6,240.1c-1.6,11.3,2.9,22.5,11.8,29.6l123.3,97.3
	c8.9,7,20.9,8.8,31.5,4.6L318,313.4c10.6-4.2,18.1-13.7,19.7-25L360.3,133c1.6-11.3-2.9-22.5-11.8-29.6L225.2,6.1
	C216.3-0.9,204.3-2.7,193.7,1.6z"/>
<path class="st1" d="M337.3,264.7c-1.3-0.1-2.5-0.2-3.9-0.4c-0.8-0.1-1.4-0.9-1.2-1.7c0.1-0.8,0.9-1.4,1.7-1.2
	c1.2,0.2,2.4,0.3,3.5,0.4l0.3,0c0.8,0,1.5,0.7,1.4,1.6c0,0.8-0.7,1.5-1.6,1.4L337.3,264.7C337.3,264.7,337.3,264.7,337.3,264.7z
	 M343.5,264.3c-0.7,0-1.3-0.5-1.4-1.2c-0.2-0.8,0.4-1.6,1.2-1.7c1.2-0.2,2.4-0.6,3.6-1c0.8-0.3,1.6,0.1,1.9,0.8
	c0.3,0.8-0.1,1.6-0.8,1.9c-1.3,0.5-2.7,0.9-4.1,1.2C343.7,264.3,343.6,264.3,343.5,264.3z M327.7,262.9c-0.1,0-0.2,0-0.3-0.1
	c-1.3-0.4-2.6-0.8-3.9-1.3c-0.8-0.3-1.2-1.2-0.9-1.9c0.3-0.8,1.2-1.2,1.9-0.9c1.2,0.5,2.5,0.9,3.7,1.2c0.8,0.2,1.2,1.1,1,1.9
	C329,262.5,328.4,263,327.7,262.9z M318.4,259.3c-0.2,0-0.4-0.1-0.6-0.1c-1.2-0.6-2.4-1.2-3.6-1.8c-0.7-0.4-1-1.3-0.6-2
	c0.4-0.7,1.3-1,2-0.6c1.2,0.6,2.4,1.2,3.5,1.7c0.8,0.3,1.1,1.2,0.7,2C319.6,259,319,259.4,318.4,259.3z M352.5,260.2
	c-0.4,0-0.8-0.2-1.1-0.5c-0.5-0.6-0.5-1.6,0.2-2.1c0.9-0.8,1.8-1.7,2.5-2.7c0.5-0.7,1.5-0.8,2.1-0.3c0.7,0.5,0.8,1.5,0.3,2.1
	c-0.9,1.1-1.9,2.2-3,3.1C353.2,260.1,352.8,260.2,352.5,260.2z M358.2,252.1c-0.2,0-0.3,0-0.5-0.1c-0.8-0.3-1.1-1.2-0.8-2
	c0.3-0.7,0.6-1.4,0.8-2.2c-0.4,0-0.7,0.1-1.1,0.1c-0.7,0.1-1.3,0.1-2,0.2c-0.8,0.1-1.5-0.6-1.6-1.4c-0.1-0.8,0.6-1.5,1.4-1.6
	c0.6,0,1.2-0.1,1.9-0.1c0.7-0.1,1.4-0.1,2-0.2c0.6-0.1,1.1,0.2,1.4,0.6c0.1,0,0.1,0,0.2,0c0.8,0.2,1.3,1,1.1,1.8
	c-0.4,1.4-0.8,2.7-1.4,4C359.4,251.8,358.9,252.1,358.2,252.1z M348.5,248.1C348.5,248.1,348.5,248.1,348.5,248.1
	c-1.5-0.1-2.9-0.3-4.2-0.5c-0.8-0.2-1.3-1-1.2-1.8c0.2-0.8,1-1.3,1.8-1.2c1.1,0.2,2.4,0.4,3.8,0.5c0.8,0,1.5,0.8,1.4,1.6
	C350,247.5,349.3,248.2,348.5,248.1z M339,245.4c-0.3,0-0.6-0.1-0.8-0.3c-1.4-1.1-2.3-2.4-2.8-3.9c-0.3-0.8,0.2-1.6,0.9-1.9
	c0.8-0.3,1.6,0.2,1.9,0.9c0.3,0.9,0.9,1.8,1.8,2.5c0.7,0.5,0.8,1.4,0.3,2.1C340,245.2,339.5,245.4,339,245.4z M364.3,246.5
	c-0.6,0-1.2-0.4-1.4-1.1c-0.2-0.8,0.2-1.6,1-1.9c1.3-0.4,2.4-0.8,3.5-1.4c0.7-0.4,1.6-0.1,2,0.7c0.4,0.7,0.1,1.6-0.7,2
	c-1.2,0.6-2.5,1.1-3.9,1.5C364.7,246.5,364.5,246.5,364.3,246.5z M360.6,242.4C360.5,242.4,360.5,242.4,360.6,242.4
	c-0.9-0.1-1.5-0.8-1.4-1.6c0-0.3,0-0.7,0.1-1c0.1-1,0.1-1.9,0-2.9c0-0.8,0.6-1.5,1.5-1.5c0.8,0,1.5,0.6,1.5,1.5c0,1,0,2.1,0,3.1
	c0,0.4,0,0.7-0.1,1.1C362.1,241.9,361.4,242.5,360.6,242.4z M372.9,241.5c-0.3,0-0.7-0.2-1-0.4c-0.6-0.6-0.6-1.5,0-2.1
	c0.8-0.9,1.5-1.8,2.1-2.9c0.4-0.7,1.3-1,2-0.6c0.7,0.4,1,1.3,0.6,2c-0.7,1.3-1.5,2.5-2.6,3.6C373.8,241.4,373.3,241.6,372.9,241.5z
	 M337,236.3c-0.1,0-0.3,0-0.4-0.1c-0.8-0.3-1.2-1.1-0.9-1.9c0.5-1.3,1.1-2.6,2-3.9c0.5-0.7,1.4-0.9,2.1-0.4c0.7,0.5,0.9,1.4,0.4,2.1
	c-0.7,1.1-1.3,2.2-1.7,3.3C338.3,236,337.7,236.4,337,236.3z M360,232.5c-0.7,0-1.2-0.5-1.4-1.2c-0.3-1.3-0.6-2.5-1.1-3.6
	c-0.3-0.8,0.1-1.6,0.8-2c0.8-0.3,1.6,0.1,2,0.8c0.5,1.2,0.9,2.6,1.2,4.1c0.2,0.8-0.3,1.6-1.2,1.8C360.2,232.5,360.1,232.5,360,232.5
	z M376.9,232.6C376.9,232.6,376.8,232.6,376.9,232.6c-0.9-0.1-1.5-0.8-1.4-1.7c0-0.3,0.1-0.6,0.1-1c0-0.9,0-1.8,0-2.8
	c-0.1-0.8,0.6-1.5,1.4-1.6c0.8-0.1,1.5,0.6,1.6,1.4c0.1,1.1,0.1,2.1,0,3.2c0,0.4,0,0.7-0.1,1.1C378.4,232,377.7,232.6,376.9,232.6z
	 M342.7,228.2c-0.4,0-0.7-0.2-1-0.5c-0.6-0.6-0.5-1.6,0.1-2.1c1.1-1,2.2-1.9,3.3-2.6c0.7-0.5,1.6-0.3,2.1,0.4
	c0.5,0.7,0.3,1.6-0.4,2.1c-1,0.7-2,1.4-2.9,2.3C343.5,228.1,343.1,228.2,342.7,228.2z M355.3,224c-0.2,0-0.4-0.1-0.6-0.2
	c-0.8-0.4-1.8-0.5-3-0.4c-0.8,0.1-1.6-0.4-1.7-1.3c-0.1-0.8,0.4-1.6,1.3-1.7c1.8-0.3,3.5,0,4.8,0.7c0.7,0.4,1,1.3,0.6,2
	C356.4,223.7,355.8,224,355.3,224z M375.9,222.7c-0.6,0-1.2-0.5-1.4-1.1c-0.3-1.2-0.7-2.4-1.1-3.7c-0.3-0.8,0.1-1.6,0.9-1.9
	c0.8-0.3,1.6,0.1,1.9,0.9c0.5,1.3,0.9,2.7,1.2,4c0.2,0.8-0.3,1.6-1.1,1.8C376.2,222.7,376.1,222.7,375.9,222.7z M372.5,213.3
	c-0.5,0-1-0.3-1.3-0.9c-0.5-1.2-1.1-2.3-1.7-3.5c-0.4-0.7-0.1-1.6,0.6-2c0.7-0.4,1.6-0.1,2,0.6c0.6,1.2,1.3,2.5,1.8,3.7
	c0.3,0.8,0,1.6-0.7,2C373,213.2,372.7,213.3,372.5,213.3z M367.7,204.5c-0.5,0-0.9-0.3-1.2-0.7c-1.3-2-2.1-3.3-2.1-3.3
	c-0.5-0.7-0.3-1.6,0.3-2.1c0.7-0.5,1.6-0.3,2.1,0.3c0,0.1,0.9,1.3,2.3,3.4c0.4,0.7,0.2,1.6-0.5,2.1
	C368.3,204.4,368,204.5,367.7,204.5z"/>
<path class="st2" d="M46.4,240.1l278,1c0,0,3,43-33.2,38.1c-32.1-4.3-83.9,2.3-83.9,2.3l10.6,40.5l-64.6,0l6.2-40.6l-91.7-2.3
	l-19.5-7.1l-4-19L46.4,240.1z"/>
<path class="st1" d="M112.2,64.9c0-0.1,0-0.1,0-0.2C111.7,34.1,86.8,9.4,56.1,9.4C25.5,9.4,0.5,34.1,0,64.6c0,0.1,0,0.1,0,0.2
	c0,0,0,0.1,0,0.1c0,0.2,0,0.4,0,0.5c0,30.9,25.2,56.1,56.1,56.1c30.9,0,56.1-25.2,56.1-56.1c0-0.2,0-0.4,0-0.5
	C112.2,65,112.2,64.9,112.2,64.9z M102.4,86.9H79.7c2.1-6.7,2.9-13.2,2.9-19.4H107C106.8,74.4,105.1,80.9,102.4,86.9z M55.6,116.5
	C55.5,116.5,55.5,116.5,55.6,116.5c-0.1-0.1-0.1-0.1-0.2-0.2c-0.1-0.1-9.5-9.6-16.1-24.3h33.2C68.7,100.4,63.1,108.6,55.6,116.5z
	 M37.2,86.9c-0.3-0.8-0.6-1.6-0.8-2.4c-1.9-5.8-3-11.4-3.3-17.1h44.6c0,6.6-1.1,13.1-3.2,19.4H37.2z M5.2,67.4h22.7
	c0.4,7,1.9,13.5,3.9,19.4h-22C7.1,80.9,5.5,74.4,5.2,67.4z M9.8,44.2h20.9c-1.9,6.2-2.8,12.3-2.9,18.1H5.3
	C5.7,55.9,7.3,49.8,9.8,44.2z M55,14.6c0,0.1,0.1,0.1,0.1,0.2c0.1,0.1,9.5,9.6,16.1,24.3H38.1C41.8,30.6,47.4,22.5,55,14.6
	C54.9,14.6,55,14.6,55,14.6z M73.3,44.2c0.3,0.8,0.6,1.6,0.8,2.4c1.7,5.3,2.8,10.6,3.2,15.7H32.9c0.1-6.1,1.2-12.2,3.2-18.1H73.3z
	 M82.4,62.3c-0.5-6.5-1.9-12.5-3.8-18.1h23.7c2.6,5.6,4.2,11.7,4.6,18.1H82.4z M99.6,39.1H76.7C72.1,28,65.9,19.5,62.1,14.9
	C78,16.8,91.7,26,99.6,39.1z M47.3,15.4c-6.9,8-11.6,16-14.7,23.7h-20C20.1,26.8,32.6,17.9,47.3,15.4z M12.6,92h21.2
	c4.5,10.8,10.5,19.2,14.3,23.9C33.1,113.5,20.2,104.5,12.6,92z M62.9,116c7-8.1,11.9-16.2,15-24h21.7
	C91.8,104.8,78.5,113.9,62.9,116z"/>
<path class="st2" d="M324.4,240.6H42.3V108.3c0-13.8,9.2-25,23-25h241c10,0,18.1,8.1,18.1,18.1V240.6z"/>
<polygon class="st1" points="158.5,303.8 208.2,291.9 208.2,282.3 158.5,282.3 "/>
<path class="st1" d="M46.3,110v130.6h276.5V110H46.3z M254.5,131.5c8.9,0,16.1,7.2,16.1,16.1c0,8.9-7.2,16.1-16.1,16.1
	s-16.1-7.2-16.1-16.1C238.4,138.7,245.6,131.5,254.5,131.5z M112.5,132c8.9,0,16.1,7.2,16.1,16.1c0,8.9-7.2,16.1-16.1,16.1
	c-8.9,0-16.1-7.2-16.1-16.1C96.4,139.2,103.6,132,112.5,132z M141.4,205.3c0,2.9-2.3,5.2-5.2,5.2H88.9c-2.9,0-5.2-2.3-5.2-5.2V192
	c0-13.2,10.7-24,24-24h9.9c13.2,0,24,10.7,24,24V205.3z M283.4,204.9c0,2.9-2.3,5.2-5.2,5.2h-47.3c-2.9,0-5.2-2.3-5.2-5.2v-13.3
	c0-13.2,10.7-24,24-24h9.9c13.2,0,24,10.7,24,24V204.9z"/>
<path class="st3" d="M299.7,283.4H68.5c-15.5,0-28.1-12.6-28.1-28.1V106.7c0-15.5,12.6-28.1,28.1-28.1h231.2
	c15.5,0,28.1,12.6,28.1,28.1v148.6C327.8,270.8,315.2,283.4,299.7,283.4z M68.5,85.4c-11.8,0-21.3,9.6-21.3,21.3v148.6
	c0,11.8,9.6,21.3,21.3,21.3h231.2c11.8,0,21.3-9.6,21.3-21.3V106.7c0-11.8-9.6-21.3-21.3-21.3H68.5z"/>
<path class="st4" d="M184.3,223.2c-1.2,0-2.3-1-2.3-2.3V127c0-1.2,1-2.3,2.3-2.3s2.3,1,2.3,2.3V221
	C186.5,222.2,185.5,223.2,184.3,223.2z"/>
<path class="st3" d="M324.4,244H43.8c-1.9,0-3.4-1.5-3.4-3.4s1.5-3.4,3.4-3.4h280.6c1.9,0,3.4,1.5,3.4,3.4S326.3,244,324.4,244z"/>
<path class="st3" d="M324.4,110.1H43.8c-1.9,0-3.4-1.5-3.4-3.4s1.5-3.4,3.4-3.4h280.6c1.9,0,3.4,1.5,3.4,3.4
	S326.3,110.1,324.4,110.1z"/>
<circle class="st1" cx="184.1" cy="260.3" r="7.6"/>
<path class="st3" d="M152.6,328.1c-0.2,0-0.4,0-0.6-0.1c-1.8-0.4-3-2.1-2.7-4l9.2-47.4h51.3l9.1,47.5c0.4,1.8-0.9,3.6-2.7,4
	c-1.8,0.4-3.6-0.9-4-2.7l-8-42H164l-8.1,42C155.6,327,154.2,328.1,152.6,328.1z"/>
<path class="st3" d="M184.3,270.1c-5.4,0-9.8-4.4-9.8-9.8c0-5.4,4.4-9.8,9.8-9.8s9.8,4.4,9.8,9.8
	C194.1,265.7,189.7,270.1,184.3,270.1z M184.3,254.9c-2.9,0-5.3,2.4-5.3,5.3s2.4,5.3,5.3,5.3s5.3-2.4,5.3-5.3
	S187.2,254.9,184.3,254.9z"/>
<path class="st3" d="M249.6,328.1H119.4c-1.9,0-3.4-1.5-3.4-3.4s1.5-3.4,3.4-3.4h130.2c1.9,0,3.4,1.5,3.4,3.4
	S251.5,328.1,249.6,328.1z"/>
<g>
	<g>
		<path class="st1" d="M363.7,176.8L340,163c-1-0.6-2.1,0.3-1.9,1.4l5.8,26.6c0.4,1.9,2.9,2.4,3.9,0.8l3.2-4.8l5.4,7.5
			c0.7,1,2.1,1.2,3.1,0.5l2.8-2c1-0.7,1.2-2.1,0.5-3.1l-5.4-7.5l5.7-1.6C364.9,180.1,365.2,177.7,363.7,176.8z M361.1,191.1l-2.7,2
			L351,183l-4.1,6.1c-0.3,0.5-1,0.3-1.2-0.2l-5-22.8l20.9,12.2c0.2,0.1,0.2,0.5-0.1,0.5l-7.9,2.2L361.1,191.1z"/>
	</g>
</g>
<polygon class="st1" points="340.2,163.9 363.5,178.3 361.8,180.2 355.6,181.5 361,189.7 361.3,191.1 358.1,193.2 350.9,183.3 
	346,190.8 "/>
</svg>
