<?xml version="1.0" encoding="utf-8"?>
<!-- Generator: Adobe Illustrator 23.0.4, SVG Export Plug-In . SVG Version: 6.00 Build 0)  -->
<svg version="1.1" id="Camada_1" xmlns="http://www.w3.org/2000/svg" xmlns:xlink="http://www.w3.org/1999/xlink" x="0px" y="0px"
	 viewBox="0 0 429 362" style="enable-background:new 0 0 429 362;" xml:space="preserve">
<style type="text/css">
	.st0{opacity:0.18;fill:#3493F8;}
	.st1{fill:none;}
	.st2{fill:#96C7F7;}
	.st3{fill:#F3F3F3;}
	.st4{fill:#3678CB;}
	.st5{fill:#56A5EF;}
	.st6{fill:#A2C7F4;}
</style>
<g>
	<path class="st0" d="M-181.1,28.1c28.1,1.7,55-11.7,70.5-35.2l124.1-188c7.5-11.3,11.7-24.1,12.8-37.1v-12.6
		c-0.8-9.9-3.5-19.7-8.1-28.9L-11.3-333h-408.7V12.4c4.6,1.1,9.3,1.8,14,2.1L-181.1,28.1z"/>
	<path class="st1" d="M446.3,88.6V0.5h-37.6l29.6,59.2C442.9,68.8,445.5,78.7,446.3,88.6z"/>
	<path class="st1" d="M446.3,101.2c-1,13-5.3,25.8-12.8,37.1l-124.1,188c-15.5,23.5-42.4,36.9-70.5,35.2L14,348
		c-4.8-0.3-9.5-1-14-2.1V362h446.3V101.2z"/>
</g>
<g>
	<path class="st2" d="M382.1,290c-1.4-0.1-2.9-0.2-4.4-0.5c-0.9-0.1-1.6-1-1.4-2c0.1-0.9,1-1.6,2-1.4c1.4,0.2,2.7,0.4,4,0.4l0.3,0
		c0.9,0,1.7,0.8,1.6,1.8c0,0.9-0.8,1.7-1.8,1.6L382.1,290C382.1,290,382.1,290,382.1,290z M389.2,289.6c-0.8,0-1.4-0.6-1.6-1.4
		c-0.2-0.9,0.4-1.8,1.4-2c1.4-0.3,2.8-0.6,4-1.2c0.9-0.3,1.9,0.1,2.2,1c0.3,0.9-0.1,1.9-1,2.2c-1.5,0.6-3,1-4.7,1.3
		C389.5,289.6,389.3,289.6,389.2,289.6z M371.3,288c-0.1,0-0.3,0-0.4-0.1c-1.4-0.4-2.9-0.9-4.4-1.5c-0.9-0.3-1.3-1.3-1-2.2
		c0.3-0.9,1.3-1.3,2.2-1c1.4,0.5,2.8,1,4.2,1.4c0.9,0.3,1.4,1.2,1.1,2.1C372.8,287.6,372.1,288.1,371.3,288z M360.7,284
		c-0.2,0-0.4-0.1-0.6-0.2c-1.3-0.6-2.7-1.3-4.1-2c-0.8-0.4-1.2-1.5-0.7-2.3c0.4-0.8,1.5-1.2,2.3-0.7c1.4,0.7,2.7,1.4,4,2
		c0.9,0.4,1.2,1.4,0.8,2.3C362,283.6,361.4,284,360.7,284z M399.4,284.9c-0.5,0-0.9-0.2-1.2-0.6c-0.6-0.7-0.5-1.8,0.2-2.4
		c1-0.9,2-1.9,2.9-3c0.6-0.7,1.6-0.9,2.4-0.3c0.7,0.6,0.9,1.6,0.3,2.4c-1,1.3-2.2,2.5-3.4,3.5C400.2,284.8,399.8,284.9,399.4,284.9z
		 M405.9,275.8c-0.2,0-0.4-0.1-0.6-0.1c-0.9-0.4-1.3-1.4-0.9-2.2c0.3-0.8,0.7-1.6,0.9-2.5c-0.4,0-0.8,0.1-1.3,0.1
		c-0.8,0.1-1.5,0.1-2.2,0.2c-0.9,0.1-1.7-0.7-1.8-1.6c-0.1-0.9,0.7-1.7,1.6-1.8c0.7,0,1.4-0.1,2.1-0.2c0.8-0.1,1.5-0.2,2.3-0.3
		c0.7-0.1,1.3,0.2,1.6,0.7c0.1,0,0.2,0,0.2,0c0.9,0.2,1.4,1.2,1.2,2.1c-0.4,1.6-0.9,3.1-1.6,4.5
		C407.3,275.4,406.6,275.8,405.9,275.8z M394.9,271.3C394.9,271.3,394.9,271.3,394.9,271.3c-1.7-0.1-3.3-0.3-4.7-0.6
		c-0.9-0.2-1.5-1.1-1.3-2c0.2-0.9,1.1-1.5,2-1.3c1.3,0.3,2.7,0.4,4.3,0.5c0.9,0.1,1.7,0.9,1.6,1.8
		C396.6,270.6,395.8,271.3,394.9,271.3z M384.1,268.1c-0.3,0-0.7-0.1-0.9-0.3c-1.6-1.2-2.6-2.7-3.2-4.4c-0.3-0.9,0.2-1.9,1.1-2.2
		c0.9-0.3,1.9,0.2,2.2,1.1c0.4,1.1,1.1,2,2.1,2.8c0.7,0.6,0.9,1.6,0.3,2.4C385.2,267.9,384.7,268.2,384.1,268.1z M412.8,269.4
		c-0.7,0-1.3-0.5-1.5-1.2c-0.3-0.9,0.2-1.9,1.1-2.1c1.4-0.4,2.8-1,4-1.5c0.8-0.4,1.9-0.1,2.3,0.8c0.4,0.8,0.1,1.9-0.8,2.3
		c-1.4,0.7-2.9,1.3-4.5,1.7C413.2,269.4,413,269.4,412.8,269.4z M408.5,264.8C408.5,264.8,408.5,264.8,408.5,264.8
		c-1-0.1-1.7-0.9-1.6-1.8c0-0.4,0.1-0.7,0.1-1.1c0.1-1.1,0.1-2.2,0-3.2c0-0.9,0.7-1.7,1.7-1.7c0.9,0,1.7,0.7,1.7,1.7
		c0,1.2,0,2.3,0,3.5c0,0.4,0,0.8-0.1,1.2C410.3,264.2,409.5,264.8,408.5,264.8z M422.6,263.8c-0.4,0-0.8-0.2-1.1-0.5
		c-0.7-0.6-0.7-1.7-0.1-2.4c0.9-1,1.7-2.1,2.3-3.3c0.4-0.8,1.5-1.2,2.3-0.7c0.8,0.4,1.2,1.5,0.7,2.3c-0.8,1.5-1.7,2.9-2.9,4.1
		C423.5,263.6,423,263.8,422.6,263.8z M381.9,257.9c-0.2,0-0.3,0-0.5-0.1c-0.9-0.3-1.3-1.3-1-2.2c0.5-1.4,1.3-2.9,2.2-4.4
		c0.5-0.8,1.6-1,2.4-0.5c0.8,0.5,1,1.6,0.5,2.4c-0.8,1.2-1.4,2.5-1.9,3.7C383.3,257.5,382.6,257.9,381.9,257.9z M407.9,253.5
		c-0.7,0-1.4-0.6-1.6-1.3c-0.3-1.5-0.7-2.9-1.2-4.1c-0.4-0.9,0.1-1.9,0.9-2.2c0.9-0.4,1.9,0.1,2.2,0.9c0.6,1.4,1,2.9,1.4,4.6
		c0.2,0.9-0.4,1.8-1.3,2C408.2,253.5,408,253.5,407.9,253.5z M427.1,253.6C427,253.6,427,253.6,427.1,253.6c-1-0.1-1.7-0.9-1.6-1.9
		c0-0.4,0.1-0.7,0.1-1.1c0.1-1,0-2.1,0-3.2c-0.1-0.9,0.6-1.8,1.6-1.8c0.9-0.1,1.8,0.6,1.8,1.6c0.1,1.2,0.1,2.4,0,3.6
		c0,0.4-0.1,0.8-0.1,1.3C428.8,253,428,253.7,427.1,253.6z M388.3,248.6c-0.4,0-0.8-0.2-1.2-0.5c-0.6-0.7-0.6-1.8,0.1-2.4
		c1.2-1.1,2.5-2.1,3.8-3c0.8-0.5,1.8-0.3,2.4,0.5c0.5,0.8,0.3,1.8-0.5,2.4c-1.1,0.7-2.3,1.6-3.3,2.6
		C389.2,248.5,388.8,248.7,388.3,248.6z M402.5,243.8c-0.2,0-0.5-0.1-0.7-0.2c-0.9-0.5-2-0.6-3.4-0.4c-0.9,0.1-1.8-0.5-1.9-1.4
		c-0.1-0.9,0.5-1.8,1.4-1.9c2-0.3,3.9-0.1,5.5,0.8c0.8,0.4,1.1,1.5,0.7,2.3C403.8,243.5,403.2,243.9,402.5,243.8z M426,242.4
		c-0.7,0-1.4-0.5-1.6-1.3c-0.3-1.4-0.8-2.8-1.3-4.2c-0.3-0.9,0.2-1.9,1-2.2c0.9-0.3,1.9,0.2,2.2,1c0.5,1.5,1,3,1.4,4.5
		c0.2,0.9-0.3,1.8-1.2,2.1C426.3,242.4,426.2,242.4,426,242.4z M422.1,231.7c-0.6,0-1.2-0.4-1.5-1c-0.6-1.3-1.3-2.7-2-4
		c-0.4-0.8-0.1-1.9,0.7-2.3c0.8-0.4,1.9-0.1,2.3,0.7c0.7,1.4,1.4,2.8,2.1,4.2c0.4,0.9,0,1.9-0.8,2.3
		C422.6,231.7,422.4,231.7,422.1,231.7z M416.7,221.7c-0.5,0-1.1-0.3-1.4-0.8c-1.4-2.3-2.4-3.7-2.4-3.7c-0.5-0.8-0.4-1.8,0.4-2.4
		c0.8-0.5,1.8-0.4,2.4,0.4c0,0.1,1.1,1.5,2.6,3.9c0.5,0.8,0.2,1.8-0.6,2.3C417.4,221.7,417,221.7,416.7,221.7z"/>
	<path class="st3" d="M52,262.2l315.4,1.1c0,0,3.4,48.8-37.7,43.2c-36.4-4.9-95.1,2.7-95.1,2.7l12,46l-73.3,0l7.1-46l-104.1-2.7
		l-22.1-8.1l-4.5-21.6L52,262.2z"/>
	<g>
		<path class="st2" d="M126.8,63.3c0-0.1,0-0.2,0-0.3C126.2,28.4,97.9,0.4,63.1,0.4C28.3,0.4,0,28.4-0.6,63.1c0,0.1,0,0.2,0,0.3
			c0,0.1,0,0.1,0,0.2c0,0.2,0,0.4,0,0.6c0,35.1,28.6,63.7,63.7,63.7c35.1,0,63.7-28.6,63.7-63.7c0-0.2,0-0.4,0-0.6
			C126.7,63.4,126.8,63.4,126.8,63.3z M115.6,88.3H89.9c2.3-7.6,3.3-15,3.3-22h27.7C120.6,74.1,118.7,81.5,115.6,88.3z M62.5,121.9
			C62.4,121.9,62.4,121.9,62.5,121.9c-0.1-0.1-0.2-0.1-0.2-0.2c-0.1-0.1-10.8-10.9-18.3-27.6h37.6C77.4,103.7,71,112.9,62.5,121.9z
			 M41.6,88.3c-0.3-0.9-0.7-1.8-1-2.7c-2.2-6.5-3.4-13-3.8-19.4h50.7c0,7.5-1.2,14.8-3.7,22H41.6z M5.3,66.2h25.8
			c0.5,7.9,2.1,15.3,4.4,22h-25C7.5,81.5,5.6,74.1,5.3,66.2z M10.6,39.9h23.7c-2.2,7.1-3.2,13.9-3.3,20.5H5.4
			C5.9,53.1,7.7,46.2,10.6,39.9z M61.8,6.3c0.1,0.1,0.1,0.1,0.1,0.2C62.1,6.6,72.8,17.3,80.2,34H42.6c4.2-9.5,10.6-18.8,19.1-27.7
			C61.8,6.3,61.8,6.3,61.8,6.3z M82.6,39.9c0.3,0.9,0.7,1.8,1,2.7c2,6,3.2,12,3.7,17.8H36.7c0.2-7,1.4-13.8,3.7-20.5H82.6z M93,60.4
			c-0.6-7.3-2.2-14.2-4.3-20.5h26.9c2.9,6.3,4.7,13.2,5.2,20.5H93z M112.5,34h-26C81.2,21.5,74.2,11.9,69.9,6.7
			C87.9,8.8,103.4,19.2,112.5,34z M53.1,7.1C45.2,16.2,39.9,25.3,36.4,34H13.7C22.2,20.1,36.4,10.1,53.1,7.1z M13.7,94.1h24.1
			c5.1,12.3,12,21.8,16.3,27.1C37,118.5,22.4,108.3,13.7,94.1z M70.8,121.4c8-9.2,13.5-18.4,17-27.2h24.7
			C103.6,108.7,88.5,119,70.8,121.4z"/>
		<path class="st3" d="M367.5,262.7H45.2V99.1c0-8.2,6.6-14.8,14.8-14.8h292.7c8.2,0,14.8,6.6,14.8,14.8V262.7z"/>
		<polygon class="st2" points="179.2,334.5 235.7,320.9 235.7,310 179.2,310 		"/>
		<path class="st2" d="M51.9,114.5v148.2h313.7V114.5H51.9z M288.2,138.9c10.1,0,18.3,8.2,18.3,18.3c0,10.1-8.2,18.3-18.3,18.3
			c-10.1,0-18.3-8.2-18.3-18.3C270,147.1,278.2,138.9,288.2,138.9z M127.1,139.4c10.1,0,18.3,8.2,18.3,18.3
			c0,10.1-8.2,18.3-18.3,18.3c-10.1,0-18.3-8.2-18.3-18.3C108.8,147.6,117,139.4,127.1,139.4z M159.9,222.7c0,3.3-2.7,5.9-5.9,5.9
			h-53.7c-3.3,0-5.9-2.7-5.9-5.9v-15.1c0-15,12.2-27.2,27.2-27.2h11.2c15,0,27.2,12.2,27.2,27.2V222.7z M321,222.2
			c0,3.3-2.7,5.9-6,5.9h-53.7c-3.3,0-6-2.7-6-5.9v-15.1c0-15,12.2-27.2,27.2-27.2h11.2c15,0,27.2,12.2,27.2,27.2V222.2z"/>
		<path class="st4" d="M339.5,311.3H77.1c-17.6,0-31.9-14.3-31.9-31.9V110.8c0-17.6,14.3-31.9,31.9-31.9h262.4
			c17.6,0,31.9,14.3,31.9,31.9v168.6C371.3,297,357.1,311.3,339.5,311.3z M77.1,86.6c-13.3,0-24.2,10.8-24.2,24.2v168.6
			c0,13.3,10.8,24.2,24.2,24.2h262.4c13.3,0,24.2-10.8,24.2-24.2V110.8c0-13.3-10.8-24.2-24.2-24.2H77.1z"/>
		<path class="st5" d="M208.5,243c-1.4,0-2.6-1.1-2.6-2.6V133.9c0-1.4,1.1-2.6,2.6-2.6s2.6,1.1,2.6,2.6v106.6
			C211.1,241.8,209.9,243,208.5,243z"/>
		<path class="st4" d="M367.5,266.6H49.1c-2.1,0-3.8-1.7-3.8-3.8c0-2.1,1.7-3.8,3.8-3.8h318.4c2.1,0,3.8,1.7,3.8,3.8
			C371.3,264.8,369.6,266.6,367.5,266.6z"/>
		<path class="st4" d="M367.5,114.6H49.1c-2.1,0-3.8-1.7-3.8-3.8s1.7-3.8,3.8-3.8h318.4c2.1,0,3.8,1.7,3.8,3.8
			S369.6,114.6,367.5,114.6z"/>
		<circle class="st6" cx="208.3" cy="285" r="8.6"/>
		<path class="st4" d="M172.6,362c-0.2,0-0.5,0-0.7-0.1c-2.1-0.4-3.4-2.4-3-4.5l10.4-53.8h58.2l10.3,53.8c0.4,2.1-1,4.1-3,4.5
			c-2.1,0.4-4.1-1-4.5-3l-9.1-47.6h-45.5l-9.2,47.6C176,360.8,174.4,362,172.6,362z"/>
		<path class="st4" d="M208.5,296.2c-6.2,0-11.2-5-11.2-11.2c0-6.2,5-11.2,11.2-11.2s11.2,5,11.2,11.2
			C219.7,291.2,214.7,296.2,208.5,296.2z M208.5,279c-3.3,0-6,2.7-6,6c0,3.3,2.7,6,6,6s6-2.7,6-6C214.6,281.7,211.9,279,208.5,279z"
			/>
		<path class="st4" d="M282.7,362H134.9c-2.1,0-3.8-1.7-3.8-3.8c0-2.1,1.7-3.8,3.8-3.8h147.8c2.1,0,3.8,1.7,3.8,3.8
			C286.5,360.3,284.8,362,282.7,362z"/>
	</g>
	<path class="st2" d="M412.1,190.3l-26.8-15.7c-1.1-0.6-2.4,0.3-2.1,1.5l6.6,30.2c0.5,2.1,3.3,2.7,4.5,0.9l3.7-5.4l6.2,8.5
		c0.8,1.1,2.4,1.4,3.5,0.6l3.1-2.3c1.1-0.8,1.4-2.4,0.6-3.5l-6.2-8.5l6.5-1.9C413.5,194.1,413.9,191.4,412.1,190.3z"/>
</g>
</svg>
