<?xml version="1.0" encoding="utf-8"?>
<!-- Generator: Adobe Illustrator 23.0.4, SVG Export Plug-In . SVG Version: 6.00 Build 0)  -->
<svg version="1.1" id="Camada_1" xmlns="http://www.w3.org/2000/svg" xmlns:xlink="http://www.w3.org/1999/xlink" x="0px" y="0px"
	 viewBox="0 0 232.9 163" style="enable-background:new 0 0 232.9 163;" xml:space="preserve">
<style type="text/css">
	.st0{fill:#ABABAB;}
</style>
<g>
	<path class="st0" d="M18.4,9.6l83.9,66.4c3.8,3,9,4.3,14.1,4.1c5.1,0.3,10.3-1.1,14.1-4.1l83.9-66.4c6.7-5.3,5.2-9.6-3.3-9.6h-94.7
		H21.8C13.2,0,11.7,4.3,18.4,9.6z"/>
	<path class="st0" d="M220.5,27.2l-91.7,69.6c-3.4,2.6-7.9,3.8-12.4,3.8c-4.5,0.1-9-1.2-12.4-3.8L12.4,27.2C5.6,22,0,24.8,0,33.3
		v114.2C0,156,7,163,15.5,163h100.9h100.9c8.5,0,15.5-7,15.5-15.5V33.3C232.9,24.8,227.3,22,220.5,27.2z"/>
</g>
</svg>
