<?xml version="1.0" encoding="utf-8"?>
<!-- Generator: Adobe Illustrator 23.0.4, SVG Export Plug-In . SVG Version: 6.00 Build 0)  -->
<svg version="1.1" id="Camada_1" xmlns="http://www.w3.org/2000/svg" xmlns:xlink="http://www.w3.org/1999/xlink" x="0px" y="0px"
	 viewBox="0 0 204.8 204.8" style="enable-background:new 0 0 204.8 204.8;" xml:space="preserve">
<style type="text/css">
	.st0{fill:#383838;}
</style>
<g>
	<path class="st0" d="M204.3,158.7c-0.6-1.7-4.3-4.3-11.1-7.7c-1.8-1.1-4.5-2.5-7.9-4.4c-3.4-1.8-6.5-3.5-9.2-5.1
		c-2.8-1.6-5.4-3.1-7.8-4.5c-0.4-0.3-1.6-1.1-3.6-2.5c-2-1.4-3.8-2.4-5.2-3.1c-1.4-0.7-2.8-1-4.1-1c-1.9,0-4.4,1.4-7.3,4.1
		c-2.9,2.8-5.6,5.8-8,9c-2.4,3.2-5,6.3-7.7,9c-2.7,2.8-4.9,4.1-6.7,4.1c-0.9,0-2-0.2-3.3-0.7c-1.3-0.5-2.3-0.9-3-1.2
		c-0.7-0.3-1.8-1-3.5-2c-1.7-1-2.6-1.6-2.8-1.7c-13.3-7.4-24.7-15.8-34.2-25.3c-9.5-9.5-17.9-20.9-25.3-34.2
		c-0.1-0.2-0.7-1.1-1.7-2.8c-1-1.6-1.7-2.8-2-3.5c-0.3-0.7-0.8-1.7-1.2-3c-0.5-1.3-0.7-2.4-0.7-3.3c0-1.7,1.4-4,4.1-6.7
		c2.8-2.7,5.8-5.3,9-7.7c3.2-2.4,6.3-5.1,9-8c2.8-2.9,4.1-5.3,4.1-7.3c0-1.4-0.3-2.7-1-4.1c-0.7-1.4-1.7-3.1-3.1-5.2
		c-1.4-2-2.3-3.2-2.5-3.6c-1.5-2.4-3-5-4.5-7.8c-1.6-2.8-3.2-5.8-5.1-9.2c-1.8-3.4-3.3-6-4.4-7.9c-3.4-6.8-6-10.5-7.7-11.1
		C45.4,0.1,44.4,0,43.1,0c-2.6,0-6,0.5-10.3,1.5c-4.2,1-7.5,2-10,3.1c-4.8,2-10,7.9-15.4,17.7C2.5,31.4,0,40.4,0,49.3
		c0,2.6,0.2,5.2,0.5,7.6c0.3,2.5,0.9,5.3,1.8,8.4c0.9,3.1,1.6,5.4,2.1,6.9c0.5,1.5,1.5,4.2,3,8.1c1.5,3.9,2.3,6.3,2.6,7.1
		c3.4,9.5,7.4,18,12.1,25.5c7.7,12.4,18.1,25.2,31.3,38.5c13.2,13.2,26.1,23.7,38.5,31.3c7.5,4.7,16,8.7,25.5,12.1
		c0.9,0.3,3.2,1.2,7.1,2.6c3.9,1.5,6.6,2.4,8.1,3c1.5,0.5,3.8,1.2,6.9,2.1c3.1,0.9,5.9,1.5,8.4,1.8c2.5,0.3,5,0.5,7.6,0.5
		c8.9,0,17.9-2.5,27.1-7.4c9.8-5.4,15.7-10.6,17.7-15.4c1.1-2.4,2.1-5.7,3.1-10c1-4.2,1.5-7.6,1.5-10.3
		C204.8,160.4,204.6,159.4,204.3,158.7z"/>
</g>
</svg>
