<?xml version="1.0" encoding="utf-8"?>
<!-- Generator: Adobe Illustrator 23.0.4, SVG Export Plug-In . SVG Version: 6.00 Build 0)  -->
<svg version="1.1" id="Camada_1" xmlns="http://www.w3.org/2000/svg" xmlns:xlink="http://www.w3.org/1999/xlink" x="0px" y="0px"
	 viewBox="0 0 204.8 247.9" style="enable-background:new 0 0 204.8 247.9;" xml:space="preserve">
<style type="text/css">
	.st0{fill:#ABABAB;}
</style>
<g>
	<g>
		<path class="st0" d="M197.2,92.9h-16.9V72.3c0-39.9-35.4-72.3-78.9-72.3C57.9,0,22.6,32.4,22.6,72.3v20.6H5.7
			c-3.1,0-5.7,2.3-5.7,5.2v129.1c0,11.4,10.1,20.6,22.6,20.6h157.7c12.4,0,22.6-9.3,22.6-20.6V98.1
			C202.9,95.3,200.3,92.9,197.2,92.9z M118.3,200.8c0.2,1.5-0.3,2.9-1.4,4c-1.1,1.1-2.6,1.7-4.2,1.7H90.2c-1.6,0-3.1-0.6-4.2-1.7
			c-1.1-1.1-1.6-2.5-1.4-4l3.1-25.7c0.3-2.3-0.8-4.4-2.5-6c-3.9-3.8-6.2-8.8-6.2-14.2c0-11.4,10.1-20.6,22.6-20.6
			c12.4,0,22.6,9.3,22.6,20.6c0,5.4-2.3,10.5-6.2,14.2c-1.7,1.7-2.9,3.7-2.5,6L118.3,200.8z M146.5,92.9H56.4V72.3
			c0-22.8,20.2-41.3,45.1-41.3c24.8,0,45.1,18.5,45.1,41.3V92.9z"/>
	</g>
</g>
</svg>
