<?xml version="1.0" encoding="utf-8"?>
<!-- Generator: Adobe Illustrator 23.1.1, SVG Export Plug-In . SVG Version: 6.00 Build 0)  -->
<svg version="1.1" id="Camada_1" xmlns="http://www.w3.org/2000/svg" xmlns:xlink="http://www.w3.org/1999/xlink" x="0px" y="0px"
	 viewBox="0 0 162.1 158.8" style="enable-background:new 0 0 162.1 158.8;" xml:space="preserve">
<style type="text/css">
	.st0{fill:#3493F8;}
</style>
<g>
	<path class="st0" d="M90,158.8H72.8c-2,0-3,0-11.7-21.7l-7.4-3c-21.4,9.7-22.1,9.1-23.6,7.7l-12.2-11.9c-1.5-1.5-2.1-2.1,7.3-23.5
		l-3-7.2C0,91.2,0,90.2,0,88.1V71.3c0-2.1,0-3,22.2-11.5l3-7.2c-10-21-9.3-21.7-7.8-23.2l12.2-11.9c1.4-1.4,2.1-2.1,23.9,7.2l7.4-3
		C69,0,70,0,72.1,0h17.2c2,0,3,0,11.7,21.7l7.4,3c21.4-9.7,22.1-9.1,23.6-7.7l12.2,11.9c1.5,1.5,2.1,2.1-7.3,23.5l3,7.2
		c22.2,7.9,22.2,8.9,22.2,11v16.8c0,2.1,0,3-22.2,11.5l-3,7.2c10,21,9.3,21.7,7.8,23.2l-12.2,11.9c-1.4,1.4-2.1,2-23.9-7.2l-7.4,3
		C93,158.8,92.1,158.8,90,158.8z M74.1,153.3h14.5c1.5-2.8,5-11.5,7.8-19.3l0.4-1.1l11.8-4.8l1,0.4c7.9,3.4,16.9,6.9,20,7.9l10.2-10
		c-1-3.1-4.8-11.6-8.4-19l-0.5-1.1l4.9-11.6l1.1-0.4c8-3.1,16.9-6.7,19.8-8.3V72c-2.9-1.5-11.8-4.8-19.7-7.7l-1.1-0.4L131,52.3
		l0.5-1.1c3.4-7.7,7-16.4,8-19.5l-10.2-10c-3.1,1-11.8,4.7-19.6,8.2l-1.1,0.5l-11.7-4.7l-0.4-1.1c-3.1-7.8-6.9-16.5-8.4-19.3H73.5
		c-1.5,2.9-5,11.7-7.8,19.3l-0.4,1.1l-11.7,4.8l-1-0.4c-7.9-3.4-16.9-6.9-20-7.8l-10.2,10c1,3.1,4.8,11.6,8.4,19l0.5,1.1l-5,11.6
		l-1.1,0.4c-8,3.1-16.9,6.7-19.8,8.2v14.1c2.9,1.5,11.8,4.9,19.7,7.7l1.1,0.4l4.9,11.5l-0.5,1.1c-3.4,7.7-7,16.4-8,19.5l10.2,10
		c3.1-1,11.8-4.7,19.5-8.2l1.1-0.5l11.7,4.8l0.4,1.1C68.8,141.8,72.6,150.5,74.1,153.3z M33.4,21.4L33.4,21.4L33.4,21.4z M81,106.7
		c-15.3,0-27.8-12.2-27.8-27.3c0-15,12.5-27.3,27.8-27.3s27.8,12.2,27.8,27.3C108.9,94.4,96.4,106.7,81,106.7z M81,57.5
		c-12.3,0-22.4,9.8-22.4,21.8s10,21.9,22.4,21.9s22.4-9.8,22.4-21.9C103.4,67.3,93.4,57.5,81,57.5z"/>
</g>
</svg>
