<?xml version="1.0" encoding="utf-8"?>
<!-- Generator: Adobe Illustrator 23.1.1, SVG Export Plug-In . SVG Version: 6.00 Build 0)  -->
<svg version="1.1" id="Camada_1" xmlns="http://www.w3.org/2000/svg" xmlns:xlink="http://www.w3.org/1999/xlink" x="0px" y="0px"
	 viewBox="0 0 181.7 158.8" style="enable-background:new 0 0 181.7 158.8;" xml:space="preserve">
<style type="text/css">
	.st0{fill:#3493F8;}
</style>
<g>
	<path class="st0" d="M163.9,0.3H17.8C8,0.3,0,8.3,0,18.2v93.5c0,9.8,8,17.8,17.8,17.8h57.7l-5.8,23.7H35.6c-1.5,0-2.8,1.2-2.8,2.8
		s1.2,2.8,2.8,2.8h32.8h45.8h32c1.5,0,2.8-1.2,2.8-2.8s-1.2-2.8-2.8-2.8h-33.4l-5.8-23.7h57c9.8,0,17.8-8,17.8-17.8V18.2
		C181.7,8.3,173.7,0.3,163.9,0.3z M5.5,111.7V18.2c0-6.8,5.5-12.3,12.3-12.3h70.3V124H17.8C11.1,124,5.5,118.5,5.5,111.7z
		 M75.4,153.2l5.7-23.3h20.2l5.7,23.3H75.4z M176.2,111.7c0,6.8-5.5,12.3-12.3,12.3H93.6V5.8h70.3c6.8,0,12.3,5.5,12.3,12.3V111.7z"
		/>
	<path class="st0" d="M54.5,65.9C61.3,62.6,66,55.7,66,47.7c0-11.1-9-20.2-20.2-20.2s-20.2,9-20.2,20.2c0,8,4.7,14.9,11.4,18.2
		c-13.7,3.8-24,16.5-24,31.6h5.5c0-15,12.2-27.3,27.3-27.3s27.3,12.2,27.3,27.3h5.5C78.6,82.4,68.4,69.7,54.5,65.9z M31.2,47.7
		c0-8.1,6.6-14.6,14.6-14.6s14.6,6.6,14.6,14.6s-6.6,14.6-14.6,14.6S31.2,55.8,31.2,47.7z"/>
	<path class="st0" d="M145.4,65.9c6.8-3.3,11.4-10.2,11.4-18.2c0-11.1-9-20.2-20.2-20.2s-20.2,9-20.2,20.2c0,8,4.7,14.9,11.4,18.2
		c-13.9,3.8-24.1,16.5-24.1,31.6h5.5c0-15,12.2-27.3,27.3-27.3S164,82.5,164,97.5h5.5C169.5,82.4,159.3,69.7,145.4,65.9z
		 M122.1,47.7c0-8.1,6.6-14.6,14.6-14.6s14.6,6.6,14.6,14.6s-6.6,14.6-14.6,14.6S122.1,55.8,122.1,47.7z"/>
</g>
</svg>
