<?xml version="1.0" encoding="utf-8"?>
<!-- Generator: Adobe Illustrator 23.1.1, SVG Export Plug-In . SVG Version: 6.00 Build 0)  -->
<svg version="1.1" id="Camada_1" xmlns="http://www.w3.org/2000/svg" xmlns:xlink="http://www.w3.org/1999/xlink" x="0px" y="0px"
	 viewBox="0 0 249.5 250.8" style="enable-background:new 0 0 249.5 250.8;" xml:space="preserve">
<style type="text/css">
	.st0{fill:#3493F8;}
</style>
<g>
	<path class="st0" d="M43.7,250.8c-7.1,0-13.9-2.9-18.9-7.9L7.6,225.4C2.5,220.2-0.3,213,0,205.7s3.7-14.2,9.2-19l98.8-84.9
		c-4.3-10.4-6.1-21.3-5.4-32.6c2.1-34.4,33-65.8,67.4-68.6c7.7-0.6,15.4,0,22.8,1.7c4,0.9,7.1,3.9,8.2,7.9c1.1,3.9,0,8.2-2.9,11
		L169.5,50c-4.6,4.6-4.6,12,0,16.6L182.8,80c4.6,4.6,12,4.6,16.6,0l29-29c2.9-2.9,7-4,10.9-2.9c4,1.1,6.9,4.1,7.9,8.1
		c1.9,7.6,2.6,15.4,2,23.3c-2.5,34.6-33.9,65.7-68.6,67.9c-10.8,0.7-21.3-1-31.3-4.9l-85.6,99.2c-4.8,5.6-11.8,8.9-19.2,9.2
		C44.2,250.8,44,250.8,43.7,250.8z M176,10c-1.7,0-3.5,0.1-5.2,0.2c-29.4,2.3-56.8,30.2-58.7,59.7c-0.7,10.8,1.3,21.4,6,31.3
		l1.5,3.3L15.4,194c-3.6,3.1-5.7,7.5-5.9,12.2s1.6,9.3,4.9,12.6l17.2,17.5c3.3,3.4,7.9,5.1,12.7,5.1c4.7-0.2,9.2-2.3,12.3-5.9
		L146.7,131l3.2,1.4c9.6,4.3,19.8,6.1,30.2,5.5c29.7-1.8,57.6-29.5,59.7-59.1c0.5-6.9-0.1-13.8-1.7-20.4l0,0
		c-0.2-0.9-0.9-1.2-1.2-1.3c-0.4-0.1-1.1-0.2-1.7,0.4l-29,29c-8.3,8.3-21.8,8.3-30,0l-13.3-13.3c-8.3-8.3-8.3-21.8,0-30l28.7-28.7
		c0.6-0.6,0.6-1.4,0.4-1.7c-0.1-0.4-0.4-1-1.3-1.2C185.8,10.6,180.9,10,176,10z"/>
</g>
</svg>
