<?xml version="1.0" encoding="utf-8"?>
<!-- Generator: Adobe Illustrator 23.1.1, SVG Export Plug-In . SVG Version: 6.00 Build 0)  -->
<svg version="1.1" id="Camada_1" xmlns="http://www.w3.org/2000/svg" xmlns:xlink="http://www.w3.org/1999/xlink" x="0px" y="0px"
	 viewBox="0 0 246.3 250.8" style="enable-background:new 0 0 246.3 250.8;" xml:space="preserve">
<style type="text/css">
	.st0{fill:#3493F8;}
</style>
<g>
	<path class="st0" d="M227,250.8H19.2c-5.6,0-10.8-2.4-14.5-6.6c-3.7-4.3-5.4-10-4.6-15.6C8.7,167.8,61.5,122,123,122
		c61.8,0,114.7,46.1,123,107.3c0.7,5.3-0.9,10.8-4.5,14.9C237.9,248.4,232.6,250.8,227,250.8z M123.1,131.4
		c-56.8,0-105.7,42.4-113.6,98.5c-0.4,2.9,0.4,5.9,2.4,8.1c1.9,2.2,4.5,3.4,7.4,3.4H227c2.9,0,5.6-1.2,7.5-3.4
		c1.8-2.1,2.6-4.7,2.3-7.4l0,0C229.1,174.1,180.2,131.4,123.1,131.4z"/>
	<path class="st0" d="M123.1,111.8c-2.4,0-4.8-0.2-7.2-0.5l0,0c-24.8-3.1-45.1-23.4-48.2-48.2c-2.2-17.4,3.6-34.4,15.9-46.7
		s29.3-18.2,46.7-15.9c24.8,3.1,45.1,23.4,48.2,48.2c2.2,17.4-3.6,34.4-15.9,46.7C152,106,137.9,111.8,123.1,111.8z M117,102
		c14.5,1.8,28.7-3,39-13.2c10.2-10.2,15.1-24.4,13.2-38.9c-2.6-20.6-19.4-37.4-40-40c-14.5-1.8-28.7,3-39,13.2
		C80,33.3,75.2,47.4,77,61.9C79.6,82.5,96.4,99.4,117,102L117,102z"/>
</g>
</svg>
