<?xml version="1.0" encoding="utf-8"?>
<!-- Generator: Adobe Illustrator 23.1.1, SVG Export Plug-In . SVG Version: 6.00 Build 0)  -->
<svg version="1.1" id="Camada_1" xmlns="http://www.w3.org/2000/svg" xmlns:xlink="http://www.w3.org/1999/xlink" x="0px" y="0px"
	 viewBox="0 0 131.2 158.8" style="enable-background:new 0 0 131.2 158.8;" xml:space="preserve">
<style type="text/css">
	.st0{fill:#3493F8;}
</style>
<path class="st0" d="M114.3,158.8H17c-9.5,0-17-7-17-15.7V63.5c0-3.4,2.9-6.2,6.5-6.2h7.4v-9.7C13.9,21.3,37.1,0,65.5,0
	c28.6,0,51.8,21.3,51.8,47.5v9.7h7.4c3.6,0,6.5,2.8,6.5,6.2V143C131.2,151.7,123.6,158.8,114.3,158.8z M6.6,63.2
	c-0.5,0-0.7,0.2-0.7,0.2V143c0,5.4,4.9,9.7,10.9,9.7h97.3c6.2,0,11.1-4.4,11.1-9.7V63.5c0,0-0.2-0.2-0.5-0.2h-13.4V47.5
	C111.3,24.6,90.9,6,65.7,6C40.3,6,19.9,24.6,19.9,47.5v15.7H6.6z M72.5,133.3H58.7c-1.8,0-3.5-0.7-4.7-1.9c-1.3-1.3-1.9-3.1-1.7-4.9
	l1.9-15.9c0.1-0.4-0.5-1-0.7-1.2c-3.1-2.9-4.7-6.8-4.7-10.9c0-8.6,7.5-15.6,16.8-15.7c9.3,0,16.8,7.1,16.8,15.7
	c0,4.1-1.7,8-4.8,10.9c-0.4,0.4-0.7,0.9-0.7,1.1l1.9,15.9c0.2,1.9-0.4,3.6-1.7,4.9C75.9,132.6,74.3,133.3,72.5,133.3z M65.6,88.8
	c-6,0-10.8,4.4-10.8,9.7c0,2.5,1,4.8,2.9,6.6c1.8,1.8,2.7,4,2.5,6.2l-1.9,15.8c0.1,0.1,0.3,0.2,0.5,0.2h13.7c0.2,0,0.4-0.1,0.5-0.2
	l-1.9-15.8c-0.3-2.2,0.6-4.4,2.4-6.2c1.9-1.8,2.9-4.1,2.9-6.6C76.5,93.2,71.6,88.8,65.6,88.8z M96.3,63.2H34.9V47.5
	c0-15.6,13.8-28.4,30.7-28.4s30.7,12.8,30.7,28.4V63.2z M40.9,57.3h49.5v-9.7c0-12.4-11.1-22.5-24.7-22.5S41,35.2,41,47.6L40.9,57.3
	L40.9,57.3z"/>
</svg>
