<?xml version="1.0" encoding="utf-8"?>
<!-- Generator: Adobe Illustrator 23.1.1, SVG Export Plug-In . SVG Version: 6.00 Build 0)  -->
<svg version="1.1" id="Camada_1" xmlns="http://www.w3.org/2000/svg" xmlns:xlink="http://www.w3.org/1999/xlink" x="0px" y="0px"
	 viewBox="0 0 275.4 255.7" style="enable-background:new 0 0 275.4 255.7;" xml:space="preserve">
<style type="text/css">
	.st0{fill:#3493F8;}
</style>
<g>
	<path class="st0" d="M8.4,210.5v-167c0-0.8,0.6-1.2,1.2-1.2h63.9v-8.9H9.6C4,33.4-0.5,37.9-0.5,43.5v167c0,5.6,4.5,10.1,10.1,10.1
		h63.9v-8.9H9.6C9,211.7,8.4,211.1,8.4,210.5z"/>
	<path class="st0" d="M271.9,119.5L156.3,3.3c-3.5-3.6-8.6-4.6-13.3-2.7c-4.7,1.9-7.6,6.2-7.6,11.3v43.4H38v8.9h106.1V11.8
		c0-2.3,2-3,2.1-3.1c0.2-0.1,2-0.9,3.6,0.7l115.6,116.3c2,2.1,2,5.4,0,7.4L152.3,246.3c-1.5,1.4-3.2,0.9-3.7,0.7
		c-0.2-0.1-2.1-0.8-2.1-3v-53.9H37.2v8.9h100.4v45c0,5,2.9,9.3,7.5,11.3c1.5,0.6,3.2,0.9,4.8,0.9c3.3,0,6.3-1.2,8.7-3.5l113.3-113.2
		C277.3,134,277.3,125,271.9,119.5z"/>
</g>
</svg>
