<?xml version="1.0" encoding="utf-8"?>
<!-- Generator: Adobe Illustrator 23.0.4, SVG Export Plug-In . SVG Version: 6.00 Build 0)  -->
<svg version="1.1" id="Camada_1" xmlns="http://www.w3.org/2000/svg" xmlns:xlink="http://www.w3.org/1999/xlink" x="0px" y="0px"
	 viewBox="0 0 76 53" style="enable-background:new 0 0 76 53;" xml:space="preserve">
<style type="text/css">
	.st0{fill:#0067C1;}
</style>
<g>
	<path class="st0" d="M72,8H4C1.8,8,0,6.2,0,4v0c0-2.2,1.8-4,4-4h68c2.2,0,4,1.8,4,4v0C76,6.2,74.2,8,72,8z"/>
	<path class="st0" d="M72,30H4c-2.2,0-4-1.8-4-4v0c0-2.2,1.8-4,4-4h68c2.2,0,4,1.8,4,4v0C76,28.2,74.2,30,72,30z"/>
	<path class="st0" d="M72,53H4c-2.2,0-4-1.8-4-4v0c0-2.2,1.8-4,4-4h68c2.2,0,4,1.8,4,4v0C76,51.2,74.2,53,72,53z"/>
</g>
</svg>
