<?xml version="1.0" encoding="utf-8"?>
<!-- Generator: Adobe Illustrator 23.0.4, SVG Export Plug-In . SVG Version: 6.00 Build 0)  -->
<svg version="1.1" id="Camada_1" xmlns="http://www.w3.org/2000/svg" xmlns:xlink="http://www.w3.org/1999/xlink" x="0px" y="0px"
	 viewBox="0 0 377.8 373.1" style="enable-background:new 0 0 377.8 373.1;" xml:space="preserve">
<style type="text/css">
	.st0{opacity:0.18;fill:#3493F8;}
	.st1{fill:#56A5EF;}
	.st2{fill:#9FC5F2;}
	.st3{fill:#0078D2;}
	.st4{fill:#96C7F7;}
	.st5{fill:#F8F8F8;}
</style>
<path class="st0" d="M75.7,337L231,371.9c11.1,2.5,22.7-1.1,30.4-9.5l107.9-117c7.7-8.4,10.4-20.2,7-31L328.8,62.4
	c-3.4-10.9-12.3-19.1-23.4-21.6L150.2,6c-11.1-2.5-22.7,1.1-30.4,9.5l-107.9,117c-7.7,8.4-10.4,20.2-7,31l47.4,151.9
	C55.7,326.3,64.7,334.5,75.7,337z"/>
<path class="st1" d="M145.6,217.8L106.1,231L85,246.7l-22.4,59.1c0,0,140.5,50.5,263.8,0l-19.2-53.6L293.1,235l-22.2-10.1
	l-31.3-10.1l-11.1,15c-17.7,24-57.7,23.8-72.8-1.9L145.6,217.8z"/>
<path class="st2" d="M224.7,176.1c-9.2,8.5-19.8,17.6-30.9,17.6h0c-10.3,0-20-8.6-28.7-15.9l3.3-6.6l23.2,9.9l31.5-12.4L224.7,176.1
	z"/>
<path class="st3" d="M326.7,305.3c-1.4,0-2.8-0.9-3.3-2.3l-14.4-39.4c-6.1-16.7-20-29.7-37.1-34.7l-27.3-8
	c-13.5-3.9-22.9-16.5-22.9-30.5v-25.4c0-2,1.6-3.5,3.5-3.5c2,0,3.5,1.6,3.5,3.5v25.4c0,10.9,7.3,20.6,17.8,23.7l27.3,8
	c19.3,5.6,34.9,20.2,41.8,39.1l14.4,39.4c0.7,1.8-0.3,3.9-2.1,4.5C327.5,305.2,327.1,305.3,326.7,305.3z"/>
<path class="st3" d="M64,305.3c-0.4,0-0.8-0.1-1.2-0.2c-1.8-0.7-2.8-2.7-2.1-4.5l14.4-39.4c1.7-4.7,4-9.2,6.7-13.3
	c3.3-4.9,7.2-9.4,11.7-13.2c6.8-5.8,14.7-10.1,23.3-12.6l27.3-8c10.5-3,17.8-12.8,17.8-23.7v-22.9c0-2,1.6-3.5,3.5-3.5
	s3.5,1.6,3.5,3.5v22.9c0,14-9.4,26.5-22.9,30.5l-27.3,8c-7.7,2.2-14.7,6-20.7,11.2c-4,3.4-7.5,7.4-10.4,11.7
	c-2.4,3.7-4.5,7.7-6,11.8l-14.4,39.4C66.8,304.4,65.5,305.3,64,305.3z"/>
<path class="st3" d="M192.7,249.4c-12.8,0-25-4.8-34.4-13.7l-15.1-14.4c-1.4-1.3-1.5-3.6-0.1-5c1.3-1.4,3.6-1.5,5-0.1l15.1,14.4
	c8.3,7.9,19.2,12.1,30.7,11.8c11.5-0.3,22.1-5.1,30-13.4l13.1-13.9c1.3-1.4,3.6-1.5,5-0.1c1.4,1.3,1.5,3.6,0.1,5L229,233.8
	c-9.2,9.7-21.6,15.2-34.9,15.6C193.6,249.4,193.2,249.4,192.7,249.4z"/>
<path class="st3" d="M194.1,183.3c-15.8,0-31.5-10.8-44.2-30.3c-10.9-16.9-17.7-37.9-17.7-54.7V61.9c0-31.2,31.4-49.1,63.4-51.6
	l-2.9-3c-1.2-1.2-1.5-3.1-0.8-4.7c0.7-1.6,2.3-2.6,4-2.5c16.1,0.5,31.2,7.1,42.5,18.8c11.3,11.6,17.6,27,17.6,43.1v36.4
	c0,16.8-6.8,37.8-17.7,54.7C225.6,172.6,210,183.3,194.1,183.3z M203.6,17c-31.2,0-64.3,15.7-64.3,44.9v36.4c0,30.1,25.1,78,54.8,78
	s54.8-47.9,54.8-78V61.9c0-26.8-20-49.7-45.8-54.1l8.8,9.2H203.6z"/>
<path class="st4" d="M164.8,127.8c0,16.2,13.1,29.3,29.3,29.3s29.3-13.1,29.3-29.3"/>
<circle class="st5" cx="297.9" cy="245.7" r="37.1"/>
<path class="st3" d="M298.8,288.1c-1.8,0-3.7-0.1-5.6-0.4c-11-1.5-20.8-7.2-27.5-16c-6.7-8.8-9.6-19.7-8.1-30.7
	c1.5-11,7.2-20.8,16-27.5c8.8-6.7,19.7-9.6,30.7-8.1c6.5,0.9,12.8,3.3,18.1,7c1.6,1.1,2,3.3,0.9,4.9c-1.1,1.6-3.3,2-4.9,0.9
	c-4.5-3.1-9.6-5.1-15-5.8c-9.1-1.2-18.2,1.2-25.5,6.8c-7.3,5.6-12,13.7-13.3,22.8c-1.2,9.1,1.2,18.2,6.8,25.5
	c5.6,7.3,13.7,12,22.8,13.3c18.8,2.5,36.2-10.7,38.7-29.6c0.3-2.2,0.4-4.3,0.3-6.5c-0.1-2,1.4-3.6,3.3-3.7c1.9-0.1,3.6,1.4,3.7,3.3
	c0.1,2.6,0,5.2-0.3,7.8C337.1,272.9,319.3,288.1,298.8,288.1z"/>
<path class="st1" d="M299.8,271.8C299.8,271.8,299.8,271.8,299.8,271.8c-1.9,0-3.6-0.9-4.7-2.3l-21.8-29c-1.8-2.5-1.3-5.9,1.1-7.8
	c2.5-1.8,5.9-1.3,7.8,1.1l17.6,23.5l41.6-53.9c1.9-2.4,5.4-2.9,7.8-1c2.4,1.9,2.9,5.4,1,7.8l-45.9,59.4
	C303.3,270.9,301.6,271.8,299.8,271.8z M304,262.8L304,262.8C304,262.8,304,262.8,304,262.8z"/>
<path class="st4" d="M100.8,187.1c-2.8,0-5-2.2-5-5v-7.7h-7.7c-2.8,0-5-2.2-5-5s2.2-5,5-5h7.7v-10.1c0-2.8,2.2-5,5-5s5,2.2,5,5v10.1
	h7.7c2.8,0,5,2.2,5,5s-2.2,5-5,5h-7.7v7.7C105.8,184.8,103.5,187.1,100.8,187.1z M88.1,167.4c-1.1,0-2,0.9-2,2s0.9,2,2,2h10.8v10.8
	c0,1.1,0.9,2,2,2c1.1,0,2-0.9,2-2v-10.8h10.8c1.1,0,2-0.9,2-2s-0.9-2-2-2h-10.8v-13.1c0-1.1-0.9-2-2-2c-1.1,0-2,0.9-2,2v13.1H88.1z"
	/>
<g>
	<path class="st4" d="M313.9,22.2c-18.7,0-33.8,15.2-33.8,33.9c0,4.9,1,9.5,3,13.8c8.5,18.5,24.7,38.1,29.5,43.6
		c0.4,0.4,0.9,0.7,1.4,0.7s1.1-0.2,1.4-0.7c4.8-5.5,21-25.1,29.5-43.6c2-4.3,3-8.9,3-13.8C347.7,37.4,332.5,22.2,313.9,22.2z
		 M313.5,69.1c-8.4,0-15.3-6.9-15.3-15.3c0-8.5,6.9-15.3,15.3-15.3s15.3,6.9,15.3,15.3C328.8,62.2,322,69.1,313.5,69.1z"/>
</g>
<g>
	<path class="st4" d="M4.8,94.3l21.7,17.2c1,0.8,2.3,1.1,3.7,1.1c1.3,0.1,2.7-0.3,3.7-1.1l21.7-17.2c1.7-1.4,1.3-2.5-0.9-2.5H30.1
		H5.6C3.4,91.8,3,92.9,4.8,94.3z"/>
	<path class="st4" d="M57,98.8l-23.7,18c-0.9,0.7-2,1-3.2,1c-1.2,0-2.3-0.3-3.2-1l-23.7-18C1.4,97.5,0,98.2,0,100.4v29.5
		c0,2.2,1.8,4,4,4h26.1h26.1c2.2,0,4-1.8,4-4v-29.5C60.2,98.2,58.8,97.5,57,98.8z"/>
</g>
<path class="st4" d="M98,103.7H68.9c-0.7,0-1.3-0.6-1.3-1.3c0-0.7,0.6-1.3,1.3-1.3H98c0.7,0,1.3,0.6,1.3,1.3
	C99.2,103.2,98.7,103.7,98,103.7z"/>
<path class="st4" d="M82.4,113.4H68.9c-0.7,0-1.3-0.6-1.3-1.3c0-0.7,0.6-1.3,1.3-1.3h13.6c0.7,0,1.3,0.6,1.3,1.3
	C83.7,112.9,83.1,113.4,82.4,113.4z"/>
<path class="st4" d="M94.1,123.1H68.9c-0.7,0-1.3-0.6-1.3-1.3s0.6-1.3,1.3-1.3h25.2c0.7,0,1.3,0.6,1.3,1.3S94.8,123.1,94.1,123.1z"
	/>
<path class="st4" d="M107.6,103.7h-5.8c-0.7,0-1.3-0.6-1.3-1.3c0-0.7,0.6-1.3,1.3-1.3h5.8c0.7,0,1.3,0.6,1.3,1.3
	C108.9,103.2,108.3,103.7,107.6,103.7z"/>
</svg>
