<?xml version="1.0" encoding="utf-8"?>
<!-- Generator: Adobe Illustrator 23.0.4, SVG Export Plug-In . SVG Version: 6.00 Build 0)  -->
<svg version="1.1" id="Camada_1" xmlns="http://www.w3.org/2000/svg" xmlns:xlink="http://www.w3.org/1999/xlink" x="0px" y="0px"
	 viewBox="0 0 408.9 373.1" style="enable-background:new 0 0 408.9 373.1;" xml:space="preserve">
<style type="text/css">
	.st0{opacity:0.18;fill:#3493F8;}
	.st1{fill:#96C7F7;}
	.st2{fill:#56A5EF;}
	.st3{fill:#0078D2;}
	.st4{fill:#F8F8F8;}
</style>
<g>
	<path class="st0" d="M119.1,10.3L8.4,130.3c-7.7,8.4-10.4,20.2-7,31l48.6,155.9c3.4,10.9,12.3,19.1,23.4,21.6l159.3,35.8
		c11.1,2.5,22.7-1.1,30.4-9.5l110.7-120c7.7-8.4,10.4-20.2,7-31L332.2,58.2c-3.4-10.9-12.3-19.1-23.4-21.6L149.5,0.8
		C138.4-1.7,126.8,1.9,119.1,10.3z"/>
	<g>
		<path class="st1" d="M116.3,63.1l-2.3-5.4c0,0,5.3-11.9,4.8-12.4l-7-6.8c-0.5-0.5-12.4,5-12.4,5l-5.5-2.2c0,0-4.9-12.1-5.5-12.1
			h-9.9c-0.7,0-5.2,12.1-5.2,12.1l-5.5,2.2c0,0-12.2-5.2-12.6-4.7l-7,6.8c-0.5,0.5,5.1,12.1,5.1,12.1l-2.3,5.4
			c0,0-12.3,4.7-12.3,5.4v9.7c0,0.7,12.4,5.1,12.4,5.1l2.3,5.4c0,0-5.3,11.9-4.8,12.3l7,6.8c0.5,0.5,12.4-5,12.4-5l5.5,2.2
			c0,0,4.9,12.1,5.5,12.1h9.9c0.7,0,5.2-12.1,5.2-12.1l5.5-2.2c0,0,12.1,5.2,12.6,4.7l7-6.8c0.5-0.5-5.1-12.1-5.1-12.1l2.3-5.4
			c0,0,12.3-4.8,12.3-5.4v-9.6C128.6,67.4,116.3,63.1,116.3,63.1z M98.1,73.1c0,7.8-6.5,14.1-14.4,14.1c-7.9,0-14.4-6.3-14.4-14.1
			c0-7.8,6.5-14.1,14.4-14.1C91.6,59.1,98.1,65.4,98.1,73.1z"/>
	</g>
	<path class="st1" d="M294.4,144.3L294.4,144.3h-0.1h-0.1h-0.1h-0.1h-17.3v-21.4c0-41.3-36.7-74.9-81.8-74.9c0,0,0,0,0,0s0,0,0,0
		c0,0,0,0,0,0c0,0,0,0,0,0c0,0,0,0,0,0c0,0,0,0,0,0s0,0,0,0s0,0,0,0c0,0,0,0,0,0c0,0,0,0,0,0c-45.1,0-81.8,33.6-81.8,74.9v21.4H95.8
		h-0.1h-0.1h-0.1h-0.1h-0.1c-3.2,0-5.9,2.4-5.9,5.4v133.9c0,11.8,10.5,21.4,23.4,21.4h0.1h0.1h0.1h0.1h0.1h163.3h0.1h0.1h0.1h0.1
		h0.1c12.9,0,23.4-9.6,23.4-21.4V149.7C300.3,146.7,297.7,144.3,294.4,144.3z M183.5,262.1c-1.7,0-3.2-0.6-4.4-1.8
		c-1.1-1.1-1.6-2.6-1.5-4.1l3.2-26.6c0.3-2.4-0.9-4.5-2.6-6.2c-4.1-3.9-6.5-9.1-6.5-14.7c0-11.8,10.4-21.3,23.3-21.4
		c12.8,0.1,23.3,9.7,23.3,21.4c0,5.6-2.4,10.9-6.5,14.7c-1.8,1.7-3,3.9-2.6,6.2l3.2,26.6c0.2,1.5-0.3,3-1.5,4.1
		c-1.1,1.1-2.7,1.8-4.4,1.8H183.5z M148.4,144.3v-21.4c0-23.6,20.9-42.8,46.6-42.8c25.7,0.1,46.6,19.2,46.6,42.8v21.4H148.4z"/>
	<path class="st2" d="M91.5,291.5l64.6-0.4c91.2-3.7,123.4-63.2,123.4-133.7v-13.1h18.9l1.3,140.9l-10.8,18.7L104.5,307l-12-11.5
		L91.5,291.5z"/>
	<path class="st3" d="M276.9,308.5h-0.2c-2,0-3.6-1.6-3.6-3.6c0-2,1.6-3.6,3.6-3.6h0.3c10.9,0,19.8-8,19.8-17.8V149.7
		c0-1-1-1.8-2.2-1.8h-21.1v-25c0-39.3-35-71.3-78.1-71.3l-0.4,0l0,0c-43.1,0-78.1,32-78.1,71.3v21.4c0,2-1.6,3.6-3.6,3.6
		c-2,0-3.6-1.6-3.6-3.6v-21.4c0-43.3,38.3-78.6,85.4-78.6h0.3c47.1,0,85.3,35.3,85.3,78.6v17.8h13.9c5.3,0,9.5,4,9.5,9v133.9
		C303.9,297.3,291.8,308.5,276.9,308.5z M246.8,308.5H113.2c-14.9,0-27.1-11.2-27.1-25V149.7c0-2,1.6-3.6,3.6-3.6s3.6,1.6,3.6,3.6
		v133.9c0,9.8,8.9,17.8,19.8,17.8h133.7c2,0,3.6,1.6,3.6,3.6C250.4,306.9,248.8,308.5,246.8,308.5z M206.6,265.7h-23.1
		c-2.6,0-5.1-1-6.9-2.8c-1.9-1.9-2.8-4.4-2.5-7.1l3.2-26.7c0.1-1.3-0.8-2.4-1.6-3.2c-4.9-4.7-7.5-10.8-7.5-17.3
		c0-13.7,12-24.9,26.8-25c14.8,0.1,26.9,11.3,26.9,25c0,6.6-2.7,12.7-7.6,17.4c-0.8,0.8-1.7,1.9-1.5,3.1l3.2,26.7
		c0.3,2.7-0.6,5.3-2.5,7.1C211.7,264.7,209.2,265.7,206.6,265.7z M195,190.8c-10.8,0.1-19.6,8-19.6,17.8c0,4.5,1.9,8.8,5.3,12.1
		c2.8,2.7,4.1,6,3.7,9.3l-3.2,26.6c0,0.3,0,0.7,0.4,1.2c0.5,0.5,1.1,0.7,1.8,0.7h23.1c0.7,0,1.3-0.3,1.8-0.7
		c0.3-0.3,0.5-0.7,0.4-1.2l-3.2-26.6c-0.4-3.2,0.9-6.5,3.7-9.3c3.5-3.3,5.4-7.6,5.4-12.1C214.7,198.8,205.9,190.9,195,190.8z
		 M245.2,147.9H144.8v-25c0-25.5,22.5-46.4,50.2-46.5c27.7,0.1,50.2,20.9,50.2,46.5V147.9z M152,140.7H238v-17.8
		c0-21.6-19.3-39.2-43-39.2c-23.7,0.1-43,17.7-43,39.2V140.7z"/>
	<g>
		<path class="st1" d="M73.6,120.2l-2.1-2c0,0-0.1-6.4-0.4-6.6l-4.5-1.6c-0.3-0.1-4.6,4.8-4.6,4.8l-2.9,0.1c0,0-4.7-4.4-5-4.3
			l-4.4,2c-0.3,0.1,0.2,6.5,0.2,6.5l-2,2.1c0,0-6.5,0.2-6.7,0.5l-1.7,4.5c-0.1,0.3,4.8,4.4,4.8,4.4l0.1,2.9c0,0-4.6,4.7-4.4,5l2,4.3
			c0.1,0.3,6.6-0.3,6.6-0.3l2.1,2c0,0,0.1,6.4,0.4,6.5l4.5,1.6c0.3,0.1,4.6-4.8,4.6-4.8l2.9-0.1c0,0,4.7,4.4,5,4.3l4.4-2
			c0.3-0.1-0.2-6.5-0.2-6.5l2-2.1c0,0,6.5-0.2,6.6-0.5l1.7-4.5c0.1-0.3-4.8-4.4-4.8-4.4l-0.1-2.9c0,0,4.6-4.7,4.4-5l-2-4.3
			C80.1,119.6,73.6,120.2,73.6,120.2z M67.5,128.5c1.6,3.5,0,7.7-3.6,9.3c-3.6,1.6-7.8,0.1-9.4-3.4c-1.6-3.5,0-7.7,3.6-9.3
			C61.7,123.5,65.9,125,67.5,128.5z"/>
	</g>
	<path class="st4" d="M395.3,191c-11.5-14.7-36-13.1-36-13.1l-13.9,4.1l-13.9,12.3l-3.3,11.5l-64.7-0.8l-17.2,15.6l13.9,13.9h9.8
		l8.2-8.2l8.2,8.2l4.1-4.1l4.9,3.3l6.5-6.5l8.2,8.2l15.6-4.1l3.3,9.8l13.1,14.7l20.5,4.1l18-1.6l16.4-11.5l7.4-17.2l0.8-20.5
		L395.3,191z M383,228.5c-4.3,0-7.7-4.2-7.7-9.3c0-5.1,3.5-9.3,7.7-9.3s7.7,4.2,7.7,9.3C390.7,224.4,387.3,228.5,383,228.5z"/>
	<path class="st3" d="M277.7,148h-36.1c-2,0-3.6-1.6-3.6-3.6c0-2,1.6-3.6,3.6-3.6h36.1c2,0,3.6,1.6,3.6,3.6
		C281.4,146.4,279.7,148,277.7,148z"/>
	<path class="st3" d="M263.3,134.6h-21.7c-2,0-3.6-1.6-3.6-3.6c0-2,1.6-3.6,3.6-3.6h21.7c2,0,3.6,1.6,3.6,3.6
		C266.9,133,265.3,134.6,263.3,134.6z"/>
	<g>
		<g>
			<g>
				<path class="st3" d="M391,209.9c-4.8-4.8-12.5-4.8-17.2,0c-4.8,4.8-4.8,12.5,0,17.2c4.8,4.8,12.5,4.8,17.2,0
					C395.8,222.4,395.8,214.7,391,209.9z M378.4,222.6c-2.2-2.2-2.2-5.8,0-8c2.2-2.2,5.8-2.2,8,0c2.2,2.2,2.2,5.8,0,8
					C384.2,224.8,380.6,224.8,378.4,222.6z"/>
			</g>
		</g>
		<path class="st1" d="M254.5,213.1h73.3c0,0,1,45.4,54.6,41.4c0,0-36.5,19-57.2-20.2h-16.5l-8.3-7.2l-6.2,5.2l-5.2-3.1l-5.2,4.1
			l-7.2-7.2l-8.3,7.2l-9.3,1l-12.4-14.4L254.5,213.1z"/>
		<g>
			<g>
				<path class="st3" d="M394.7,187c-17.4-17.4-45.7-17.4-63.1,0c-3.9,3.9-6.9,8.3-9.2,13.2l-60.4,0c-0.9,0-1.7,0.3-2.3,1
					l-16.5,16.5c-1.3,1.3-1.3,3.3,0,4.6l13.6,13.6c0.6,0.6,1.4,1,2.3,1l9.2,0c0.9,0,1.7-0.3,2.3-1l5.6-5.6l5.6,5.6
					c1.3,1.3,3.3,1.3,4.6,0l2.3-2.3l2.3,2.3c1.3,1.3,3.3,1.3,4.6,0l5-5l5,5c0.6,0.6,1.4,1,2.3,1h14.6c2.2,4.9,5.3,9.4,9.2,13.3
					c17.4,17.4,45.7,17.4,63.1,0C412.2,232.7,412.2,204.4,394.7,187z M336.2,245.5c-3.8-3.8-6.6-8.2-8.6-13.1
					c-0.5-1.3-1.7-2.1-3-2.1c0,0,0,0,0,0h-15.5l-6.3-6.3c-1.3-1.3-3.3-1.3-4.6,0l-5,5l-2.3-2.3c-1.3-1.3-3.3-1.3-4.6,0l-2.3,2.3
					l-5.6-5.6c-1.3-1.3-3.3-1.3-4.6,0l-7,7l-6.5,0L250.1,220l3.3-3.3l56.2,0c1.6,0,2.9-1.3,2.9-2.9c0-1.6-1.3-2.9-2.9-2.9l-50.4,0
					l4.2-4.2l61.2,0c0,0,0,0,0,0c1.3,0,2.5-0.8,3-2.1c1.9-4.9,4.8-9.3,8.6-13.1c14.9-14.9,39.1-14.9,53.9,0
					c14.9,14.9,14.9,39.1,0,53.9C375.3,260.4,351.1,260.4,336.2,245.5z"/>
			</g>
		</g>
	</g>
</g>
</svg>
