<?xml version="1.0" encoding="utf-8"?>
<!-- Generator: Adobe Illustrator 23.0.4, SVG Export Plug-In . SVG Version: 6.00 Build 0)  -->
<svg version="1.1" id="Camada_1" xmlns="http://www.w3.org/2000/svg" xmlns:xlink="http://www.w3.org/1999/xlink" x="0px" y="0px"
	 viewBox="0 0 658.5 747" style="enable-background:new 0 0 658.5 747;" xml:space="preserve">
<style type="text/css">
	.st0{opacity:0.18;fill:#3493F8;enable-background:new    ;}
	.st1{fill:#F1F1F1;}
	.st2{fill:#3691F6;}
	.st3{fill:#56A5EF;}
	.st4{fill:#E9D1AB;}
	.st5{fill:#92C5F5;}
	.st6{fill:#383838;}
	.st7{font-family:'Raleway-Bold';}
	.st8{font-size:62.7477px;}
</style>
<path class="st0" d="M15.8,329.3l71.4,289.5c2.7,11.1,11.2,19.9,22.2,23l290.2,82.3c10.8,3.1,22.5,0.2,30.6-7.5l218.7-207.8
	c8.3-7.9,11.7-19.6,9-30.7l-71.4-289.5c-2.7-11.1-11.2-19.9-22.2-23L274.1,83.3c-10.8-3.1-22.5-0.2-30.6,7.5L24.8,298.6
	C16.5,306.5,13.1,318.2,15.8,329.3z"/>
<path class="st1" d="M492.7,324.2L472,214.1l-13.8-5.2l-15.8,8l6.3,3.2l10.3,55l-29.2,10.3l-6.9,18.9l-3.4,36.1
	c0,0,13.8,17.2,22.4,8.6c0,0-5.2,32.7,24.1,32.7l3.4,68.8L374.8,301c0,0,27.5-27.5,29.2-67.1l2-5.4l17.6-7.3l15.7-13.9v-20.6
	l-19.9-14.4l-11.1-2.8l6-21.5c-53.3,5.2-147.9-70.5-147.9-70.5c-43.9,76.5-73.5,72-73.5,72l-1.6,19.3l-15.2,5.9L158.3,194l12.6,29.4
	l25.9,4.5l8.8,32.9l29,41l27.5,20.6l1.7,68.8l-28.5,4.8l19.9,38.2l44.7,13.8l31-5.2c0,0,20.6-12,26-14.3s14.7-18.3,14.7-18.3
	l6.1,1.7l16-4.7l90.2,140.5l22.4,8.6l17.2-5.2c0,0,10.3-20.6,10.3-22.4C533.9,527.2,492.7,324.2,492.7,324.2z"/>
<rect x="190.8" y="510.8" class="st1" width="48.2" height="130.7"/>
<path class="st2" d="M235.4,396.2c0,0-56.1,24.5-47.8,107.2l14.1,6.8l35.1-0.8l-1.2,123.4l97.2,4.5L395,635l17-19.2l2.8-53.1
	l-1.7-43.5v-80.8l-19.3-31H377c0,0-26.6,29.4-47.7,35.1c-9.6,2.6-50.2,3.3-50.2,3.3l-29.4-20.3L235.4,396.2z"/>
<g>
	<path class="st3" d="M413.8,170.1l17.9,2.2v-52.2L416.5,67l-36.7-40.7l-39-19.8L298.2,1L238,14.4l-37.9,30l-26,42.4l-5.7,52
		l4.6,29.6l18-5.8l10.1-14.6l32.7-20.6l29.8-58.8l5.4,8.1c44.3,49.4,139.7,80.9,139.7,80.9"/>
</g>
<path class="st4" d="M405.9,433.8"/>
<path class="st4" d="M361.2,382"/>
<path class="st3" d="M170.9,223.4l24.3,4.9c0,0,19.8,83.2,67.8,94.6v69.6c0,0-45.7,3.9-54.9,29.4l-63.3-19l-14.1-42.5
	C130.6,360.3,181.2,286.4,170.9,223.4z"/>
<path class="st5" d="M263,323.6c0,0,37.3,16,63.9,8l2.7,16c0,0-31.5,16.6-66.3,12.3L263,323.6z"/>
<g>
	<path class="st6" d="M404.4,247.8c-0.5,0-1.1-0.1-1.6-0.3c-2.7-0.9-4.2-3.8-3.3-6.5c4-12.2,6-23.7,6-33.1v-54.6
		c0-2.9,2.3-5.2,5.2-5.2c2.9,0,5.2,2.3,5.2,5.2v54.6c0,10.5-2.3,23-6.5,36.3C408.6,246.4,406.6,247.8,404.4,247.8z"/>
	<path class="st6" d="M312.8,337.3h-10.2c-29,0-57.5-15.8-80.4-44.5c-20.3-25.4-32.9-58-32.9-85v-53.3c0-2.9,2.3-5.2,5.2-5.2
		s5.2,2.3,5.2,5.2v53.3c0,24.8,11.7,54.9,30.6,78.5c20.9,26.1,46.6,40.5,72.3,40.5h10.2c2.9,0,5.2,2.3,5.2,5.2
		C318,335,315.6,337.3,312.8,337.3z"/>
	<path class="st6" d="M409.8,233.5c-1.5,0-3-0.1-4.6-0.2l1.1-10.3c15.4,1.7,29.6-7.8,31.5-21.1c0.9-5.7-0.7-11.5-4.4-16.3
		c-4.5-5.8-11.6-9.6-19.6-10.4l1.1-10.3c10.8,1.2,20.5,6.4,26.7,14.4c5.4,7,7.7,15.6,6.5,24.2C445.6,220.7,428.8,233.5,409.8,233.5z
		"/>
	<path class="st6" d="M195.3,232.7c-19,0-35.7-12.8-38.3-30.1c-1.3-8.5,1-17.1,6.4-24.2c6.2-8,15.9-13.3,26.7-14.4l1.1,10.3
		c-8,0.9-15.1,4.7-19.6,10.5c-3.7,4.8-5.2,10.6-4.4,16.3c2,13.3,16.1,22.8,31.6,21.1l1.1,10.3C198.4,232.6,196.8,232.7,195.3,232.7z
		"/>
	<path class="st6" d="M431.3,180.6c-2.9,0-5.2-2.3-5.2-5.2v-44.7c0-66.3-55-120.3-122.6-120.3h-3.3c-67.6,0-122.6,54-122.6,120.3
		v42.6c0,2.9-2.3,5.2-5.2,5.2s-5.2-2.3-5.2-5.2v-42.6C167.2,58.6,226.9,0,300.2,0h3.3c73.3,0,133,58.6,133,130.7v44.7
		C436.5,178.3,434.2,180.6,431.3,180.6z"/>
	<path class="st6" d="M266.7,77.1c-2.5,0-4.8-1.9-5.1-4.5l-8.2-58.3c-0.4-2.8,1.6-5.5,4.4-5.9c2.8-0.4,5.5,1.6,5.9,4.4l8.2,58.3
		c0.4,2.8-1.6,5.5-4.4,5.9C267.2,77.1,266.9,77.1,266.7,77.1z"/>
	<path class="st6" d="M262.6,408.1c-2.9,0-5.2-2.3-5.2-5.2V323c0-2.9,2.3-5.2,5.2-5.2c2.9,0,5.2,2.3,5.2,5.2v79.9
		C267.8,405.7,265.4,408.1,262.6,408.1z"/>
	<path class="st6" d="M215.3,425.4c-45.8-5.9-74.1-19.3-84.2-39.9c-7.5-15.2-5-33.4,7.2-54.2c19.8-33.7,29.9-71.6,29.3-109.4
		l10.4-0.2c0.7,39.7-10,79.4-30.7,114.8c-10.3,17.6-12.6,32.5-6.8,44.4c8.5,17.3,34.1,28.8,76.2,34.2L215.3,425.4z"/>
	<path class="st6" d="M350.4,216.4H350c-4.4,0-8-3.6-8-8v-8.6c0-4.4,3.6-8,8-8h0.4c4.4,0,8,3.6,8,8v8.6
		C358.5,212.8,354.9,216.4,350.4,216.4z"/>
	<path class="st6" d="M255.1,216.4h-0.4c-4.4,0-8-3.6-8-8v-8.6c0-4.4,3.6-8,8-8h0.4c4.4,0,8,3.6,8,8v8.6
		C263.2,212.8,259.6,216.4,255.1,216.4z"/>
	<path class="st6" d="M413.2,157.8c-0.4,0-0.7,0-1.1-0.1c-93.9-20-131.2-58.4-144.6-78.3c-9.6,33.3-27.4,52.3-41.5,62.7
		c-17.3,12.8-32.7,15.5-33.3,15.6c-2.8,0.5-5.5-1.4-6-4.2s1.4-5.5,4.2-6c0.2,0,14-2.6,29.4-14.1c20.6-15.4,34.1-38.7,40.2-69.2
		l3.7-18.5l6.3,17.8c0,0.1,5.5,14.6,25.8,32.1c18.8,16.2,54.6,38.5,118,52c2.8,0.6,4.6,3.4,4,6.2
		C417.8,156.1,415.6,157.8,413.2,157.8z"/>
	<path class="st6" d="M361,173.9h-21.5c-2.9,0-5.2-2.3-5.2-5.2s2.3-5.2,5.2-5.2H361c2.9,0,5.2,2.3,5.2,5.2
		C366.2,171.5,363.8,173.9,361,173.9z"/>
	<path class="st6" d="M265.7,173.9h-21.5c-2.9,0-5.2-2.3-5.2-5.2s2.3-5.2,5.2-5.2h21.5c2.9,0,5.2,2.3,5.2,5.2
		C270.8,171.5,268.5,173.9,265.7,173.9z"/>
	<path class="st6" d="M306.3,273.9c-11.3,0-21.4-4.6-25.7-11.6c-1.5-2.5-0.7-5.7,1.7-7.1c2.5-1.5,5.7-0.7,7.1,1.7
		c1.9,3.2,8,6.6,16.8,6.6c8.5,0,14.5-3.3,16.6-6.3c1.6-2.4,4.8-3,7.2-1.4c2.4,1.6,3,4.9,1.4,7.2C327,269.7,317.3,273.9,306.3,273.9z
		"/>
	<path class="st6" d="M380.2,643.3h-138c-2.9,0-5.2-2.3-5.2-5.2s2.3-5.2,5.2-5.2h138.1c16.5,0,29.8-13.4,29.8-29.8v-90.4
		c0-2.9,2.3-5.2,5.2-5.2c2.9,0,5.2,2.3,5.2,5.2V603C420.5,625.2,402.4,643.3,380.2,643.3z"/>
	<path class="st6" d="M191.9,608.2c-2.9,0-5.2-2.3-5.2-5.2V475.4c0-42.9,30.6-79.9,72.9-87.9c2.8-0.5,5.5,1.3,6.1,4.1
		c0.5,2.8-1.3,5.5-4.1,6.1c-37.3,7.1-64.4,39.8-64.4,77.7V603C197.1,605.9,194.7,608.2,191.9,608.2z"/>
	<path class="st6" d="M306.5,453.2c-39.4,0-71.4-23.7-71.4-52.9c0-2.9,2.3-5.2,5.2-5.2s5.2,2.3,5.2,5.2c0,23.4,27.4,42.5,61,42.5
		c21.4,0,41-7.7,52.2-20.6c1.9-2.2,5.2-2.4,7.3-0.5c2.2,1.9,2.4,5.2,0.5,7.3C353.3,444.1,330.9,453.2,306.5,453.2z"/>
	<path class="st6" d="M460.5,280.8c-2.4,0-4.6-1.7-5.1-4.2L445,221.9c-0.9-4.7,0.7-9.5,4.3-13.1c4.2-4.2,10.6-6.1,16.5-4.9
		c6.4,1.3,11.2,5.8,12.3,11.7l10.5,57c0.5,2.8-1.3,5.5-4.2,6.1c-2.8,0.5-5.5-1.3-6.1-4.2l-10.5-57c-0.3-1.6-1.9-3-4.1-3.4
		c-2.6-0.5-5.4,0.3-7.2,2.1c-0.7,0.7-1.8,2-1.4,3.8l10.4,54.6c0.5,2.8-1.3,5.5-4.1,6.1C461.1,280.7,460.8,280.8,460.5,280.8z"/>
	<path class="st6" d="M433.3,354.5c-4.9,0-9.5-1.9-13-5.4c-4-4.1-5.9-9.7-5.1-15.4l3.3-23.8c1.2-8.2,7.4-14.8,15.6-16.4l32.8-6.2
		c2.8-0.5,5.5,1.3,6.1,4.1c0.5,2.8-1.3,5.5-4.1,6.1l-32.8,6.2c-3.8,0.7-6.7,3.8-7.2,7.6l-3.3,23.8c-0.3,2.4,0.5,4.9,2.2,6.6
		c1.7,1.8,4.1,2.6,6.6,2.3c3.3-0.4,6-2.9,6.7-6.2l2.5-11.8c0.6-2.8,3.3-4.6,6.2-4c2.8,0.6,4.6,3.3,4,6.2l-2.5,11.8
		c-1.6,7.6-7.9,13.4-15.6,14.4C434.8,354.5,434,354.5,433.3,354.5z"/>
	<path class="st6" d="M507.4,561.9c-16.7,0-31-12.9-32.5-29.8l-12.5-145.8c-8.6-0.9-15.1-4.4-19.4-10.2c-9.7-13.3-3.4-33.9-3.2-34.8
		c0.9-2.7,3.8-4.3,6.5-3.4s4.3,3.8,3.4,6.5c-1.4,4.6-3.9,18.1,1.6,25.6c3,4.1,8.2,6.2,15.8,6.2h4.8l13.2,155
		c1,12.1,11.8,21.2,23.9,20.3c6.3-0.5,12.2-3.7,16-8.8c3.8-5.1,5.3-11.6,4-17.8l-47.7-234.8l-2.1-11.2l-35.9,6.8
		c-6.2,1.2-10.9,5.8-11.8,11.5l-0.4,2.5c-0.4,2.8-3.1,4.8-5.9,4.3c-2.8-0.4-4.8-3.1-4.3-5.9l0.4-2.5c1.6-10,9.7-18.1,20.1-20.1
		l46.1-8.8l4.1,21.4l47.7,234.7c1.9,9.2-0.3,18.7-5.9,26.1c-5.6,7.5-14.2,12.1-23.5,12.9C509.1,561.9,508.2,561.9,507.4,561.9z"/>
	<path class="st6" d="M355.9,316.3c-1.9,0-3.7-1-4.6-2.8l-25.7-49.3c-2.2-4.2-2.1-9.3,0.3-13.8c2.8-5.2,8.4-8.9,14.4-9.5
		c6.5-0.7,12.5,2.3,15.2,7.6L382,300c1.3,2.6,0.3,5.7-2.2,7s-5.7,0.3-7-2.2l-26.5-51.5c-0.8-1.5-2.7-2.3-4.9-2.1
		c-2.6,0.3-5.1,1.9-6.3,4.1c-0.5,0.8-1.1,2.5-0.3,4l25.7,49.3c1.3,2.5,0.3,5.7-2.2,7C357.6,316.1,356.7,316.3,355.9,316.3z"/>
	<path class="st6" d="M347.5,395.3c-3,0-6-0.7-8.7-2.2c-5-2.7-8.4-7.6-9.3-13.2l-3.7-23.7c-1.3-8.2,2.8-16.3,10.2-20.2l29.6-15.5
		c2.5-1.3,5.7-0.3,7,2.2s0.3,5.7-2.2,7l-29.6,15.5c-3.4,1.8-5.3,5.6-4.7,9.4l3.7,23.7c0.4,2.4,1.8,4.5,4,5.7s4.7,1.3,7,0.3
		c3.1-1.4,4.9-4.5,4.6-7.9l-1-12c-0.2-2.9,1.9-5.4,4.7-5.6c2.8-0.3,5.4,1.9,5.6,4.7l1,12c0.7,7.8-3.7,15.1-10.8,18.3
		C352.5,394.7,350,395.3,347.5,395.3z"/>
	<path class="st6" d="M471.6,461.1c-1.7,0-3.4-0.9-4.4-2.5L380.3,319l-5.4-10.3l-32.4,16.9c-5.6,2.9-8.8,8.7-8,14.4l0.3,2.5
		c0.4,2.8-1.6,5.5-4.4,5.9c-2.9,0.4-5.5-1.6-5.9-4.4l-0.3-2.5c-1.4-10.1,4-20.2,13.5-25.1l41.6-21.7l10,19.1L476,453.2
		c1.5,2.4,0.8,5.6-1.7,7.2C473.5,460.9,472.6,461.1,471.6,461.1z"/>
	<path class="st6" d="M404.6,436.3c-1.8,0-3.6-1-4.5-2.7l-9.6-17.3c-8.7,1.8-16.1,0.4-22.1-4.1c-13.2-9.9-13.1-31.5-13.1-32.4
		c0-2.9,2.4-5.2,5.2-5.1c2.9,0,5.2,2.4,5.1,5.2c0,4.8,1.5,18.4,9,24c4.1,3.1,9.6,3.5,16.9,1.4l4-1.2l13.6,24.4
		c1.4,2.5,0.5,5.7-2,7.1C406.3,436.1,405.4,436.3,404.6,436.3z"/>
	<path class="st6" d="M239.7,642c-2.9,0-5.2-2.3-5.2-5.2V516.6h-42.7c-2.9,0-5.2-2.3-5.2-5.2s2.3-5.2,5.2-5.2h53.1v130.6
		C244.8,639.7,242.5,642,239.7,642z"/>
	<path class="st2" d="M429.7,237.6c-3.1-0.2-5.8,2.1-6,5.2c0,0.1-1.1,10.9-9.2,17.5c-3.7,3-8.5,4.8-14.1,5.3l2.2-2.3
		c2.1-2.2,2.1-5.8-0.2-7.9c-2.2-2.1-5.8-2.1-7.9,0.2l-15,15.7l17.4,16.7c1.1,1,2.5,1.6,3.9,1.6c1.5,0,3-0.6,4.1-1.7
		c2.1-2.2,2.1-5.8-0.2-7.9l-3.2-3.1c7.9-0.7,14.7-3.3,20.2-7.7c12.1-9.7,13.3-24.7,13.4-25.3C435.1,240.5,432.8,237.8,429.7,237.6z"
		/>
</g>
<g>
	<path class="st2" d="M53.9,747c-29.4,0-53.2-23.9-53.2-53.2c0-29.4,23.9-53.2,53.2-53.2s53.2,23.9,53.2,53.2
		C107.1,723.2,83.3,747,53.9,747z M53.9,650.9c-23.7,0-43,19.3-43,43s19.3,43,43,43s43-19.3,43-43S77.6,650.9,53.9,650.9z"/>
	<path class="st2" d="M49.3,718.5l27.2-21.2c2.8-2.2,2.8-6.5,0-8.7l-27.2-21.2c-3.6-2.8-8.9-0.3-8.9,4.4v42.3
		C40.5,718.7,45.7,721.4,49.3,718.5z"/>
</g>
<g>
	<text transform="matrix(1 0 0 1 128.667 722.1304)" class="st6 st7 st8">Quero ver o vídeo</text>
</g>
</svg>
