<?xml version="1.0" encoding="utf-8"?>
<!-- Generator: Adobe Illustrator 23.0.4, SVG Export Plug-In . SVG Version: 6.00 Build 0)  -->
<svg version="1.1" id="Camada_1" xmlns="http://www.w3.org/2000/svg" xmlns:xlink="http://www.w3.org/1999/xlink" x="0px" y="0px"
	 viewBox="0 0 362.8 362" style="enable-background:new 0 0 362.8 362;" xml:space="preserve">
<style type="text/css">
	.st0{fill:#ABABAB;}
</style>
<g>
	<g>
		<path class="st0" d="M12.8,362.8h68.1h200.9H350c7.2,0,12.8-5.6,12.8-12.8V12.8C362.8,5.6,357.2,0,350,0H12.8C5.6,0,0,5.6,0,12.8
			V350C0,357.2,5.9,362.8,12.8,362.8z M294.7,25.6h42.5v58.7h-42.5V25.6z M294.7,110h42.5v58.7h-13.4h-29.4V110H294.7z M295,194.4
			h29.4h13.4v58.7h-42.5v-58.7L295,194.4z M294.7,278.7h42.5v58.7h-42.5V278.7z M93.7,25.6H269v143.1H93.7V25.6z M93.7,194.4H269
			v143.1H93.7V194.4z M25.6,25.6h42.5v58.7H25.6V25.6z M25.6,110h42.5v58.7H25.6V110z M25.6,194.4h42.5v58.7H25.6V194.4z
			 M25.6,278.7h42.5v58.7H25.6V278.7z"/>
	</g>
</g>
</svg>
