<?xml version="1.0" encoding="utf-8"?>
<!-- Generator: Adobe Illustrator 23.0.4, SVG Export Plug-In . SVG Version: 6.00 Build 0)  -->
<svg version="1.1" id="Camada_1" xmlns="http://www.w3.org/2000/svg" xmlns:xlink="http://www.w3.org/1999/xlink" x="0px" y="0px"
	 viewBox="0 0 220.9 294.1" style="enable-background:new 0 0 220.9 294.1;" xml:space="preserve">
<style type="text/css">
	.st0{fill:#ABABAB;}
</style>
<g>
	<g>
		<path class="st0" d="M110.5,294c-4.1,0-8-1.8-10.7-4.9c-14.6-16.9-64.1-76.6-90-133.4C3.3,141.6,0,126.4,0,110.5
			C0,49.6,49.6,0,110.5,0s110.5,49.6,110.5,110.5c0,15.9-3.3,31.1-9.7,45.2c-26,56.9-75.5,116.5-90,133.4
			C118.5,292.2,114.6,294,110.5,294z M110.5,17C58.9,17,17,58.9,17,110.5c0,13.4,2.7,26.3,8.1,38.1c23.9,52.3,68.9,107.6,85.3,126.9
			c16.4-19.2,61.4-74.5,85.3-126.9c5.4-11.8,8.1-24.6,8.1-38.1C203.9,58.9,162,17,110.5,17z M109.4,158.3
			c-30.1,0-54.7-24.5-54.7-54.7c0-30.1,24.5-54.7,54.7-54.7s54.7,24.5,54.7,54.7c0,14.6-5.7,28.3-16,38.6
			C137.7,152.6,124,158.3,109.4,158.3z M109.4,66c-20.8,0-37.7,16.9-37.7,37.7c0,20.8,16.9,37.7,37.7,37.7c10,0,19.5-3.9,26.6-11
			c7.1-7.1,11-16.6,11-26.6C147.1,82.9,130.2,66,109.4,66z"/>
	</g>
</g>
</svg>
