<?xml version="1.0" encoding="utf-8"?>
<!-- Generator: Adobe Illustrator 23.0.4, SVG Export Plug-In . SVG Version: 6.00 Build 0)  -->
<svg version="1.1" id="Camada_1" xmlns="http://www.w3.org/2000/svg" xmlns:xlink="http://www.w3.org/1999/xlink" x="0px" y="0px"
	 viewBox="0 0 362.8 274.3" style="enable-background:new 0 0 362.8 274.3;" xml:space="preserve">
<style type="text/css">
	.st0{fill:#ABABAB;}
</style>
<g>
	<g>
		<path class="st0" d="M0,81.7v110.6c0,10,8.1,18.1,18.1,18.1h40.6V63.6H18.1C8.1,63.6,0,71.7,0,81.7z M41.1,192.8h-23
			c-0.3,0-0.5-0.2-0.5-0.5V81.7c0-0.3,0.2-0.5,0.5-0.5h23V192.8z"/>
		<path class="st0" d="M236.3,2.8c-4.6-3.1-10.5-3.6-15.6-1.4L73.4,63.6v146.7l147.3,62.3c2.1,0.9,4.3,1.3,6.5,1.3
			c3.2,0,6.4-0.9,9.1-2.8c4.6-3.1,7.4-8.2,7.4-13.8V16.6C243.7,11,240.9,5.8,236.3,2.8z M226.1,255.8L91,198.7V75.3l135.1-57.1
			V255.8z"/>
		<path class="st0" d="M336.8,141.4l22.5-22.5c4.6-4.6,4.6-12,0-16.6c-4.6-4.6-12-4.6-16.6,0l-22.5,22.5l-22.5-22.5
			c-4.6-4.6-12-4.6-16.6,0c-4.6,4.6-4.6,12,0,16.6l22.5,22.5l-22.5,22.5c-4.6,4.6-4.6,12,0,16.6c2.3,2.3,5.3,3.4,8.3,3.4
			c3,0,6-1.1,8.3-3.4l22.5-22.5l22.5,22.5c2.3,2.3,5.3,3.4,8.3,3.4s6-1.1,8.3-3.4c4.6-4.6,4.6-12,0-16.6L336.8,141.4z"/>
	</g>
</g>
</svg>
