<?xml version="1.0" encoding="utf-8"?>
<!-- Generator: Adobe Illustrator 23.0.4, SVG Export Plug-In . SVG Version: 6.00 Build 0)  -->
<svg version="1.1" id="Camada_1" xmlns="http://www.w3.org/2000/svg" xmlns:xlink="http://www.w3.org/1999/xlink" x="0px" y="0px"
	 viewBox="0 0 221.6 274.3" style="enable-background:new 0 0 221.6 274.3;" xml:space="preserve">
<style type="text/css">
	.st0{fill:#ABABAB;}
</style>
<g>
	<g>
		<g>
			<g>
				<path class="st0" d="M111.4,274.3c-13.3,0-25.2-7.1-31-18.6c-2.1-4.1-0.5-9.2,3.7-11.3c4.1-2.1,9.2-0.5,11.3,3.7
					c2.9,5.7,9.2,9.4,16,9.4s13.1-3.7,16-9.4c2.1-4.1,7.2-5.8,11.3-3.7c4.1,2.1,5.8,7.2,3.7,11.3
					C136.6,267.2,124.7,274.3,111.4,274.3z"/>
			</g>
		</g>
		<g>
			<g>
				<path class="st0" d="M208,231.8H13.5c-4.8,0-9.4-2.6-11.8-6.8c-2.4-4.3-2.3-9.5,0.2-13.6L19.5,182c7.3-12.2,11.2-26.2,11.2-40.4
					v-25.7c0-33,20.8-62.8,51.2-74.6V28.9C81.9,13,94.8,0,110.8,0s28.9,13,28.9,28.9v12.4c30.4,11.8,51.2,41.7,51.2,74.6v25.7
					c0,14.2,3.9,28.2,11.2,40.4l17.6,29.3c2.5,4.2,2.6,9.4,0.2,13.6C217.4,229.2,212.9,231.8,208,231.8z M19.3,215h182.9l-14.6-24.3
					c-8.9-14.8-13.6-31.8-13.6-49.1v-25.7c0-27.7-18.6-52.6-45.2-60.6l-6-1.8V28.9c0-6.7-5.4-12.1-12.1-12.1
					c-6.7,0-12.1,5.4-12.1,12.1v24.6l-6,1.8c-26.6,7.9-45.2,32.9-45.2,60.6v25.7c0,17.3-4.7,34.3-13.6,49.1L19.3,215z"/>
			</g>
		</g>
	</g>
</g>
</svg>
