<?xml version="1.0" encoding="utf-8"?>
<!-- Generator: Adobe Illustrator 23.0.4, SVG Export Plug-In . SVG Version: 6.00 Build 0)  -->
<svg version="1.1" id="Camada_1" xmlns="http://www.w3.org/2000/svg" xmlns:xlink="http://www.w3.org/1999/xlink" x="0px" y="0px"
	 viewBox="0 0 362.8 362" style="enable-background:new 0 0 362.8 362;" xml:space="preserve">
<style type="text/css">
	.st0{fill:#ABABAB;}
</style>
<g>
	<g>
		<path class="st0" d="M174,104.7c-5.9-4.9-14.5-6.4-22.1-3.7c-7.5,2.7-12.4,8.8-12.3,15.8l1.1,134c0.1,6.9,5,13.1,12.6,15.8
			c2.5,0.9,5.1,1.3,7.7,1.3c5.2,0,10.4-1.7,14.2-5l78.8-66.5c7.9-6.6,7.8-17.5-0.1-24.1L174,104.7z M163.2,245.9l-1-124.1l74.1,62.5
			L163.2,245.9z"/>
		<path class="st0" d="M181,0C81.2,0,0,81.2,0,181s81.2,181,181,181s181-81.2,181-181S280.8,0,181,0z M181,339.4
			c-87.3,0-158.4-71.1-158.4-158.4S93.7,22.6,181,22.6S339.4,93.7,339.4,181S268.4,339.4,181,339.4z"/>
	</g>
</g>
</svg>
