<?xml version="1.0" encoding="utf-8"?>
<!-- Generator: Adobe Illustrator 23.0.4, SVG Export Plug-In . SVG Version: 6.00 Build 0)  -->
<svg version="1.1" id="Camada_1" xmlns="http://www.w3.org/2000/svg" xmlns:xlink="http://www.w3.org/1999/xlink" x="0px" y="0px"
	 viewBox="0 0 204.8 182" style="enable-background:new 0 0 204.8 182;" xml:space="preserve">
<style type="text/css">
	.st0{fill:#3493F8;}
</style>
<path class="st0" d="M93.9,45.5H91v-37c0-3.5-2.1-6.6-5.3-7.9c-3.2-1.3-6.9-0.5-9.3,2L2.4,79.4c-3.2,3.3-3.2,8.5,0,11.8L76.3,168
	c2.4,2.5,6.1,3.3,9.3,2c3.2-1.3,5.3-4.4,5.3-7.9v-37h13.5c35.8,0,68,19.9,83.9,51.9l0.1,0.3c1.5,2.9,4.4,4.7,7.6,4.7
	c0.6,0,1.3-0.1,2-0.2c3.9-0.9,6.6-4.3,6.6-8.3v-17.1C204.8,95.3,155,45.5,93.9,45.5z"/>
</svg>
