<?xml version="1.0" encoding="utf-8"?>
<!-- Generator: Adobe Illustrator 23.0.4, SVG Export Plug-In . SVG Version: 6.00 Build 0)  -->
<svg version="1.1" id="Camada_1" xmlns="http://www.w3.org/2000/svg" xmlns:xlink="http://www.w3.org/1999/xlink" x="0px" y="0px"
	 viewBox="0 0 526 419" style="enable-background:new 0 0 526 419;" xml:space="preserve" class="in_logo">
<g>
	<g>
		<path class="in_config" d="M325.4,190.1l-4.4-10.4c0,0,10.1-22.9,9.2-23.8l-13.4-13.1c-0.9-0.9-23.8,9.5-23.8,9.5l-10.6-4.3
			c0,0-9.3-23.2-10.6-23.2h-18.9c-1.3,0-9.9,23.2-9.9,23.2l-10.5,4.3c0,0-23.4-9.9-24.3-9l-13.4,13.1c-0.9,0.9,9.7,23.3,9.7,23.3
			l-4.4,10.3c0,0-23.7,9.1-23.7,10.4v18.6c0,1.3,23.7,9.8,23.7,9.8l4.3,10.3c0,0-10.1,22.9-9.2,23.7l13.4,13.1
			c0.9,0.9,23.8-9.6,23.8-9.6l10.6,4.3c0,0,9.3,23.2,10.6,23.2h18.9c1.3,0,9.9-23.2,9.9-23.2l10.6-4.3c0,0,23.3,9.9,24.2,9.1
			l13.4-13.1c0.9-0.9-9.7-23.3-9.7-23.3l4.3-10.3c0,0,23.7-9.1,23.7-10.4v-18.5C349.1,198.5,325.4,190.1,325.4,190.1z M290.5,209.5
			c0,14.9-12.4,27.1-27.7,27.1c-15.2,0-27.7-12.2-27.7-27.1c0-14.9,12.4-27.1,27.7-27.1C278,182.4,290.5,194.6,290.5,209.5z"/>
	</g>
</g>
</svg>
