<?xml version="1.0" encoding="utf-8"?>
<!-- Generator: Adobe Illustrator 23.0.4, SVG Export Plug-In . SVG Version: 6.00 Build 0)  -->
<svg version="1.1" id="Camada_1" xmlns="http://www.w3.org/2000/svg" xmlns:xlink="http://www.w3.org/1999/xlink" x="0px" y="0px"
	 viewBox="0 0 526 419" style="enable-background:new 0 0 526 419;" xml:space="preserve">
<style type="text/css">
	.st0{opacity:0.74;fill:#F7FBFB;}
</style>
<path class="st0" d="M337.9,193.3L337.9,193.3L337.9,193.3h-0.1h0h0h-11.3v-14.1c0-27.2-24.1-49.2-53.7-49.2c0,0,0,0,0,0s0,0,0,0
	c0,0,0,0,0,0s0,0,0,0c0,0,0,0,0,0c0,0,0,0,0,0c0,0,0,0,0,0s0,0,0,0c0,0,0,0,0,0c0,0,0,0,0,0c-29.6,0-53.7,22.1-53.7,49.2v14.1h-11.3
	h0h0h0h0h0c-2.1,0-3.9,1.6-3.9,3.5v88c0,7.8,6.9,14.1,15.4,14.1h0h0h0h0h0h107.3h0h0h0h0h0c8.5,0,15.4-6.3,15.4-14.1v-88
	C341.8,194.8,340,193.3,337.9,193.3z M265,270.6c-1.1,0-2.1-0.4-2.9-1.2c-0.7-0.7-1.1-1.7-1-2.7l2.1-17.5c0.2-1.6-0.6-3-1.7-4.1
	c-2.7-2.6-4.2-6-4.2-9.7c0-7.7,6.8-14,15.3-14.1c8.4,0,15.3,6.3,15.3,14.1c0,3.7-1.6,7.1-4.2,9.7c-1.2,1.1-1.9,2.5-1.7,4.1l2.1,17.5
	c0.1,1-0.2,2-1,2.7c-0.7,0.7-1.8,1.2-2.9,1.2H265z M242,193.3v-14.1c0-15.5,13.7-28.1,30.6-28.1c16.9,0,30.6,12.6,30.6,28.1v14.1
	H242z"/>
</svg>
