<?xml version="1.0" encoding="utf-8"?>
<!-- Generator: Adobe Illustrator 23.0.4, SVG Export Plug-In . SVG Version: 6.00 Build 0)  -->
<svg version="1.1" id="Camada_1" xmlns="http://www.w3.org/2000/svg" xmlns:xlink="http://www.w3.org/1999/xlink" x="0px" y="0px"
	 viewBox="0 0 526 419" style="enable-background:new 0 0 526 419;" xml:space="preserve">
<style type="text/css">
	.st0{fill:#758596;}
	.st1{fill:#FF415A;}
</style>
<g>
	<g>
		<path class="st0" d="M369.2,173.3c-5.2-32.2-33-69.2-65.9-72.8c-21.3-2.3-42.5,4.4-58.3,18.5c-15.6,14-24.7,34-24.9,54.9
			c0,4.1,2.7,7.9,6.7,8.5c4.9,0.7,9.1-3.2,9-8c-0.2-7.2,0.2-14.4,3.2-20.9c12.1-26.7,36.5-40.3,62.5-37.4
			c24.8,2.8,48,33.8,52.2,59.8c3.3,20.2-4.1,32-18.8,42.8c-8.5,6.2-13,16.6-11.2,27l0,0.1c3,17-3.4,34.4-16.8,45.4l-2.2,1.8
			c-8.7,7.1-19.8,11-31,10.7c-6.2-0.1-11.9-3.7-15-9.1L245,270.9c-2-3.4-6.1-5.2-9.7-3.8c-4.7,1.8-6.5,7.2-4.1,11.3l13.8,24
			c6,10.5,17.3,17,29.4,17c14.6,0,28.8-5.1,40.1-14.3l2.3-1.9c17.7-14.5,26.2-37.4,22.3-60l0,0c-0.8-4.6,1.1-9.2,4.9-11.9
			C361.1,218.8,373.9,202.2,369.2,173.3z"/>
		<path class="st0" d="M248.5,216l22.6-0.2c12,0,22.8,8.6,24.3,20.5c1.4,10.6-4.4,20.4-13.9,24.6c-3.4,1.5-5.7,5.1-5,8.7
			c0.7,4,4.1,6.5,7.7,6.5c1,0,2.1-0.2,3.1-0.6c16.3-6.9,26.1-23.8,23.6-41.8c-2.8-19.5-20.3-33.6-40.1-33.6h-6.6v-23.6
			c0-15.2,12.3-27.5,27.5-27.5c8.9,0,19,5.4,24.6,13.2c3,4.2,6,10.8,3.5,19.1c-1.3,4.2,0.6,9.1,4.7,10.5c0.9,0.3,1.7,0.4,2.6,0.4
			c3.3,0,6.3-2.1,7.4-5.4c3.9-11.6,1.9-23.6-5.4-33.8c-8.5-11.8-23.5-19.7-37.3-19.7c-23.8,0-43.2,19.4-43.2,43.2"/>
	</g>
	<path class="st1" d="M199.5,317.9c-2.5,0-4.9-0.9-6.8-2.8c-3.8-3.8-3.8-9.8,0-13.6L390,104.2c3.8-3.8,9.8-3.8,13.6,0
		c3.8,3.8,3.8,9.8,0,13.6L206.3,315.1C204.4,317,201.9,317.9,199.5,317.9z"/>
</g>
</svg>
