<?xml version="1.0" encoding="utf-8"?>
<!-- Generator: Adobe Illustrator 23.0.4, SVG Export Plug-In . SVG Version: 6.00 Build 0)  -->
<svg version="1.1" id="Camada_1" xmlns="http://www.w3.org/2000/svg" xmlns:xlink="http://www.w3.org/1999/xlink" x="0px" y="0px"
	 viewBox="0 0 526 419" style="enable-background:new 0 0 526 419;" xml:space="preserve">
<style type="text/css">
	.st0{fill:#758596;}
	.st1{fill:#FF415A;}
</style>
<g>
	<path class="st0" d="M263.1,281.8c-30.8,0-65.3-8.6-101.6-32.7c-10.7-7.1-17.3-19.4-17.6-32.8c-0.3-13.4,5.7-25.9,16.1-33.5l0,0
		c38.6-28.3,116.8-66,207.1,0.3c10.7,7.9,16.8,20.7,16.4,34.4c-0.4,13.5-7.2,25.8-18.2,32.8C342.7,264.6,306.6,281.8,263.1,281.8z
		 M167.9,193.5c-6.8,5-10.8,13.4-10.6,22.4c0.2,9,4.5,17.2,11.6,21.9c77.1,51.4,145.4,28.9,189.1,1c7.4-4.7,11.8-12.7,12.1-21.9
		c0.3-9.3-3.8-17.9-10.9-23.2C280,135.6,211.5,161.5,167.9,193.5L167.9,193.5z"/>
	<path class="st0" d="M265,272.2c-32.1,0-58.2-26.1-58.2-58.2s26.1-58.2,58.2-58.2c32.1,0,58.2,26.1,58.2,58.2
		S297.1,272.2,265,272.2z M265,169.1c-24.7,0-44.9,20.1-44.9,44.9c0,24.7,20.1,44.9,44.9,44.9c24.7,0,44.9-20.1,44.9-44.9
		C309.9,189.2,289.8,169.1,265,169.1z"/>
	<path class="st0" d="M263,230.9c-10.4,0-18.9-8.5-18.9-18.9s8.5-18.9,18.9-18.9s18.9,8.5,18.9,18.9S273.4,230.9,263,230.9z
		 M262.8,212c0,0.1,0.1,0.2,0.2,0.2V212H262.8z"/>
	<path class="st1" d="M166.7,322.5c-2.4,0-4.9-0.9-6.8-2.8c-3.7-3.7-3.7-9.8,0-13.5l201.9-201.9c3.7-3.7,9.8-3.7,13.5,0
		c3.7,3.7,3.7,9.8,0,13.5L173.5,319.7C171.6,321.6,169.2,322.5,166.7,322.5z"/>
</g>
</svg>
