<?xml version="1.0" encoding="utf-8"?>
<!-- Generator: Adobe Illustrator 23.0.4, SVG Export Plug-In . SVG Version: 6.00 Build 0)  -->
<svg version="1.1" id="Camada_1" xmlns="http://www.w3.org/2000/svg" xmlns:xlink="http://www.w3.org/1999/xlink" x="0px" y="0px"
	 viewBox="0 0 526 419" style="enable-background:new 0 0 526 419;" xml:space="preserve">
<style type="text/css">
	.st0{fill:#F7FBFB;}
</style>
<g>
	<g>
		<path class="st0" d="M359.3,163.1c-1.8,0-3.2-1.4-3.2-3.2v-12.1c0-6.5-4.5-11.8-10.1-11.8h-19.6c-1.8,0-3.2-1.4-3.2-3.2
			c0-1.8,1.4-3.2,3.2-3.2H346c9.1,0,16.5,8.2,16.5,18.2v12.1C362.5,161.7,361,163.1,359.3,163.1z"/>
		<path class="st0" d="M307.2,136h-67.3c-1.8,0-3.2-1.4-3.2-3.2c0-1.8,1.4-3.2,3.2-3.2h67.3c1.8,0,3.2,1.4,3.2,3.2
			C310.3,134.6,308.9,136,307.2,136z"/>
		<path class="st0" d="M217,136h-18.2c-1.8,0-3.2-1.4-3.2-3.2c0-1.8,1.4-3.2,3.2-3.2H217c1.8,0,3.2,1.4,3.2,3.2
			C220.2,134.6,218.7,136,217,136z"/>
		<path class="st0" d="M185,163.3c-1.8,0-3.2-1.4-3.2-3.2v-12.2c0-9.4,6.9-17.4,15.7-18.2l0.3,0h1.2c1.8,0,3.2,1.4,3.2,3.2
			c0,1.8-1.4,3.2-3.2,3.2h-1c-5.5,0.6-9.7,5.7-9.7,11.8v12.2C188.1,161.9,186.7,163.3,185,163.3z"/>
		<path class="st0" d="M229.4,199.8H214c-3.4,0-6.2-2.8-6.2-6.2v-15.4c0-3.4,2.8-6.2,6.2-6.2h15.4c3.4,0,6.2,2.8,6.2,6.2v15.3
			c0.1,1.6-0.5,3.1-1.6,4.3C232.8,199.1,231.2,199.8,229.4,199.8z M214.2,193.4h15v-15h-15V193.4z"/>
		<path class="st0" d="M280.6,199.8h-15.4c-3.4,0-6.2-2.8-6.2-6.2v-15.4c0-3.4,2.8-6.2,6.2-6.2h15.4c3.4,0,6.2,2.8,6.2,6.2v15.4
			C286.7,197.1,284,199.8,280.6,199.8z M265.4,193.4h15v-15h-15V193.4z"/>
		<path class="st0" d="M329.4,199.8H314c-3.4,0-6.2-2.8-6.2-6.2v-15.4c0-3.4,2.8-6.2,6.2-6.2h15.4c3.4,0,6.2,2.8,6.2,6.2v15.4
			C335.6,197.1,332.8,199.8,329.4,199.8z M314.2,193.4h15l0-15h-15V193.4z"/>
		<path class="st0" d="M280.7,237.9h-15.4c-3.4,0-6.2-2.8-6.2-6.2v-15.5c0-3.4,2.8-6.2,6.2-6.2h15.4c3.4,0,6.2,2.8,6.2,6.2v15.4
			C286.8,235.1,284.1,237.9,280.7,237.9z M265.5,231.5h15v-15.1h-15V231.5z"/>
		<path class="st0" d="M237.2,142.9"/>
		<path class="st0" d="M224.3,142.9"/>
		<path class="st0" d="M318.4,148.6h-4.7c-4.9,0-8.8-4-8.8-8.8V119c0-2.8,2.2-5,5-5h12.3c2.8,0,5,2.2,5,5l0,20.8
			C327.1,144.7,323.2,148.6,318.4,148.6z M311.3,120.4v19.4c0,1.3,1.1,2.4,2.4,2.4h4.7c1.3,0,2.4-1.1,2.4-2.5v-19.3H311.3z"/>
		<path class="st0" d="M229.8,148.6h-4.7c-4.9,0-8.8-4-8.8-8.8V119c0-2.8,2.2-5,5-5h12.3c2.8,0,5,2.2,5,5v20.7
			C238.7,144.6,234.7,148.6,229.8,148.6z M222.7,120.4v19.4c0,1.3,1.1,2.4,2.4,2.4h4.7c1.3,0,2.4-1.1,2.4-2.4v-19.4H222.7z"/>
		<path class="st0" d="M280.6,275.9h-15.4c-3.4,0-6.2-2.8-6.2-6.2v-15.4c0-3.4,2.8-6.2,6.2-6.2h15.4c3.4,0,6.2,2.8,6.2,6.2v15.4
			C286.7,273,283.9,275.9,280.6,275.9z M265.4,269.5h15v-15h-15V269.5z"/>
		<path class="st0" d="M348.7,295H195.3c-7.5,0-13.5-6.1-13.5-13.5V157h180.5v124.4C362.2,288.9,356.2,295,348.7,295z M188.1,163.4
			v118c0,3.9,3.2,7.2,7.2,7.2h153.4c3.9,0,7.2-3.2,7.2-7.2v-118H188.1z"/>
		<path class="st0" d="M322.7,238.9c-8.2,0-14.9-6.7-14.9-14.9s6.7-14.9,14.9-14.9c8.2,0,14.9,6.7,14.9,14.9
			S330.9,238.9,322.7,238.9z M322.7,215.5c-4.7,0-8.5,3.8-8.5,8.5s3.8,8.5,8.5,8.5s8.5-3.8,8.5-8.5S327.4,215.5,322.7,215.5z"/>
		<path class="st0" d="M229.4,237.4H214c-3.4,0-6.2-2.8-6.2-6.2v-15.4c0-3.4,2.8-6.2,6.2-6.2h15.4c3.4,0,6.2,2.8,6.2,6.2v15.4
			C235.6,234.6,232.8,237.4,229.4,237.4z M214.2,231.1h15v-15h-15V231.1z"/>
		<path class="st0" d="M229.4,275.9H214c-3.4,0-6.2-2.8-6.2-6.2v-15.4c0-3.4,2.8-6.2,6.2-6.2h15.4c3.4,0,6.2,2.8,6.2,6.2v15.4
			C235.6,273,232.8,275.9,229.4,275.9z M214.2,269.5h15v-15h-15V269.5z"/>
		<path class="st0" d="M330.4,275.3H315c-3.4,0-6.2-2.8-6.2-6.2v-15.4c0-3.4,2.8-6.2,6.2-6.2h15.4c3.4,0,6.2,2.8,6.2,6.2v15.4
			C336.6,272.5,333.7,275.3,330.4,275.3z M315.2,268.9h15v-15h-15V268.9z"/>
	</g>
</g>
</svg>
