<?xml version="1.0" encoding="utf-8"?>
<!-- Generator: Adobe Illustrator 23.0.4, SVG Export Plug-In . SVG Version: 6.00 Build 0)  -->
<svg version="1.1" id="Camada_1" xmlns="http://www.w3.org/2000/svg" xmlns:xlink="http://www.w3.org/1999/xlink" x="0px" y="0px"
	 viewBox="0 0 526 419" style="enable-background:new 0 0 526 419;" xml:space="preserve">
<style type="text/css">
	.st0{fill:#F6EBD8;}
	.st1{opacity:0.11;fill:#514D7A;}
	.st2{fill:#5394F2;}
	.st3{fill:#FFBD17;}
	.st4{opacity:0.26;fill:#514D7A;}
</style>
<circle class="st0" cx="268.3" cy="222.9" r="101"/>
<circle class="st1" cx="268.8" cy="223.2" r="80.2"/>
<g>
	<path class="st2" d="M264.4,96.1c-1.8,0.4-3,3.2-3,5v35.8c0,1.9-1.5,3.4-3.4,3.4h0c-1.9,0-3.4-1.5-3.4-3.4v-35.8c0-1.8-1.2-4.6-3-5
		c-2.5-0.5-4.7,2.5-4.7,4.9v35.9c0,1.9-1.5,3.4-3.4,3.4c-0.1,0-0.1,0-0.2,0v92.9h6.8c0.5,0,0.9,0.1,1.4,0.2l-2.3-53.8
		c17.2-2.9,19.4-19.5,19.7-35.1c0-0.1,0-0.2,0-0.3v-43.2C269,98.6,266.8,95.6,264.4,96.1z"/>
	<path class="st3" d="M243.4,233.1v111.7h10c4.6,0,8.2-3.9,7.9-8.4l-6.5-99.1c-0.1-1.9-1.4-3.4-3.1-4c-0.4-0.1-0.9-0.2-1.4-0.2
		H243.4z"/>
	<path class="st2" d="M240.2,136.9v-35.8c0-1.8-1.2-4.6-3-5c-2.5-0.5-4.7,2.5-4.7,4.9v35.9c0,1.9-1.5,3.4-3.4,3.4l0,0
		c-1.9,0-3.4-1.5-3.4-3.4v-35.8c0-1.8-1.2-4.6-3-5c-2.5-0.5-4.7,2.5-4.7,4.9v43.2c0,0.3,0,0.5,0.1,0.8c0.6,15.5,4.3,31.7,20,34.6
		l-2.7,53.8c0.5-0.2,0.9-0.3,1.4-0.3h6.5v-92.9C241.7,140.1,240.2,138.7,240.2,136.9z"/>
	<path class="st4" d="M240.2,136.9v-35.8c0-1.8-1.2-4.6-3-5c-2.5-0.5-4.7,2.5-4.7,4.9v35.9c0,1.9-1.5,3.4-3.4,3.4l0,0
		c-1.9,0-3.4-1.5-3.4-3.4v-35.8c0-1.8-1.2-4.6-3-5c-2.5-0.5-4.7,2.5-4.7,4.9v43.2c0,0.3,0,0.5,0.1,0.8c0.6,15.5,4.3,31.7,20,34.6
		l-2.7,53.8c0.5-0.2,0.9-0.3,1.4-0.3h6.5v-92.9C241.7,140.1,240.2,138.7,240.2,136.9z"/>
	<path class="st3" d="M243.4,233.1H237c-0.5,0-1,0.1-1.4,0.3c-1.7,0.6-2.9,2.1-3.1,3.9l-8.1,99c-0.4,4.6,3.2,8.5,7.9,8.5h11.2V233.1
		z"/>
	<path class="st4" d="M243.4,233.1H237c-0.5,0-1,0.1-1.4,0.3c-1.7,0.6-2.9,2.1-3.1,3.9l-8.1,99c-0.4,4.6,3.2,8.5,7.9,8.5h11.2V233.1
		z"/>
</g>
<g>
	<path class="st2" d="M305.4,233.1C305.4,233.1,305.4,233.1,305.4,233.1l0-17.8c0-1.2,0.4-2.3,1-3.2c23.9-33.8,9.3-83.3-2.9-112.2
		c-0.9-2.1-2.4-3.3-4-3.7v136.9H305.4z"/>
	<path class="st3" d="M309.9,237.3c-0.2-2.4-2.1-4.2-4.5-4.2c0,0,0,0,0,0h-5.8v111.7h9c4.6,0,8.2-3.9,7.9-8.4L309.9,237.3z"/>
	<path class="st2" d="M292.1,102.8V233c0,0,0,0,0,0.1h7.5V96.2C296.1,95.3,292.1,97.9,292.1,102.8z"/>
	<path class="st4" d="M292.1,102.8V233c0,0,0,0,0,0.1h7.5V96.2C296.1,95.3,292.1,97.9,292.1,102.8z"/>
	<path class="st3" d="M299.6,233.1h-7.5h0c-2.4,0-4.3,1.8-4.5,4.1l-8.1,99c-0.4,4.6,3.2,8.5,7.9,8.5h12.2V233.1z"/>
	<path class="st4" d="M299.6,233.1h-7.5h0c-2.4,0-4.3,1.8-4.5,4.1l-8.1,99c-0.4,4.6,3.2,8.5,7.9,8.5h12.2V233.1z"/>
</g>
</svg>
