<?xml version="1.0" encoding="utf-8"?>
<!-- Generator: Adobe Illustrator 23.0.4, SVG Export Plug-In . SVG Version: 6.00 Build 0)  -->
<svg version="1.1" id="Camada_1" xmlns="http://www.w3.org/2000/svg" xmlns:xlink="http://www.w3.org/1999/xlink" x="0px" y="0px"
	 viewBox="0 0 526 419" style="enable-background:new 0 0 526 419;" xml:space="preserve">
<style type="text/css">
	.st0{fill:#FFBD17;}
	.st1{fill:#5394F2;}
	.st2{fill:#758596;}
	.st3{fill:#FF415A;}
</style>
<g>
	<path class="st0" d="M285.9,284.7c-32.5,0-58.9-26.4-58.9-58.9s26.4-58.9,58.9-58.9c32.5,0,58.9,26.4,58.9,58.9
		S318.4,284.7,285.9,284.7z M285.9,180.4c-25,0-45.4,20.4-45.4,45.4s20.4,45.4,45.4,45.4s45.4-20.4,45.4-45.4
		S310.9,180.4,285.9,180.4z"/>
	<path class="st1" d="M283.8,244.9c-11.6,0-21.1-9.5-21.1-21.1c0-11.6,9.5-21.1,21.1-21.1c11.6,0,21.1,9.5,21.1,21.1
		C304.9,235.4,295.4,244.9,283.8,244.9z M283.8,221.7c-1.2,0-2.1,0.9-2.1,2.1s0.9,2.1,2.1,2.1s2.1-0.9,2.1-2.1
		S285,221.7,283.8,221.7z"/>
	<path class="st2" d="M283.9,294.4c-31.2,0-66.1-8.7-102.8-33.1c-10.8-7.2-17.5-19.6-17.8-33.2c-0.3-13.6,5.8-26.2,16.3-33.9l0,0
		c39.1-28.7,118.3-66.8,209.6,0.2c10.8,8,17,21,16.6,34.8c-0.4,13.7-7.3,26.1-18.4,33.2C364.5,277,328,294.4,283.9,294.4z
		 M187.6,205.1c-6.9,5.1-10.9,13.6-10.7,22.7c0.2,9.2,4.6,17.5,11.7,22.2c78.1,52.1,147.2,29.3,191.4,1c7.5-4.8,11.9-12.9,12.2-22.2
		c0.3-9.4-3.8-18.2-11.1-23.5C301,146.5,231.6,172.7,187.6,205.1L187.6,205.1z"/>
	<path class="st3" d="M186.4,335.6c-2.5,0-4.9-0.9-6.8-2.8c-3.8-3.8-3.8-9.9,0-13.7l204.3-204.3c3.8-3.8,9.9-3.8,13.7,0
		c3.8,3.8,3.8,9.9,0,13.7L193.2,332.8C191.3,334.7,188.8,335.6,186.4,335.6z"/>
</g>
</svg>
