<?xml version="1.0" encoding="utf-8"?>
<svg version="1.1" xmlns="http://www.w3.org/2000/svg" xmlns:xlink="http://www.w3.org/1999/xlink" x="0px" y="0px" viewBox="0 0 526 419" xml:space="preserve">
<g>
	<g>
		<path class="in_exit" d="M237,303.5c-0.3-0.8-0.4-1.4-0.3-1.9c0.1-0.5-0.2-0.9-1-1.3c-0.8-0.3-1.1-0.6-1.1-0.8c0-0.2-0.5-0.3-1.6-0.4
			c-1.1-0.1-1.6-0.1-1.6-0.1h-1.8H228h-40.6c-6.2,0-11.5-2.2-16-6.6c-4.4-4.4-6.6-9.7-6.6-15.9V177c0-6.2,2.2-11.5,6.6-15.9
			c4.4-4.4,9.7-6.6,16-6.6h45.2c1.2,0,2.2-0.3,2.9-0.9c0.7-0.6,1.2-1.5,1.4-2.8c0.2-1.2,0.4-2.3,0.4-3.3c0-1,0-2.2-0.1-3.7
			c-0.1-1.5-0.1-2.4-0.1-2.8c0-1.2-0.5-2.3-1.4-3.2c-0.9-0.9-1.9-1.3-3.2-1.3h-45.2c-11.2,0-20.8,4-28.7,11.9
			c-7.9,8-11.9,17.5-11.9,28.7v99.4c0,11.2,4,20.8,11.9,28.7c8,8,17.5,11.9,28.7,11.9h45.2c1.2,0,2.2-0.3,2.9-0.9
			c0.7-0.6,1.2-1.5,1.4-2.8c0.2-1.2,0.4-2.3,0.4-3.3c0-1,0-2.2-0.1-3.7C237.1,304.8,237,303.8,237,303.5z"/>
		<path class="in_exit" d="M365.3,220.3l-76.8-76.8c-1.8-1.8-3.9-2.7-6.4-2.7c-2.4,0-4.6,0.9-6.4,2.7c-1.8,1.8-2.7,3.9-2.7,6.4v40.7
			h-63.2c-2.4,0-4.6,0.9-6.4,2.7c-1.8,1.8-2.7,3.9-2.7,6.4v54.2c0,2.4,0.9,4.6,2.7,6.3c1.8,1.8,3.9,2.7,6.4,2.7h63.2v40.7
			c0,2.4,0.9,4.6,2.7,6.4c1.8,1.8,3.9,2.7,6.4,2.7c2.5,0,4.6-0.9,6.4-2.7l76.8-76.8c1.8-1.8,2.7-3.9,2.7-6.4
			C368,224.2,367.1,222.1,365.3,220.3z"/>
	</g>
</g>
</svg>
