<?xml version="1.0" encoding="utf-8"?>
<!-- Generator: Adobe Illustrator 23.0.4, SVG Export Plug-In . SVG Version: 6.00 Build 0)  -->
<svg version="1.1" id="Camada_1" xmlns="http://www.w3.org/2000/svg" xmlns:xlink="http://www.w3.org/1999/xlink" x="0px" y="0px"
	 viewBox="0 0 526 419" style="enable-background:new 0 0 526 419;" xml:space="preserve">
<style type="text/css">
	.st0{fill:none;}
	.st1{fill:#5394F2;}
</style>
<g>
	<path class="st0" d="M186.8,144.7v92.9h68.9v-99.3h-62.5C189.7,138.3,186.8,141.2,186.8,144.7z M221.6,160.7
		c7.9,0,14.4,6.4,14.4,14.4c0,7.9-6.4,14.4-14.4,14.4c-7.9,0-14.4-6.4-14.4-14.4C207.2,167.1,213.7,160.7,221.6,160.7z M197.4,213.5
		c1.4-12.3,11.8-21.6,24.2-21.6c12.4,0,22.8,9.3,24.2,21.6c0.1,1.2-0.3,2.4-1.1,3.4c-0.8,0.9-2,1.5-3.3,1.5h-39.7
		c-1.2,0-2.4-0.5-3.3-1.5C197.6,216,197.2,214.7,197.4,213.5z"/>
	<path class="st0" d="M331.7,237.6v-92.9c0-3.6-2.9-6.5-6.5-6.5h-63.5v99.3H331.7z M295.6,160.7c7.9,0,14.4,6.4,14.4,14.4
		c0,7.9-6.4,14.4-14.4,14.4c-7.9,0-14.4-6.4-14.4-14.4C281.2,167.1,287.7,160.7,295.6,160.7z M295.6,192c12.4,0,22.8,9.3,24.2,21.6
		c0.1,1.2-0.3,2.4-1.1,3.4c-0.8,0.9-2,1.5-3.3,1.5h-39.7c-1.2,0-2.4-0.5-3.3-1.5c-0.8-0.9-1.2-2.1-1.1-3.4
		C272.8,201.2,283.2,192,295.6,192z"/>
	<path class="st1" d="M221.6,189.4c7.9,0,14.4-6.4,14.4-14.4c0-7.9-6.4-14.4-14.4-14.4c-7.9,0-14.4,6.4-14.4,14.4
		C207.2,182.9,213.7,189.4,221.6,189.4z"/>
	<path class="st1" d="M201.7,218.4h39.7c1.2,0,2.4-0.5,3.3-1.5c0.8-0.9,1.2-2.1,1.1-3.4c-1.4-12.3-11.8-21.6-24.2-21.6
		c-12.4,0-22.8,9.3-24.2,21.6c-0.1,1.2,0.3,2.4,1.1,3.4C199.3,217.8,200.5,218.4,201.7,218.4z"/>
	<path class="st1" d="M295.6,189.4c7.9,0,14.4-6.4,14.4-14.4c0-7.9-6.4-14.4-14.4-14.4c-7.9,0-14.4,6.4-14.4,14.4
		C281.2,182.9,287.7,189.4,295.6,189.4z"/>
	<path class="st1" d="M272.4,216.9c0.8,0.9,2,1.5,3.3,1.5h39.7c1.2,0,2.4-0.5,3.3-1.5c0.8-0.9,1.2-2.1,1.1-3.4
		c-1.4-12.3-11.8-21.6-24.2-21.6c-12.4,0-22.8,9.3-24.2,21.6C271.2,214.7,271.6,216,272.4,216.9z"/>
	<path class="st1" d="M325.3,132.2h-66.5c1.7,0,3,1.4,3,3v3h63.5c3.6,0,6.5,2.9,6.5,6.5v92.9h-69.9v1h76v-93.9
		C337.8,137.8,332.2,132.2,325.3,132.2z"/>
	<path class="st1" d="M255.7,237.6h-68.9v-92.9c0-3.6,2.9-6.5,6.5-6.5h62.5v-3c0-1.7,1.4-3,3-3h-65.5c-6.9,0-12.6,5.6-12.6,12.6
		v93.9h75V237.6z"/>
	<path class="st1" d="M261.8,237.6v-99.3v-3c0-1.7-1.4-3-3-3c-1.7,0-3,1.4-3,3v3v99.3v1h-75v5.1v7.5c0,5.3,4.3,9.7,9.7,9.7h55.5
		l-6.1,20.3h-20.6c-2.2,0-4.1,1.8-4.1,4.1s1.8,4.1,4.1,4.1h80.1c2.2,0,4.1-1.8,4.1-4.1s-1.8-4.1-4.1-4.1h-20.8l-5.5-20.3h55.1
		c5.3,0,9.7-4.3,9.7-9.7v-7.5v-5.1h-76V237.6z"/>
</g>
</svg>
