<?xml version="1.0" encoding="utf-8"?>
<!-- Generator: Adobe Illustrator 23.0.4, SVG Export Plug-In . SVG Version: 6.00 Build 0)  -->
<svg version="1.1" id="Camada_1" xmlns="http://www.w3.org/2000/svg" xmlns:xlink="http://www.w3.org/1999/xlink" x="0px" y="0px"
	 viewBox="0 0 1047.8 524.7" style="enable-background:new 0 0 1047.8 524.7;" xml:space="preserve">
<style type="text/css">
	.st0{fill:#758596;}
	.st1{font-family:'Raleway-Bold';}
	.st2{font-size:38.3479px;}
	.st3{fill:#5394F2;}
	.st4{fill:#ECD5AF;}
	.st5{fill:#FFBD17;}
	.st6{fill:#4B5660;}
	.st7{fill:#404A51;}
	.st8{fill:#FF415A;}
	.st9{fill:#474747;}
</style>
<text transform="matrix(1 0 0 1 168.9992 416.9559)" class="st0 st1 st2">Quero ver o vídeo</text>
<g>
	<path class="st3" d="M283.2,258.1c0,0-24.7,10-20.7,49.9l6.8,3.3l16.9-0.4l-0.6,59.5l46.9,2.2l30-1.1l8.2-9.3l1.4-25.6l-0.8-21v-39
		l-11.7-20l-0.3-0.3c0,0-24,20.9-27.7,24c-3.7,3.1-24.9-0.2-24.9-0.2l-14.2-9.8L283.2,258.1z"/>
	<rect x="262.2" y="311.2" class="st4" width="24.6" height="64.5"/>
	<path class="st4" d="M262.2,98.7v62.2c0,26.1,21.5,61.8,51.1,61.8l8,0.6c29.6,0,49.3-24,48.5-62.5V98"/>
	<g>
		<path class="st5" d="M402,246.8l-2.5-52.4l-19.9-50.3l0.5-22.9l-7.4-25.6l-17.7-19.6l-18.8-9.5l-20.5-2.7l-29,6.5l-18.3,14.4
			l-12.5,20.4l-2.7,25.1l2.2,14.3l8.7-2.8l1.6-6.8l18.8-12.3l14.6-26.2l2.6,3.9c21.4,23.8,67.3,39,67.3,39s4.6,16.3-0.9,37.9
			s-17.2,32.6-17.2,32.6l28.9,46.8l16.6,22.8l6.2-7.4L402,246.8z"/>
		<path class="st5" d="M297.9,219.1c-16.6-9.2-33.3-43.7-33.3-43.7l-5.2-2.3l-5.7-0.3l0.4,22.9l20.1,71l22.4-16.2
			C296.7,250.5,314.5,228.3,297.9,219.1z"/>
	</g>
	<path class="st5" d="M253.2,169.7L253.2,169.7c0.3,19.3-4.9,38.1-14.6,54.8c-9.1,15.5-11.1,36.2,35.8,42.2"/>
	<path class="st4" d="M296.5,216.1l0.8,34.9l-8.4,5.4c0,0-0.2,25.5,26.9,23c27.1-2.5,33.9-14.2,38.8-21.6
		c4.9-7.4-17.9-45.6-17.9-45.6L296.5,216.1z"/>
	<path class="st4" d="M368.9,172.8c8.9,1,17-4.6,18.2-12.5c1.2-7.8-5.1-15-14-15.9"/>
	<path class="st4" d="M268.1,172.4c-8.9,1-17-4.6-18.2-12.5s5.1-15,13.9-16"/>
	<path class="st4" d="M402.3,326.3l-0.6-10l-0.6-26.3l-6-6l6.6,4.8l-45.3-66.2l-4.1-7l-17.6,10.2c-3.6,2.1-5.5,6-4.8,9.9l0.2,1.2
		l2,1.5l1.4,8.9c0.6,4.2,5.1,6.6,8.9,4.8c0.3-0.1,0.6-0.3,0.9-0.5c2.4,9.5,12.6,10.2,17.9,9.9L402.3,326.3z"/>
	<path class="st4" d="M430.4,318.5l-23.3-114.7l-1.5-8l0,0l-5.1-27.4c-0.3-1.8-1.9-3.3-4-3.7c-4-0.8-7.9,2.3-7.2,5.8l5.1,26.7
		l7.3-0.6l-16.1,3.1c-4.1,0.8-7.2,3.9-7.8,7.7l-0.2,1.2l0.8,1.8c-1,1-1.8,2.4-2,3.9l-1.6,11.6c-0.6,4.2,2.9,7.7,7.1,7.2h0
		c2.1-0.3,3.8-1.5,4.8-3.3l0.1,0.1c0,0-5.9,18.7,10.9,18.8l6.3,73.4c0.6,7.3,7.1,12.8,14.4,12.2C426.4,333.9,432,326.4,430.4,318.5z
		"/>
	<path class="st6" d="M369.3,180.8l-5.9-1.9c1.9-5.9,2.9-11.5,2.9-16v-26.7h6.2v26.7C372.5,168.1,371.4,174.3,369.3,180.8z"/>
	<path class="st7" d="M321.6,226.7h-5c-14.3,0-28.4-7.8-39.7-21.9c-10.1-12.7-16.2-28.3-16.2-41.9v-26h6.2v26c0,12,5.7,26.6,14.8,38
		c13.6,17.1,27.7,19.6,34.9,19.6h5V226.7z"/>
	<path class="st7" d="M369,176c-0.8,0-1.5,0-2.3-0.1l0.7-6.1c7.2,0.8,13.9-3.6,14.8-9.9c0.4-2.6-0.3-5.3-2-7.5
		c-2.1-2.7-5.4-4.5-9.2-4.9l0.7-6.1c5.4,0.6,10.3,3.2,13.4,7.3c2.7,3.6,3.9,7.9,3.3,12.2C387,169.5,378.6,176,369,176z"/>
	<path class="st7" d="M264.2,175.5c-9.6,0-18-6.4-19.3-15.2c-0.6-4.3,0.5-8.7,3.2-12.2c3.1-4,8-6.7,13.4-7.3l0.7,6.1
		c-3.8,0.4-7.1,2.2-9.2,4.9c-1.7,2.2-2.4,4.9-2,7.5c0.9,6.2,7.6,10.6,14.8,9.9l0.7,6.1C265.8,175.5,265,175.5,264.2,175.5z"/>
	<path class="st7" d="M382.6,147h-6.2v-21.8c0-32.1-26.6-58.2-59.4-58.2h-1.6c-32.7,0-59.4,26.1-59.4,58.2V146H250v-20.8
		c0-35.5,29.4-64.4,65.5-64.4h1.6c36.1,0,65.5,28.9,65.5,64.4V147z"/>
	<path class="st7" d="M299.1,99.5c-1.5,0-2.8-1.1-3-2.7l-4-28.5c-0.2-1.7,0.9-3.2,2.6-3.5c1.7-0.2,3.2,0.9,3.5,2.6l4,28.5
		c0.2,1.7-0.9,3.2-2.6,3.5C299.4,99.5,299.2,99.5,299.1,99.5z"/>
	<path class="st7" d="M297.1,261.2c-1.7,0-3.1-1.4-3.1-3.1v-39c0-1.7,1.4-3.1,3.1-3.1s3.1,1.4,3.1,3.1v39
		C300.2,259.8,298.8,261.2,297.1,261.2z"/>
	<path class="st7" d="M273.9,269.7c-22.5-2.9-36.5-9.5-41.6-19.8c-3.7-7.6-2.5-16.7,3.5-27c9.6-16.4,14.5-34.8,14.2-53.2l6.2-0.1
		c0.3,19.5-4.9,39-15.1,56.4c-4.9,8.4-6.1,15.6-3.3,21.2c4.1,8.3,16.4,13.8,36.8,16.4L273.9,269.7z"/>
	<path class="st7" d="M339.9,167.6c-2.5,0-4.6-2.1-4.6-4.6v-4c0-2.5,2.1-4.6,4.6-4.6c2.5,0,4.6,2.1,4.6,4.6v4
		C344.5,165.5,342.4,167.6,339.9,167.6z"/>
	<path class="st7" d="M293.3,167.6c-2.5,0-4.6-2.1-4.6-4.6v-4c0-2.5,2.1-4.6,4.6-4.6c2.5,0,4.6,2.1,4.6,4.6v4
		C297.9,165.5,295.9,167.6,293.3,167.6z"/>
	<path class="st7" d="M370.7,138.9c-0.2,0-0.4,0-0.6-0.1c-44.6-9.5-63.2-27.5-70.3-37.6c-4.8,15.7-13.4,24.8-20.1,29.8
		c-8.6,6.3-16.2,7.7-16.5,7.7c-1.7,0.3-3.3-0.8-3.6-2.5c-0.3-1.7,0.8-3.3,2.5-3.6l0,0c0.1,0,6.7-1.3,14.2-6.8
		c9.9-7.4,16.5-18.7,19.4-33.4l2.2-11l3.7,10.5c0,0.1,2.7,7.1,12.5,15.5c16.6,14.3,40.3,21.6,57.3,25.2c1.7,0.4,2.7,2,2.4,3.7
		C373.4,137.9,372.1,138.9,370.7,138.9z"/>
	<path class="st7" d="M345.2,146.8h-10.5c-1.7,0-3.1-1.4-3.1-3.1s1.4-3.1,3.1-3.1h10.5c1.7,0,3.1,1.4,3.1,3.1
		S346.9,146.8,345.2,146.8z"/>
	<path class="st7" d="M298.6,146.8h-10.5c-1.7,0-3.1-1.4-3.1-3.1s1.4-3.1,3.1-3.1h10.5c1.7,0,3.1,1.4,3.1,3.1
		S300.3,146.8,298.6,146.8z"/>
	<path class="st7" d="M318.5,196.3c-5.7,0-10.8-2.3-13-5.9c-0.9-1.5-0.4-3.3,1-4.2c1.5-0.9,3.3-0.4,4.2,1c0.9,1.5,3.9,3,7.8,3
		c3.9,0,6.7-1.5,7.7-2.9c1-1.4,2.9-1.8,4.3-0.8c1.4,1,1.8,2.9,0.8,4.3C328.9,194.2,324,196.3,318.5,196.3z"/>
	<path class="st7" d="M354.3,376.1h-68.4c-1.7,0-3.1-1.4-3.1-3.1s1.4-3.1,3.1-3.1h68.4c7.8,0,14.2-6.3,14.2-14v-44.2
		c0-1.7,1.4-3.1,3.1-3.1s3.1,1.4,3.1,3.1v44.2C374.8,367.1,365.6,376.1,354.3,376.1z"/>
	<path class="st7" d="M265.6,359h-6.2v-65.4c0-21.2,15.2-39.5,36-43.5l3-0.6l1.2,6.1l-3,0.6c-18,3.4-31,19.2-31,37.4V359z"/>
	<path class="st7" d="M318.5,283.9c-19.5,0-35.4-11.8-35.4-26.4v-3.1h6.2v3.1c0,11.1,13.1,20.2,29.3,20.2c10.2,0,19.8-3.8,25.1-9.9
		l2-2.3l4.6,4l-2,2.3C341.7,279.4,330.6,283.9,318.5,283.9z"/>
	<path class="st7" d="M393.8,199c-1.4,0-2.7-1-3-2.5l-5.1-26.7c-0.5-2.5,0.4-5,2.3-6.9c2.2-2.2,5.5-3.2,8.6-2.5
		c3.3,0.7,5.9,3.1,6.5,6.1l5.1,27.8c0.3,1.7-0.8,3.3-2.5,3.6c-1.7,0.3-3.3-0.8-3.6-2.5l-5.1-27.8c-0.1-0.6-0.7-1.1-1.6-1.2
		c-1.3-0.3-2.5,0.3-3,0.9c-0.3,0.3-0.7,0.8-0.5,1.4l5.1,26.7c0.3,1.7-0.8,3.3-2.5,3.6C394.2,199,394,199,393.8,199z"/>
	<path class="st7" d="M380.5,235.1c-2.5,0-4.9-1-6.7-2.8c-2.1-2.1-3-5-2.6-8l1.6-11.6c0.6-4.3,3.8-7.7,8.1-8.5l16-3
		c1.7-0.3,3.3,0.8,3.6,2.5c0.3,1.7-0.8,3.3-2.5,3.6l-16,3c-1.6,0.3-2.9,1.6-3.1,3.3l-1.6,11.6c-0.1,1,0.2,2,0.9,2.8
		c0.7,0.7,1.7,1.1,2.8,1c1.4-0.2,2.5-1.2,2.8-2.6l1.2-5.8c0.3-1.7,2-2.7,3.6-2.4c1.7,0.3,2.7,2,2.4,3.6l-1.2,5.8
		c-0.8,3.9-4.1,6.9-8.1,7.4C381.3,235,380.9,235.1,380.5,235.1z"/>
	<path class="st7" d="M416.7,336.4c-8.4,0-15.7-6.5-16.4-15.1l-6-70.8c-4.1-0.5-7.3-2.3-9.4-5.2c-4.9-6.7-1.8-17-1.6-17.5
		c0.5-1.6,2.2-2.5,3.9-2c1.6,0.5,2.5,2.2,2,3.9c-0.7,2.2-1.8,8.5,0.7,12c1.4,1.9,3.8,2.8,7.3,2.8l2.8,0l6.5,76.2
		c0.5,5.6,5.5,9.8,11.1,9.4c2.9-0.2,5.7-1.7,7.4-4.1s2.5-5.4,1.9-8.3l-23.3-114.7l-0.9-5l-17,3.2c-2.8,0.5-4.9,2.6-5.3,5.2l-0.2,1.2
		c-0.3,1.7-1.8,2.8-3.5,2.6c-1.7-0.3-2.8-1.8-2.6-3.5l0.2-1.2c0.8-5.1,4.9-9.3,10.3-10.3l23-4.4l2.1,11l23.3,114.7
		c0.9,4.6-0.2,9.4-3,13.2c-2.8,3.8-7.2,6.1-11.9,6.5C417.6,336.4,417.1,336.4,416.7,336.4z"/>
	<path class="st7" d="M340.9,223c-1.1,0-2.1-0.6-2.7-1.5L324.6,198c-1.3-2.2-1.3-4.8-0.1-7.2c1.3-2.8,4.1-4.8,7.2-5.2
		c3.4-0.5,6.6,1,8.1,3.7l14.1,24.6c0.8,1.5,0.3,3.4-1.1,4.2c-1.5,0.8-3.4,0.3-4.2-1.1l-14-24.6c-0.3-0.5-1-0.8-1.9-0.6
		c-1.3,0.2-2.2,1.1-2.6,1.8c-0.2,0.4-0.4,1-0.1,1.5l13.6,23.5c0.9,1.5,0.3,3.4-1.1,4.2C342,222.9,341.4,223,340.9,223z"/>
	<path class="st7" d="M338.2,261.8c-1.4,0-2.8-0.3-4.2-1c-2.7-1.3-4.5-3.7-5.1-6.6l-2.3-11.5c-0.8-4.2,1.1-8.5,4.8-10.6l14.1-8.2
		c1.5-0.9,3.4-0.3,4.2,1.1c0.9,1.5,0.3,3.4-1.1,4.2l-14.1,8.2c-1.4,0.8-2.2,2.5-1.9,4.1l2.3,11.5c0.2,1,0.9,1.9,1.8,2.3
		c0.9,0.5,2,0.5,2.9,0c1.3-0.6,2-2,1.8-3.4l-0.8-5.9c-0.2-1.7,1-3.2,2.7-3.5c1.7-0.2,3.2,1,3.5,2.7l0.8,5.9c0.5,4-1.6,7.9-5.2,9.7
		C341.1,261.4,339.6,261.8,338.2,261.8z"/>
	<path class="st7" d="M400.5,291.3c-1,0-1.9-0.5-2.5-1.3l-45.4-66.3l-2.6-4.4l-15,8.7c-2.5,1.4-3.8,4.1-3.3,6.7l0.2,1.2
		c0.3,1.7-0.8,3.3-2.5,3.6c-1.7,0.3-3.3-0.8-3.6-2.5l-0.2-1.2c-0.9-5.1,1.6-10.4,6.3-13.1l20.3-11.7l5.5,9.6l45.3,66.1
		c1,1.4,0.6,3.3-0.8,4.3C401.7,291.1,401.1,291.3,400.5,291.3z"/>
	<path class="st7" d="M377.4,291.1c-1,0-2-0.5-2.6-1.4l-16-25c-4.3,0.8-8,0.1-11-2.1c-6.6-5-6.6-15.8-6.6-16.3c0-1.7,1.4-3,3.1-3
		c0,0,0,0,0,0c1.7,0,3.1,1.4,3,3.1l0,0c0,2.3,0.7,8.7,4.2,11.3c1.9,1.4,4.4,1.6,7.8,0.6l2.2-0.7l18.4,28.8c0.9,1.4,0.5,3.3-0.9,4.3
		C378.5,291,377.9,291.1,377.4,291.1z"/>
	<path class="st8" d="M363.3,198.3c-1.4,0-2.8-0.1-4.3-0.3c-1.7-0.2-2.9-1.8-2.6-3.5c0.2-1.7,1.8-2.9,3.5-2.6
		c5.1,0.7,9.1-0.1,11.9-2.3c3.9-3.1,4.4-8.2,4.4-8.3c0.1-1.7,1.6-3,3.3-2.8c1.7,0.1,3,1.6,2.8,3.3c0,0.3-0.7,7.8-6.7,12.6
		C372.3,197,368.2,198.3,363.3,198.3z"/>
	<path class="st8" d="M365.2,204.4c-0.8,0-1.5-0.3-2.1-0.9l-8.8-8.4l7.6-7.9c1.2-1.2,3.1-1.3,4.4-0.1c1.2,1.2,1.3,3.1,0.1,4.4
		L363,195l4.3,4.1c1.2,1.2,1.3,3.1,0.1,4.4C366.8,204.1,366,204.4,365.2,204.4z"/>
	<path class="st7" d="M285.9,375.5c-1.7,0-3.1-1.4-3.1-3.1v-58.2h-20.3c-1.7,0-3.1-1.4-3.1-3.1s1.4-3.1,3.1-3.1H289v64.4
		C289,374.1,287.6,375.5,285.9,375.5z"/>
	<path class="st4" d="M367.7,272.5"/>
	<path class="st4" d="M346.1,247.6"/>
</g>
<g>
	<path class="st8" d="M201.9,377.2c-22.2,0-40.2-18.1-40.2-40.2c0-22.2,18.1-40.2,40.2-40.2s40.2,18.1,40.2,40.2
		C242.1,359.2,224.1,377.2,201.9,377.2z M201.9,304.5c-17.9,0-32.5,14.6-32.5,32.5c0,17.9,14.6,32.5,32.5,32.5s32.5-14.6,32.5-32.5
		C234.4,319.1,219.8,304.5,201.9,304.5z"/>
	<path class="st8" d="M198.5,355.6l20.6-16c2.1-1.7,2.1-4.9,0-6.6l-20.6-16c-2.7-2.1-6.7-0.2-6.7,3.3v32
		C191.8,355.8,195.8,357.8,198.5,355.6z"/>
</g>
<text transform="matrix(1 0 0 1 585.9992 417.9559)" class="st0 st1 st2">Quero ver o vídeo</text>
<g>
	<path class="st6" d="M786.3,181.8l-5.9-1.9c1.9-5.9,2.9-11.5,2.9-16v-26.7h6.2v26.7C789.5,169.1,788.4,175.3,786.3,181.8z"/>
	<path class="st7" d="M738.6,227.7h-5c-14.3,0-28.4-7.8-39.7-21.9c-10.1-12.7-16.2-28.3-16.2-41.9v-26h6.2v26c0,12,5.7,26.6,14.8,38
		c13.6,17.1,27.7,19.6,34.9,19.6h5V227.7z"/>
	<path class="st7" d="M786,177c-0.8,0-1.5,0-2.3-0.1l0.7-6.1c7.2,0.8,13.9-3.6,14.8-9.9c0.4-2.6-0.3-5.3-2-7.5
		c-2.1-2.7-5.4-4.5-9.2-4.9l0.7-6.1c5.4,0.6,10.3,3.2,13.4,7.3c2.7,3.6,3.9,7.9,3.3,12.2C804,170.5,795.6,177,786,177z"/>
	<path class="st7" d="M681.2,176.5c-9.6,0-18-6.4-19.3-15.2c-0.6-4.3,0.5-8.7,3.2-12.2c3.1-4,8-6.7,13.4-7.3l0.7,6.1
		c-3.8,0.4-7.1,2.2-9.2,4.9c-1.7,2.2-2.4,4.9-2,7.5c0.9,6.2,7.6,10.6,14.8,9.9l0.7,6.1C682.8,176.5,682,176.5,681.2,176.5z"/>
	<path class="st7" d="M799.6,148h-6.2v-21.8c0-32.1-26.6-58.2-59.4-58.2h-1.6c-32.7,0-59.4,26.1-59.4,58.2V147H667v-20.8
		c0-35.5,29.4-64.4,65.5-64.4h1.6c36.1,0,65.5,28.9,65.5,64.4V148z"/>
	<path class="st7" d="M716.1,100.5c-1.5,0-2.8-1.1-3-2.7l-4-28.5c-0.2-1.7,0.9-3.2,2.6-3.5c1.7-0.2,3.2,0.9,3.5,2.6l4,28.5
		c0.2,1.7-0.9,3.2-2.6,3.5C716.4,100.5,716.2,100.5,716.1,100.5z"/>
	<path class="st7" d="M714.1,262.2c-1.7,0-3.1-1.4-3.1-3.1v-39c0-1.7,1.4-3.1,3.1-3.1c1.7,0,3.1,1.4,3.1,3.1v39
		C717.2,260.8,715.8,262.2,714.1,262.2z"/>
	<path class="st7" d="M690.9,270.7c-22.5-2.9-36.5-9.5-41.6-19.8c-3.7-7.6-2.5-16.7,3.5-27c9.6-16.4,14.5-34.8,14.2-53.2l6.2-0.1
		c0.3,19.5-4.9,39-15.1,56.4c-4.9,8.4-6.1,15.6-3.3,21.2c4.1,8.3,16.4,13.8,36.8,16.4L690.9,270.7z"/>
	<path class="st7" d="M756.9,168.6c-2.5,0-4.6-2.1-4.6-4.6v-4c0-2.5,2.1-4.6,4.6-4.6s4.6,2.1,4.6,4.6v4
		C761.5,166.5,759.4,168.6,756.9,168.6z"/>
	<path class="st7" d="M710.3,168.6c-2.5,0-4.6-2.1-4.6-4.6v-4c0-2.5,2.1-4.6,4.6-4.6s4.6,2.1,4.6,4.6v4
		C714.9,166.5,712.9,168.6,710.3,168.6z"/>
	<path class="st7" d="M787.7,139.9c-0.2,0-0.4,0-0.6-0.1c-44.6-9.5-63.2-27.5-70.3-37.6c-4.8,15.7-13.4,24.8-20.1,29.8
		c-8.6,6.3-16.2,7.7-16.5,7.7c-1.7,0.3-3.3-0.8-3.6-2.5c-0.3-1.7,0.8-3.3,2.5-3.6l0,0c0.1,0,6.7-1.3,14.2-6.8
		c9.9-7.4,16.5-18.7,19.4-33.4l2.2-11l3.7,10.5c0,0.1,2.7,7.1,12.5,15.5c16.6,14.3,40.3,21.6,57.3,25.2c1.7,0.4,2.7,2,2.4,3.7
		C790.4,138.9,789.1,139.9,787.7,139.9z"/>
	<path class="st7" d="M762.2,147.8h-10.5c-1.7,0-3.1-1.4-3.1-3.1s1.4-3.1,3.1-3.1h10.5c1.7,0,3.1,1.4,3.1,3.1
		S763.9,147.8,762.2,147.8z"/>
	<path class="st7" d="M715.6,147.8h-10.5c-1.7,0-3.1-1.4-3.1-3.1s1.4-3.1,3.1-3.1h10.5c1.7,0,3.1,1.4,3.1,3.1
		S717.3,147.8,715.6,147.8z"/>
	<path class="st7" d="M735.5,197.3c-5.7,0-10.8-2.3-13-5.9c-0.9-1.5-0.4-3.3,1-4.2c1.5-0.9,3.3-0.4,4.2,1c0.9,1.5,3.9,3,7.8,3
		c3.9,0,6.7-1.5,7.7-2.9c1-1.4,2.9-1.8,4.3-0.8c1.4,1,1.8,2.9,0.8,4.3C745.9,195.2,741,197.3,735.5,197.3z"/>
	<path class="st7" d="M771.3,377.1h-68.4c-1.7,0-3.1-1.4-3.1-3.1s1.4-3.1,3.1-3.1h68.4c7.8,0,14.2-6.3,14.2-14v-44.2
		c0-1.7,1.4-3.1,3.1-3.1s3.1,1.4,3.1,3.1v44.2C791.8,368.1,782.6,377.1,771.3,377.1z"/>
	<path class="st7" d="M682.6,360h-6.2v-65.4c0-21.2,15.2-39.5,36-43.5l3-0.6l1.2,6.1l-3,0.6c-18,3.4-31,19.2-31,37.4V360z"/>
	<path class="st7" d="M735.5,284.9c-19.5,0-35.4-11.8-35.4-26.4v-3.1h6.2v3.1c0,11.1,13.1,20.2,29.3,20.2c10.2,0,19.8-3.8,25.1-9.9
		l2-2.3l4.6,4l-2,2.3C758.7,280.4,747.6,284.9,735.5,284.9z"/>
	<path class="st7" d="M810.8,200c-1.4,0-2.7-1-3-2.5l-5.1-26.7c-0.5-2.5,0.4-5,2.3-6.9c2.2-2.2,5.5-3.2,8.6-2.5
		c3.3,0.7,5.9,3.1,6.5,6.1l5.1,27.8c0.3,1.7-0.8,3.3-2.5,3.6c-1.7,0.3-3.3-0.8-3.6-2.5l-5.1-27.8c-0.1-0.6-0.7-1.1-1.6-1.2
		c-1.3-0.3-2.5,0.3-3,0.9c-0.3,0.3-0.7,0.8-0.5,1.4l5.1,26.7c0.3,1.7-0.8,3.3-2.5,3.6C811.2,200,811,200,810.8,200z"/>
	<path class="st7" d="M797.5,236.1c-2.5,0-4.9-1-6.7-2.8c-2.1-2.1-3-5-2.6-8l1.6-11.6c0.6-4.3,3.8-7.7,8.1-8.5l16-3
		c1.7-0.3,3.3,0.8,3.6,2.5c0.3,1.7-0.8,3.3-2.5,3.6l-16,3c-1.6,0.3-2.9,1.6-3.1,3.3l-1.6,11.6c-0.1,1,0.2,2,0.9,2.8
		c0.7,0.7,1.7,1.1,2.8,1c1.4-0.2,2.5-1.2,2.8-2.6l1.2-5.8c0.3-1.7,2-2.7,3.6-2.4c1.7,0.3,2.7,2,2.4,3.6l-1.2,5.8
		c-0.8,3.9-4.1,6.9-8.1,7.4C798.3,236,797.9,236.1,797.5,236.1z"/>
	<path class="st7" d="M833.7,337.4c-8.4,0-15.7-6.5-16.4-15.1l-6-70.8c-4.1-0.5-7.3-2.3-9.4-5.2c-4.9-6.7-1.8-17-1.6-17.5
		c0.5-1.6,2.2-2.5,3.9-2c1.6,0.5,2.5,2.2,2,3.9c-0.7,2.2-1.8,8.5,0.7,12c1.4,1.9,3.8,2.8,7.3,2.8l2.8,0l6.5,76.2
		c0.5,5.6,5.5,9.8,11.1,9.4c2.9-0.2,5.7-1.7,7.4-4.1s2.5-5.4,1.9-8.3l-23.3-114.7l-0.9-5l-17,3.2c-2.8,0.5-4.9,2.6-5.3,5.2l-0.2,1.2
		c-0.3,1.7-1.8,2.8-3.5,2.6c-1.7-0.3-2.8-1.8-2.6-3.5l0.2-1.2c0.8-5.1,4.9-9.3,10.3-10.3l23-4.4l2.1,11l23.3,114.7
		c0.9,4.6-0.2,9.4-3,13.2c-2.8,3.8-7.2,6.1-11.9,6.5C834.6,337.4,834.1,337.4,833.7,337.4z"/>
	<path class="st7" d="M757.9,224c-1.1,0-2.1-0.6-2.7-1.5L741.6,199c-1.3-2.2-1.3-4.8-0.1-7.2c1.3-2.8,4.1-4.8,7.2-5.2
		c3.4-0.5,6.6,1,8.1,3.7l14.1,24.6c0.8,1.5,0.3,3.4-1.1,4.2c-1.5,0.8-3.4,0.3-4.2-1.1l-14-24.6c-0.3-0.5-1-0.8-1.9-0.6
		c-1.3,0.2-2.2,1.1-2.6,1.8c-0.2,0.4-0.4,1-0.1,1.5l13.6,23.5c0.9,1.5,0.3,3.4-1.1,4.2C759,223.9,758.4,224,757.9,224z"/>
	<path class="st7" d="M755.2,262.8c-1.4,0-2.8-0.3-4.2-1c-2.7-1.3-4.5-3.7-5.1-6.6l-2.3-11.5c-0.8-4.2,1.1-8.5,4.8-10.6l14.1-8.2
		c1.5-0.9,3.4-0.3,4.2,1.1c0.9,1.5,0.3,3.4-1.1,4.2l-14.1,8.2c-1.4,0.8-2.2,2.5-1.9,4.1l2.3,11.5c0.2,1,0.9,1.9,1.8,2.3
		c0.9,0.5,2,0.5,2.9,0c1.3-0.6,2-2,1.8-3.4l-0.8-5.9c-0.2-1.7,1-3.2,2.7-3.5c1.7-0.2,3.2,1,3.5,2.7l0.8,5.9c0.5,4-1.6,7.9-5.2,9.7
		C758.1,262.4,756.6,262.8,755.2,262.8z"/>
	<path class="st7" d="M817.5,292.3c-1,0-1.9-0.5-2.5-1.3l-45.4-66.3l-2.6-4.4l-15,8.7c-2.5,1.4-3.8,4.1-3.3,6.7l0.2,1.2
		c0.3,1.7-0.8,3.3-2.5,3.6c-1.7,0.3-3.3-0.8-3.6-2.5l-0.2-1.2c-0.9-5.1,1.6-10.4,6.3-13.1l20.3-11.7l5.5,9.6l45.3,66.1
		c1,1.4,0.6,3.3-0.8,4.3C818.7,292.1,818.1,292.3,817.5,292.3z"/>
	<path class="st7" d="M794.4,292.1c-1,0-2-0.5-2.6-1.4l-16-25c-4.3,0.8-8,0.1-11-2.1c-6.6-5-6.6-15.8-6.6-16.3c0-1.7,1.4-3,3.1-3
		c0,0,0,0,0,0c1.7,0,3.1,1.4,3,3.1l0,0c0,2.3,0.7,8.7,4.2,11.3c1.9,1.4,4.4,1.6,7.8,0.6l2.2-0.7l18.4,28.8c0.9,1.4,0.5,3.3-0.9,4.3
		C795.5,292,794.9,292.1,794.4,292.1z"/>
	<path class="st7" d="M780.3,199.3c-1.4,0-2.8-0.1-4.3-0.3c-1.7-0.2-2.9-1.8-2.6-3.5c0.2-1.7,1.8-2.9,3.5-2.6
		c5.1,0.7,9.1-0.1,11.9-2.3c3.9-3.1,4.4-8.2,4.4-8.3c0.1-1.7,1.6-3,3.3-2.8c1.7,0.1,3,1.6,2.8,3.3c0,0.3-0.7,7.8-6.7,12.6
		C789.3,198,785.2,199.3,780.3,199.3z"/>
	<path class="st7" d="M782.2,205.4c-0.8,0-1.5-0.3-2.1-0.9l-8.8-8.4l7.6-7.9c1.2-1.2,3.1-1.3,4.4-0.1c1.2,1.2,1.3,3.1,0.1,4.4
		L780,196l4.3,4.1c1.2,1.2,1.3,3.1,0.1,4.4C783.8,205.1,783,205.4,782.2,205.4z"/>
	<path class="st7" d="M702.9,376.5c-1.7,0-3.1-1.4-3.1-3.1v-58.2h-20.3c-1.7,0-3.1-1.4-3.1-3.1s1.4-3.1,3.1-3.1H706v64.4
		C706,375.1,704.6,376.5,702.9,376.5z"/>
	<path class="st4" d="M784.7,273.5"/>
	<path class="st4" d="M763.1,248.6"/>
</g>
<g>
	<path class="st9" d="M618.9,378.2c-22.2,0-40.2-18.1-40.2-40.2c0-22.2,18.1-40.2,40.2-40.2c22.2,0,40.2,18.1,40.2,40.2
		C659.1,360.2,641.1,378.2,618.9,378.2z M618.9,305.5c-17.9,0-32.5,14.6-32.5,32.5c0,17.9,14.6,32.5,32.5,32.5
		c17.9,0,32.5-14.6,32.5-32.5C651.4,320.1,636.8,305.5,618.9,305.5z"/>
	<path class="st9" d="M615.5,356.6l20.6-16c2.1-1.7,2.1-4.9,0-6.6l-20.6-16c-2.7-2.1-6.7-0.2-6.7,3.3v32
		C608.8,356.8,612.8,358.8,615.5,356.6z"/>
</g>
</svg>
