<?xml version="1.0" encoding="utf-8"?>
<!-- Generator: Adobe Illustrator 23.0.4, SVG Export Plug-In . SVG Version: 6.00 Build 0)  -->
<svg version="1.1" id="Camada_1" xmlns="http://www.w3.org/2000/svg" xmlns:xlink="http://www.w3.org/1999/xlink" x="0px" y="0px"
	 viewBox="0 0 594 369" style="enable-background:new 0 0 594 369;" xml:space="preserve">
<style type="text/css">
	.st0{fill:#FBBC1F;}
	.st1{fill:#F8FCFC;}
	.st2{fill:#FFBD17;}
	.st3{fill:#F7FBFB;}
</style>
<circle class="st0" cx="175.3" cy="190.9" r="97.5"/>
<g>
	<path class="st1" d="M180.5,121.2c-21.1,0-34,9.3-40,22.4c-2.8,6.2,0.9,13.4,7.6,14.5c4.5,0.7,8.9-1.6,10.6-5.8
		c3.8-9.3,10.8-12.7,20.4-12.7c11.4,0,19.8,5.3,19.8,19.4c0,19.3-16.9,25.3-34.7,27.2c-1.4,0.2-2.5,1.4-2.5,2.8v20
		c0,5.6,4.6,10.2,10.2,10.2s10.2-4.6,10.2-10.2v-9.3c23.1-4.9,38.9-17.3,38.9-41.6C221,130.1,201.6,121.2,180.5,121.2z"/>
	<path class="st1" d="M183.5,238.2h-5.3v-6.3c0-3.2-2.6-5.8-5.8-5.8H171c-3.2,0-5.8,2.6-5.8,5.8v6.3H160c-3.2,0-5.8,2.6-5.8,5.8l0,0
		c0,3.2,2.6,5.8,5.8,5.8h5.3v6.3c0,3.2,2.6,5.8,5.8,5.8h1.4c3.2,0,5.8-2.6,5.8-5.8v-6.3h5.3c3.2,0,5.8-2.6,5.8-5.8l0,0
		C189.3,240.8,186.7,238.2,183.5,238.2z"/>
</g>
<g>
	<g>
		
			<image style="overflow:visible;opacity:0.25;" width="226" height="226" xlink:href="EBE03736E0D614E7.png"  transform="matrix(1 0 0 1 319.6945 78.9949)">
		</image>
		<g>
			<circle class="st2" cx="431.8" cy="190.9" r="97.5"/>
		</g>
	</g>
	<g>
		<path class="st3" d="M437,121.2c-21.1,0-34,9.3-40,22.4c-2.8,6.2,0.9,13.4,7.6,14.5c4.5,0.7,8.9-1.6,10.6-5.8
			c3.8-9.3,10.8-12.7,20.4-12.7c11.4,0,19.8,5.3,19.8,19.4c0,19.3-16.9,25.3-34.7,27.2c-1.4,0.2-2.5,1.4-2.5,2.8v20
			c0,5.6,4.6,10.2,10.2,10.2c5.6,0,10.2-4.6,10.2-10.2v-9.3c23.1-4.9,38.9-17.3,38.9-41.6C477.5,130.1,458.1,121.2,437,121.2z"/>
		<path class="st3" d="M440,238.2h-5.3v-6.3c0-3.2-2.6-5.8-5.8-5.8h-1.4c-3.2,0-5.8,2.6-5.8,5.8v6.3h-5.3c-3.2,0-5.8,2.6-5.8,5.8v0
			c0,3.2,2.6,5.8,5.8,5.8h5.3v6.3c0,3.2,2.6,5.8,5.8,5.8h1.4c3.2,0,5.8-2.6,5.8-5.8v-6.3h5.3c3.2,0,5.8-2.6,5.8-5.8v0
			C445.8,240.7,443.2,238.2,440,238.2z"/>
	</g>
</g>
</svg>
