<?xml version="1.0" encoding="utf-8"?>
<!-- Generator: Adobe Illustrator 23.0.4, SVG Export Plug-In . SVG Version: 6.00 Build 0)  -->
<svg version="1.1" id="Camada_1" xmlns="http://www.w3.org/2000/svg" xmlns:xlink="http://www.w3.org/1999/xlink" x="0px" y="0px"
	 viewBox="0 0 526 419" style="enable-background:new 0 0 526 419;" xml:space="preserve">
<style type="text/css">
	.st0{fill:#FFBD17;}
	.st1{fill:#758596;}
</style>
<g>
	<path class="st0" d="M400.1,170.6c-1.1-4.5-6.8-6.1-10.1-2.8l-26.7,26.7c-5.9,5.9-15.6,5.9-21.5,0l-12.3-12.3
		c-5.9-5.9-5.9-15.6,0-21.5l26.4-26.4c3.3-3.3,1.7-9-2.9-10.1c-6.3-1.5-12.9-2-19.7-1.5c-29.3,2.3-56.3,29.8-58.1,59.1
		c-0.7,11.1,1.6,21.6,5.9,31l-93.5,80.4c-4.2,3.6-6.7,8.8-7,14.3c-0.2,5.5,1.8,10.9,5.7,14.9l15.8,16.1c3.9,4,9.3,6.2,14.9,6
		c5.6-0.2,10.9-2.7,14.5-6.9l81-93.8c9,4,19.2,6.1,29.9,5.4c29.5-1.8,57-29,59.2-58.5C402.3,183.8,401.7,177,400.1,170.6z"/>
</g>
<g>
	<path class="st1" d="M209.3,337.2c-7.1,0-13.9-2.9-18.8-7.9l-15.8-16.1c-5.1-5.2-7.8-12.3-7.5-19.6c0.3-7.3,3.6-14.1,9.2-18.9
		l90-77.3c-3.7-9.5-5.2-19.4-4.6-29.6c2-32.7,31.3-62.5,63.9-65.1c7.3-0.6,14.6,0,21.6,1.6c4.3,1,7.8,4.3,9,8.6
		c1.2,4.3,0,8.9-3.1,12.1l-26.4,26.4c-1.7,1.7-2.6,3.9-2.6,6.3c0,2.4,0.9,4.6,2.6,6.3l12.3,12.3c3.5,3.5,9.1,3.5,12.6,0l26.7-26.7
		c3.2-3.2,7.7-4.4,12-3.2c4.3,1.2,7.6,4.6,8.7,8.9v0c1.8,7.2,2.4,14.6,1.9,22.1c-2.4,32.8-32.2,62.3-65.1,64.4
		c-9.8,0.6-19.3-0.8-28.4-4.2l-78,90.4c-4.8,5.6-11.8,8.9-19.1,9.1C209.8,337.2,209.5,337.2,209.3,337.2z M331.2,115.2
		c-1.6,0-3.1,0.1-4.7,0.2c-26.2,2.1-50.6,27-52.3,53.2c-0.6,9.7,1.2,19.1,5.3,27.9l2,4.4l-97.2,83.5c-2.9,2.5-4.6,6-4.8,9.8
		c-0.2,3.8,1.3,7.5,3.9,10.2l15.8,16.1c2.7,2.7,6.4,4.2,10.2,4.1c3.8-0.1,7.4-1.9,9.9-4.7l84.1-97.4l4.3,1.9
		c8.6,3.8,17.6,5.5,26.9,4.9c26.4-1.7,51.3-26.3,53.2-52.7c0.4-6,0-11.9-1.4-17.6l-26.3,26.3c-8.4,8.4-22.1,8.4-30.5,0L317.6,173
		c-4.1-4.1-6.3-9.5-6.3-15.2c0-5.8,2.2-11.2,6.3-15.2l26-26C339.6,115.7,335.4,115.2,331.2,115.2z M386.6,158.4
		C386.6,158.4,386.6,158.4,386.6,158.4C386.6,158.4,386.6,158.4,386.6,158.4L386.6,158.4z"/>
</g>
</svg>
