<?xml version="1.0" encoding="utf-8"?>
<!-- Generator: Adobe Illustrator 23.0.4, SVG Export Plug-In . SVG Version: 6.00 Build 0)  -->
<svg version="1.1" id="Camada_1" xmlns="http://www.w3.org/2000/svg" xmlns:xlink="http://www.w3.org/1999/xlink" x="0px" y="0px"
	 viewBox="0 0 526 419" style="enable-background:new 0 0 526 419;" xml:space="preserve">
<style type="text/css">
	.st0{fill:none;stroke:#FFBD17;stroke-width:6;stroke-miterlimit:10;}
	.st1{fill:#FFBD17;}
	.st2{fill:#758596;}
</style>
<path class="st0" d="M189.7,304.1c0,11.8,9.5,21.3,21.3,21.3h144.4c11.8,0,21.3-9.5,21.3-21.3V164.5c0-11.8-9.5-21.3-21.3-21.3H211
	c-11.8,0-21.3,9.5-21.3,21.3V304.1z"/>
<g>
	<path class="st1" d="M283.1,177.3c15.3,0,27.8,12.4,27.8,27.8c0,15.3-12.4,27.8-27.8,27.8c-15.3,0-27.8-12.4-27.8-27.8
		C255.4,189.8,267.8,177.3,283.1,177.3z"/>
	<path class="st1" d="M283.1,246.8c-27.8,0-50.3,22.5-50.3,50.3h100.7C333.5,269.3,310.9,246.8,283.1,246.8z"/>
</g>
<g>
	<g>
		<path class="st2" d="M265.5,231.8c-18.2,0-32.9-14.8-32.9-32.9c0-18.2,14.8-32.9,32.9-32.9c18.2,0,32.9,14.8,32.9,32.9
			C298.4,217,283.7,231.8,265.5,231.8z M265.5,176.2c-12.5,0-22.6,10.1-22.6,22.6c0,12.5,10.1,22.6,22.6,22.6
			c12.5,0,22.6-10.1,22.6-22.6C288.1,186.4,278,176.2,265.5,176.2z"/>
		<path class="st2" d="M321,296H210v-5.2c0-30.6,24.9-55.5,55.5-55.5s55.5,24.9,55.5,55.5V296z M220.6,285.7h89.8
			c-2.6-22.5-21.7-40-44.9-40C242.3,245.7,223.2,263.2,220.6,285.7z"/>
	</g>
</g>
<path class="st2" d="M337.7,330.5H193.3c-14.6,0-26.4-11.9-26.4-26.5V164.5c0-14.6,11.9-26.5,26.4-26.5h144.4
	c14.6,0,26.5,11.9,26.5,26.5v139.6C364.1,318.7,352.3,330.5,337.7,330.5z M193.3,148.3c-8.9,0-16.1,7.2-16.1,16.1v139.6
	c0,8.9,7.2,16.1,16.1,16.1h144.4c8.9,0,16.1-7.2,16.1-16.1V164.5c0-8.9-7.2-16.1-16.1-16.1H193.3z"/>
</svg>
