<?xml version="1.0" encoding="utf-8"?>
<!-- Generator: Adobe Illustrator 23.0.4, SVG Export Plug-In . SVG Version: 6.00 Build 0)  -->
<svg version="1.1" id="Camada_1" xmlns="http://www.w3.org/2000/svg" xmlns:xlink="http://www.w3.org/1999/xlink" x="0px" y="0px"
	 viewBox="0 0 526 419" style="enable-background:new 0 0 526 419;" xml:space="preserve">
<style type="text/css">
	.st0{fill:#FFBD17;}
	.st1{fill:#758596;}
</style>
<path class="st0" d="M223.3,219.4c1.6,0,3-0.6,4.1-1.7c1-1,1.5-2.4,1.4-3.8v-13.7c0-3-2.5-5.5-5.5-5.5h-13.7c-3,0-5.5,2.5-5.5,5.5
	v13.7c0,3,2.5,5.5,5.5,5.5H223.3z"/>
<path class="st0" d="M255.1,219.4h13.7c3,0,5.5-2.5,5.5-5.5v-13.7c0-3-2.5-5.5-5.5-5.5h-13.7c-3,0-5.5,2.5-5.5,5.5v13.7
	C249.6,216.9,252.1,219.4,255.1,219.4z"/>
<path class="st0" d="M298.6,219.4h13.7c3.1,0,5.5-2.4,5.5-5.5v-13.7c0-3-2.5-5.5-5.5-5.5h-13.7c-3,0-5.5,2.5-5.5,5.5v13.7
	C293.1,216.9,295.6,219.4,298.6,219.4z"/>
<path class="st0" d="M268.9,228.5h-13.7c-3,0-5.5,2.5-5.5,5.5v13.8c0,3,2.5,5.5,5.5,5.5h13.7c3,0,5.5-2.5,5.5-5.6V234
	C274.4,231,272,228.5,268.9,228.5z"/>
<path class="st0" d="M312.5,228.5h-13.7c-3,0-5.5,2.5-5.5,5.5v13.8c0,3,2.5,5.5,5.5,5.5h13.7c3,0,5.5-2.5,5.5-5.6V234
	C318,231,315.5,228.5,312.5,228.5z"/>
<path class="st0" d="M326.1,155.5H195.8c-8.2,0-14.9,6.7-14.9,14.9v17.3H341v-17.3C341,162.2,334.3,155.5,326.1,155.5z"/>
<g>
	<path class="st0" d="M192.6,226.3c-22.5,0-40.8,18.3-40.8,40.8c0,22.5,18.3,40.8,40.8,40.8c22.5,0,40.8-18.3,40.8-40.8h-40.8
		L192.6,226.3z"/>
</g>
<g>
	<g>
		<g>
			<path class="st1" d="M320.9,152.2h-16.7v-9.4c0-2.4-2-4.4-4.4-4.4H289c-2.4,0-4.4,2-4.4,4.4v9.4h-57.4c-0.4,0-0.7,0.1-1,0.2v-9.6
				c0-2.4-2-4.4-4.4-4.4h-10.9c-2.4,0-4.4,2-4.4,4.4v9.4h-15.5c-0.4,0-0.8,0-1.2,0c-7.7,0.7-13.8,7.7-13.8,16V212
				c0,1.6,1.2,2.8,2.8,2.8c1.6,0,2.8-1.2,2.8-2.8v-29.3h148.2v98.2c0,6.9-5.6,7.9-8.9,7.9h-95.2c-1.6,0-2.8,1.2-2.8,2.8
				c0,1.6,1.2,2.8,2.8,2.8h95.1c8.8,0,14.5-5.3,14.5-13.5V168.2C335.4,159.4,328.9,152.2,320.9,152.2z M290.3,144h8.4v17
				c0,1.2-0.9,2.1-2.1,2.1h-4.1c-1.2,0-2.1-0.9-2.1-2.1L290.3,144L290.3,144z M212.2,144h8.4v17c0,1.2-0.9,2.1-2.1,2.1h-4.1
				c-1.2,0-2.1-0.9-2.1-2.1L212.2,144L212.2,144z M181.7,177.1v-8.9c0-5.4,3.8-10,8.7-10.4c0.3,0,0.5,0,0.8,0h15.5v3.3
				c0,4.3,3.5,7.8,7.8,7.8h4.1c4.3,0,7.8-3.5,7.8-7.8v-3.5c0.3,0.1,0.7,0.2,1,0.2h57.4v3.3c0,4.3,3.5,7.8,7.8,7.8h4.1
				c4.3,0,7.8-3.5,7.8-7.8v-3.3h16.7c4.9,0,8.9,4.7,8.9,10.4v8.9H181.7z"/>
			<path class="st1" d="M320.9,294.9h-95.1c-1.8,0-3.3-1.5-3.3-3.3c0-1.8,1.5-3.3,3.3-3.3h95.2c3.1,0,8.4-1,8.4-7.4v-97.7H182.2V212
				c0,1.8-1.5,3.3-3.3,3.3s-3.3-1.5-3.3-3.3v-43.8c0-8.5,6.3-15.8,14.3-16.5c0.2,0,0.4,0,0.6,0c0.2,0,0.4,0,0.6,0h15v-8.9
				c0-2.7,2.2-4.9,4.9-4.9h10.9c2.7,0,4.9,2.2,4.9,4.9v8.9c0.2,0,0.3,0,0.5,0h56.9v-8.9c0-2.7,2.2-4.9,4.9-4.9h10.9
				c2.7,0,4.9,2.2,4.9,4.9v8.9h16.1c3.8,0,7.3,1.5,10.1,4.3c3.1,3.1,4.9,7.6,4.9,12.2v112.8C335.9,289.4,330,294.9,320.9,294.9z
				 M225.7,289.3c-1.3,0-2.3,1-2.3,2.3c0,1.3,1,2.3,2.3,2.3h95.1c8.5,0,14-5.1,14-13V168.2c0-4.3-1.7-8.5-4.6-11.5
				c-2.6-2.6-5.9-4-9.4-4h-17.2v-9.9c0-2.1-1.7-3.8-3.8-3.8H289c-2.1,0-3.8,1.7-3.8,3.8v9.9h-58c-0.3,0-0.6,0.1-0.8,0.2l-0.7,0.3
				v-10.3c0-2.1-1.7-3.8-3.8-3.8h-10.9c-2.1,0-3.8,1.7-3.8,3.8v9.9h-16c-0.2,0-0.4,0-0.6,0c-0.2,0-0.4,0-0.6,0
				c-7.4,0.7-13.3,7.4-13.3,15.5V212c0,1.3,1,2.3,2.3,2.3s2.3-1,2.3-2.3v-29.8h149.2v98.8c0,7.6-6.6,8.4-9.4,8.4H225.7z
				 M330.3,177.6H181.1v-9.4c0-5.7,4-10.4,9.1-10.9c0.3,0,0.5,0,0.8,0h16v3.8c0,4,3.2,7.2,7.2,7.2h4.1c4,0,7.2-3.2,7.2-7.2v-4.2
				l0.7,0.3c0.3,0.1,0.6,0.2,0.8,0.2h57.9v3.8c0,4,3.2,7.2,7.2,7.2h4.1c4,0,7.2-3.2,7.2-7.2v-3.8h17.2c5.2,0,9.4,4.9,9.4,10.9V177.6
				z M182.2,176.5h147.1v-8.3c0-5.5-3.8-9.9-8.4-9.9h-16.1v2.8c0,4.6-3.7,8.3-8.3,8.3h-4.1c-4.6,0-8.3-3.7-8.3-8.3v-2.8h-56.9
				c-0.2,0-0.3,0-0.5,0v2.8c0,4.6-3.7,8.3-8.3,8.3h-4.1c-4.6,0-8.3-3.7-8.3-8.3v-2.8h-15c-0.3,0-0.4,0-0.7,0
				c-4.6,0.4-8.2,4.7-8.2,9.9V176.5z M296.5,163.7h-4.1c-1.5,0-2.6-1.2-2.6-2.6v-17h0.5v-0.5h8.9v17.5
				C299.2,162.5,298,163.7,296.5,163.7z M290.8,144.5v16.5c0,0.9,0.7,1.6,1.6,1.6h4.1c0.9,0,1.6-0.7,1.6-1.6v-16.5H290.8z
				 M218.5,163.7h-4.1c-1.5,0-2.6-1.2-2.6-2.6v-17h0.5v-0.5h8.9v17.5C221.1,162.5,219.9,163.7,218.5,163.7z M212.7,144.5v16.5
				c0,0.9,0.7,1.6,1.6,1.6h4.1c0.9,0,1.6-0.7,1.6-1.6v-16.5H212.7z"/>
		</g>
		<g>
			<path class="st1" d="M228,265.6c-1.5-0.3-2.9,0.6-3.2,2.1c-2.4,10.9-9.5,20.1-19.5,25.1c-7.5,3.8-16.2,4.8-24.4,3.1
				c-19.9-4.4-32.5-24.1-28.2-43.9c4.4-19.9,24.1-32.5,43.9-28.2c6.8,1.5,13,4.8,18,9.7c2.6,2.6,4.8,5.5,6.6,8.7l-7.5-1.6
				c-1.5-0.3-2.9,0.6-3.2,2.1c-0.3,1.5,0.6,2.9,2.1,3.2l17.1,3.7l3.7-16.8c0.3-1.5-0.6-2.9-2.1-3.2c-1.5-0.3-2.9,0.6-3.2,2.1
				l-1.9,8.4c-2-3.9-4.7-7.4-7.8-10.4c-5.7-5.6-12.8-9.4-20.6-11.1c-22.8-5-45.4,9.5-50.4,32.3c-5,22.8,9.5,45.4,32.3,50.4
				c3,0.6,6,1,9,1c6.5,0,13.1-1.5,19-4.5c11.5-5.8,19.7-16.3,22.4-28.8C230.4,267.4,229.5,265.9,228,265.6z"/>
			<path class="st1" d="M188.8,302.8c-3,0-6.1-0.3-9.2-1c-11.2-2.4-20.7-9.1-26.9-18.7c-6.2-9.6-8.2-21.1-5.8-32.3
				c2.4-11.2,9.1-20.7,18.7-26.9c9.6-6.2,21.1-8.2,32.3-5.8c7.9,1.7,15.1,5.6,20.9,11.3c2.8,2.8,5.2,5.9,7.2,9.4l1.6-7.1
				c0.4-1.7,2.1-2.8,3.8-2.5c0.8,0.2,1.5,0.7,2,1.4c0.5,0.7,0.6,1.6,0.5,2.5l-3.8,17.3l-17.6-3.9c-1.7-0.4-2.8-2.1-2.5-3.8
				c0.4-1.7,2.1-2.9,3.8-2.5l6.3,1.4c-1.6-2.8-3.6-5.4-5.9-7.6c-4.9-4.8-11-8.1-17.7-9.6c-9.5-2.1-19.2-0.3-27.4,4.9
				c-8.2,5.3-13.8,13.4-15.9,22.8c-2.1,9.5-0.3,19.2,4.9,27.4c5.3,8.2,13.4,13.8,22.8,15.9c8.1,1.8,16.7,0.7,24.1-3
				c9.9-5,16.9-14,19.3-24.8c0.4-1.7,2.1-2.8,3.8-2.5l0,0c1.8,0.4,2.8,2.1,2.5,4c-2.8,12.7-11,23.4-22.7,29.2
				C202,301.2,195.4,302.8,188.8,302.8z M188.7,218.1c-7.9,0-15.7,2.3-22.5,6.6c-9.4,6-15.9,15.4-18.3,26.3
				c-2.4,10.9-0.4,22.1,5.7,31.5c6,9.4,15.4,15.9,26.3,18.3c3,0.6,6,1,8.9,1c6.5,0,13-1.5,18.7-4.4c11.4-5.7,19.4-16.1,22.1-28.4
				c0.2-1.3-0.5-2.5-1.7-2.8c-1.2-0.2-2.4,0.5-2.6,1.7c-2.4,11.1-9.6,20.4-19.8,25.5c-7.6,3.8-16.4,4.9-24.7,3.1
				c-9.7-2.1-18.1-7.9-23.5-16.4c-5.4-8.4-7.2-18.4-5.1-28.2c2.1-9.7,7.9-18.1,16.4-23.5c8.4-5.4,18.4-7.2,28.2-5.1
				c6.9,1.5,13.2,4.9,18.2,9.9c2.6,2.6,4.9,5.5,6.7,8.9l0.5,1l-8.6-1.9c-1.2-0.2-2.4,0.5-2.6,1.7c-0.1,0.6,0,1.2,0.3,1.7
				c0.3,0.5,0.8,0.8,1.4,0.9l16.6,3.6l3.6-16.3c0.1-0.6,0-1.2-0.3-1.7c-0.3-0.5-0.8-0.8-1.4-0.9c-1.2-0.3-2.4,0.5-2.6,1.7l-2.2,9.8
				l-0.7-1.2c-2-3.8-4.6-7.3-7.7-10.3c-5.6-5.5-12.7-9.3-20.4-11C194.7,218.4,191.7,218.1,188.7,218.1z"/>
		</g>
		<g>
			<path class="st1" d="M218.1,215.9c3,0,5.4-2.5,5.4-5.4v-13.6c0-3-2.5-5.4-5.4-5.4h-13.6c-3,0-5.5,2.5-5.5,5.4v13.6
				c0,3,2.5,5.4,5.5,5.4H218.1z M204.7,197h13.2v13.2h-13.2V197z"/>
			<path class="st1" d="M218.1,216.4h-13.6c-3.3,0-6-2.7-6-6v-13.6c0-3.3,2.7-6,6-6h13.6c3.3,0,6,2.7,6,6v13.6
				C224.1,213.8,221.4,216.4,218.1,216.4z M204.5,192c-2.7,0-4.9,2.2-4.9,4.9v13.6c0,2.7,2.2,4.9,4.9,4.9h13.6
				c2.7,0,4.9-2.2,4.9-4.9v-13.6c0-2.7-2.2-4.9-4.9-4.9H204.5z M218.4,210.8h-14.3v-14.3h14.3V210.8z M205.2,209.8h12.2v-12.2h-12.2
				V209.8z"/>
		</g>
		<g>
			<path class="st1" d="M262.2,191.4h-13.6c-3,0-5.4,2.5-5.4,5.4v13.6c0,3,2.5,5.4,5.4,5.4h13.6c3,0,5.5-2.5,5.5-5.4v-13.6
				C267.7,193.9,265.2,191.4,262.2,191.4z M262,210.3h-13.2V197H262V210.3z"/>
			<path class="st1" d="M262.2,216.4h-13.6c-3.3,0-6-2.7-6-6v-13.6c0-3.3,2.7-6,6-6h13.6c3.3,0,6,2.7,6,6v13.6
				C268.2,213.7,265.5,216.4,262.2,216.4z M248.6,191.9c-2.7,0-4.9,2.2-4.9,4.9v13.6c0,2.7,2.2,4.9,4.9,4.9h13.6
				c2.7,0,4.9-2.2,4.9-4.9v-13.6c0-2.7-2.2-4.9-4.9-4.9H248.6z M262.6,210.8h-14.3v-14.3h14.3V210.8z M249.3,209.8h12.2v-12.2h-12.2
				V209.8z"/>
		</g>
		<g>
			<path class="st1" d="M306.2,191.4h-13.6c-3,0-5.5,2.5-5.5,5.4v13.6c0,3,2.5,5.4,5.5,5.4h13.6c3,0,5.4-2.5,5.4-5.4v-13.6
				C311.7,193.9,309.2,191.4,306.2,191.4z M306,210.3h-13.2V197H306V210.3z"/>
			<path class="st1" d="M306.2,216.4h-13.6c-3.3,0-6-2.7-6-6v-13.6c0-3.3,2.7-6,6-6h13.6c3.3,0,6,2.7,6,6v13.6
				C312.2,213.7,309.5,216.4,306.2,216.4z M292.7,191.9c-2.7,0-4.9,2.2-4.9,4.9v13.6c0,2.7,2.2,4.9,4.9,4.9h13.6
				c2.7,0,4.9-2.2,4.9-4.9v-13.6c0-2.7-2.2-4.9-4.9-4.9H292.7z M306.6,210.8h-14.3v-14.3h14.3V210.8z M293.3,209.8h12.2v-12.2h-12.2
				V209.8z"/>
		</g>
		<g>
			<path class="st1" d="M267.7,233.2c0-3-2.5-5.4-5.4-5.4h-13.6c-3,0-5.5,2.5-5.5,5.4v13.6c0,3,2.5,5.5,5.5,5.5h13.6
				c3,0,5.4-2.5,5.4-5.5V233.2z M262.1,246.6h-13.2v-13.2h13.2V246.6z"/>
			<path class="st1" d="M262.3,252.8h-13.6c-3.3,0-6-2.7-6-6v-13.6c0-3.3,2.7-6,6-6h13.6c3.3,0,6,2.7,6,6v13.6
				C268.3,250.1,265.6,252.8,262.3,252.8z M248.7,228.3c-2.7,0-4.9,2.2-4.9,4.9v13.6c0,2.7,2.2,4.9,4.9,4.9h13.6
				c2.7,0,4.9-2.2,4.9-4.9v-13.6c0-2.7-2.2-4.9-4.9-4.9H248.7z M262.6,247.1h-14.3v-14.3h14.3V247.1z M249.4,246.1h12.2v-12.2h-12.2
				V246.1z"/>
		</g>
		<g>
			<path class="st1" d="M186.5,234.3c-1.4,0-2.6,1.1-2.6,2.6v28.8h27.6c1.4,0,2.6-1.1,2.6-2.6c0-1.4-1.1-2.6-2.6-2.6h-22.5v-23.7
				C189.1,235.5,187.9,234.3,186.5,234.3z"/>
			<path class="st1" d="M211.6,266.2h-28.1v-29.4c0-1.7,1.4-3.1,3.1-3.1c1.7,0,3.1,1.4,3.1,3.1v23.2h22c1.7,0,3.1,1.4,3.1,3.1
				C214.7,264.9,213.3,266.2,211.6,266.2z M184.5,265.2h27.1c1.2,0,2.1-0.9,2.1-2.1c0-1.2-0.9-2.1-2.1-2.1h-23v-24.2
				c0-1.1-0.9-2.1-2.1-2.1c-1.2,0-2.1,0.9-2.1,2.1V265.2z"/>
		</g>
		<g>
			<path class="st1" d="M311.8,231.3c0-3-2.5-5.5-5.5-5.5h-13.6c-3,0-5.4,2.5-5.4,5.5v13.6c0,3,2.5,5.5,5.4,5.5h13.6
				c3,0,5.4-2.5,5.4-5.5V231.3z M306.2,244.8H293v-13.2h13.2V244.8z"/>
			<path class="st1" d="M306.4,250.9h-13.6c-3.3,0-6-2.7-6-6v-13.6c0-3.3,2.7-6,6-6h13.6c3.3,0,6,2.7,6,6v13.6
				C312.4,248.2,309.7,250.9,306.4,250.9z M292.8,226.4c-2.7,0-4.9,2.2-4.9,4.9v13.6c0,2.7,2.2,4.9,4.9,4.9h13.6
				c2.7,0,4.9-2.2,4.9-4.9v-13.6c0-2.7-2.2-4.9-4.9-4.9H292.8z M306.7,245.3h-14.3V231h14.3V245.3z M293.5,244.2h12.2V232h-12.2
				V244.2z"/>
		</g>
	</g>
</g>
</svg>
