<?xml version="1.0" encoding="utf-8"?>
<!-- Generator: Adobe Illustrator 23.0.4, SVG Export Plug-In . SVG Version: 6.00 Build 0)  -->
<svg version="1.1" id="Camada_1" xmlns="http://www.w3.org/2000/svg" xmlns:xlink="http://www.w3.org/1999/xlink" x="0px" y="0px"
	 viewBox="0 0 526 419" style="enable-background:new 0 0 526 419;" xml:space="preserve">
<style type="text/css">
	.st0{fill:#FFBD17;}
	.st1{fill:#758596;}
</style>
<g>
	<path class="st0" d="M213.1,173.6c7.5,0,13.6,6.1,13.6,13.6c0,7.5-6.1,13.6-13.6,13.6c-7.5,0-13.6-6.1-13.6-13.6
		C199.5,179.7,205.6,173.6,213.1,173.6z"/>
	<path class="st0" d="M213.1,208.1c-12.6,0-23.1,9.5-24.5,21.8c-0.2,1.5,1,2.8,2.6,2.8H235c1.5,0,2.7-1.3,2.6-2.8
		C236.2,217.6,225.7,208.1,213.1,208.1z"/>
	<path class="st0" d="M294.6,173.6c7.5,0,13.6,6.1,13.6,13.6c0,7.5-6.1,13.6-13.6,13.6c-7.5,0-13.6-6.1-13.6-13.6
		C281.1,179.7,287.1,173.6,294.6,173.6z"/>
	<path class="st0" d="M294.6,208.1c-12.6,0-23.1,9.5-24.5,21.8c-0.2,1.5,1,2.8,2.6,2.8h43.8c1.5,0,2.7-1.3,2.6-2.8
		C317.7,217.6,307.3,208.1,294.6,208.1z"/>
	<path class="st0" d="M330.3,289.3H169.8c-2.3,0-4.1-1.8-4.1-4.1v-16h168.7v16C334.4,287.5,332.6,289.3,330.3,289.3z"/>
	<g>
		<polygon class="st0" points="234.4,313 274.5,313.3 267.2,285.9 242.6,285.9 		"/>
		<path class="st0" d="M277.5,315.6l-46.1-0.4l9.5-31.5h27.9L277.5,315.6z M237.4,310.8l34.2,0.3l-6.2-22.9h-21.2L237.4,310.8z"/>
	</g>
	<g>
		<g>
			<path class="st1" d="M203.9,204.1c-9.8,0-17.7-8-17.7-17.7c0-9.8,8-17.7,17.7-17.7c9.8,0,17.7,8,17.7,17.7
				C221.6,196.2,213.6,204.1,203.9,204.1z M203.9,175.7c-5.9,0-10.7,4.8-10.7,10.7c0,5.9,4.8,10.7,10.7,10.7
				c5.9,0,10.7-4.8,10.7-10.7C214.6,180.5,209.8,175.7,203.9,175.7z"/>
			<path class="st1" d="M226.7,237.5l-45.7-0.1c-1.8,0-3.5-0.8-4.6-2.1c-1.2-1.3-1.7-3.1-1.5-4.8c1.7-14.7,14.2-25.8,29.1-25.8
				c14.9,0,27.3,11.2,29,25.9c0.2,1.7-0.4,3.5-1.5,4.8C230.1,236.7,228.4,237.5,226.7,237.5z M181.9,230.4l43.9,0.1
				c-1.7-10.7-10.9-18.7-21.9-18.8C192.9,211.7,183.6,219.6,181.9,230.4z"/>
		</g>
		<g>
			<path class="st1" d="M289.1,204.3c-9.8,0-17.7-8-17.7-17.7c0-9.8,8-17.7,17.7-17.7c9.8,0,17.7,8,17.7,17.7
				C306.8,196.4,298.8,204.3,289.1,204.3z M289.1,175.9c-5.9,0-10.7,4.8-10.7,10.7c0,5.9,4.8,10.7,10.7,10.7
				c5.9,0,10.7-4.8,10.7-10.7C299.8,180.7,295,175.9,289.1,175.9z"/>
			<path class="st1" d="M311.9,237.7l-45.7-0.1c-1.8,0-3.5-0.8-4.6-2.1c-1.2-1.3-1.7-3.1-1.5-4.8c1.7-14.7,14.2-25.8,29.1-25.8
				c14.9,0,27.3,11.2,29,25.9c0.2,1.7-0.4,3.5-1.5,4.8C315.3,236.9,313.6,237.7,311.9,237.7z M267.1,230.6l43.9,0.1
				c-1.7-10.7-10.9-18.7-21.9-18.8C278.1,211.9,268.8,219.8,267.1,230.6z"/>
		</g>
		<path class="st1" d="M338.7,265.7l-183.2-0.4l0.2-113.9c0-8,6.5-14.4,14.5-14.4l154.3,0.3c8,0,14.4,6.5,14.4,14.5L338.7,265.7z
			 M162.5,258.3l169.2,0.4l0.2-106.9c0-4.1-3.3-7.5-7.4-7.5L170.2,144c-4.1,0-7.5,3.3-7.5,7.4L162.5,258.3z"/>
		<path class="st1" d="M326.3,286.7l-158.6-0.3c-6.8,0-12.3-5.6-12.3-12.4l0-15.7l183.2,0.4l0,15.7
			C338.7,281.2,333.1,286.7,326.3,286.7z M162.5,265.3l0,8.7c0,2.9,2.4,5.3,5.3,5.3l158.6,0.3c2.9,0,5.3-2.4,5.3-5.3l0-8.7
			L162.5,265.3z"/>
		<path class="st1" d="M272.4,316.4l-51.2-0.5l10.7-35.2l31,0.1L272.4,316.4z M230.6,309l32.6,0.3l-5.8-21.6l-20.4,0L230.6,309z"/>
		<path class="st1" d="M293.1,317l-92.2-0.2c-1.9,0-3.5-1.6-3.5-3.5c0-1.9,1.6-3.5,3.5-3.5l92.2,0.2c1.9,0,3.5,1.6,3.5,3.5
			C296.6,315.4,295,317,293.1,317z"/>
		<path class="st1" d="M246.5,264.4c-1.9,0-3.5-1.6-3.5-3.5l0.3-120.2c0-1.9,1.6-3.5,3.5-3.5c1.9,0,3.5,1.6,3.5,3.5L250,260.9
			C250,262.8,248.5,264.4,246.5,264.4z"/>
	</g>
</g>
</svg>
