<svg xmlns="http://www.w3.org/2000/svg">
  <symbol id="in_mydata" viewBox="0 0 526 419">
    <path d="M345.3,280.3c-11-35.2-43.8-60.8-82.7-60.8c-38.8,0-71.7,25.6-82.7,60.8c-4,12.8,5.6,25.7,19,25.7h127.4C339.7,306,349.3,293,345.3,280.3z"/>
    <circle cx="262.7" cy="168.1" r="37.1"/>
  </symbol>
  <symbol id="in_help" viewBox="0 0 526 419">
  <path d="M180.5,121.2c-21.1,0-34,9.3-40,22.4c-2.8,6.2,0.9,13.4,7.6,14.5c4.5,0.7,8.9-1.6,10.6-5.8
    c3.8-9.3,10.8-12.7,20.4-12.7c11.4,0,19.8,5.3,19.8,19.4c0,19.3-16.9,25.3-34.7,27.2c-1.4,0.2-2.5,1.4-2.5,2.8v20
    c0,5.6,4.6,10.2,10.2,10.2s10.2-4.6,10.2-10.2v-9.3c23.1-4.9,38.9-17.3,38.9-41.6C221,130.1,201.6,121.2,180.5,121.2z"/>
  <path d="M183.5,238.2h-5.3v-6.3c0-3.2-2.6-5.8-5.8-5.8H171c-3.2,0-5.8,2.6-5.8,5.8v6.3H160c-3.2,0-5.8,2.6-5.8,5.8l0,0
    c0,3.2,2.6,5.8,5.8,5.8h5.3v6.3c0,3.2,2.6,5.8,5.8,5.8h1.4c3.2,0,5.8-2.6,5.8-5.8v-6.3h5.3c3.2,0,5.8-2.6,5.8-5.8l0,0
    C189.3,240.8,186.7,238.2,183.5,238.2z"/>
  </symbol>
  <symbol id="in_surdo" viewBox="0 0 526 419">
    <path d="M369.2,173.3c-5.2-32.2-33-69.2-65.9-72.8c-21.3-2.3-42.5,4.4-58.3,18.5c-15.6,14-24.7,34-24.9,54.9
			c0,4.1,2.7,7.9,6.7,8.5c4.9,0.7,9.1-3.2,9-8c-0.2-7.2,0.2-14.4,3.2-20.9c12.1-26.7,36.5-40.3,62.5-37.4
			c24.8,2.8,48,33.8,52.2,59.8c3.3,20.2-4.1,32-18.8,42.8c-8.5,6.2-13,16.6-11.2,27l0,0.1c3,17-3.4,34.4-16.8,45.4l-2.2,1.8
			c-8.7,7.1-19.8,11-31,10.7c-6.2-0.1-11.9-3.7-15-9.1L245,270.9c-2-3.4-6.1-5.2-9.7-3.8c-4.7,1.8-6.5,7.2-4.1,11.3l13.8,24
			c6,10.5,17.3,17,29.4,17c14.6,0,28.8-5.1,40.1-14.3l2.3-1.9c17.7-14.5,26.2-37.4,22.3-60l0,0c-0.8-4.6,1.1-9.2,4.9-11.9
			C361.1,218.8,373.9,202.2,369.2,173.3z"/>
		<path d="M248.5,216l22.6-0.2c12,0,22.8,8.6,24.3,20.5c1.4,10.6-4.4,20.4-13.9,24.6c-3.4,1.5-5.7,5.1-5,8.7
			c0.7,4,4.1,6.5,7.7,6.5c1,0,2.1-0.2,3.1-0.6c16.3-6.9,26.1-23.8,23.6-41.8c-2.8-19.5-20.3-33.6-40.1-33.6h-6.6v-23.6
			c0-15.2,12.3-27.5,27.5-27.5c8.9,0,19,5.4,24.6,13.2c3,4.2,6,10.8,3.5,19.1c-1.3,4.2,0.6,9.1,4.7,10.5c0.9,0.3,1.7,0.4,2.6,0.4
			c3.3,0,6.3-2.1,7.4-5.4c3.9-11.6,1.9-23.6-5.4-33.8c-8.5-11.8-23.5-19.7-37.3-19.7c-23.8,0-43.2,19.4-43.2,43.2"/>
  	<path d="M199.5,317.9c-2.5,0-4.9-0.9-6.8-2.8c-3.8-3.8-3.8-9.8,0-13.6L390,104.2c3.8-3.8,9.8-3.8,13.6,0
  		c3.8,3.8,3.8,9.8,0,13.6L206.3,315.1C204.4,317,201.9,317.9,199.5,317.9z"/>
  </symbol>
  <symbol id="in_exit" viewBox="0 0 526 419">
  	<path d="M237,303.5c-0.3-0.8-0.4-1.4-0.3-1.9c0.1-0.5-0.2-0.9-1-1.3c-0.8-0.3-1.1-0.6-1.1-0.8c0-0.2-0.5-0.3-1.6-0.4
  		c-1.1-0.1-1.6-0.1-1.6-0.1h-1.8H228h-40.6c-6.2,0-11.5-2.2-16-6.6c-4.4-4.4-6.6-9.7-6.6-15.9V177c0-6.2,2.2-11.5,6.6-15.9
  		c4.4-4.4,9.7-6.6,16-6.6h45.2c1.2,0,2.2-0.3,2.9-0.9c0.7-0.6,1.2-1.5,1.4-2.8c0.2-1.2,0.4-2.3,0.4-3.3c0-1,0-2.2-0.1-3.7
  		c-0.1-1.5-0.1-2.4-0.1-2.8c0-1.2-0.5-2.3-1.4-3.2c-0.9-0.9-1.9-1.3-3.2-1.3h-45.2c-11.2,0-20.8,4-28.7,11.9
  		c-7.9,8-11.9,17.5-11.9,28.7v99.4c0,11.2,4,20.8,11.9,28.7c8,8,17.5,11.9,28.7,11.9h45.2c1.2,0,2.2-0.3,2.9-0.9
  		c0.7-0.6,1.2-1.5,1.4-2.8c0.2-1.2,0.4-2.3,0.4-3.3c0-1,0-2.2-0.1-3.7C237.1,304.8,237,303.8,237,303.5z"/>
  	<path d="M365.3,220.3l-76.8-76.8c-1.8-1.8-3.9-2.7-6.4-2.7c-2.4,0-4.6,0.9-6.4,2.7c-1.8,1.8-2.7,3.9-2.7,6.4v40.7
  		h-63.2c-2.4,0-4.6,0.9-6.4,2.7c-1.8,1.8-2.7,3.9-2.7,6.4v54.2c0,2.4,0.9,4.6,2.7,6.3c1.8,1.8,3.9,2.7,6.4,2.7h63.2v40.7
  		c0,2.4,0.9,4.6,2.7,6.4c1.8,1.8,3.9,2.7,6.4,2.7c2.5,0,4.6-0.9,6.4-2.7l76.8-76.8c1.8-1.8,2.7-3.9,2.7-6.4
  		C368,224.2,367.1,222.1,365.3,220.3z"/>
  </symbol>
  <symbol id="in_config" viewBox="0 0 526 419">
    <path d="M325.4,190.1l-4.4-10.4c0,0,10.1-22.9,9.2-23.8l-13.4-13.1c-0.9-0.9-23.8,9.5-23.8,9.5l-10.6-4.3
      c0,0-9.3-23.2-10.6-23.2h-18.9c-1.3,0-9.9,23.2-9.9,23.2l-10.5,4.3c0,0-23.4-9.9-24.3-9l-13.4,13.1c-0.9,0.9,9.7,23.3,9.7,23.3
      l-4.4,10.3c0,0-23.7,9.1-23.7,10.4v18.6c0,1.3,23.7,9.8,23.7,9.8l4.3,10.3c0,0-10.1,22.9-9.2,23.7l13.4,13.1
      c0.9,0.9,23.8-9.6,23.8-9.6l10.6,4.3c0,0,9.3,23.2,10.6,23.2h18.9c1.3,0,9.9-23.2,9.9-23.2l10.6-4.3c0,0,23.3,9.9,24.2,9.1
      l13.4-13.1c0.9-0.9-9.7-23.3-9.7-23.3l4.3-10.3c0,0,23.7-9.1,23.7-10.4v-18.5C349.1,198.5,325.4,190.1,325.4,190.1z M290.5,209.5
      c0,14.9-12.4,27.1-27.7,27.1c-15.2,0-27.7-12.2-27.7-27.1c0-14.9,12.4-27.1,27.7-27.1C278,182.4,290.5,194.6,290.5,209.5z"/>
  </symbol>
  <symbol id="in_library" viewBox="0 0 526 419">
    <path d="M431.181,242.39c-22.476,7.108-65.444,28.937-67.267,29.863c-3.617,1.837-5.057,6.263-3.22,9.885
      c1.301,2.544,3.888,4.013,6.563,4.013c1.117,0,2.263-0.258,3.33-0.801c0.433-0.221,43.696-22.197,65.032-28.937
      c3.866-1.227,6.012-5.358,4.785-9.224C439.184,243.323,435.083,241.169,431.181,242.39z"/>
    <path d="M431.181,154.192c-22.476,7.108-65.444,28.937-67.267,29.863c-3.616,1.837-5.057,6.262-3.22,9.885
      c1.301,2.543,3.888,4.013,6.563,4.013c1.117,0,2.263-0.258,3.33-0.801c0.433-0.221,43.696-22.197,65.032-28.937
      c3.866-1.227,6.012-5.358,4.785-9.224C439.184,155.124,435.083,152.971,431.181,154.192z"/>
    <path d="M543.65,183.253c-0.646,0-1.268,0.091-1.864,0.247H521.6v-29.647c0-3.447-2.388-6.432-5.755-7.174
      c0,0-24.762-3.286-34.611-5.095c-1.294-0.239-2.571-0.115-3.734,0.291V80.353c0-2.411-1.183-4.667-3.168-6.041
      c-1.97-1.375-4.498-1.691-6.769-0.845c-58.807,22.057-138.311,71.086-138.907,71.453c-0.016,0.01-0.029,0.021-0.045,0.031
      c-10.32-4.329-34.925-13.148-64.259-13.148c-66.414,0-117.474,14.369-119.62,14.986c-3.153,0.897-5.329,3.786-5.329,7.064V183.5
      h-20.191c-0.595-0.155-1.215-0.247-1.858-0.247c-4.057,0-7.35,3.293-7.35,7.35V477.25c0,20.263,16.486,36.75,36.75,36.75H514.25
      c20.263,0,36.75-16.486,36.75-36.75V190.603C550.999,186.545,547.714,183.253,543.65,183.253z M337.85,156.525
      c10.304-6.29,75.15-45.398,124.949-65.425v285.339C412.628,393.873,360,433,338,450L337.85,156.525z M323.151,499.3H146.752
      c-12.157,0-22.05-9.893-22.05-22.05V196.5h14.699v280.75c0,2.301,1.088,4.476,2.918,5.866c1.294,0.978,2.852,1.485,4.432,1.485
      c0.676,0,1.352-0.096,2.014-0.287c0.507-0.14,51.332-14.413,115.585-14.413c26.871,0,49.833,8.364,58.8,12.12V499.3z
       M264.351,455.2c-50.627,0-92.33,8.35-110.249,12.591V159.541c14.678-3.609,58.028-13.039,110.249-13.039
      c26.798,0,49.781,8.342,58.8,12.113V462.85c0,2.646,1.425,5.094,3.726,6.394c2.301,1.308,4.852,3.122,7.123,1.755
      c0.728-0.433,73.836-60.782,138.472-82.324c3.006-1.007,5.028-3.807,5.028-6.975V155.75c0.346,0.12,0.702,0.223,1.073,0.291
      c3.756,0.691,25.902,3.301,28.327,3.786v307.653C490.244,463.115,453.26,455.2,404,455.2c-32.024,0-63.481,10.518-73.213,14.083
      C322.136,465.461,295.985,455.2,264.351,455.2z M514.25,499.299H337.852v-16.912c10.717-3.748,38.631-12.487,66.149-12.487
      c64.025,0,107.501,14.178,107.934,14.325c2.212,0.735,4.682,0.368,6.615-1.015c1.918-1.382,3.05-3.601,3.05-5.961V195.5h14.7
      v281.75C536.3,489.406,526.407,499.299,514.25,499.299z"/>
    <path d="M431.181,198.29c-22.476,7.108-65.444,28.937-67.267,29.863c-3.617,1.837-5.057,6.263-3.22,9.885
      c1.301,2.544,3.888,4.013,6.563,4.013c1.117,0,2.263-0.258,3.33-0.801c0.433-0.221,43.696-22.197,65.032-28.937
      c3.866-1.227,6.012-5.358,4.785-9.224C439.184,199.223,435.083,197.07,431.181,198.29z"/>
    <path d="M431.181,286.49c-22.476,7.108-65.444,28.937-67.267,29.863c-3.617,1.837-5.057,6.263-3.22,9.885
      c1.301,2.543,3.888,4.013,6.563,4.013c1.117,0,2.263-0.258,3.33-0.801c0.433-0.221,43.696-22.197,65.032-28.937
      c3.866-1.227,6.012-5.358,4.785-9.224C439.184,287.422,435.083,285.269,431.181,286.49z"/>
    <path d="M288.078,209.404c-45.386-10.65-96.961,2.918-99.129,3.499c-3.917,1.051-6.247,5.078-5.196,9.003
      c0.882,3.285,3.851,5.446,7.093,5.446c0.632,0,1.271-0.081,1.911-0.25c0.493-0.14,50.149-13.201,91.97-3.388
      c3.932,0.919,7.909-1.529,8.835-5.483C294.487,214.284,292.032,210.33,288.078,209.404z"/>
    <path d="M288.078,253.504c-45.386-10.642-96.961,2.918-99.129,3.499c-3.917,1.051-6.247,5.079-5.196,9.003
      c0.882,3.285,3.851,5.446,7.093,5.446c0.632,0,1.271-0.081,1.911-0.25c0.493-0.14,50.149-13.201,91.97-3.388
      c3.932,0.919,7.909-1.529,8.835-5.483C294.487,258.384,292.032,254.429,288.078,253.504z"/>
    <path d="M431.181,330.589c-22.476,7.108-65.444,28.937-67.267,29.863c-3.617,1.837-5.057,6.263-3.22,9.885
      c1.301,2.544,3.888,4.013,6.563,4.013c1.117,0,2.263-0.258,3.33-0.801c0.433-0.22,43.696-22.197,65.032-28.937
      c3.866-1.227,6.012-5.358,4.785-9.224C439.184,331.523,435.083,329.369,431.181,330.589z"/>
    <path d="M288.078,297.603c-45.386-10.642-96.961,2.91-99.129,3.499c-3.917,1.051-6.247,5.079-5.196,9.003
      c0.882,3.285,3.851,5.454,7.093,5.454c0.632,0,1.271-0.088,1.911-0.258c0.493-0.14,50.149-13.201,91.97-3.388
      c3.932,0.919,7.909-1.529,8.835-5.483C294.487,302.483,292.032,298.529,288.078,297.603z"/>
    <path d="M288.078,385.802c-45.386-10.65-96.961,2.918-99.129,3.499c-3.917,1.051-6.247,5.079-5.196,9.003
      c0.882,3.285,3.851,5.454,7.093,5.454c0.632,0,1.271-0.088,1.911-0.258c0.493-0.14,50.149-13.201,91.97-3.388
      c3.932,0.911,7.909-1.529,8.835-5.483C294.487,390.683,292.032,386.728,288.078,385.802z"/>
    <path d="M288.078,341.703c-45.386-10.65-96.961,2.91-99.129,3.499c-3.917,1.051-6.247,5.079-5.196,9.003
      c0.882,3.285,3.851,5.454,7.093,5.454c0.632,0,1.271-0.088,1.911-0.258c0.493-0.14,50.149-13.201,91.97-3.388
      c3.932,0.919,7.909-1.529,8.835-5.483C294.487,346.583,292.032,342.629,288.078,341.703z"/>
  </symbol>
  <symbol id="in_ru" viewBox="0 0 526 419">
    <circle cx="268.3" cy="222.9" r="101"/>
    <circle cx="268.8" cy="223.2" r="80.2"/>
    <g>
    	<path d="M264.4,96.1c-1.8,0.4-3,3.2-3,5v35.8c0,1.9-1.5,3.4-3.4,3.4h0c-1.9,0-3.4-1.5-3.4-3.4v-35.8c0-1.8-1.2-4.6-3-5
    		c-2.5-0.5-4.7,2.5-4.7,4.9v35.9c0,1.9-1.5,3.4-3.4,3.4c-0.1,0-0.1,0-0.2,0v92.9h6.8c0.5,0,0.9,0.1,1.4,0.2l-2.3-53.8
    		c17.2-2.9,19.4-19.5,19.7-35.1c0-0.1,0-0.2,0-0.3v-43.2C269,98.6,266.8,95.6,264.4,96.1z"/>
    	<path d="M243.4,233.1v111.7h10c4.6,0,8.2-3.9,7.9-8.4l-6.5-99.1c-0.1-1.9-1.4-3.4-3.1-4c-0.4-0.1-0.9-0.2-1.4-0.2H243.4z"/>
    	<path d="M240.2,136.9v-35.8c0-1.8-1.2-4.6-3-5c-2.5-0.5-4.7,2.5-4.7,4.9v35.9c0,1.9-1.5,3.4-3.4,3.4l0,0
    		c-1.9,0-3.4-1.5-3.4-3.4v-35.8c0-1.8-1.2-4.6-3-5c-2.5-0.5-4.7,2.5-4.7,4.9v43.2c0,0.3,0,0.5,0.1,0.8c0.6,15.5,4.3,31.7,20,34.6
    		l-2.7,53.8c0.5-0.2,0.9-0.3,1.4-0.3h6.5v-92.9C241.7,140.1,240.2,138.7,240.2,136.9z"/>
    	<path d="M240.2,136.9v-35.8c0-1.8-1.2-4.6-3-5c-2.5-0.5-4.7,2.5-4.7,4.9v35.9c0,1.9-1.5,3.4-3.4,3.4l0,0
    		c-1.9,0-3.4-1.5-3.4-3.4v-35.8c0-1.8-1.2-4.6-3-5c-2.5-0.5-4.7,2.5-4.7,4.9v43.2c0,0.3,0,0.5,0.1,0.8c0.6,15.5,4.3,31.7,20,34.6
    		l-2.7,53.8c0.5-0.2,0.9-0.3,1.4-0.3h6.5v-92.9C241.7,140.1,240.2,138.7,240.2,136.9z"/>
    	<path d="M243.4,233.1H237c-0.5,0-1,0.1-1.4,0.3c-1.7,0.6-2.9,2.1-3.1,3.9l-8.1,99c-0.4,4.6,3.2,8.5,7.9,8.5h11.2V233.1z"/>
    	<path d="M243.4,233.1H237c-0.5,0-1,0.1-1.4,0.3c-1.7,0.6-2.9,2.1-3.1,3.9l-8.1,99c-0.4,4.6,3.2,8.5,7.9,8.5h11.2V233.1z"/>
    </g>
    <g>
    	<path d="M305.4,233.1C305.4,233.1,305.4,233.1,305.4,233.1l0-17.8c0-1.2,0.4-2.3,1-3.2c23.9-33.8,9.3-83.3-2.9-112.2
    		c-0.9-2.1-2.4-3.3-4-3.7v136.9H305.4z"/>
    	<path d="M309.9,237.3c-0.2-2.4-2.1-4.2-4.5-4.2c0,0,0,0,0,0h-5.8v111.7h9c4.6,0,8.2-3.9,7.9-8.4L309.9,237.3z"/>
    	<path d="M292.1,102.8V233c0,0,0,0,0,0.1h7.5V96.2C296.1,95.3,292.1,97.9,292.1,102.8z"/>
    	<path d="M292.1,102.8V233c0,0,0,0,0,0.1h7.5V96.2C296.1,95.3,292.1,97.9,292.1,102.8z"/>
    	<path d="M299.6,233.1h-7.5h0c-2.4,0-4.3,1.8-4.5,4.1l-8.1,99c-0.4,4.6,3.2,8.5,7.9,8.5h12.2V233.1z"/>
    	<path d="M299.6,233.1h-7.5h0c-2.4,0-4.3,1.8-4.5,4.1l-8.1,99c-0.4,4.6,3.2,8.5,7.9,8.5h12.2V233.1z"/>
    </g>
  </symbol>
  <symbol id="in_schedule" viewBox="0 0 526 419">
      <path d="M348.7,295H195.3c-7.5,0-13.5-6.1-13.5-13.5V157h180.5v124.4C362.2,288.9,356.2,295,348.7,295z M188.1,163.4
        v118c0,3.9,3.2,7.2,7.2,7.2h153.4c3.9,0,7.2-3.2,7.2-7.2v-118H188.1z"/>
      <path d="M318.4,148.6h-4.7c-4.9,0-8.8-4-8.8-8.8V119c0-2.8,2.2-5,5-5h12.3c2.8,0,5,2.2,5,5l0,20.8
  			C327.1,144.7,323.2,148.6,318.4,148.6z M311.3,120.4v19.4c0,1.3,1.1,2.4,2.4,2.4h4.7c1.3,0,2.4-1.1,2.4-2.5v-19.3H311.3z"/>
      <path d="M229.4,237.4H214c-3.4,0-6.2-2.8-6.2-6.2v-15.4c0-3.4,2.8-6.2,6.2-6.2h15.4c3.4,0,6.2,2.8,6.2,6.2v15.4
  			C235.6,234.6,232.8,237.4,229.4,237.4z M214.2,231.1h15v-15h-15V231.1z"/>
  		<path d="M359.3,163.1c-1.8,0-3.2-1.4-3.2-3.2v-12.1c0-6.5-4.5-11.8-10.1-11.8h-19.6c-1.8,0-3.2-1.4-3.2-3.2
  			c0-1.8,1.4-3.2,3.2-3.2H346c9.1,0,16.5,8.2,16.5,18.2v12.1C362.5,161.7,361,163.1,359.3,163.1z"/>
  		<path d="M307.2,136h-67.3c-1.8,0-3.2-1.4-3.2-3.2c0-1.8,1.4-3.2,3.2-3.2h67.3c1.8,0,3.2,1.4,3.2,3.2
  			C310.3,134.6,308.9,136,307.2,136z"/>
  		<path d="M217,136h-18.2c-1.8,0-3.2-1.4-3.2-3.2c0-1.8,1.4-3.2,3.2-3.2H217c1.8,0,3.2,1.4,3.2,3.2
  			C220.2,134.6,218.7,136,217,136z"/>
  		<path d="M185,163.3c-1.8,0-3.2-1.4-3.2-3.2v-12.2c0-9.4,6.9-17.4,15.7-18.2l0.3,0h1.2c1.8,0,3.2,1.4,3.2,3.2
  			c0,1.8-1.4,3.2-3.2,3.2h-1c-5.5,0.6-9.7,5.7-9.7,11.8v12.2C188.1,161.9,186.7,163.3,185,163.3z"/>
  		<path d="M229.4,199.8H214c-3.4,0-6.2-2.8-6.2-6.2v-15.4c0-3.4,2.8-6.2,6.2-6.2h15.4c3.4,0,6.2,2.8,6.2,6.2v15.3
  			c0.1,1.6-0.5,3.1-1.6,4.3C232.8,199.1,231.2,199.8,229.4,199.8z M214.2,193.4h15v-15h-15V193.4z"/>
  		<path d="M280.6,199.8h-15.4c-3.4,0-6.2-2.8-6.2-6.2v-15.4c0-3.4,2.8-6.2,6.2-6.2h15.4c3.4,0,6.2,2.8,6.2,6.2v15.4
  			C286.7,197.1,284,199.8,280.6,199.8z M265.4,193.4h15v-15h-15V193.4z"/>
  		<path d="M329.4,199.8H314c-3.4,0-6.2-2.8-6.2-6.2v-15.4c0-3.4,2.8-6.2,6.2-6.2h15.4c3.4,0,6.2,2.8,6.2,6.2v15.4
  			C335.6,197.1,332.8,199.8,329.4,199.8z M314.2,193.4h15l0-15h-15V193.4z"/>
  		<path d="M280.7,237.9h-15.4c-3.4,0-6.2-2.8-6.2-6.2v-15.5c0-3.4,2.8-6.2,6.2-6.2h15.4c3.4,0,6.2,2.8,6.2,6.2v15.4
  			C286.8,235.1,284.1,237.9,280.7,237.9z M265.5,231.5h15v-15.1h-15V231.5z"/>
  		<path d="M237.2,142.9"/>
  		<path d="M224.3,142.9"/>
  		<path d="M229.8,148.6h-4.7c-4.9,0-8.8-4-8.8-8.8V119c0-2.8,2.2-5,5-5h12.3c2.8,0,5,2.2,5,5v20.7
  			C238.7,144.6,234.7,148.6,229.8,148.6z M222.7,120.4v19.4c0,1.3,1.1,2.4,2.4,2.4h4.7c1.3,0,2.4-1.1,2.4-2.4v-19.4H222.7z"/>
  		<path d="M322.7,238.9c-8.2,0-14.9-6.7-14.9-14.9s6.7-14.9,14.9-14.9c8.2,0,14.9,6.7,14.9,14.9
  			S330.9,238.9,322.7,238.9z M322.7,215.5c-4.7,0-8.5,3.8-8.5,8.5s3.8,8.5,8.5,8.5s8.5-3.8,8.5-8.5S327.4,215.5,322.7,215.5z"/>
  		<path d="M229.4,275.9H214c-3.4,0-6.2-2.8-6.2-6.2v-15.4c0-3.4,2.8-6.2,6.2-6.2h15.4c3.4,0,6.2,2.8,6.2,6.2v15.4
  			C235.6,273,232.8,275.9,229.4,275.9z M214.2,269.5h15v-15h-15V269.5z"/>
      <path d="M280.6,275.9h-15.4c-3.4,0-6.2-2.8-6.2-6.2v-15.4c0-3.4,2.8-6.2,6.2-6.2h15.4c3.4,0,6.2,2.8,6.2,6.2v15.4
  			C286.7,273,283.9,275.9,280.6,275.9z M265.4,269.5h15v-15h-15V269.5z"/>
  		<path d="M330.4,275.3H315c-3.4,0-6.2-2.8-6.2-6.2v-15.4c0-3.4,2.8-6.2,6.2-6.2h15.4c3.4,0,6.2,2.8,6.2,6.2v15.4
  			C336.6,272.5,333.7,275.3,330.4,275.3z M315.2,268.9h15v-15h-15V268.9z"/>
  </symbol>
  <symbol id="in_password" viewBox="0 0 526 419">
    <path d="M337.9,193.3L337.9,193.3L337.9,193.3h-0.1h0h0h-11.3v-14.1c0-27.2-24.1-49.2-53.7-49.2c0,0,0,0,0,0s0,0,0,0
    	c0,0,0,0,0,0s0,0,0,0c0,0,0,0,0,0c0,0,0,0,0,0c0,0,0,0,0,0s0,0,0,0c0,0,0,0,0,0c0,0,0,0,0,0c-29.6,0-53.7,22.1-53.7,49.2v14.1h-11.3
    	h0h0h0h0h0c-2.1,0-3.9,1.6-3.9,3.5v88c0,7.8,6.9,14.1,15.4,14.1h0h0h0h0h0h107.3h0h0h0h0h0c8.5,0,15.4-6.3,15.4-14.1v-88
    	C341.8,194.8,340,193.3,337.9,193.3z M265,270.6c-1.1,0-2.1-0.4-2.9-1.2c-0.7-0.7-1.1-1.7-1-2.7l2.1-17.5c0.2-1.6-0.6-3-1.7-4.1
    	c-2.7-2.6-4.2-6-4.2-9.7c0-7.7,6.8-14,15.3-14.1c8.4,0,15.3,6.3,15.3,14.1c0,3.7-1.6,7.1-4.2,9.7c-1.2,1.1-1.9,2.5-1.7,4.1l2.1,17.5
    	c0.1,1-0.2,2-1,2.7c-0.7,0.7-1.8,1.2-2.9,1.2H265z M242,193.3v-14.1c0-15.5,13.7-28.1,30.6-28.1c16.9,0,30.6,12.6,30.6,28.1v14.1
    	H242z"/>
  </symbol>
  <symbol id="in_system" viewBox="0 0 526 419">
  	<path d="M400.1,170.6c-1.1-4.5-6.8-6.1-10.1-2.8l-26.7,26.7c-5.9,5.9-15.6,5.9-21.5,0l-12.3-12.3
  		c-5.9-5.9-5.9-15.6,0-21.5l26.4-26.4c3.3-3.3,1.7-9-2.9-10.1c-6.3-1.5-12.9-2-19.7-1.5c-29.3,2.3-56.3,29.8-58.1,59.1
  		c-0.7,11.1,1.6,21.6,5.9,31l-93.5,80.4c-4.2,3.6-6.7,8.8-7,14.3c-0.2,5.5,1.8,10.9,5.7,14.9l15.8,16.1c3.9,4,9.3,6.2,14.9,6
  		c5.6-0.2,10.9-2.7,14.5-6.9l81-93.8c9,4,19.2,6.1,29.9,5.4c29.5-1.8,57-29,59.2-58.5C402.3,183.8,401.7,177,400.1,170.6z"/>
  	<path d="M209.3,337.2c-7.1,0-13.9-2.9-18.8-7.9l-15.8-16.1c-5.1-5.2-7.8-12.3-7.5-19.6c0.3-7.3,3.6-14.1,9.2-18.9
  		l90-77.3c-3.7-9.5-5.2-19.4-4.6-29.6c2-32.7,31.3-62.5,63.9-65.1c7.3-0.6,14.6,0,21.6,1.6c4.3,1,7.8,4.3,9,8.6
  		c1.2,4.3,0,8.9-3.1,12.1l-26.4,26.4c-1.7,1.7-2.6,3.9-2.6,6.3c0,2.4,0.9,4.6,2.6,6.3l12.3,12.3c3.5,3.5,9.1,3.5,12.6,0l26.7-26.7
  		c3.2-3.2,7.7-4.4,12-3.2c4.3,1.2,7.6,4.6,8.7,8.9v0c1.8,7.2,2.4,14.6,1.9,22.1c-2.4,32.8-32.2,62.3-65.1,64.4
  		c-9.8,0.6-19.3-0.8-28.4-4.2l-78,90.4c-4.8,5.6-11.8,8.9-19.1,9.1C209.8,337.2,209.5,337.2,209.3,337.2z M331.2,115.2
  		c-1.6,0-3.1,0.1-4.7,0.2c-26.2,2.1-50.6,27-52.3,53.2c-0.6,9.7,1.2,19.1,5.3,27.9l2,4.4l-97.2,83.5c-2.9,2.5-4.6,6-4.8,9.8
  		c-0.2,3.8,1.3,7.5,3.9,10.2l15.8,16.1c2.7,2.7,6.4,4.2,10.2,4.1c3.8-0.1,7.4-1.9,9.9-4.7l84.1-97.4l4.3,1.9
  		c8.6,3.8,17.6,5.5,26.9,4.9c26.4-1.7,51.3-26.3,53.2-52.7c0.4-6,0-11.9-1.4-17.6l-26.3,26.3c-8.4,8.4-22.1,8.4-30.5,0L317.6,173
  		c-4.1-4.1-6.3-9.5-6.3-15.2c0-5.8,2.2-11.2,6.3-15.2l26-26C339.6,115.7,335.4,115.2,331.2,115.2z M386.6,158.4
  		C386.6,158.4,386.6,158.4,386.6,158.4C386.6,158.4,386.6,158.4,386.6,158.4L386.6,158.4z"/>
  </symbol>
  <symbol id="in_attendance" viewBox="0 0 526 419">
  	<path d="M186.8,144.7v92.9h68.9v-99.3h-62.5C189.7,138.3,186.8,141.2,186.8,144.7z M221.6,160.7
  		c7.9,0,14.4,6.4,14.4,14.4c0,7.9-6.4,14.4-14.4,14.4c-7.9,0-14.4-6.4-14.4-14.4C207.2,167.1,213.7,160.7,221.6,160.7z M197.4,213.5
  		c1.4-12.3,11.8-21.6,24.2-21.6c12.4,0,22.8,9.3,24.2,21.6c0.1,1.2-0.3,2.4-1.1,3.4c-0.8,0.9-2,1.5-3.3,1.5h-39.7
  		c-1.2,0-2.4-0.5-3.3-1.5C197.6,216,197.2,214.7,197.4,213.5z"/>
  	<path d="M331.7,237.6v-92.9c0-3.6-2.9-6.5-6.5-6.5h-63.5v99.3H331.7z M295.6,160.7c7.9,0,14.4,6.4,14.4,14.4
  		c0,7.9-6.4,14.4-14.4,14.4c-7.9,0-14.4-6.4-14.4-14.4C281.2,167.1,287.7,160.7,295.6,160.7z M295.6,192c12.4,0,22.8,9.3,24.2,21.6
  		c0.1,1.2-0.3,2.4-1.1,3.4c-0.8,0.9-2,1.5-3.3,1.5h-39.7c-1.2,0-2.4-0.5-3.3-1.5c-0.8-0.9-1.2-2.1-1.1-3.4
  		C272.8,201.2,283.2,192,295.6,192z"/>
  	<path d="M221.6,189.4c7.9,0,14.4-6.4,14.4-14.4c0-7.9-6.4-14.4-14.4-14.4c-7.9,0-14.4,6.4-14.4,14.4
  		C207.2,182.9,213.7,189.4,221.6,189.4z"/>
  	<path d="M201.7,218.4h39.7c1.2,0,2.4-0.5,3.3-1.5c0.8-0.9,1.2-2.1,1.1-3.4c-1.4-12.3-11.8-21.6-24.2-21.6
  		c-12.4,0-22.8,9.3-24.2,21.6c-0.1,1.2,0.3,2.4,1.1,3.4C199.3,217.8,200.5,218.4,201.7,218.4z"/>
  	<path d="M295.6,189.4c7.9,0,14.4-6.4,14.4-14.4c0-7.9-6.4-14.4-14.4-14.4c-7.9,0-14.4,6.4-14.4,14.4
  		C281.2,182.9,287.7,189.4,295.6,189.4z"/>
  	<path d="M272.4,216.9c0.8,0.9,2,1.5,3.3,1.5h39.7c1.2,0,2.4-0.5,3.3-1.5c0.8-0.9,1.2-2.1,1.1-3.4
  		c-1.4-12.3-11.8-21.6-24.2-21.6c-12.4,0-22.8,9.3-24.2,21.6C271.2,214.7,271.6,216,272.4,216.9z"/>
  	<path d="M325.3,132.2h-66.5c1.7,0,3,1.4,3,3v3h63.5c3.6,0,6.5,2.9,6.5,6.5v92.9h-69.9v1h76v-93.9
  		C337.8,137.8,332.2,132.2,325.3,132.2z"/>
  	<path d="M255.7,237.6h-68.9v-92.9c0-3.6,2.9-6.5,6.5-6.5h62.5v-3c0-1.7,1.4-3,3-3h-65.5c-6.9,0-12.6,5.6-12.6,12.6
  		v93.9h75V237.6z"/>
  	<path d="M261.8,237.6v-99.3v-3c0-1.7-1.4-3-3-3c-1.7,0-3,1.4-3,3v3v99.3v1h-75v5.1v7.5c0,5.3,4.3,9.7,9.7,9.7h55.5
  		l-6.1,20.3h-20.6c-2.2,0-4.1,1.8-4.1,4.1s1.8,4.1,4.1,4.1h80.1c2.2,0,4.1-1.8,4.1-4.1s-1.8-4.1-4.1-4.1h-20.8l-5.5-20.3h55.1
  		c5.3,0,9.7-4.3,9.7-9.7v-7.5v-5.1h-76V237.6z"/>
  </symbol>
</svg>
