<svg xmlns="http://www.w3.org/2000/svg" xmlns:xlink="http://www.w3.org/1999/xlink" version="1.1" style="" xml:space="preserve" width="157" height="157"><rect id="backgroundrect" width="100%" height="100%" x="0" y="0" fill="none" stroke="none"/>
<style type="text/css">
	.st0{fill:none;}
	.st1{fill:#5394F2;}
</style>

<g class="currentLayer" style=""><title>Layer 1</title><g id="svg_1" class="">
	<path class="st0" d="M6.100018310546886,12.500003051757801 v92.9 h68.9 v-99.3 h-62.5 C9.000018310546864,6.100003051757824 6.100018310546886,9.000003051757801 6.100018310546886,12.500003051757801 zM40.90001831054687,28.5000030517578 c7.9,0 14.4,6.4 14.4,14.4 c0,7.9 -6.4,14.4 -14.4,14.4 c-7.9,0 -14.4,-6.4 -14.4,-14.4 C26.500018310546864,34.90000305175781 33.000018310546864,28.5000030517578 40.90001831054687,28.5000030517578 zM16.70001831054688,81.30000305175781 c1.4,-12.3 11.8,-21.6 24.2,-21.6 c12.4,0 22.8,9.3 24.2,21.6 c0.1,1.2 -0.30000000000000004,2.4 -1.1,3.4 c-0.8,0.9 -2,1.5 -3.3,1.5 h-39.7 c-1.2,0 -2.4,-0.5 -3.3,-1.5 C16.90001831054687,83.80000305175781 16.500018310546864,82.5000030517578 16.70001831054688,81.30000305175781 z" id="svg_2"/>

	<path class="st1" d="M40.90001831054687,57.20000305175782 c7.9,0 14.4,-6.4 14.4,-14.4 c0,-7.9 -6.4,-14.4 -14.4,-14.4 c-7.9,0 -14.4,6.4 -14.4,14.4 C26.500018310546864,50.70000305175782 33.000018310546864,57.20000305175782 40.90001831054687,57.20000305175782 z" id="svg_3"/>
	<path class="st1" d="M21.000018310546864,86.20000305175782 h39.7 c1.2,0 2.4,-0.5 3.3,-1.5 c0.8,-0.9 1.2,-2.1 1.1,-3.4 c-1.4,-12.3 -11.8,-21.6 -24.2,-21.6 c-12.4,0 -22.8,9.3 -24.2,21.6 c-0.1,1.2 0.30000000000000004,2.4 1.1,3.4 C18.600018310546886,85.60000305175782 19.800018310546875,86.20000305175782 21.000018310546864,86.20000305175782 z" id="svg_4"/>
	<path class="st1" d="M114.9000183105469,57.20000305175782 c7.9,0 14.4,-6.4 14.4,-14.4 c0,-7.9 -6.4,-14.4 -14.4,-14.4 c-7.9,0 -14.4,6.4 -14.4,14.4 C100.50001831054686,50.70000305175782 107.00001831054686,57.20000305175782 114.9000183105469,57.20000305175782 z" id="svg_5"/>
	<path class="st1" d="M91.70001831054685,84.70000305175782 c0.8,0.9 2,1.5 3.3,1.5 h39.7 c1.2,0 2.4,-0.5 3.3,-1.5 c0.8,-0.9 1.2,-2.1 1.1,-3.4 c-1.4,-12.3 -11.8,-21.6 -24.2,-21.6 c-12.4,0 -22.8,9.3 -24.2,21.6 C90.50001831054686,82.5000030517578 90.9000183105469,83.80000305175781 91.70001831054685,84.70000305175782 z" id="svg_6"/>
	<path class="st1" d="M144.6000183105469,0.0000030517578011313162 h-66.5 c1.7000000000000002,0 3,1.4 3,3 v3 h63.5 c3.6,0 6.5,2.9 6.5,6.5 v92.9 h-69.9 v1 h76 v-93.9 C157.1000183105469,5.600003051757824 151.50001831054686,0.0000030517578011313162 144.6000183105469,0.0000030517578011313162 z" id="svg_7"/>
	<path class="st1" d="M75.00001831054686,105.4000030517578 h-68.9 v-92.9 c0,-3.6 2.9,-6.5 6.5,-6.5 h62.5 v-3 c0,-1.7000000000000002 1.4,-3 3,-3 h-65.5 c-6.9,0 -12.6,5.6 -12.6,12.6 v93.9 h75 V105.4000030517578 z" id="svg_8"/>
	<path class="st1" d="M81.10001831054689,105.4000030517578 v-99.3 v-3 c0,-1.7000000000000002 -1.4,-3 -3,-3 c-1.7000000000000002,0 -3,1.4 -3,3 v3 v99.3 v1 h-75 v5.1 v7.5 c0,5.3 4.3,9.7 9.7,9.7 h55.5 l-6.1,20.3 h-20.6 c-2.2,0 -4.1,1.8 -4.1,4.1 s1.8,4.1 4.1,4.1 h80.1 c2.2,0 4.1,-1.8 4.1,-4.1 s-1.8,-4.1 -4.1,-4.1 h-20.8 l-5.5,-20.3 h55.1 c5.3,0 9.7,-4.3 9.7,-9.7 v-7.5 v-5.1 h-76 V105.4000030517578 z" id="svg_9"/>
</g></g></svg>